G04 #@! TF.GenerationSoftware,KiCad,Pcbnew,(5.1.4)-1*
G04 #@! TF.CreationDate,2021-06-26T01:07:56+08:00*
G04 #@! TF.ProjectId,Split Keeb,53706c69-7420-44b6-9565-622e6b696361,rev?*
G04 #@! TF.SameCoordinates,Original*
G04 #@! TF.FileFunction,Paste,Bot*
G04 #@! TF.FilePolarity,Positive*
%FSLAX46Y46*%
G04 Gerber Fmt 4.6, Leading zero omitted, Abs format (unit mm)*
G04 Created by KiCad (PCBNEW (5.1.4)-1) date 2021-06-26 01:07:56*
%MOMM*%
%LPD*%
G04 APERTURE LIST*
%ADD10R,1.300000X0.950000*%
%ADD11C,0.950000*%
%ADD12C,0.100000*%
G04 APERTURE END LIST*
D10*
X138814000Y-147955000D03*
X142364000Y-147955000D03*
D11*
X118378639Y-150721506D03*
D12*
G36*
X117990283Y-151426704D02*
G01*
X117588795Y-150565712D01*
X118766995Y-150016308D01*
X119168483Y-150877300D01*
X117990283Y-151426704D01*
X117990283Y-151426704D01*
G37*
D11*
X121596031Y-149221212D03*
D12*
G36*
X121207675Y-149926410D02*
G01*
X120806187Y-149065418D01*
X121984387Y-148516014D01*
X122385875Y-149377006D01*
X121207675Y-149926410D01*
X121207675Y-149926410D01*
G37*
D11*
X86482334Y-155549967D03*
D12*
G36*
X85745972Y-155224550D02*
G01*
X86568696Y-154749550D01*
X87218696Y-155875384D01*
X86395972Y-156350384D01*
X85745972Y-155224550D01*
X85745972Y-155224550D01*
G37*
D11*
X88257334Y-158624357D03*
D12*
G36*
X87520972Y-158298940D02*
G01*
X88343696Y-157823940D01*
X88993696Y-158949774D01*
X88170972Y-159424774D01*
X87520972Y-158298940D01*
X87520972Y-158298940D01*
G37*
D10*
X208537000Y-130429000D03*
X212087000Y-130429000D03*
X189487000Y-130429000D03*
X193037000Y-130429000D03*
X170561000Y-125222000D03*
X174111000Y-125222000D03*
X151387000Y-122682000D03*
X154937000Y-122682000D03*
X132464000Y-125222000D03*
X136014000Y-125222000D03*
X113287000Y-127635000D03*
X116837000Y-127635000D03*
X208537000Y-111379000D03*
X212087000Y-111379000D03*
X189614000Y-111379000D03*
X193164000Y-111379000D03*
X170564000Y-106172000D03*
X174114000Y-106172000D03*
X151387000Y-103632000D03*
X154937000Y-103632000D03*
X132337000Y-106172000D03*
X135887000Y-106172000D03*
X113414000Y-108585000D03*
X116964000Y-108585000D03*
X208537000Y-92329000D03*
X212087000Y-92329000D03*
X189614000Y-92329000D03*
X193164000Y-92329000D03*
X170564000Y-87122000D03*
X174114000Y-87122000D03*
X151514000Y-84582000D03*
X155064000Y-84582000D03*
X132337000Y-87122000D03*
X135887000Y-87122000D03*
X113287000Y-89535000D03*
X116837000Y-89535000D03*
X208537000Y-73279000D03*
X212087000Y-73279000D03*
X189487000Y-73279000D03*
X193037000Y-73279000D03*
X170567000Y-68072000D03*
X174117000Y-68072000D03*
X151387000Y-65532000D03*
X154937000Y-65532000D03*
X132464000Y-68072000D03*
X136014000Y-68072000D03*
X113287000Y-70485000D03*
X116837000Y-70485000D03*
M02*
