G04 #@! TF.GenerationSoftware,KiCad,Pcbnew,(5.1.4)-1*
G04 #@! TF.CreationDate,2021-06-26T01:07:56+08:00*
G04 #@! TF.ProjectId,Split Keeb,53706c69-7420-44b6-9565-622e6b696361,rev?*
G04 #@! TF.SameCoordinates,Original*
G04 #@! TF.FileFunction,Copper,L2,Bot*
G04 #@! TF.FilePolarity,Positive*
%FSLAX46Y46*%
G04 Gerber Fmt 4.6, Leading zero omitted, Abs format (unit mm)*
G04 Created by KiCad (PCBNEW (5.1.4)-1) date 2021-06-26 01:07:56*
%MOMM*%
%LPD*%
G04 APERTURE LIST*
%ADD10C,2.286000*%
%ADD11R,3.500000X1.700000*%
%ADD12R,1.700000X1.700000*%
%ADD13R,1.700000X3.500000*%
%ADD14O,1.700000X1.700000*%
%ADD15C,0.100000*%
%ADD16C,1.750000*%
%ADD17C,2.000000*%
%ADD18C,1.300000*%
%ADD19C,1.500000*%
%ADD20C,4.400000*%
%ADD21C,1.397000*%
%ADD22R,1.397000X1.397000*%
%ADD23R,1.300000X0.950000*%
%ADD24C,0.950000*%
%ADD25C,0.800000*%
%ADD26C,0.250000*%
%ADD27C,0.400000*%
G04 APERTURE END LIST*
D10*
X136779000Y-136779000D03*
X143129000Y-134239000D03*
X138049000Y-134239000D03*
X144399000Y-136779000D03*
X111608143Y-141508070D03*
X116289747Y-136522422D03*
X111685703Y-138669323D03*
X118514208Y-138287719D03*
X95163705Y-148083471D03*
X100538409Y-152312733D03*
X97998409Y-147913323D03*
X98973705Y-154682585D03*
X206502000Y-119253000D03*
X212852000Y-116713000D03*
X207772000Y-116713000D03*
X214122000Y-119253000D03*
X187452000Y-119253000D03*
X193802000Y-116713000D03*
X188722000Y-116713000D03*
X195072000Y-119253000D03*
X168402000Y-114046000D03*
X174752000Y-111506000D03*
X169672000Y-111506000D03*
X176022000Y-114046000D03*
X149352000Y-111506000D03*
X155702000Y-108966000D03*
X150622000Y-108966000D03*
X156972000Y-111506000D03*
X130302000Y-114046000D03*
X136652000Y-111506000D03*
X131572000Y-111506000D03*
X137922000Y-114046000D03*
X111252000Y-116459000D03*
X117602000Y-113919000D03*
X112522000Y-113919000D03*
X118872000Y-116459000D03*
X206502000Y-100203000D03*
X212852000Y-97663000D03*
X207772000Y-97663000D03*
X214122000Y-100203000D03*
X187452000Y-100203000D03*
X193802000Y-97663000D03*
X188722000Y-97663000D03*
X195072000Y-100203000D03*
X168402000Y-94996000D03*
X174752000Y-92456000D03*
X169672000Y-92456000D03*
X176022000Y-94996000D03*
X149352000Y-92456000D03*
X155702000Y-89916000D03*
X150622000Y-89916000D03*
X156972000Y-92456000D03*
X130302000Y-94996000D03*
X136652000Y-92456000D03*
X131572000Y-92456000D03*
X137922000Y-94996000D03*
X111252000Y-97409000D03*
X117602000Y-94869000D03*
X112522000Y-94869000D03*
X118872000Y-97409000D03*
X206502000Y-81153000D03*
X212852000Y-78613000D03*
X207772000Y-78613000D03*
X214122000Y-81153000D03*
X187452000Y-81153000D03*
X193802000Y-78613000D03*
X188722000Y-78613000D03*
X195072000Y-81153000D03*
X168402000Y-75946000D03*
X174752000Y-73406000D03*
X169672000Y-73406000D03*
X176022000Y-75946000D03*
X149352000Y-73406000D03*
X155702000Y-70866000D03*
X150622000Y-70866000D03*
X156972000Y-73406000D03*
X130302000Y-75946000D03*
X136652000Y-73406000D03*
X131572000Y-73406000D03*
X137922000Y-75946000D03*
X111252000Y-78359000D03*
X117602000Y-75819000D03*
X112522000Y-75819000D03*
X118872000Y-78359000D03*
X206502000Y-62103000D03*
X212852000Y-59563000D03*
X207772000Y-59563000D03*
X214122000Y-62103000D03*
X187452000Y-62103000D03*
X193802000Y-59563000D03*
X188722000Y-59563000D03*
X195072000Y-62103000D03*
X168402000Y-56896000D03*
X174752000Y-54356000D03*
X169672000Y-54356000D03*
X176022000Y-56896000D03*
X149352000Y-54356000D03*
X155702000Y-51816000D03*
X150622000Y-51816000D03*
X156972000Y-54356000D03*
X130302000Y-56896000D03*
X136652000Y-54356000D03*
X131572000Y-54356000D03*
X137922000Y-56896000D03*
X111252000Y-59309000D03*
X117602000Y-56769000D03*
X112522000Y-56769000D03*
X118872000Y-59309000D03*
D11*
X77586000Y-61722000D03*
X77586000Y-99822000D03*
X97166000Y-84582000D03*
X97166000Y-82042000D03*
X97166000Y-79502000D03*
X97166000Y-76962000D03*
X77586000Y-97282000D03*
X77586000Y-82042000D03*
X77586000Y-56642000D03*
X97166000Y-99822000D03*
X97166000Y-74422000D03*
X77586000Y-66802000D03*
X77586000Y-59182000D03*
X97166000Y-71882000D03*
X77586000Y-89662000D03*
D12*
X87376000Y-99592000D03*
D11*
X77586000Y-69342000D03*
X97166000Y-66802000D03*
X97166000Y-64262000D03*
X77586000Y-51562000D03*
X97166000Y-61722000D03*
X97166000Y-59182000D03*
X77586000Y-94742000D03*
X97166000Y-56642000D03*
X97166000Y-89662000D03*
X77586000Y-64262000D03*
X77586000Y-92202000D03*
X97166000Y-97282000D03*
X97166000Y-94742000D03*
X77586000Y-79502000D03*
X77586000Y-87122000D03*
X97166000Y-87122000D03*
X97166000Y-69342000D03*
X97166000Y-54102000D03*
X97166000Y-51562000D03*
D13*
X87376000Y-100492000D03*
D14*
X78486000Y-51562000D03*
D11*
X77586000Y-54102000D03*
X77586000Y-76962000D03*
D14*
X78486000Y-54102000D03*
D12*
X78486000Y-56642000D03*
D11*
X77586000Y-74422000D03*
X77586000Y-71882000D03*
X97166000Y-92202000D03*
X77586000Y-84582000D03*
D14*
X78486000Y-97282000D03*
X96266000Y-54102000D03*
X78486000Y-59182000D03*
X78486000Y-64262000D03*
D12*
X78486000Y-69342000D03*
X78486000Y-94742000D03*
D14*
X96266000Y-66802000D03*
X78486000Y-79502000D03*
D12*
X96266000Y-56642000D03*
D14*
X96266000Y-64262000D03*
X78486000Y-87122000D03*
D15*
G36*
X88872382Y-50694107D02*
G01*
X88914852Y-50700406D01*
X88956500Y-50710839D01*
X88996924Y-50725303D01*
X89035736Y-50743659D01*
X89072562Y-50765732D01*
X89107047Y-50791308D01*
X89138859Y-50820141D01*
X89167692Y-50851953D01*
X89193268Y-50886438D01*
X89215341Y-50923264D01*
X89233697Y-50962076D01*
X89248161Y-51002500D01*
X89258594Y-51044148D01*
X89264893Y-51086618D01*
X89267000Y-51129500D01*
X89267000Y-52004500D01*
X89264893Y-52047382D01*
X89258594Y-52089852D01*
X89248161Y-52131500D01*
X89233697Y-52171924D01*
X89215341Y-52210736D01*
X89193268Y-52247562D01*
X89167692Y-52282047D01*
X89138859Y-52313859D01*
X89107047Y-52342692D01*
X89072562Y-52368268D01*
X89035736Y-52390341D01*
X88996924Y-52408697D01*
X88956500Y-52423161D01*
X88914852Y-52433594D01*
X88872382Y-52439893D01*
X88829500Y-52442000D01*
X87954500Y-52442000D01*
X87911618Y-52439893D01*
X87869148Y-52433594D01*
X87827500Y-52423161D01*
X87787076Y-52408697D01*
X87748264Y-52390341D01*
X87711438Y-52368268D01*
X87676953Y-52342692D01*
X87645141Y-52313859D01*
X87616308Y-52282047D01*
X87590732Y-52247562D01*
X87568659Y-52210736D01*
X87550303Y-52171924D01*
X87535839Y-52131500D01*
X87525406Y-52089852D01*
X87519107Y-52047382D01*
X87517000Y-52004500D01*
X87517000Y-51129500D01*
X87519107Y-51086618D01*
X87525406Y-51044148D01*
X87535839Y-51002500D01*
X87550303Y-50962076D01*
X87568659Y-50923264D01*
X87590732Y-50886438D01*
X87616308Y-50851953D01*
X87645141Y-50820141D01*
X87676953Y-50791308D01*
X87711438Y-50765732D01*
X87748264Y-50743659D01*
X87787076Y-50725303D01*
X87827500Y-50710839D01*
X87869148Y-50700406D01*
X87911618Y-50694107D01*
X87954500Y-50692000D01*
X88829500Y-50692000D01*
X88872382Y-50694107D01*
X88872382Y-50694107D01*
G37*
D16*
X88392000Y-51567000D03*
D15*
G36*
X86840382Y-50694107D02*
G01*
X86882852Y-50700406D01*
X86924500Y-50710839D01*
X86964924Y-50725303D01*
X87003736Y-50743659D01*
X87040562Y-50765732D01*
X87075047Y-50791308D01*
X87106859Y-50820141D01*
X87135692Y-50851953D01*
X87161268Y-50886438D01*
X87183341Y-50923264D01*
X87201697Y-50962076D01*
X87216161Y-51002500D01*
X87226594Y-51044148D01*
X87232893Y-51086618D01*
X87235000Y-51129500D01*
X87235000Y-52004500D01*
X87232893Y-52047382D01*
X87226594Y-52089852D01*
X87216161Y-52131500D01*
X87201697Y-52171924D01*
X87183341Y-52210736D01*
X87161268Y-52247562D01*
X87135692Y-52282047D01*
X87106859Y-52313859D01*
X87075047Y-52342692D01*
X87040562Y-52368268D01*
X87003736Y-52390341D01*
X86964924Y-52408697D01*
X86924500Y-52423161D01*
X86882852Y-52433594D01*
X86840382Y-52439893D01*
X86797500Y-52442000D01*
X85922500Y-52442000D01*
X85879618Y-52439893D01*
X85837148Y-52433594D01*
X85795500Y-52423161D01*
X85755076Y-52408697D01*
X85716264Y-52390341D01*
X85679438Y-52368268D01*
X85644953Y-52342692D01*
X85613141Y-52313859D01*
X85584308Y-52282047D01*
X85558732Y-52247562D01*
X85536659Y-52210736D01*
X85518303Y-52171924D01*
X85503839Y-52131500D01*
X85493406Y-52089852D01*
X85487107Y-52047382D01*
X85485000Y-52004500D01*
X85485000Y-51129500D01*
X85487107Y-51086618D01*
X85493406Y-51044148D01*
X85503839Y-51002500D01*
X85518303Y-50962076D01*
X85536659Y-50923264D01*
X85558732Y-50886438D01*
X85584308Y-50851953D01*
X85613141Y-50820141D01*
X85644953Y-50791308D01*
X85679438Y-50765732D01*
X85716264Y-50743659D01*
X85755076Y-50725303D01*
X85795500Y-50710839D01*
X85837148Y-50700406D01*
X85879618Y-50694107D01*
X85922500Y-50692000D01*
X86797500Y-50692000D01*
X86840382Y-50694107D01*
X86840382Y-50694107D01*
G37*
D16*
X86360000Y-51567000D03*
D14*
X96266000Y-59182000D03*
X96266000Y-76962000D03*
X96266000Y-87122000D03*
X78486000Y-89662000D03*
X78486000Y-71882000D03*
X78486000Y-99822000D03*
X96266000Y-74422000D03*
X78486000Y-74422000D03*
X78486000Y-76962000D03*
D12*
X78486000Y-82042000D03*
D14*
X96266000Y-84582000D03*
X96266000Y-89662000D03*
X78486000Y-66802000D03*
D12*
X96266000Y-82042000D03*
D14*
X96266000Y-99822000D03*
X96266000Y-79502000D03*
X96266000Y-71882000D03*
X96266000Y-61722000D03*
D12*
X96266000Y-69342000D03*
X96266000Y-94742000D03*
D14*
X96266000Y-51562000D03*
X96266000Y-92202000D03*
X78486000Y-84582000D03*
X96266000Y-97282000D03*
D15*
G36*
X87856382Y-53469107D02*
G01*
X87898852Y-53475406D01*
X87940500Y-53485839D01*
X87980924Y-53500303D01*
X88019736Y-53518659D01*
X88056562Y-53540732D01*
X88091047Y-53566308D01*
X88122859Y-53595141D01*
X88151692Y-53626953D01*
X88177268Y-53661438D01*
X88199341Y-53698264D01*
X88217697Y-53737076D01*
X88232161Y-53777500D01*
X88242594Y-53819148D01*
X88248893Y-53861618D01*
X88251000Y-53904500D01*
X88251000Y-54779500D01*
X88248893Y-54822382D01*
X88242594Y-54864852D01*
X88232161Y-54906500D01*
X88217697Y-54946924D01*
X88199341Y-54985736D01*
X88177268Y-55022562D01*
X88151692Y-55057047D01*
X88122859Y-55088859D01*
X88091047Y-55117692D01*
X88056562Y-55143268D01*
X88019736Y-55165341D01*
X87980924Y-55183697D01*
X87940500Y-55198161D01*
X87898852Y-55208594D01*
X87856382Y-55214893D01*
X87813500Y-55217000D01*
X86938500Y-55217000D01*
X86895618Y-55214893D01*
X86853148Y-55208594D01*
X86811500Y-55198161D01*
X86771076Y-55183697D01*
X86732264Y-55165341D01*
X86695438Y-55143268D01*
X86660953Y-55117692D01*
X86629141Y-55088859D01*
X86600308Y-55057047D01*
X86574732Y-55022562D01*
X86552659Y-54985736D01*
X86534303Y-54946924D01*
X86519839Y-54906500D01*
X86509406Y-54864852D01*
X86503107Y-54822382D01*
X86501000Y-54779500D01*
X86501000Y-53904500D01*
X86503107Y-53861618D01*
X86509406Y-53819148D01*
X86519839Y-53777500D01*
X86534303Y-53737076D01*
X86552659Y-53698264D01*
X86574732Y-53661438D01*
X86600308Y-53626953D01*
X86629141Y-53595141D01*
X86660953Y-53566308D01*
X86695438Y-53540732D01*
X86732264Y-53518659D01*
X86771076Y-53500303D01*
X86811500Y-53485839D01*
X86853148Y-53475406D01*
X86895618Y-53469107D01*
X86938500Y-53467000D01*
X87813500Y-53467000D01*
X87856382Y-53469107D01*
X87856382Y-53469107D01*
G37*
D16*
X87376000Y-54342000D03*
D14*
X78486000Y-61722000D03*
X78486000Y-92202000D03*
X74676000Y-51562000D03*
X74676000Y-54102000D03*
D12*
X74676000Y-56642000D03*
D14*
X74676000Y-59182000D03*
X74676000Y-61722000D03*
X74676000Y-64262000D03*
X74676000Y-66802000D03*
D12*
X74676000Y-69342000D03*
D14*
X74676000Y-71882000D03*
X74676000Y-74422000D03*
X74676000Y-76962000D03*
X74676000Y-79502000D03*
D12*
X74676000Y-82042000D03*
D14*
X74676000Y-84582000D03*
X74676000Y-87122000D03*
X74676000Y-89662000D03*
X74676000Y-92202000D03*
D12*
X74676000Y-94742000D03*
D14*
X74676000Y-97282000D03*
X74676000Y-99822000D03*
X92456000Y-99822000D03*
X92456000Y-97282000D03*
D12*
X92456000Y-94742000D03*
D14*
X92456000Y-92202000D03*
X92456000Y-89662000D03*
X92456000Y-87122000D03*
X92456000Y-84582000D03*
D12*
X92456000Y-82042000D03*
D14*
X92456000Y-79502000D03*
X92456000Y-76962000D03*
X92456000Y-74422000D03*
X92456000Y-71882000D03*
D12*
X92456000Y-69342000D03*
D14*
X92456000Y-66802000D03*
X92456000Y-64262000D03*
X92456000Y-61722000D03*
X92456000Y-59182000D03*
D12*
X92456000Y-56642000D03*
D14*
X92456000Y-54102000D03*
X92456000Y-51562000D03*
D12*
X83566000Y-99592000D03*
D14*
X103759000Y-66675000D03*
X103759000Y-64135000D03*
X103759000Y-61595000D03*
D12*
X103759000Y-59055000D03*
D17*
X91925000Y-116840000D03*
X91925000Y-112340000D03*
X98425000Y-116840000D03*
X98425000Y-112340000D03*
D14*
X103124000Y-131699000D03*
X103124000Y-129159000D03*
X103124000Y-126619000D03*
D12*
X103124000Y-124079000D03*
D18*
X78915000Y-114554000D03*
D19*
X73215000Y-117804000D03*
X73215000Y-111304000D03*
X81915000Y-114554000D03*
X81415000Y-117304000D03*
X81415000Y-111804000D03*
D18*
X71915000Y-114554000D03*
D20*
X214884000Y-53721000D03*
X127127000Y-134493000D03*
X162179000Y-104521000D03*
X200914000Y-133096000D03*
X79756000Y-139192000D03*
X104394000Y-52451000D03*
D21*
X144399000Y-147955000D03*
D22*
X136779000Y-147955000D03*
D23*
X138814000Y-147955000D03*
X142364000Y-147955000D03*
D21*
X123440368Y-148361183D03*
X116534302Y-151581535D03*
D15*
G36*
X116196445Y-152509790D02*
G01*
X115606047Y-151243678D01*
X116872159Y-150653280D01*
X117462557Y-151919392D01*
X116196445Y-152509790D01*
X116196445Y-152509790D01*
G37*
D24*
X118378639Y-150721506D03*
D15*
G36*
X117990283Y-151426704D02*
G01*
X117588795Y-150565712D01*
X118766995Y-150016308D01*
X119168483Y-150877300D01*
X117990283Y-151426704D01*
X117990283Y-151426704D01*
G37*
D24*
X121596031Y-149221212D03*
D15*
G36*
X121207675Y-149926410D02*
G01*
X120806187Y-149065418D01*
X121984387Y-148516014D01*
X122385875Y-149377006D01*
X121207675Y-149926410D01*
X121207675Y-149926410D01*
G37*
D21*
X89274834Y-160386719D03*
X85464834Y-153787605D03*
D15*
G36*
X84510665Y-153531936D02*
G01*
X85720503Y-152833436D01*
X86419003Y-154043274D01*
X85209165Y-154741774D01*
X84510665Y-153531936D01*
X84510665Y-153531936D01*
G37*
D24*
X86482334Y-155549967D03*
D15*
G36*
X85745972Y-155224550D02*
G01*
X86568696Y-154749550D01*
X87218696Y-155875384D01*
X86395972Y-156350384D01*
X85745972Y-155224550D01*
X85745972Y-155224550D01*
G37*
D24*
X88257334Y-158624357D03*
D15*
G36*
X87520972Y-158298940D02*
G01*
X88343696Y-157823940D01*
X88993696Y-158949774D01*
X88170972Y-159424774D01*
X87520972Y-158298940D01*
X87520972Y-158298940D01*
G37*
D21*
X214122000Y-130429000D03*
D22*
X206502000Y-130429000D03*
D23*
X208537000Y-130429000D03*
X212087000Y-130429000D03*
D21*
X195072000Y-130429000D03*
D22*
X187452000Y-130429000D03*
D23*
X189487000Y-130429000D03*
X193037000Y-130429000D03*
D21*
X176146000Y-125222000D03*
D22*
X168526000Y-125222000D03*
D23*
X170561000Y-125222000D03*
X174111000Y-125222000D03*
D21*
X156972000Y-122682000D03*
D22*
X149352000Y-122682000D03*
D23*
X151387000Y-122682000D03*
X154937000Y-122682000D03*
D21*
X138049000Y-125222000D03*
D22*
X130429000Y-125222000D03*
D23*
X132464000Y-125222000D03*
X136014000Y-125222000D03*
D21*
X118872000Y-127635000D03*
D22*
X111252000Y-127635000D03*
D23*
X113287000Y-127635000D03*
X116837000Y-127635000D03*
D21*
X214122000Y-111379000D03*
D22*
X206502000Y-111379000D03*
D23*
X208537000Y-111379000D03*
X212087000Y-111379000D03*
D21*
X195199000Y-111379000D03*
D22*
X187579000Y-111379000D03*
D23*
X189614000Y-111379000D03*
X193164000Y-111379000D03*
D21*
X176149000Y-106172000D03*
D22*
X168529000Y-106172000D03*
D23*
X170564000Y-106172000D03*
X174114000Y-106172000D03*
D21*
X156972000Y-103632000D03*
D22*
X149352000Y-103632000D03*
D23*
X151387000Y-103632000D03*
X154937000Y-103632000D03*
D21*
X137922000Y-106172000D03*
D22*
X130302000Y-106172000D03*
D23*
X132337000Y-106172000D03*
X135887000Y-106172000D03*
D21*
X118999000Y-108585000D03*
D22*
X111379000Y-108585000D03*
D23*
X113414000Y-108585000D03*
X116964000Y-108585000D03*
D21*
X214122000Y-92329000D03*
D22*
X206502000Y-92329000D03*
D23*
X208537000Y-92329000D03*
X212087000Y-92329000D03*
D21*
X195199000Y-92329000D03*
D22*
X187579000Y-92329000D03*
D23*
X189614000Y-92329000D03*
X193164000Y-92329000D03*
D21*
X176149000Y-87122000D03*
D22*
X168529000Y-87122000D03*
D23*
X170564000Y-87122000D03*
X174114000Y-87122000D03*
D21*
X157099000Y-84582000D03*
D22*
X149479000Y-84582000D03*
D23*
X151514000Y-84582000D03*
X155064000Y-84582000D03*
D21*
X137922000Y-87122000D03*
D22*
X130302000Y-87122000D03*
D23*
X132337000Y-87122000D03*
X135887000Y-87122000D03*
D21*
X118872000Y-89535000D03*
D22*
X111252000Y-89535000D03*
D23*
X113287000Y-89535000D03*
X116837000Y-89535000D03*
D21*
X214122000Y-73279000D03*
D22*
X206502000Y-73279000D03*
D23*
X208537000Y-73279000D03*
X212087000Y-73279000D03*
D21*
X195072000Y-73279000D03*
D22*
X187452000Y-73279000D03*
D23*
X189487000Y-73279000D03*
X193037000Y-73279000D03*
D21*
X176152000Y-68072000D03*
D22*
X168532000Y-68072000D03*
D23*
X170567000Y-68072000D03*
X174117000Y-68072000D03*
D21*
X156972000Y-65532000D03*
D22*
X149352000Y-65532000D03*
D23*
X151387000Y-65532000D03*
X154937000Y-65532000D03*
D21*
X138049000Y-68072000D03*
D22*
X130429000Y-68072000D03*
D23*
X132464000Y-68072000D03*
X136014000Y-68072000D03*
D21*
X118872000Y-70485000D03*
D22*
X111252000Y-70485000D03*
D23*
X113287000Y-70485000D03*
X116837000Y-70485000D03*
D25*
X99568000Y-74549000D03*
X106172000Y-108585000D03*
X105410000Y-127635000D03*
X90297000Y-149860000D03*
X85979000Y-55753000D03*
X100748000Y-55626000D03*
X89916000Y-51562000D03*
X80716704Y-51823599D03*
X111252000Y-83439000D03*
X130302000Y-83376998D03*
X149352000Y-82169000D03*
X167640000Y-92837000D03*
X186690000Y-97917000D03*
X201168000Y-105791000D03*
X81026000Y-53340000D03*
D26*
X118872000Y-70485000D02*
X116837000Y-70485000D01*
X208537000Y-73279000D02*
X206502000Y-73279000D01*
X205553500Y-73279000D02*
X203775500Y-75057000D01*
X206502000Y-73279000D02*
X205553500Y-73279000D01*
X190387000Y-73279000D02*
X189487000Y-73279000D01*
X192165000Y-75057000D02*
X190387000Y-73279000D01*
X203775500Y-75057000D02*
X192165000Y-75057000D01*
X189487000Y-73279000D02*
X187452000Y-73279000D01*
X187452000Y-73279000D02*
X184531000Y-73279000D01*
X184531000Y-73279000D02*
X180975000Y-69723000D01*
X171467000Y-68072000D02*
X170567000Y-68072000D01*
X173118000Y-69723000D02*
X171467000Y-68072000D01*
X180975000Y-69723000D02*
X173118000Y-69723000D01*
X170567000Y-68072000D02*
X168532000Y-68072000D01*
X151387000Y-65532000D02*
X149352000Y-65532000D01*
X167583500Y-68072000D02*
X166948500Y-67437000D01*
X168532000Y-68072000D02*
X167583500Y-68072000D01*
X152287000Y-65532000D02*
X151387000Y-65532000D01*
X154192000Y-67437000D02*
X152287000Y-65532000D01*
X166948500Y-67437000D02*
X154192000Y-67437000D01*
X130429000Y-68072000D02*
X132464000Y-68072000D01*
X148403500Y-65532000D02*
X143831500Y-70104000D01*
X149352000Y-65532000D02*
X148403500Y-65532000D01*
X133364000Y-68072000D02*
X132464000Y-68072000D01*
X135396000Y-70104000D02*
X133364000Y-68072000D01*
X143831500Y-70104000D02*
X135396000Y-70104000D01*
X113287000Y-70485000D02*
X111252000Y-70485000D01*
X130429000Y-68072000D02*
X129480500Y-68072000D01*
X114187000Y-70485000D02*
X113287000Y-70485000D01*
X115965000Y-72263000D02*
X114187000Y-70485000D01*
X125289500Y-72263000D02*
X115965000Y-72263000D01*
X129480500Y-68072000D02*
X125289500Y-72263000D01*
X111252000Y-70485000D02*
X103632000Y-70485000D01*
X103632000Y-70485000D02*
X99568000Y-74549000D01*
X94359590Y-87122000D02*
X96266000Y-87122000D01*
X93184589Y-88297001D02*
X94359590Y-87122000D01*
X75575999Y-88297001D02*
X93184589Y-88297001D01*
X74676000Y-87397002D02*
X75575999Y-88297001D01*
X74676000Y-87122000D02*
X74676000Y-87397002D01*
X136014000Y-68072000D02*
X138049000Y-68072000D01*
X156972000Y-65532000D02*
X154937000Y-65532000D01*
X174117000Y-68072000D02*
X176152000Y-68072000D01*
X195072000Y-73279000D02*
X193037000Y-73279000D01*
X212087000Y-73279000D02*
X214122000Y-73279000D01*
X116837000Y-89535000D02*
X118872000Y-89535000D01*
X208537000Y-92329000D02*
X206502000Y-92329000D01*
X205553500Y-92329000D02*
X203902500Y-93980000D01*
X206502000Y-92329000D02*
X205553500Y-92329000D01*
X190514000Y-92329000D02*
X189614000Y-92329000D01*
X192165000Y-93980000D02*
X190514000Y-92329000D01*
X203902500Y-93980000D02*
X192165000Y-93980000D01*
X189614000Y-92329000D02*
X187579000Y-92329000D01*
X187579000Y-92329000D02*
X184658000Y-92329000D01*
X184658000Y-92329000D02*
X181483000Y-89154000D01*
X171464000Y-87122000D02*
X170564000Y-87122000D01*
X173496000Y-89154000D02*
X171464000Y-87122000D01*
X181483000Y-89154000D02*
X173496000Y-89154000D01*
X170564000Y-87122000D02*
X168529000Y-87122000D01*
X151514000Y-84582000D02*
X149479000Y-84582000D01*
X168529000Y-87122000D02*
X162687000Y-87122000D01*
X162687000Y-87122000D02*
X161925000Y-86360000D01*
X152414000Y-84582000D02*
X151514000Y-84582000D01*
X154192000Y-86360000D02*
X152414000Y-84582000D01*
X161925000Y-86360000D02*
X154192000Y-86360000D01*
X130302000Y-87122000D02*
X132337000Y-87122000D01*
X133237000Y-87122000D02*
X132337000Y-87122000D01*
X134260501Y-88145501D02*
X133237000Y-87122000D01*
X144966999Y-88145501D02*
X134260501Y-88145501D01*
X148530500Y-84582000D02*
X144966999Y-88145501D01*
X149479000Y-84582000D02*
X148530500Y-84582000D01*
X111252000Y-89535000D02*
X113287000Y-89535000D01*
X114187000Y-89535000D02*
X113287000Y-89535000D01*
X115210501Y-90558501D02*
X114187000Y-89535000D01*
X125916999Y-90558501D02*
X115210501Y-90558501D01*
X129353500Y-87122000D02*
X125916999Y-90558501D01*
X130302000Y-87122000D02*
X129353500Y-87122000D01*
X96393000Y-89535000D02*
X96266000Y-89662000D01*
X111252000Y-89535000D02*
X96393000Y-89535000D01*
X74676000Y-89937002D02*
X74676000Y-89662000D01*
X75575999Y-90837001D02*
X74676000Y-89937002D01*
X93184589Y-90837001D02*
X75575999Y-90837001D01*
X94359590Y-89662000D02*
X93184589Y-90837001D01*
X96266000Y-89662000D02*
X94359590Y-89662000D01*
X135887000Y-87122000D02*
X137922000Y-87122000D01*
X155064000Y-84582000D02*
X157099000Y-84582000D01*
X176149000Y-87122000D02*
X174114000Y-87122000D01*
X193164000Y-92329000D02*
X195199000Y-92329000D01*
X212087000Y-92329000D02*
X214122000Y-92329000D01*
X118999000Y-108585000D02*
X116964000Y-108585000D01*
X208537000Y-111379000D02*
X206502000Y-111379000D01*
X190514000Y-111379000D02*
X189614000Y-111379000D01*
X191537501Y-112402501D02*
X190514000Y-111379000D01*
X204529999Y-112402501D02*
X191537501Y-112402501D01*
X205553500Y-111379000D02*
X204529999Y-112402501D01*
X206502000Y-111379000D02*
X205553500Y-111379000D01*
X189614000Y-111379000D02*
X187579000Y-111379000D01*
X187579000Y-111379000D02*
X184658000Y-111379000D01*
X184658000Y-111379000D02*
X180975000Y-107696000D01*
X171464000Y-106172000D02*
X170564000Y-106172000D01*
X172988000Y-107696000D02*
X171464000Y-106172000D01*
X180975000Y-107696000D02*
X172988000Y-107696000D01*
X170564000Y-106172000D02*
X168529000Y-106172000D01*
X151387000Y-103632000D02*
X149352000Y-103632000D01*
X152287000Y-103632000D02*
X151387000Y-103632000D01*
X155701001Y-107046001D02*
X152287000Y-103632000D01*
X166706499Y-107046001D02*
X155701001Y-107046001D01*
X167580500Y-106172000D02*
X166706499Y-107046001D01*
X168529000Y-106172000D02*
X167580500Y-106172000D01*
X132337000Y-106172000D02*
X130302000Y-106172000D01*
X133237000Y-106172000D02*
X132337000Y-106172000D01*
X134260501Y-107195501D02*
X133237000Y-106172000D01*
X144839999Y-107195501D02*
X134260501Y-107195501D01*
X148403500Y-103632000D02*
X144839999Y-107195501D01*
X149352000Y-103632000D02*
X148403500Y-103632000D01*
X114314000Y-108585000D02*
X113414000Y-108585000D01*
X115337501Y-109608501D02*
X114314000Y-108585000D01*
X119490281Y-109608501D02*
X115337501Y-109608501D01*
X122926782Y-106172000D02*
X119490281Y-109608501D01*
X130302000Y-106172000D02*
X122926782Y-106172000D01*
X113414000Y-108585000D02*
X111379000Y-108585000D01*
X111379000Y-108585000D02*
X106172000Y-108585000D01*
X95090999Y-93377001D02*
X96266000Y-92202000D01*
X75575999Y-93377001D02*
X95090999Y-93377001D01*
X74676000Y-92477002D02*
X75575999Y-93377001D01*
X74676000Y-92202000D02*
X74676000Y-92477002D01*
X137922000Y-106172000D02*
X135887000Y-106172000D01*
X156972000Y-103632000D02*
X154937000Y-103632000D01*
X174114000Y-106172000D02*
X176149000Y-106172000D01*
X195199000Y-111379000D02*
X193164000Y-111379000D01*
X212087000Y-111379000D02*
X214122000Y-111379000D01*
X116837000Y-127635000D02*
X118872000Y-127635000D01*
X208537000Y-130429000D02*
X206502000Y-130429000D01*
X206502000Y-130429000D02*
X198628000Y-130429000D01*
X190387000Y-130429000D02*
X189487000Y-130429000D01*
X191911000Y-131953000D02*
X190387000Y-130429000D01*
X197104000Y-131953000D02*
X191911000Y-131953000D01*
X198628000Y-130429000D02*
X197104000Y-131953000D01*
X189487000Y-130429000D02*
X187452000Y-130429000D01*
X187452000Y-130429000D02*
X185547000Y-130429000D01*
X171461000Y-125222000D02*
X170561000Y-125222000D01*
X172484501Y-126245501D02*
X171461000Y-125222000D01*
X181363501Y-126245501D02*
X172484501Y-126245501D01*
X185547000Y-130429000D02*
X181363501Y-126245501D01*
X170561000Y-125222000D02*
X168526000Y-125222000D01*
X151387000Y-122682000D02*
X149352000Y-122682000D01*
X152287000Y-122682000D02*
X151387000Y-122682000D01*
X154827000Y-125222000D02*
X152287000Y-122682000D01*
X168526000Y-125222000D02*
X154827000Y-125222000D01*
X132464000Y-125222000D02*
X130429000Y-125222000D01*
X133364000Y-125222000D02*
X132464000Y-125222000D01*
X134387501Y-126245501D02*
X133364000Y-125222000D01*
X146736999Y-126245501D02*
X134387501Y-126245501D01*
X149352000Y-123630500D02*
X146736999Y-126245501D01*
X149352000Y-122682000D02*
X149352000Y-123630500D01*
X114187000Y-127635000D02*
X113287000Y-127635000D01*
X115210501Y-128658501D02*
X114187000Y-127635000D01*
X126043999Y-128658501D02*
X115210501Y-128658501D01*
X129480500Y-125222000D02*
X126043999Y-128658501D01*
X130429000Y-125222000D02*
X129480500Y-125222000D01*
X111252000Y-127635000D02*
X105410000Y-127635000D01*
X94359590Y-97282000D02*
X96266000Y-97282000D01*
X91891999Y-98457001D02*
X93184589Y-98457001D01*
X91351998Y-97917000D02*
X91891999Y-98457001D01*
X82955998Y-97917000D02*
X91351998Y-97917000D01*
X82415997Y-98457001D02*
X82955998Y-97917000D01*
X93184589Y-98457001D02*
X94359590Y-97282000D01*
X75575999Y-98457001D02*
X82415997Y-98457001D01*
X74676000Y-97557002D02*
X75575999Y-98457001D01*
X74676000Y-97282000D02*
X74676000Y-97557002D01*
X113287000Y-127635000D02*
X111252000Y-127635000D01*
X138049000Y-125222000D02*
X136014000Y-125222000D01*
X154937000Y-122682000D02*
X156972000Y-122682000D01*
X174111000Y-125222000D02*
X176146000Y-125222000D01*
X195072000Y-130429000D02*
X193037000Y-130429000D01*
X212087000Y-130429000D02*
X214122000Y-130429000D01*
X88257334Y-159369219D02*
X89274834Y-160386719D01*
X88257334Y-158624357D02*
X88257334Y-159369219D01*
X136779000Y-147955000D02*
X138814000Y-147955000D01*
X117518610Y-151581535D02*
X118378639Y-150721506D01*
X116534302Y-151581535D02*
X117518610Y-151581535D01*
X85464834Y-154532467D02*
X86482334Y-155549967D01*
X85464834Y-153787605D02*
X85464834Y-154532467D01*
X115937980Y-150985213D02*
X116534302Y-151581535D01*
X114812767Y-149860000D02*
X115937980Y-150985213D01*
X92172301Y-149860000D02*
X114812767Y-149860000D01*
X86482334Y-155549967D02*
X92172301Y-149860000D01*
X135830500Y-147955000D02*
X136779000Y-147955000D01*
X135213182Y-147337682D02*
X135830500Y-147955000D01*
X121138359Y-147337682D02*
X135213182Y-147337682D01*
X118378639Y-150097402D02*
X121138359Y-147337682D01*
X118378639Y-150721506D02*
X118378639Y-150097402D01*
X92172301Y-149860000D02*
X90297000Y-149860000D01*
X93070989Y-103017011D02*
X96266000Y-99822000D01*
X76668930Y-103017011D02*
X93070989Y-103017011D01*
X74676000Y-101024081D02*
X76668930Y-103017011D01*
X74676000Y-99822000D02*
X74676000Y-101024081D01*
X122580339Y-149221212D02*
X123440368Y-148361183D01*
X121596031Y-149221212D02*
X122580339Y-149221212D01*
X142364000Y-147955000D02*
X144399000Y-147955000D01*
D27*
X79756010Y-50291990D02*
X78486000Y-51562000D01*
X89829992Y-50291990D02*
X79756010Y-50291990D01*
X91100002Y-51562000D02*
X89829992Y-50291990D01*
X92456000Y-51562000D02*
X91100002Y-51562000D01*
X91925000Y-112340000D02*
X98425000Y-112340000D01*
X91389000Y-111804000D02*
X91925000Y-112340000D01*
X81415000Y-111804000D02*
X91389000Y-111804000D01*
X96266000Y-94742000D02*
X92456000Y-94742000D01*
X78486000Y-94742000D02*
X74676000Y-94742000D01*
X74676000Y-82042000D02*
X78486000Y-82042000D01*
X92456000Y-82042000D02*
X96266000Y-82042000D01*
X74676000Y-56642000D02*
X78486000Y-56642000D01*
X92456000Y-56642000D02*
X96266000Y-56642000D01*
X89676000Y-56642000D02*
X87376000Y-54342000D01*
X92456000Y-56642000D02*
X89676000Y-56642000D01*
X87376000Y-54342000D02*
X87376000Y-54356000D01*
X87376000Y-54356000D02*
X85979000Y-55753000D01*
X100096000Y-56642000D02*
X96266000Y-56642000D01*
X102509000Y-59055000D02*
X100096000Y-56642000D01*
X103759000Y-59055000D02*
X102509000Y-59055000D01*
X102509000Y-59055000D02*
X101854000Y-59055000D01*
X101854000Y-59055000D02*
X101219000Y-59690000D01*
X97946002Y-69342000D02*
X96266000Y-69342000D01*
X101219000Y-66069002D02*
X97946002Y-69342000D01*
X101219000Y-59690000D02*
X101219000Y-66069002D01*
X91206000Y-82042000D02*
X78486000Y-82042000D01*
X92456000Y-82042000D02*
X91206000Y-82042000D01*
X91206000Y-94742000D02*
X78486000Y-94742000D01*
X92456000Y-94742000D02*
X91206000Y-94742000D01*
D26*
X78486000Y-59182000D02*
X92456000Y-59182000D01*
X78486000Y-61722000D02*
X92456000Y-61722000D01*
X78486000Y-66802000D02*
X92456000Y-66802000D01*
X94195002Y-84582000D02*
X96266000Y-84582000D01*
X93020001Y-85757001D02*
X94195002Y-84582000D01*
X75575999Y-85757001D02*
X93020001Y-85757001D01*
X74676000Y-84857002D02*
X75575999Y-85757001D01*
X74676000Y-84582000D02*
X74676000Y-84857002D01*
X78486000Y-64262000D02*
X92456000Y-64262000D01*
X78486000Y-69342000D02*
X92456000Y-69342000D01*
X78486000Y-71882000D02*
X92456000Y-71882000D01*
X78486000Y-74422000D02*
X92456000Y-74422000D01*
X91925000Y-116840000D02*
X98425000Y-116840000D01*
X78486000Y-76962000D02*
X92456000Y-76962000D01*
X78486000Y-79502000D02*
X92456000Y-79502000D01*
X95090999Y-78326999D02*
X96266000Y-79502000D01*
X75575999Y-78326999D02*
X95090999Y-78326999D01*
X74676000Y-79226998D02*
X75575999Y-78326999D01*
X74676000Y-79502000D02*
X74676000Y-79226998D01*
X95090999Y-63086999D02*
X96266000Y-64262000D01*
X75575999Y-63086999D02*
X95090999Y-63086999D01*
X74676000Y-63986998D02*
X75575999Y-63086999D01*
X74676000Y-64262000D02*
X74676000Y-63986998D01*
X95090999Y-58006999D02*
X96266000Y-59182000D01*
X75575999Y-58006999D02*
X95090999Y-58006999D01*
X74676000Y-58906998D02*
X75575999Y-58006999D01*
X74676000Y-59182000D02*
X74676000Y-58906998D01*
X95090999Y-75786999D02*
X96266000Y-76962000D01*
X75575999Y-75786999D02*
X95090999Y-75786999D01*
X74676000Y-76686998D02*
X75575999Y-75786999D01*
X74676000Y-76962000D02*
X74676000Y-76686998D01*
X95090999Y-73246999D02*
X96266000Y-74422000D01*
X75575999Y-73246999D02*
X95090999Y-73246999D01*
X74676000Y-74146998D02*
X75575999Y-73246999D01*
X74676000Y-74422000D02*
X74676000Y-74146998D01*
X95090999Y-70706999D02*
X96266000Y-71882000D01*
X75575999Y-70706999D02*
X95090999Y-70706999D01*
X74676000Y-71606998D02*
X75575999Y-70706999D01*
X74676000Y-71882000D02*
X74676000Y-71606998D01*
X95090999Y-65626999D02*
X96266000Y-66802000D01*
X75575999Y-65626999D02*
X95090999Y-65626999D01*
X74676000Y-66526998D02*
X75575999Y-65626999D01*
X74676000Y-66802000D02*
X74676000Y-66526998D01*
X89209569Y-52384569D02*
X88392000Y-51567000D01*
X89562001Y-52737001D02*
X89209569Y-52384569D01*
X99854001Y-52737001D02*
X89562001Y-52737001D01*
X101147999Y-54030999D02*
X99854001Y-52737001D01*
X101147999Y-55226001D02*
X101147999Y-54030999D01*
X100748000Y-55626000D02*
X101147999Y-55226001D01*
X88392000Y-51567000D02*
X89911000Y-51567000D01*
X89911000Y-51567000D02*
X89916000Y-51562000D01*
X86360000Y-51567000D02*
X80973303Y-51567000D01*
X80973303Y-51567000D02*
X80716704Y-51823599D01*
X93305999Y-83732001D02*
X92456000Y-84582000D01*
X93631001Y-83406999D02*
X93305999Y-83732001D01*
X99176001Y-83406999D02*
X93631001Y-83406999D01*
X99208002Y-83439000D02*
X99176001Y-83406999D01*
X111252000Y-83439000D02*
X99208002Y-83439000D01*
X78486000Y-84582000D02*
X92456000Y-84582000D01*
X112387004Y-83376998D02*
X111600001Y-84164001D01*
X130302000Y-83376998D02*
X112387004Y-83376998D01*
X111600001Y-84164001D02*
X106208999Y-84164001D01*
X93305999Y-86272001D02*
X92456000Y-87122000D01*
X93820999Y-85757001D02*
X93305999Y-86272001D01*
X104615999Y-85757001D02*
X93820999Y-85757001D01*
X106208999Y-84164001D02*
X104615999Y-85757001D01*
X78486000Y-87122000D02*
X92456000Y-87122000D01*
X146853316Y-84101999D02*
X112298413Y-84101999D01*
X149352000Y-82169000D02*
X148786315Y-82169000D01*
X148786315Y-82169000D02*
X146853316Y-84101999D01*
X112298413Y-84101999D02*
X111691412Y-84709000D01*
X111691412Y-84709000D02*
X106300410Y-84709000D01*
X93305999Y-88812001D02*
X92456000Y-89662000D01*
X93631001Y-88486999D02*
X93305999Y-88812001D01*
X102522411Y-88486999D02*
X93631001Y-88486999D01*
X106300410Y-84709000D02*
X102522411Y-88486999D01*
X78486000Y-89662000D02*
X92456000Y-89662000D01*
X163162099Y-97314901D02*
X148557099Y-97314901D01*
X167640000Y-92837000D02*
X163162099Y-97314901D01*
X146017099Y-99854901D02*
X126524901Y-99854901D01*
X148557099Y-97314901D02*
X146017099Y-99854901D01*
X126524901Y-99854901D02*
X117729000Y-91059000D01*
X93305999Y-91352001D02*
X92456000Y-92202000D01*
X93631001Y-91026999D02*
X93305999Y-91352001D01*
X99176001Y-91026999D02*
X93631001Y-91026999D01*
X99208002Y-91059000D02*
X99176001Y-91026999D01*
X117729000Y-91059000D02*
X99208002Y-91059000D01*
X78486000Y-92202000D02*
X92456000Y-92202000D01*
X93820999Y-95917001D02*
X93305999Y-96432001D01*
X106680000Y-91509010D02*
X102272009Y-95917001D01*
X117542600Y-91509010D02*
X106680000Y-91509010D01*
X126338500Y-100304910D02*
X117542600Y-91509010D01*
X102272009Y-95917001D02*
X93820999Y-95917001D01*
X129514911Y-100304911D02*
X126338500Y-100304910D01*
X93305999Y-96432001D02*
X92456000Y-97282000D01*
X129540000Y-100330000D02*
X129514911Y-100304911D01*
X186690000Y-97917000D02*
X184752099Y-99854901D01*
X163042911Y-97764911D02*
X148743499Y-97764911D01*
X165132901Y-99854901D02*
X163042911Y-97764911D01*
X148743499Y-97764911D02*
X146178410Y-100330000D01*
X184752099Y-99854901D02*
X165132901Y-99854901D01*
X146178410Y-100330000D02*
X129540000Y-100330000D01*
X78486000Y-97282000D02*
X92456000Y-97282000D01*
X93305999Y-98972001D02*
X92456000Y-99822000D01*
X100368419Y-98457001D02*
X93820999Y-98457001D01*
X126152099Y-100754919D02*
X117356200Y-91959020D01*
X128948920Y-100754920D02*
X126152099Y-100754919D01*
X117356200Y-91959020D02*
X106866400Y-91959020D01*
X146364810Y-100780010D02*
X128974010Y-100780010D01*
X201168000Y-105791000D02*
X184658000Y-105791000D01*
X106866400Y-91959020D02*
X100368419Y-98457001D01*
X128974010Y-100780010D02*
X128948920Y-100754920D01*
X184658000Y-105791000D02*
X179171911Y-100304911D01*
X179171911Y-100304911D02*
X164946500Y-100304910D01*
X93820999Y-98457001D02*
X93305999Y-98972001D01*
X164946500Y-100304910D02*
X162856511Y-98214921D01*
X162856511Y-98214921D02*
X148929899Y-98214921D01*
X148929899Y-98214921D02*
X146364810Y-100780010D01*
X91606001Y-100671999D02*
X92456000Y-99822000D01*
X89710999Y-102567001D02*
X91606001Y-100671999D01*
X81231001Y-102567001D02*
X89710999Y-102567001D01*
X78486000Y-99822000D02*
X81231001Y-102567001D01*
D27*
X78524001Y-54140001D02*
X78486000Y-54102000D01*
X81410001Y-54140001D02*
X78524001Y-54140001D01*
X82483012Y-53066990D02*
X81410001Y-54140001D01*
X88160410Y-53066990D02*
X82483012Y-53066990D01*
X89195420Y-54102000D02*
X88160410Y-53066990D01*
X92456000Y-54102000D02*
X89195420Y-54102000D01*
D26*
X95090999Y-60546999D02*
X96266000Y-61722000D01*
X75575999Y-60546999D02*
X95090999Y-60546999D01*
X74676000Y-61446998D02*
X75575999Y-60546999D01*
X74676000Y-61722000D02*
X74676000Y-61446998D01*
X80423001Y-52737001D02*
X81026000Y-53340000D01*
X75765997Y-52737001D02*
X80423001Y-52737001D01*
X74676000Y-54102000D02*
X74676000Y-53826998D01*
X74676000Y-53826998D02*
X75765997Y-52737001D01*
X74676000Y-51286998D02*
X74676000Y-51562000D01*
X76196018Y-49766980D02*
X74676000Y-51286998D01*
X90047458Y-49766980D02*
X76196018Y-49766980D01*
X90197458Y-49916980D02*
X90047458Y-49766980D01*
X94620980Y-49916980D02*
X90197458Y-49916980D01*
X96266000Y-51562000D02*
X94620980Y-49916980D01*
X73826001Y-52411999D02*
X74676000Y-51562000D01*
X73500999Y-52737001D02*
X73826001Y-52411999D01*
X73500999Y-65626999D02*
X73500999Y-52737001D01*
X74676000Y-66802000D02*
X73500999Y-65626999D01*
M02*
