G04 #@! TF.GenerationSoftware,KiCad,Pcbnew,(5.1.4)-1*
G04 #@! TF.CreationDate,2021-09-07T00:15:53+08:00*
G04 #@! TF.ProjectId,Split Keeb,53706c69-7420-44b6-9565-622e6b696361,rev?*
G04 #@! TF.SameCoordinates,Original*
G04 #@! TF.FileFunction,Legend,Bot*
G04 #@! TF.FilePolarity,Positive*
%FSLAX46Y46*%
G04 Gerber Fmt 4.6, Leading zero omitted, Abs format (unit mm)*
G04 Created by KiCad (PCBNEW (5.1.4)-1) date 2021-09-07 00:15:53*
%MOMM*%
%LPD*%
G04 APERTURE LIST*
%ADD10C,0.150000*%
%ADD11C,0.120000*%
%ADD12C,1.852000*%
%ADD13R,2.007000X2.007000*%
%ADD14C,2.007000*%
%ADD15C,2.352000*%
%ADD16C,4.089800*%
%ADD17C,0.100000*%
%ADD18C,3.302000*%
%ADD19C,0.300000*%
%ADD20R,1.802000X1.802000*%
%ADD21O,1.802000X1.802000*%
%ADD22R,3.602000X1.802000*%
%ADD23R,1.802000X3.602000*%
%ADD24C,2.102000*%
%ADD25C,1.402000*%
%ADD26C,1.602000*%
%ADD27C,1.499000*%
%ADD28R,1.499000X1.499000*%
%ADD29R,1.402000X1.052000*%
%ADD30C,1.052000*%
G04 APERTURE END LIST*
D10*
X108919733Y-61199780D02*
X108586400Y-62199780D01*
X108253066Y-61199780D01*
X107586400Y-61675971D02*
X107443542Y-61723590D01*
X107395923Y-61771209D01*
X107348304Y-61866447D01*
X107348304Y-62009304D01*
X107395923Y-62104542D01*
X107443542Y-62152161D01*
X107538780Y-62199780D01*
X107919733Y-62199780D01*
X107919733Y-61199780D01*
X107586400Y-61199780D01*
X107491161Y-61247400D01*
X107443542Y-61295019D01*
X107395923Y-61390257D01*
X107395923Y-61485495D01*
X107443542Y-61580733D01*
X107491161Y-61628352D01*
X107586400Y-61675971D01*
X107919733Y-61675971D01*
X106919733Y-61199780D02*
X106919733Y-62009304D01*
X106872114Y-62104542D01*
X106824495Y-62152161D01*
X106729257Y-62199780D01*
X106538780Y-62199780D01*
X106443542Y-62152161D01*
X106395923Y-62104542D01*
X106348304Y-62009304D01*
X106348304Y-61199780D01*
X105919733Y-62152161D02*
X105776876Y-62199780D01*
X105538780Y-62199780D01*
X105443542Y-62152161D01*
X105395923Y-62104542D01*
X105348304Y-62009304D01*
X105348304Y-61914066D01*
X105395923Y-61818828D01*
X105443542Y-61771209D01*
X105538780Y-61723590D01*
X105729257Y-61675971D01*
X105824495Y-61628352D01*
X105872114Y-61580733D01*
X105919733Y-61485495D01*
X105919733Y-61390257D01*
X105872114Y-61295019D01*
X105824495Y-61247400D01*
X105729257Y-61199780D01*
X105491161Y-61199780D01*
X105348304Y-61247400D01*
X107179952Y-67152780D02*
X107179952Y-66152780D01*
X106941857Y-66152780D01*
X106799000Y-66200400D01*
X106703761Y-66295638D01*
X106656142Y-66390876D01*
X106608523Y-66581352D01*
X106608523Y-66724209D01*
X106656142Y-66914685D01*
X106703761Y-67009923D01*
X106799000Y-67105161D01*
X106941857Y-67152780D01*
X107179952Y-67152780D01*
X106179952Y-66771828D02*
X105418047Y-66771828D01*
X105799000Y-67152780D02*
X105799000Y-66390876D01*
X107103752Y-64688980D02*
X107103752Y-63688980D01*
X106865657Y-63688980D01*
X106722800Y-63736600D01*
X106627561Y-63831838D01*
X106579942Y-63927076D01*
X106532323Y-64117552D01*
X106532323Y-64260409D01*
X106579942Y-64450885D01*
X106627561Y-64546123D01*
X106722800Y-64641361D01*
X106865657Y-64688980D01*
X107103752Y-64688980D01*
X106103752Y-64308028D02*
X105341847Y-64308028D01*
X107391104Y-58555000D02*
X107486342Y-58507380D01*
X107629200Y-58507380D01*
X107772057Y-58555000D01*
X107867295Y-58650238D01*
X107914914Y-58745476D01*
X107962533Y-58935952D01*
X107962533Y-59078809D01*
X107914914Y-59269285D01*
X107867295Y-59364523D01*
X107772057Y-59459761D01*
X107629200Y-59507380D01*
X107533961Y-59507380D01*
X107391104Y-59459761D01*
X107343485Y-59412142D01*
X107343485Y-59078809D01*
X107533961Y-59078809D01*
X106914914Y-59507380D02*
X106914914Y-58507380D01*
X106343485Y-59507380D01*
X106343485Y-58507380D01*
X105867295Y-59507380D02*
X105867295Y-58507380D01*
X105629200Y-58507380D01*
X105486342Y-58555000D01*
X105391104Y-58650238D01*
X105343485Y-58745476D01*
X105295866Y-58935952D01*
X105295866Y-59078809D01*
X105343485Y-59269285D01*
X105391104Y-59364523D01*
X105486342Y-59459761D01*
X105629200Y-59507380D01*
X105867295Y-59507380D01*
X216372866Y-134405714D02*
X216134771Y-135072380D01*
X215896676Y-134405714D01*
X215515723Y-134977142D02*
X215468104Y-135024761D01*
X215515723Y-135072380D01*
X215563342Y-135024761D01*
X215515723Y-134977142D01*
X215515723Y-135072380D01*
X214515723Y-135072380D02*
X215087152Y-135072380D01*
X214801438Y-135072380D02*
X214801438Y-134072380D01*
X214896676Y-134215238D01*
X214991914Y-134310476D01*
X215087152Y-134358095D01*
X214087152Y-134977142D02*
X214039533Y-135024761D01*
X214087152Y-135072380D01*
X214134771Y-135024761D01*
X214087152Y-134977142D01*
X214087152Y-135072380D01*
X213420485Y-134072380D02*
X213325247Y-134072380D01*
X213230009Y-134120000D01*
X213182390Y-134167619D01*
X213134771Y-134262857D01*
X213087152Y-134453333D01*
X213087152Y-134691428D01*
X213134771Y-134881904D01*
X213182390Y-134977142D01*
X213230009Y-135024761D01*
X213325247Y-135072380D01*
X213420485Y-135072380D01*
X213515723Y-135024761D01*
X213563342Y-134977142D01*
X213610961Y-134881904D01*
X213658580Y-134691428D01*
X213658580Y-134453333D01*
X213610961Y-134262857D01*
X213563342Y-134167619D01*
X213515723Y-134120000D01*
X213420485Y-134072380D01*
D11*
X76457000Y-121675400D02*
X76457000Y-119675400D01*
X73657000Y-121675400D02*
X76457000Y-121675400D01*
X73657000Y-119675400D02*
X73657000Y-121675400D01*
X76457000Y-119675400D02*
X73657000Y-119675400D01*
X73002600Y-121675400D02*
X73002600Y-119675400D01*
X70202600Y-121675400D02*
X73002600Y-121675400D01*
X70202600Y-119675400D02*
X70202600Y-121675400D01*
X73002600Y-119675400D02*
X70202600Y-119675400D01*
X97876000Y-93292000D02*
X97876000Y-93692000D01*
X76876000Y-95792000D02*
X76876000Y-96192000D01*
X76876000Y-83092000D02*
X76876000Y-83492000D01*
X97876000Y-72992000D02*
X97876000Y-73392000D01*
X76876000Y-72992000D02*
X76876000Y-73392000D01*
X97876000Y-90792000D02*
X97876000Y-91192000D01*
X97876000Y-80592000D02*
X97876000Y-80992000D01*
X97876000Y-77992000D02*
X97876000Y-78392000D01*
X97876000Y-50192000D02*
X97876000Y-50492000D01*
X97876000Y-62792000D02*
X97876000Y-63192000D01*
X97876000Y-52859000D02*
X94869000Y-52859000D01*
X97876000Y-50192000D02*
X76876000Y-50192000D01*
X97876000Y-83092000D02*
X97876000Y-83492000D01*
X76876000Y-52592000D02*
X76876000Y-52992000D01*
X76876000Y-93292000D02*
X76876000Y-93692000D01*
X76876000Y-90792000D02*
X76876000Y-91192000D01*
X76876000Y-88192000D02*
X76876000Y-88592000D01*
X76876000Y-85692000D02*
X76876000Y-86092000D01*
X97876000Y-65292000D02*
X97876000Y-65692000D01*
X97876000Y-57692000D02*
X97876000Y-58092000D01*
X91076000Y-101192000D02*
X97876000Y-101192000D01*
X97876000Y-55192000D02*
X97876000Y-55592000D01*
X76876000Y-62792000D02*
X76876000Y-63192000D01*
X76876000Y-75492000D02*
X76876000Y-75892000D01*
X76876000Y-55192000D02*
X76876000Y-55592000D01*
X97876000Y-60292000D02*
X97876000Y-60692000D01*
X76876000Y-57692000D02*
X76876000Y-58092000D01*
X86276000Y-101192000D02*
X85876000Y-101192000D01*
X76876000Y-50192000D02*
X76876000Y-50492000D01*
X76876000Y-98392000D02*
X76876000Y-98792000D01*
X76876000Y-101192000D02*
X83676000Y-101192000D01*
X76876000Y-80592000D02*
X76876000Y-80992000D01*
X97876000Y-95792000D02*
X97876000Y-96192000D01*
X76876000Y-77992000D02*
X76876000Y-78392000D01*
X76876000Y-70392000D02*
X76876000Y-70792000D01*
X97876000Y-52592000D02*
X97876000Y-52992000D01*
X97876000Y-67892000D02*
X97876000Y-68292000D01*
X76876000Y-67892000D02*
X76876000Y-68292000D01*
X97876000Y-70392000D02*
X97876000Y-70792000D01*
X88876000Y-101192000D02*
X88476000Y-101192000D01*
X76876000Y-65292000D02*
X76876000Y-65692000D01*
X97876000Y-88192000D02*
X97876000Y-88592000D01*
X97876000Y-85692000D02*
X97876000Y-86092000D01*
X97876000Y-75492000D02*
X97876000Y-75892000D01*
X76876000Y-60292000D02*
X76876000Y-60692000D01*
X97876000Y-98392000D02*
X97876000Y-98792000D01*
X94869000Y-52859000D02*
X94869000Y-50192000D01*
X91226000Y-52682000D02*
X91526000Y-52682000D01*
X83526000Y-49882000D02*
X83526000Y-52682000D01*
X91526000Y-52682000D02*
X91526000Y-54232000D01*
X83226000Y-52682000D02*
X83226000Y-54232000D01*
X91226000Y-49882000D02*
X91226000Y-52682000D01*
X83226000Y-52682000D02*
X83526000Y-52682000D01*
D10*
X143289000Y-148705000D02*
X143289000Y-147205000D01*
X137889000Y-148705000D02*
X143289000Y-148705000D01*
X137889000Y-147205000D02*
X137889000Y-148705000D01*
X143289000Y-147205000D02*
X137889000Y-147205000D01*
X140089000Y-147455000D02*
X140089000Y-148455000D01*
X141089000Y-148455000D02*
X140189000Y-147955000D01*
X141089000Y-147455000D02*
X141089000Y-148455000D01*
X140189000Y-147955000D02*
X141089000Y-147455000D01*
X122751330Y-149510021D02*
X122117402Y-148150559D01*
X117857268Y-151792159D02*
X122751330Y-149510021D01*
X117223340Y-150432697D02*
X117857268Y-151792159D01*
X122117402Y-148150559D02*
X117223340Y-150432697D01*
X119322872Y-149729514D02*
X119745490Y-150635822D01*
X120651798Y-150213204D02*
X119624812Y-150140406D01*
X120229180Y-149306896D02*
X120651798Y-150213204D01*
X119624812Y-150140406D02*
X120229180Y-149306896D01*
X88070315Y-159800431D02*
X89369353Y-159050431D01*
X85370315Y-155123893D02*
X88070315Y-159800431D01*
X86669353Y-154373893D02*
X85370315Y-155123893D01*
X89369353Y-159050431D02*
X86669353Y-154373893D01*
X87552847Y-156404149D02*
X86686821Y-156904149D01*
X87186821Y-157770175D02*
X87169834Y-156740752D01*
X88052847Y-157270175D02*
X87186821Y-157770175D01*
X87169834Y-156740752D02*
X88052847Y-157270175D01*
X213012000Y-131179000D02*
X213012000Y-129679000D01*
X207612000Y-131179000D02*
X213012000Y-131179000D01*
X207612000Y-129679000D02*
X207612000Y-131179000D01*
X213012000Y-129679000D02*
X207612000Y-129679000D01*
X209812000Y-129929000D02*
X209812000Y-130929000D01*
X210812000Y-130929000D02*
X209912000Y-130429000D01*
X210812000Y-129929000D02*
X210812000Y-130929000D01*
X209912000Y-130429000D02*
X210812000Y-129929000D01*
X193962000Y-131179000D02*
X193962000Y-129679000D01*
X188562000Y-131179000D02*
X193962000Y-131179000D01*
X188562000Y-129679000D02*
X188562000Y-131179000D01*
X193962000Y-129679000D02*
X188562000Y-129679000D01*
X190762000Y-129929000D02*
X190762000Y-130929000D01*
X191762000Y-130929000D02*
X190862000Y-130429000D01*
X191762000Y-129929000D02*
X191762000Y-130929000D01*
X190862000Y-130429000D02*
X191762000Y-129929000D01*
X175036000Y-125972000D02*
X175036000Y-124472000D01*
X169636000Y-125972000D02*
X175036000Y-125972000D01*
X169636000Y-124472000D02*
X169636000Y-125972000D01*
X175036000Y-124472000D02*
X169636000Y-124472000D01*
X171836000Y-124722000D02*
X171836000Y-125722000D01*
X172836000Y-125722000D02*
X171936000Y-125222000D01*
X172836000Y-124722000D02*
X172836000Y-125722000D01*
X171936000Y-125222000D02*
X172836000Y-124722000D01*
X155862000Y-123432000D02*
X155862000Y-121932000D01*
X150462000Y-123432000D02*
X155862000Y-123432000D01*
X150462000Y-121932000D02*
X150462000Y-123432000D01*
X155862000Y-121932000D02*
X150462000Y-121932000D01*
X152662000Y-122182000D02*
X152662000Y-123182000D01*
X153662000Y-123182000D02*
X152762000Y-122682000D01*
X153662000Y-122182000D02*
X153662000Y-123182000D01*
X152762000Y-122682000D02*
X153662000Y-122182000D01*
X136939000Y-125972000D02*
X136939000Y-124472000D01*
X131539000Y-125972000D02*
X136939000Y-125972000D01*
X131539000Y-124472000D02*
X131539000Y-125972000D01*
X136939000Y-124472000D02*
X131539000Y-124472000D01*
X133739000Y-124722000D02*
X133739000Y-125722000D01*
X134739000Y-125722000D02*
X133839000Y-125222000D01*
X134739000Y-124722000D02*
X134739000Y-125722000D01*
X133839000Y-125222000D02*
X134739000Y-124722000D01*
X117762000Y-128385000D02*
X117762000Y-126885000D01*
X112362000Y-128385000D02*
X117762000Y-128385000D01*
X112362000Y-126885000D02*
X112362000Y-128385000D01*
X117762000Y-126885000D02*
X112362000Y-126885000D01*
X114562000Y-127135000D02*
X114562000Y-128135000D01*
X115562000Y-128135000D02*
X114662000Y-127635000D01*
X115562000Y-127135000D02*
X115562000Y-128135000D01*
X114662000Y-127635000D02*
X115562000Y-127135000D01*
X213012000Y-112129000D02*
X213012000Y-110629000D01*
X207612000Y-112129000D02*
X213012000Y-112129000D01*
X207612000Y-110629000D02*
X207612000Y-112129000D01*
X213012000Y-110629000D02*
X207612000Y-110629000D01*
X209812000Y-110879000D02*
X209812000Y-111879000D01*
X210812000Y-111879000D02*
X209912000Y-111379000D01*
X210812000Y-110879000D02*
X210812000Y-111879000D01*
X209912000Y-111379000D02*
X210812000Y-110879000D01*
X194089000Y-112129000D02*
X194089000Y-110629000D01*
X188689000Y-112129000D02*
X194089000Y-112129000D01*
X188689000Y-110629000D02*
X188689000Y-112129000D01*
X194089000Y-110629000D02*
X188689000Y-110629000D01*
X190889000Y-110879000D02*
X190889000Y-111879000D01*
X191889000Y-111879000D02*
X190989000Y-111379000D01*
X191889000Y-110879000D02*
X191889000Y-111879000D01*
X190989000Y-111379000D02*
X191889000Y-110879000D01*
X175039000Y-106922000D02*
X175039000Y-105422000D01*
X169639000Y-106922000D02*
X175039000Y-106922000D01*
X169639000Y-105422000D02*
X169639000Y-106922000D01*
X175039000Y-105422000D02*
X169639000Y-105422000D01*
X171839000Y-105672000D02*
X171839000Y-106672000D01*
X172839000Y-106672000D02*
X171939000Y-106172000D01*
X172839000Y-105672000D02*
X172839000Y-106672000D01*
X171939000Y-106172000D02*
X172839000Y-105672000D01*
X155862000Y-104382000D02*
X155862000Y-102882000D01*
X150462000Y-104382000D02*
X155862000Y-104382000D01*
X150462000Y-102882000D02*
X150462000Y-104382000D01*
X155862000Y-102882000D02*
X150462000Y-102882000D01*
X152662000Y-103132000D02*
X152662000Y-104132000D01*
X153662000Y-104132000D02*
X152762000Y-103632000D01*
X153662000Y-103132000D02*
X153662000Y-104132000D01*
X152762000Y-103632000D02*
X153662000Y-103132000D01*
X136812000Y-106922000D02*
X136812000Y-105422000D01*
X131412000Y-106922000D02*
X136812000Y-106922000D01*
X131412000Y-105422000D02*
X131412000Y-106922000D01*
X136812000Y-105422000D02*
X131412000Y-105422000D01*
X133612000Y-105672000D02*
X133612000Y-106672000D01*
X134612000Y-106672000D02*
X133712000Y-106172000D01*
X134612000Y-105672000D02*
X134612000Y-106672000D01*
X133712000Y-106172000D02*
X134612000Y-105672000D01*
X117889000Y-109335000D02*
X117889000Y-107835000D01*
X112489000Y-109335000D02*
X117889000Y-109335000D01*
X112489000Y-107835000D02*
X112489000Y-109335000D01*
X117889000Y-107835000D02*
X112489000Y-107835000D01*
X114689000Y-108085000D02*
X114689000Y-109085000D01*
X115689000Y-109085000D02*
X114789000Y-108585000D01*
X115689000Y-108085000D02*
X115689000Y-109085000D01*
X114789000Y-108585000D02*
X115689000Y-108085000D01*
X213012000Y-93079000D02*
X213012000Y-91579000D01*
X207612000Y-93079000D02*
X213012000Y-93079000D01*
X207612000Y-91579000D02*
X207612000Y-93079000D01*
X213012000Y-91579000D02*
X207612000Y-91579000D01*
X209812000Y-91829000D02*
X209812000Y-92829000D01*
X210812000Y-92829000D02*
X209912000Y-92329000D01*
X210812000Y-91829000D02*
X210812000Y-92829000D01*
X209912000Y-92329000D02*
X210812000Y-91829000D01*
X194089000Y-93079000D02*
X194089000Y-91579000D01*
X188689000Y-93079000D02*
X194089000Y-93079000D01*
X188689000Y-91579000D02*
X188689000Y-93079000D01*
X194089000Y-91579000D02*
X188689000Y-91579000D01*
X190889000Y-91829000D02*
X190889000Y-92829000D01*
X191889000Y-92829000D02*
X190989000Y-92329000D01*
X191889000Y-91829000D02*
X191889000Y-92829000D01*
X190989000Y-92329000D02*
X191889000Y-91829000D01*
X175039000Y-87872000D02*
X175039000Y-86372000D01*
X169639000Y-87872000D02*
X175039000Y-87872000D01*
X169639000Y-86372000D02*
X169639000Y-87872000D01*
X175039000Y-86372000D02*
X169639000Y-86372000D01*
X171839000Y-86622000D02*
X171839000Y-87622000D01*
X172839000Y-87622000D02*
X171939000Y-87122000D01*
X172839000Y-86622000D02*
X172839000Y-87622000D01*
X171939000Y-87122000D02*
X172839000Y-86622000D01*
X155989000Y-85332000D02*
X155989000Y-83832000D01*
X150589000Y-85332000D02*
X155989000Y-85332000D01*
X150589000Y-83832000D02*
X150589000Y-85332000D01*
X155989000Y-83832000D02*
X150589000Y-83832000D01*
X152789000Y-84082000D02*
X152789000Y-85082000D01*
X153789000Y-85082000D02*
X152889000Y-84582000D01*
X153789000Y-84082000D02*
X153789000Y-85082000D01*
X152889000Y-84582000D02*
X153789000Y-84082000D01*
X136812000Y-87872000D02*
X136812000Y-86372000D01*
X131412000Y-87872000D02*
X136812000Y-87872000D01*
X131412000Y-86372000D02*
X131412000Y-87872000D01*
X136812000Y-86372000D02*
X131412000Y-86372000D01*
X133612000Y-86622000D02*
X133612000Y-87622000D01*
X134612000Y-87622000D02*
X133712000Y-87122000D01*
X134612000Y-86622000D02*
X134612000Y-87622000D01*
X133712000Y-87122000D02*
X134612000Y-86622000D01*
X117762000Y-90285000D02*
X117762000Y-88785000D01*
X112362000Y-90285000D02*
X117762000Y-90285000D01*
X112362000Y-88785000D02*
X112362000Y-90285000D01*
X117762000Y-88785000D02*
X112362000Y-88785000D01*
X114562000Y-89035000D02*
X114562000Y-90035000D01*
X115562000Y-90035000D02*
X114662000Y-89535000D01*
X115562000Y-89035000D02*
X115562000Y-90035000D01*
X114662000Y-89535000D02*
X115562000Y-89035000D01*
X213012000Y-74029000D02*
X213012000Y-72529000D01*
X207612000Y-74029000D02*
X213012000Y-74029000D01*
X207612000Y-72529000D02*
X207612000Y-74029000D01*
X213012000Y-72529000D02*
X207612000Y-72529000D01*
X209812000Y-72779000D02*
X209812000Y-73779000D01*
X210812000Y-73779000D02*
X209912000Y-73279000D01*
X210812000Y-72779000D02*
X210812000Y-73779000D01*
X209912000Y-73279000D02*
X210812000Y-72779000D01*
X193962000Y-74029000D02*
X193962000Y-72529000D01*
X188562000Y-74029000D02*
X193962000Y-74029000D01*
X188562000Y-72529000D02*
X188562000Y-74029000D01*
X193962000Y-72529000D02*
X188562000Y-72529000D01*
X190762000Y-72779000D02*
X190762000Y-73779000D01*
X191762000Y-73779000D02*
X190862000Y-73279000D01*
X191762000Y-72779000D02*
X191762000Y-73779000D01*
X190862000Y-73279000D02*
X191762000Y-72779000D01*
X175042000Y-68822000D02*
X175042000Y-67322000D01*
X169642000Y-68822000D02*
X175042000Y-68822000D01*
X169642000Y-67322000D02*
X169642000Y-68822000D01*
X175042000Y-67322000D02*
X169642000Y-67322000D01*
X171842000Y-67572000D02*
X171842000Y-68572000D01*
X172842000Y-68572000D02*
X171942000Y-68072000D01*
X172842000Y-67572000D02*
X172842000Y-68572000D01*
X171942000Y-68072000D02*
X172842000Y-67572000D01*
X155862000Y-66282000D02*
X155862000Y-64782000D01*
X150462000Y-66282000D02*
X155862000Y-66282000D01*
X150462000Y-64782000D02*
X150462000Y-66282000D01*
X155862000Y-64782000D02*
X150462000Y-64782000D01*
X152662000Y-65032000D02*
X152662000Y-66032000D01*
X153662000Y-66032000D02*
X152762000Y-65532000D01*
X153662000Y-65032000D02*
X153662000Y-66032000D01*
X152762000Y-65532000D02*
X153662000Y-65032000D01*
X136939000Y-68822000D02*
X136939000Y-67322000D01*
X131539000Y-68822000D02*
X136939000Y-68822000D01*
X131539000Y-67322000D02*
X131539000Y-68822000D01*
X136939000Y-67322000D02*
X131539000Y-67322000D01*
X133739000Y-67572000D02*
X133739000Y-68572000D01*
X134739000Y-68572000D02*
X133839000Y-68072000D01*
X134739000Y-67572000D02*
X134739000Y-68572000D01*
X133839000Y-68072000D02*
X134739000Y-67572000D01*
X117762000Y-71235000D02*
X117762000Y-69735000D01*
X112362000Y-71235000D02*
X117762000Y-71235000D01*
X112362000Y-69735000D02*
X112362000Y-71235000D01*
X117762000Y-69735000D02*
X112362000Y-69735000D01*
X114562000Y-69985000D02*
X114562000Y-70985000D01*
X115562000Y-70985000D02*
X114662000Y-70485000D01*
X115562000Y-69985000D02*
X115562000Y-70985000D01*
X114662000Y-70485000D02*
X115562000Y-69985000D01*
X82263277Y-75447592D02*
X82344089Y-75474529D01*
X82424902Y-75555341D01*
X82478776Y-75663091D01*
X82478776Y-75770841D01*
X82451839Y-75851653D01*
X82371027Y-75986340D01*
X82290215Y-76067152D01*
X82155528Y-76147964D01*
X82074715Y-76174902D01*
X81966966Y-76174902D01*
X81859216Y-76121027D01*
X81805341Y-76067152D01*
X81751467Y-75959402D01*
X81751467Y-75905528D01*
X81940028Y-75716966D01*
X82047778Y-75824715D01*
X81455155Y-75716966D02*
X82020841Y-75151280D01*
X81805341Y-74935781D01*
X81724529Y-74908844D01*
X81670654Y-74908844D01*
X81589842Y-74935781D01*
X81509030Y-75016593D01*
X81482093Y-75097406D01*
X81482093Y-75151280D01*
X81509030Y-75232093D01*
X81724529Y-75447592D01*
X81428218Y-74666407D02*
X81428218Y-74612532D01*
X81401280Y-74531720D01*
X81266593Y-74397033D01*
X81185781Y-74370096D01*
X81131906Y-74370096D01*
X81051094Y-74397033D01*
X80997219Y-74450908D01*
X80943345Y-74558658D01*
X80943345Y-75205155D01*
X80593158Y-74854969D01*
X80673971Y-73804410D02*
X80781720Y-73912160D01*
X80808658Y-73992972D01*
X80808658Y-74046847D01*
X80781720Y-74181534D01*
X80700908Y-74316221D01*
X80485409Y-74531720D01*
X80404597Y-74558658D01*
X80350722Y-74558658D01*
X80269910Y-74531720D01*
X80162160Y-74423971D01*
X80135223Y-74343158D01*
X80135223Y-74289284D01*
X80162160Y-74208471D01*
X80296847Y-74073784D01*
X80377659Y-74046847D01*
X80431534Y-74046847D01*
X80512346Y-74073784D01*
X80620096Y-74181534D01*
X80647033Y-74262346D01*
X80647033Y-74316221D01*
X80620096Y-74397033D01*
X82263277Y-67827592D02*
X82344089Y-67854529D01*
X82424902Y-67935341D01*
X82478776Y-68043091D01*
X82478776Y-68150841D01*
X82451839Y-68231653D01*
X82371027Y-68366340D01*
X82290215Y-68447152D01*
X82155528Y-68527964D01*
X82074715Y-68554902D01*
X81966966Y-68554902D01*
X81859216Y-68501027D01*
X81805341Y-68447152D01*
X81751467Y-68339402D01*
X81751467Y-68285528D01*
X81940028Y-68096966D01*
X82047778Y-68204715D01*
X81455155Y-68096966D02*
X82020841Y-67531280D01*
X81805341Y-67315781D01*
X81724529Y-67288844D01*
X81670654Y-67288844D01*
X81589842Y-67315781D01*
X81509030Y-67396593D01*
X81482093Y-67477406D01*
X81482093Y-67531280D01*
X81509030Y-67612093D01*
X81724529Y-67827592D01*
X81428218Y-67046407D02*
X81428218Y-66992532D01*
X81401280Y-66911720D01*
X81266593Y-66777033D01*
X81185781Y-66750096D01*
X81131906Y-66750096D01*
X81051094Y-66777033D01*
X80997219Y-66830908D01*
X80943345Y-66938658D01*
X80943345Y-67585155D01*
X80593158Y-67234969D01*
X80593158Y-66588471D02*
X80673971Y-66615409D01*
X80727845Y-66615409D01*
X80808658Y-66588471D01*
X80835595Y-66561534D01*
X80862532Y-66480722D01*
X80862532Y-66426847D01*
X80835595Y-66346035D01*
X80727845Y-66238285D01*
X80647033Y-66211348D01*
X80593158Y-66211348D01*
X80512346Y-66238285D01*
X80485409Y-66265223D01*
X80458471Y-66346035D01*
X80458471Y-66399910D01*
X80485409Y-66480722D01*
X80593158Y-66588471D01*
X80620096Y-66669284D01*
X80620096Y-66723158D01*
X80593158Y-66803971D01*
X80485409Y-66911720D01*
X80404597Y-66938658D01*
X80350722Y-66938658D01*
X80269910Y-66911720D01*
X80162160Y-66803971D01*
X80135223Y-66723158D01*
X80135223Y-66669284D01*
X80162160Y-66588471D01*
X80269910Y-66480722D01*
X80350722Y-66453784D01*
X80404597Y-66453784D01*
X80485409Y-66480722D01*
X100862903Y-61843218D02*
X100943715Y-61870155D01*
X101024528Y-61950967D01*
X101078402Y-62058717D01*
X101078402Y-62166467D01*
X101051465Y-62247279D01*
X100970653Y-62381966D01*
X100889841Y-62462778D01*
X100755154Y-62543590D01*
X100674341Y-62570528D01*
X100566592Y-62570528D01*
X100458842Y-62516653D01*
X100404967Y-62462778D01*
X100351093Y-62355028D01*
X100351093Y-62301154D01*
X100539654Y-62112592D01*
X100647404Y-62220341D01*
X100054781Y-62112592D02*
X100620467Y-61546906D01*
X100404967Y-61331407D01*
X100324155Y-61304470D01*
X100270280Y-61304470D01*
X100189468Y-61331407D01*
X100108656Y-61412219D01*
X100081719Y-61493032D01*
X100081719Y-61546906D01*
X100108656Y-61627719D01*
X100324155Y-61843218D01*
X100108656Y-61035096D02*
X99758470Y-60684910D01*
X99731532Y-61088971D01*
X99650720Y-61008158D01*
X99569908Y-60981221D01*
X99516033Y-60981221D01*
X99435221Y-61008158D01*
X99300534Y-61142845D01*
X99273597Y-61223658D01*
X99273597Y-61277532D01*
X99300534Y-61358345D01*
X99462158Y-61519969D01*
X99542971Y-61546906D01*
X99596845Y-61546906D01*
X101532277Y-90052592D02*
X101613089Y-90079529D01*
X101693902Y-90160341D01*
X101747776Y-90268091D01*
X101747776Y-90375841D01*
X101720839Y-90456653D01*
X101640027Y-90591340D01*
X101559215Y-90672152D01*
X101424528Y-90752964D01*
X101343715Y-90779902D01*
X101235966Y-90779902D01*
X101128216Y-90726027D01*
X101074341Y-90672152D01*
X101020467Y-90564402D01*
X101020467Y-90510528D01*
X101209028Y-90321966D01*
X101316778Y-90429715D01*
X100724155Y-90321966D02*
X101289841Y-89756280D01*
X101074341Y-89540781D01*
X100993529Y-89513844D01*
X100939654Y-89513844D01*
X100858842Y-89540781D01*
X100778030Y-89621593D01*
X100751093Y-89702406D01*
X100751093Y-89756280D01*
X100778030Y-89837093D01*
X100993529Y-90052592D01*
X99862158Y-89459969D02*
X100185407Y-89783218D01*
X100023783Y-89621593D02*
X100589468Y-89055908D01*
X100562531Y-89190595D01*
X100562531Y-89298345D01*
X100589468Y-89379157D01*
X100158470Y-88732659D02*
X100158470Y-88678784D01*
X100131532Y-88597972D01*
X99996845Y-88463285D01*
X99916033Y-88436348D01*
X99862158Y-88436348D01*
X99781346Y-88463285D01*
X99727471Y-88517160D01*
X99673597Y-88624910D01*
X99673597Y-89271407D01*
X99323410Y-88921221D01*
X101386277Y-100212592D02*
X101467089Y-100239529D01*
X101547902Y-100320341D01*
X101601776Y-100428091D01*
X101601776Y-100535841D01*
X101574839Y-100616653D01*
X101494027Y-100751340D01*
X101413215Y-100832152D01*
X101278528Y-100912964D01*
X101197715Y-100939902D01*
X101089966Y-100939902D01*
X100982216Y-100886027D01*
X100928341Y-100832152D01*
X100874467Y-100724402D01*
X100874467Y-100670528D01*
X101063028Y-100481966D01*
X101170778Y-100589715D01*
X100578155Y-100481966D02*
X101143841Y-99916280D01*
X100928341Y-99700781D01*
X100847529Y-99673844D01*
X100793654Y-99673844D01*
X100712842Y-99700781D01*
X100632030Y-99781593D01*
X100605093Y-99862406D01*
X100605093Y-99916280D01*
X100632030Y-99997093D01*
X100847529Y-100212592D01*
X99716158Y-99619969D02*
X100039407Y-99943218D01*
X99877783Y-99781593D02*
X100443468Y-99215908D01*
X100416531Y-99350595D01*
X100416531Y-99458345D01*
X100443468Y-99539157D01*
X99770033Y-98542473D02*
X100039407Y-98811847D01*
X99796971Y-99108158D01*
X99796971Y-99054284D01*
X99770033Y-98973471D01*
X99635346Y-98838784D01*
X99554534Y-98811847D01*
X99500659Y-98811847D01*
X99419847Y-98838784D01*
X99285160Y-98973471D01*
X99258223Y-99054284D01*
X99258223Y-99108158D01*
X99285160Y-99188971D01*
X99419847Y-99323658D01*
X99500659Y-99350595D01*
X99554534Y-99350595D01*
X101432277Y-97672592D02*
X101513089Y-97699529D01*
X101593902Y-97780341D01*
X101647776Y-97888091D01*
X101647776Y-97995841D01*
X101620839Y-98076653D01*
X101540027Y-98211340D01*
X101459215Y-98292152D01*
X101324528Y-98372964D01*
X101243715Y-98399902D01*
X101135966Y-98399902D01*
X101028216Y-98346027D01*
X100974341Y-98292152D01*
X100920467Y-98184402D01*
X100920467Y-98130528D01*
X101109028Y-97941966D01*
X101216778Y-98049715D01*
X100624155Y-97941966D02*
X101189841Y-97376280D01*
X100974341Y-97160781D01*
X100893529Y-97133844D01*
X100839654Y-97133844D01*
X100758842Y-97160781D01*
X100678030Y-97241593D01*
X100651093Y-97322406D01*
X100651093Y-97376280D01*
X100678030Y-97457093D01*
X100893529Y-97672592D01*
X99762158Y-97079969D02*
X100085407Y-97403218D01*
X99923783Y-97241593D02*
X100489468Y-96675908D01*
X100462531Y-96810595D01*
X100462531Y-96918345D01*
X100489468Y-96999157D01*
X99654409Y-96217972D02*
X99277285Y-96595096D01*
X100004595Y-96137160D02*
X99735221Y-96675908D01*
X99385035Y-96325722D01*
X100889841Y-69490155D02*
X100970653Y-69517093D01*
X101051465Y-69597905D01*
X101105340Y-69705654D01*
X101105340Y-69813404D01*
X101078402Y-69894216D01*
X100997590Y-70028903D01*
X100916778Y-70109715D01*
X100782091Y-70190528D01*
X100701279Y-70217465D01*
X100593529Y-70217465D01*
X100485780Y-70163590D01*
X100431905Y-70109715D01*
X100378030Y-70001966D01*
X100378030Y-69948091D01*
X100566592Y-69759529D01*
X100674341Y-69867279D01*
X100081719Y-69759529D02*
X100647404Y-69193844D01*
X99758470Y-69436280D01*
X100324155Y-68870595D01*
X99489096Y-69166906D02*
X100054781Y-68601221D01*
X99920094Y-68466534D01*
X99812345Y-68412659D01*
X99704595Y-68412659D01*
X99623783Y-68439597D01*
X99489096Y-68520409D01*
X99408284Y-68601221D01*
X99327471Y-68735908D01*
X99300534Y-68816720D01*
X99300534Y-68924470D01*
X99354409Y-69032219D01*
X99489096Y-69166906D01*
X82263277Y-72907592D02*
X82344089Y-72934529D01*
X82424902Y-73015341D01*
X82478776Y-73123091D01*
X82478776Y-73230841D01*
X82451839Y-73311653D01*
X82371027Y-73446340D01*
X82290215Y-73527152D01*
X82155528Y-73607964D01*
X82074715Y-73634902D01*
X81966966Y-73634902D01*
X81859216Y-73581027D01*
X81805341Y-73527152D01*
X81751467Y-73419402D01*
X81751467Y-73365528D01*
X81940028Y-73176966D01*
X82047778Y-73284715D01*
X81455155Y-73176966D02*
X82020841Y-72611280D01*
X81805341Y-72395781D01*
X81724529Y-72368844D01*
X81670654Y-72368844D01*
X81589842Y-72395781D01*
X81509030Y-72476593D01*
X81482093Y-72557406D01*
X81482093Y-72611280D01*
X81509030Y-72692093D01*
X81724529Y-72907592D01*
X81428218Y-72126407D02*
X81428218Y-72072532D01*
X81401280Y-71991720D01*
X81266593Y-71857033D01*
X81185781Y-71830096D01*
X81131906Y-71830096D01*
X81051094Y-71857033D01*
X80997219Y-71910908D01*
X80943345Y-72018658D01*
X80943345Y-72665155D01*
X80593158Y-72314969D01*
X80970282Y-71560722D02*
X80593158Y-71183598D01*
X80269910Y-71991720D01*
X82372870Y-52924309D02*
X81618622Y-53301433D01*
X81995746Y-52547186D01*
X81349248Y-52439436D02*
X81241499Y-52385561D01*
X81187624Y-52385561D01*
X81106812Y-52412499D01*
X81026000Y-52493311D01*
X80999062Y-52574123D01*
X80999062Y-52627998D01*
X81026000Y-52708810D01*
X81241499Y-52924309D01*
X81807184Y-52358624D01*
X81618622Y-52170062D01*
X81537810Y-52143125D01*
X81483935Y-52143125D01*
X81403123Y-52170062D01*
X81349248Y-52223937D01*
X81322311Y-52304749D01*
X81322311Y-52358624D01*
X81349248Y-52439436D01*
X81537810Y-52627998D01*
X81241499Y-51792938D02*
X80783563Y-52250874D01*
X80702751Y-52277812D01*
X80648876Y-52277812D01*
X80568064Y-52250874D01*
X80460314Y-52143125D01*
X80433377Y-52062312D01*
X80433377Y-52008438D01*
X80460314Y-51927625D01*
X80918250Y-51469690D01*
X80137065Y-51766001D02*
X80029316Y-51712126D01*
X79894629Y-51577439D01*
X79867691Y-51496627D01*
X79867691Y-51442752D01*
X79894629Y-51361940D01*
X79948503Y-51308065D01*
X80029316Y-51281128D01*
X80083190Y-51281128D01*
X80164003Y-51308065D01*
X80298690Y-51388877D01*
X80379502Y-51415815D01*
X80433377Y-51415815D01*
X80514189Y-51388877D01*
X80568064Y-51335003D01*
X80595001Y-51254190D01*
X80595001Y-51200316D01*
X80568064Y-51119503D01*
X80433377Y-50984816D01*
X80325627Y-50930942D01*
X82036152Y-62747592D02*
X81685966Y-62397406D01*
X81659028Y-62801467D01*
X81578216Y-62720654D01*
X81497404Y-62693717D01*
X81443529Y-62693717D01*
X81362717Y-62720654D01*
X81228030Y-62855341D01*
X81201093Y-62936154D01*
X81201093Y-62990028D01*
X81228030Y-63070841D01*
X81389654Y-63232465D01*
X81470467Y-63259402D01*
X81524341Y-63259402D01*
X81524341Y-62235781D02*
X80770094Y-62612905D01*
X81147218Y-61858658D01*
X81012531Y-61723971D02*
X80662345Y-61373784D01*
X80635407Y-61777845D01*
X80554595Y-61697033D01*
X80473783Y-61670096D01*
X80419908Y-61670096D01*
X80339096Y-61697033D01*
X80204409Y-61831720D01*
X80177471Y-61912532D01*
X80177471Y-61966407D01*
X80204409Y-62047219D01*
X80366033Y-62208844D01*
X80446845Y-62235781D01*
X80500720Y-62235781D01*
X81982277Y-80527592D02*
X82063089Y-80554529D01*
X82143902Y-80635341D01*
X82197776Y-80743091D01*
X82197776Y-80850841D01*
X82170839Y-80931653D01*
X82090027Y-81066340D01*
X82009215Y-81147152D01*
X81874528Y-81227964D01*
X81793715Y-81254902D01*
X81685966Y-81254902D01*
X81578216Y-81201027D01*
X81524341Y-81147152D01*
X81470467Y-81039402D01*
X81470467Y-80985528D01*
X81659028Y-80796966D01*
X81766778Y-80904715D01*
X81174155Y-80796966D02*
X81739841Y-80231280D01*
X81524341Y-80015781D01*
X81443529Y-79988844D01*
X81389654Y-79988844D01*
X81308842Y-80015781D01*
X81228030Y-80096593D01*
X81201093Y-80177406D01*
X81201093Y-80231280D01*
X81228030Y-80312093D01*
X81443529Y-80527592D01*
X81147218Y-79746407D02*
X81147218Y-79692532D01*
X81120280Y-79611720D01*
X80985593Y-79477033D01*
X80904781Y-79450096D01*
X80850906Y-79450096D01*
X80770094Y-79477033D01*
X80716219Y-79530908D01*
X80662345Y-79638658D01*
X80662345Y-80285155D01*
X80312158Y-79934969D01*
X80608470Y-79207659D02*
X80608470Y-79153784D01*
X80581532Y-79072972D01*
X80446845Y-78938285D01*
X80366033Y-78911348D01*
X80312158Y-78911348D01*
X80231346Y-78938285D01*
X80177471Y-78992160D01*
X80123597Y-79099910D01*
X80123597Y-79746407D01*
X79773410Y-79396221D01*
X100762903Y-74513218D02*
X100843715Y-74540155D01*
X100924528Y-74620967D01*
X100978402Y-74728717D01*
X100978402Y-74836467D01*
X100951465Y-74917279D01*
X100870653Y-75051966D01*
X100789841Y-75132778D01*
X100655154Y-75213590D01*
X100574341Y-75240528D01*
X100466592Y-75240528D01*
X100358842Y-75186653D01*
X100304967Y-75132778D01*
X100251093Y-75025028D01*
X100251093Y-74971154D01*
X100439654Y-74782592D01*
X100547404Y-74890341D01*
X99954781Y-74782592D02*
X100520467Y-74216906D01*
X100304967Y-74001407D01*
X100224155Y-73974470D01*
X100170280Y-73974470D01*
X100089468Y-74001407D01*
X100008656Y-74082219D01*
X99981719Y-74163032D01*
X99981719Y-74216906D01*
X100008656Y-74297719D01*
X100224155Y-74513218D01*
X100008656Y-73705096D02*
X99631532Y-73327972D01*
X99308284Y-74136094D01*
X100889841Y-94890155D02*
X100970653Y-94917093D01*
X101051465Y-94997905D01*
X101105340Y-95105654D01*
X101105340Y-95213404D01*
X101078402Y-95294216D01*
X100997590Y-95428903D01*
X100916778Y-95509715D01*
X100782091Y-95590528D01*
X100701279Y-95617465D01*
X100593529Y-95617465D01*
X100485780Y-95563590D01*
X100431905Y-95509715D01*
X100378030Y-95401966D01*
X100378030Y-95348091D01*
X100566592Y-95159529D01*
X100674341Y-95267279D01*
X100081719Y-95159529D02*
X100647404Y-94593844D01*
X99758470Y-94836280D01*
X100324155Y-94270595D01*
X99489096Y-94566906D02*
X100054781Y-94001221D01*
X99920094Y-93866534D01*
X99812345Y-93812659D01*
X99704595Y-93812659D01*
X99623783Y-93839597D01*
X99489096Y-93920409D01*
X99408284Y-94001221D01*
X99327471Y-94135908D01*
X99300534Y-94216720D01*
X99300534Y-94324470D01*
X99354409Y-94432219D01*
X99489096Y-94566906D01*
X101532277Y-87512592D02*
X101613089Y-87539529D01*
X101693902Y-87620341D01*
X101747776Y-87728091D01*
X101747776Y-87835841D01*
X101720839Y-87916653D01*
X101640027Y-88051340D01*
X101559215Y-88132152D01*
X101424528Y-88212964D01*
X101343715Y-88239902D01*
X101235966Y-88239902D01*
X101128216Y-88186027D01*
X101074341Y-88132152D01*
X101020467Y-88024402D01*
X101020467Y-87970528D01*
X101209028Y-87781966D01*
X101316778Y-87889715D01*
X100724155Y-87781966D02*
X101289841Y-87216280D01*
X101074341Y-87000781D01*
X100993529Y-86973844D01*
X100939654Y-86973844D01*
X100858842Y-87000781D01*
X100778030Y-87081593D01*
X100751093Y-87162406D01*
X100751093Y-87216280D01*
X100778030Y-87297093D01*
X100993529Y-87512592D01*
X99862158Y-86919969D02*
X100185407Y-87243218D01*
X100023783Y-87081593D02*
X100589468Y-86515908D01*
X100562531Y-86650595D01*
X100562531Y-86758345D01*
X100589468Y-86839157D01*
X99323410Y-86381221D02*
X99646659Y-86704470D01*
X99485035Y-86542845D02*
X100050720Y-85977160D01*
X100023783Y-86111847D01*
X100023783Y-86219597D01*
X100050720Y-86300409D01*
X81187624Y-78270435D02*
X81645560Y-78189622D01*
X81510873Y-78593683D02*
X82076558Y-78027998D01*
X81861059Y-77812499D01*
X81780247Y-77785561D01*
X81726372Y-77785561D01*
X81645560Y-77812499D01*
X81564748Y-77893311D01*
X81537810Y-77974123D01*
X81537810Y-78027998D01*
X81564748Y-78108810D01*
X81780247Y-78324309D01*
X81510873Y-77462312D02*
X81052937Y-77920248D01*
X80972125Y-77947186D01*
X80918250Y-77947186D01*
X80837438Y-77920248D01*
X80729688Y-77812499D01*
X80702751Y-77731687D01*
X80702751Y-77677812D01*
X80729688Y-77597000D01*
X81187624Y-77139064D01*
X80352564Y-77435375D02*
X80918250Y-76869690D01*
X80029316Y-77112126D01*
X80595001Y-76546441D01*
X82263277Y-85607592D02*
X82344089Y-85634529D01*
X82424902Y-85715341D01*
X82478776Y-85823091D01*
X82478776Y-85930841D01*
X82451839Y-86011653D01*
X82371027Y-86146340D01*
X82290215Y-86227152D01*
X82155528Y-86307964D01*
X82074715Y-86334902D01*
X81966966Y-86334902D01*
X81859216Y-86281027D01*
X81805341Y-86227152D01*
X81751467Y-86119402D01*
X81751467Y-86065528D01*
X81940028Y-85876966D01*
X82047778Y-85984715D01*
X81455155Y-85876966D02*
X82020841Y-85311280D01*
X81805341Y-85095781D01*
X81724529Y-85068844D01*
X81670654Y-85068844D01*
X81589842Y-85095781D01*
X81509030Y-85176593D01*
X81482093Y-85257406D01*
X81482093Y-85311280D01*
X81509030Y-85392093D01*
X81724529Y-85607592D01*
X81428218Y-84826407D02*
X81428218Y-84772532D01*
X81401280Y-84691720D01*
X81266593Y-84557033D01*
X81185781Y-84530096D01*
X81131906Y-84530096D01*
X81051094Y-84557033D01*
X80997219Y-84610908D01*
X80943345Y-84718658D01*
X80943345Y-85365155D01*
X80593158Y-85014969D01*
X80054410Y-84476221D02*
X80377659Y-84799470D01*
X80216035Y-84637845D02*
X80781720Y-84072160D01*
X80754783Y-84206847D01*
X80754783Y-84314597D01*
X80781720Y-84395409D01*
X84141211Y-68200773D02*
X83871837Y-67931399D01*
X84033462Y-68416272D02*
X84410585Y-67662025D01*
X83656338Y-68039149D01*
X83467776Y-67850587D02*
X84033462Y-67284902D01*
X83898775Y-67150215D01*
X83791025Y-67096340D01*
X83683276Y-67096340D01*
X83602463Y-67123277D01*
X83467776Y-67204089D01*
X83386964Y-67284902D01*
X83306152Y-67419589D01*
X83279215Y-67500401D01*
X83279215Y-67608150D01*
X83333089Y-67715900D01*
X83467776Y-67850587D01*
X82632717Y-66907778D02*
X82632717Y-66961653D01*
X82686592Y-67069402D01*
X82740467Y-67123277D01*
X82848216Y-67177152D01*
X82955966Y-67177152D01*
X83036778Y-67150215D01*
X83171465Y-67069402D01*
X83252277Y-66988590D01*
X83333089Y-66853903D01*
X83360027Y-66773091D01*
X83360027Y-66665341D01*
X83306152Y-66557592D01*
X83252277Y-66503717D01*
X83144528Y-66449842D01*
X83090653Y-66449842D01*
X82417218Y-66907778D02*
X81986219Y-66476780D01*
X82551905Y-65803345D02*
X81797658Y-66180468D01*
X82174781Y-65426221D01*
X81097285Y-65480096D02*
X81555221Y-65399284D01*
X81420534Y-65803345D02*
X81986219Y-65237659D01*
X81770720Y-65022160D01*
X81689908Y-64995223D01*
X81636033Y-64995223D01*
X81555221Y-65022160D01*
X81474409Y-65102972D01*
X81447471Y-65183784D01*
X81447471Y-65237659D01*
X81474409Y-65318471D01*
X81689908Y-65533971D01*
X81151160Y-64941348D02*
X80962598Y-64752786D01*
X80585475Y-64968285D02*
X80854849Y-65237659D01*
X81420534Y-64671974D01*
X81151160Y-64402600D01*
X80450788Y-64240975D02*
X80639349Y-64429537D01*
X80343038Y-64725849D02*
X80908723Y-64160163D01*
X80639349Y-63890789D01*
X100889841Y-82190155D02*
X100970653Y-82217093D01*
X101051465Y-82297905D01*
X101105340Y-82405654D01*
X101105340Y-82513404D01*
X101078402Y-82594216D01*
X100997590Y-82728903D01*
X100916778Y-82809715D01*
X100782091Y-82890528D01*
X100701279Y-82917465D01*
X100593529Y-82917465D01*
X100485780Y-82863590D01*
X100431905Y-82809715D01*
X100378030Y-82701966D01*
X100378030Y-82648091D01*
X100566592Y-82459529D01*
X100674341Y-82567279D01*
X100081719Y-82459529D02*
X100647404Y-81893844D01*
X99758470Y-82136280D01*
X100324155Y-81570595D01*
X99489096Y-81866906D02*
X100054781Y-81301221D01*
X99920094Y-81166534D01*
X99812345Y-81112659D01*
X99704595Y-81112659D01*
X99623783Y-81139597D01*
X99489096Y-81220409D01*
X99408284Y-81301221D01*
X99327471Y-81435908D01*
X99300534Y-81516720D01*
X99300534Y-81624470D01*
X99354409Y-81732219D01*
X99489096Y-81866906D01*
X100862903Y-72003218D02*
X100943715Y-72030155D01*
X101024528Y-72110967D01*
X101078402Y-72218717D01*
X101078402Y-72326467D01*
X101051465Y-72407279D01*
X100970653Y-72541966D01*
X100889841Y-72622778D01*
X100755154Y-72703590D01*
X100674341Y-72730528D01*
X100566592Y-72730528D01*
X100458842Y-72676653D01*
X100404967Y-72622778D01*
X100351093Y-72515028D01*
X100351093Y-72461154D01*
X100539654Y-72272592D01*
X100647404Y-72380341D01*
X100054781Y-72272592D02*
X100620467Y-71706906D01*
X100404967Y-71491407D01*
X100324155Y-71464470D01*
X100270280Y-71464470D01*
X100189468Y-71491407D01*
X100108656Y-71572219D01*
X100081719Y-71653032D01*
X100081719Y-71706906D01*
X100108656Y-71787719D01*
X100324155Y-72003218D01*
X99812345Y-70898784D02*
X99920094Y-71006534D01*
X99947032Y-71087346D01*
X99947032Y-71141221D01*
X99920094Y-71275908D01*
X99839282Y-71410595D01*
X99623783Y-71626094D01*
X99542971Y-71653032D01*
X99489096Y-71653032D01*
X99408284Y-71626094D01*
X99300534Y-71518345D01*
X99273597Y-71437532D01*
X99273597Y-71383658D01*
X99300534Y-71302845D01*
X99435221Y-71168158D01*
X99516033Y-71141221D01*
X99569908Y-71141221D01*
X99650720Y-71168158D01*
X99758470Y-71275908D01*
X99785407Y-71356720D01*
X99785407Y-71410595D01*
X99758470Y-71491407D01*
X82263277Y-90687592D02*
X82344089Y-90714529D01*
X82424902Y-90795341D01*
X82478776Y-90903091D01*
X82478776Y-91010841D01*
X82451839Y-91091653D01*
X82371027Y-91226340D01*
X82290215Y-91307152D01*
X82155528Y-91387964D01*
X82074715Y-91414902D01*
X81966966Y-91414902D01*
X81859216Y-91361027D01*
X81805341Y-91307152D01*
X81751467Y-91199402D01*
X81751467Y-91145528D01*
X81940028Y-90956966D01*
X82047778Y-91064715D01*
X81455155Y-90956966D02*
X82020841Y-90391280D01*
X81805341Y-90175781D01*
X81724529Y-90148844D01*
X81670654Y-90148844D01*
X81589842Y-90175781D01*
X81509030Y-90256593D01*
X81482093Y-90337406D01*
X81482093Y-90391280D01*
X81509030Y-90472093D01*
X81724529Y-90687592D01*
X80593158Y-90094969D02*
X80916407Y-90418218D01*
X80754783Y-90256593D02*
X81320468Y-89690908D01*
X81293531Y-89825595D01*
X81293531Y-89933345D01*
X81320468Y-90014157D01*
X80323784Y-89825595D02*
X80216035Y-89717845D01*
X80189097Y-89637033D01*
X80189097Y-89583158D01*
X80216035Y-89448471D01*
X80296847Y-89313784D01*
X80512346Y-89098285D01*
X80593158Y-89071348D01*
X80647033Y-89071348D01*
X80727845Y-89098285D01*
X80835595Y-89206035D01*
X80862532Y-89286847D01*
X80862532Y-89340722D01*
X80835595Y-89421534D01*
X80700908Y-89556221D01*
X80620096Y-89583158D01*
X80566221Y-89583158D01*
X80485409Y-89556221D01*
X80377659Y-89448471D01*
X80350722Y-89367659D01*
X80350722Y-89313784D01*
X80377659Y-89232972D01*
X81982277Y-88147592D02*
X82063089Y-88174529D01*
X82143902Y-88255341D01*
X82197776Y-88363091D01*
X82197776Y-88470841D01*
X82170839Y-88551653D01*
X82090027Y-88686340D01*
X82009215Y-88767152D01*
X81874528Y-88847964D01*
X81793715Y-88874902D01*
X81685966Y-88874902D01*
X81578216Y-88821027D01*
X81524341Y-88767152D01*
X81470467Y-88659402D01*
X81470467Y-88605528D01*
X81659028Y-88416966D01*
X81766778Y-88524715D01*
X81174155Y-88416966D02*
X81739841Y-87851280D01*
X81524341Y-87635781D01*
X81443529Y-87608844D01*
X81389654Y-87608844D01*
X81308842Y-87635781D01*
X81228030Y-87716593D01*
X81201093Y-87797406D01*
X81201093Y-87851280D01*
X81228030Y-87932093D01*
X81443529Y-88147592D01*
X81147218Y-87366407D02*
X81147218Y-87312532D01*
X81120280Y-87231720D01*
X80985593Y-87097033D01*
X80904781Y-87070096D01*
X80850906Y-87070096D01*
X80770094Y-87097033D01*
X80716219Y-87150908D01*
X80662345Y-87258658D01*
X80662345Y-87905155D01*
X80312158Y-87554969D01*
X80527658Y-86639097D02*
X80473783Y-86585223D01*
X80392971Y-86558285D01*
X80339096Y-86558285D01*
X80258284Y-86585223D01*
X80123597Y-86666035D01*
X79988910Y-86800722D01*
X79908097Y-86935409D01*
X79881160Y-87016221D01*
X79881160Y-87070096D01*
X79908097Y-87150908D01*
X79961972Y-87204783D01*
X80042784Y-87231720D01*
X80096659Y-87231720D01*
X80177471Y-87204783D01*
X80312158Y-87123971D01*
X80446845Y-86989284D01*
X80527658Y-86854597D01*
X80554595Y-86773784D01*
X80554595Y-86719910D01*
X80527658Y-86639097D01*
X82305526Y-55396966D02*
X81551279Y-55774089D01*
X81928402Y-55019842D01*
X81228030Y-55396966D02*
X81120280Y-55343091D01*
X80985593Y-55208404D01*
X80958656Y-55127592D01*
X80958656Y-55073717D01*
X80985593Y-54992905D01*
X81039468Y-54939030D01*
X81120280Y-54912093D01*
X81174155Y-54912093D01*
X81254967Y-54939030D01*
X81389654Y-55019842D01*
X81470467Y-55046780D01*
X81524341Y-55046780D01*
X81605154Y-55019842D01*
X81659028Y-54965967D01*
X81685966Y-54885155D01*
X81685966Y-54831280D01*
X81659028Y-54750468D01*
X81524341Y-54615781D01*
X81416592Y-54561906D01*
X80797032Y-54481094D02*
X80527658Y-54750468D01*
X81281905Y-54373345D02*
X80797032Y-54481094D01*
X80904781Y-53996221D01*
X80204409Y-54373345D02*
X80096659Y-54319470D01*
X79961972Y-54184783D01*
X79935035Y-54103971D01*
X79935035Y-54050096D01*
X79961972Y-53969284D01*
X80015847Y-53915409D01*
X80096659Y-53888471D01*
X80150534Y-53888471D01*
X80231346Y-53915409D01*
X80366033Y-53996221D01*
X80446845Y-54023158D01*
X80500720Y-54023158D01*
X80581532Y-53996221D01*
X80635407Y-53942346D01*
X80662345Y-53861534D01*
X80662345Y-53807659D01*
X80635407Y-53726847D01*
X80500720Y-53592160D01*
X80392971Y-53538285D01*
X100862903Y-64383218D02*
X100943715Y-64410155D01*
X101024528Y-64490967D01*
X101078402Y-64598717D01*
X101078402Y-64706467D01*
X101051465Y-64787279D01*
X100970653Y-64921966D01*
X100889841Y-65002778D01*
X100755154Y-65083590D01*
X100674341Y-65110528D01*
X100566592Y-65110528D01*
X100458842Y-65056653D01*
X100404967Y-65002778D01*
X100351093Y-64895028D01*
X100351093Y-64841154D01*
X100539654Y-64652592D01*
X100647404Y-64760341D01*
X100054781Y-64652592D02*
X100620467Y-64086906D01*
X100404967Y-63871407D01*
X100324155Y-63844470D01*
X100270280Y-63844470D01*
X100189468Y-63871407D01*
X100108656Y-63952219D01*
X100081719Y-64033032D01*
X100081719Y-64086906D01*
X100108656Y-64167719D01*
X100324155Y-64383218D01*
X99623783Y-63467346D02*
X99246659Y-63844470D01*
X99973969Y-63386534D02*
X99704595Y-63925282D01*
X99354409Y-63575096D01*
X101386277Y-84972592D02*
X101467089Y-84999529D01*
X101547902Y-85080341D01*
X101601776Y-85188091D01*
X101601776Y-85295841D01*
X101574839Y-85376653D01*
X101494027Y-85511340D01*
X101413215Y-85592152D01*
X101278528Y-85672964D01*
X101197715Y-85699902D01*
X101089966Y-85699902D01*
X100982216Y-85646027D01*
X100928341Y-85592152D01*
X100874467Y-85484402D01*
X100874467Y-85430528D01*
X101063028Y-85241966D01*
X101170778Y-85349715D01*
X100578155Y-85241966D02*
X101143841Y-84676280D01*
X100928341Y-84460781D01*
X100847529Y-84433844D01*
X100793654Y-84433844D01*
X100712842Y-84460781D01*
X100632030Y-84541593D01*
X100605093Y-84622406D01*
X100605093Y-84676280D01*
X100632030Y-84757093D01*
X100847529Y-84972592D01*
X99716158Y-84379969D02*
X100039407Y-84703218D01*
X99877783Y-84541593D02*
X100443468Y-83975908D01*
X100416531Y-84110595D01*
X100416531Y-84218345D01*
X100443468Y-84299157D01*
X99931658Y-83464097D02*
X99877783Y-83410223D01*
X99796971Y-83383285D01*
X99743096Y-83383285D01*
X99662284Y-83410223D01*
X99527597Y-83491035D01*
X99392910Y-83625722D01*
X99312097Y-83760409D01*
X99285160Y-83841221D01*
X99285160Y-83895096D01*
X99312097Y-83975908D01*
X99365972Y-84029783D01*
X99446784Y-84056720D01*
X99500659Y-84056720D01*
X99581471Y-84029783D01*
X99716158Y-83948971D01*
X99850845Y-83814284D01*
X99931658Y-83679597D01*
X99958595Y-83598784D01*
X99958595Y-83544910D01*
X99931658Y-83464097D01*
X100962903Y-59303218D02*
X101043715Y-59330155D01*
X101124528Y-59410967D01*
X101178402Y-59518717D01*
X101178402Y-59626467D01*
X101151465Y-59707279D01*
X101070653Y-59841966D01*
X100989841Y-59922778D01*
X100855154Y-60003590D01*
X100774341Y-60030528D01*
X100666592Y-60030528D01*
X100558842Y-59976653D01*
X100504967Y-59922778D01*
X100451093Y-59815028D01*
X100451093Y-59761154D01*
X100639654Y-59572592D01*
X100747404Y-59680341D01*
X100154781Y-59572592D02*
X100720467Y-59006906D01*
X100504967Y-58791407D01*
X100424155Y-58764470D01*
X100370280Y-58764470D01*
X100289468Y-58791407D01*
X100208656Y-58872219D01*
X100181719Y-58953032D01*
X100181719Y-59006906D01*
X100208656Y-59087719D01*
X100424155Y-59303218D01*
X100127844Y-58522033D02*
X100127844Y-58468158D01*
X100100906Y-58387346D01*
X99966219Y-58252659D01*
X99885407Y-58225722D01*
X99831532Y-58225722D01*
X99750720Y-58252659D01*
X99696845Y-58306534D01*
X99642971Y-58414284D01*
X99642971Y-59060781D01*
X99292784Y-58710595D01*
X100862903Y-79623218D02*
X100943715Y-79650155D01*
X101024528Y-79730967D01*
X101078402Y-79838717D01*
X101078402Y-79946467D01*
X101051465Y-80027279D01*
X100970653Y-80161966D01*
X100889841Y-80242778D01*
X100755154Y-80323590D01*
X100674341Y-80350528D01*
X100566592Y-80350528D01*
X100458842Y-80296653D01*
X100404967Y-80242778D01*
X100351093Y-80135028D01*
X100351093Y-80081154D01*
X100539654Y-79892592D01*
X100647404Y-80000341D01*
X100054781Y-79892592D02*
X100620467Y-79326906D01*
X100404967Y-79111407D01*
X100324155Y-79084470D01*
X100270280Y-79084470D01*
X100189468Y-79111407D01*
X100108656Y-79192219D01*
X100081719Y-79273032D01*
X100081719Y-79326906D01*
X100108656Y-79407719D01*
X100324155Y-79623218D01*
X99462158Y-79299969D02*
X99354409Y-79192219D01*
X99327471Y-79111407D01*
X99327471Y-79057532D01*
X99354409Y-78922845D01*
X99435221Y-78788158D01*
X99650720Y-78572659D01*
X99731532Y-78545722D01*
X99785407Y-78545722D01*
X99866219Y-78572659D01*
X99973969Y-78680409D01*
X100000906Y-78761221D01*
X100000906Y-78815096D01*
X99973969Y-78895908D01*
X99839282Y-79030595D01*
X99758470Y-79057532D01*
X99704595Y-79057532D01*
X99623783Y-79030595D01*
X99516033Y-78922845D01*
X99489096Y-78842033D01*
X99489096Y-78788158D01*
X99516033Y-78707346D01*
X83438868Y-61610308D02*
X83088682Y-61260122D01*
X83061744Y-61664183D01*
X82980932Y-61583370D01*
X82900120Y-61556433D01*
X82846245Y-61556433D01*
X82765433Y-61583370D01*
X82630746Y-61718057D01*
X82603809Y-61798870D01*
X82603809Y-61852744D01*
X82630746Y-61933557D01*
X82792370Y-62095181D01*
X82873183Y-62122118D01*
X82927057Y-62122118D01*
X82927057Y-61098497D02*
X82172810Y-61475621D01*
X82549934Y-60721374D01*
X82415247Y-60586687D02*
X82065061Y-60236500D01*
X82038123Y-60640561D01*
X81957311Y-60559749D01*
X81876499Y-60532812D01*
X81822624Y-60532812D01*
X81741812Y-60559749D01*
X81607125Y-60694436D01*
X81580187Y-60775248D01*
X81580187Y-60829123D01*
X81607125Y-60909935D01*
X81768749Y-61071560D01*
X81849561Y-61098497D01*
X81903436Y-61098497D01*
X81337751Y-60748311D02*
X80906752Y-60317312D01*
X81122251Y-59832439D02*
X80933690Y-59643877D01*
X80556566Y-59859377D02*
X80825940Y-60128751D01*
X81391625Y-59563065D01*
X81122251Y-59293691D01*
X80314129Y-59616940D02*
X80879815Y-59051255D01*
X79990881Y-59293691D01*
X80556566Y-58728006D01*
X101386277Y-92592592D02*
X101467089Y-92619529D01*
X101547902Y-92700341D01*
X101601776Y-92808091D01*
X101601776Y-92915841D01*
X101574839Y-92996653D01*
X101494027Y-93131340D01*
X101413215Y-93212152D01*
X101278528Y-93292964D01*
X101197715Y-93319902D01*
X101089966Y-93319902D01*
X100982216Y-93266027D01*
X100928341Y-93212152D01*
X100874467Y-93104402D01*
X100874467Y-93050528D01*
X101063028Y-92861966D01*
X101170778Y-92969715D01*
X100578155Y-92861966D02*
X101143841Y-92296280D01*
X100928341Y-92080781D01*
X100847529Y-92053844D01*
X100793654Y-92053844D01*
X100712842Y-92080781D01*
X100632030Y-92161593D01*
X100605093Y-92242406D01*
X100605093Y-92296280D01*
X100632030Y-92377093D01*
X100847529Y-92592592D01*
X99716158Y-91999969D02*
X100039407Y-92323218D01*
X99877783Y-92161593D02*
X100443468Y-91595908D01*
X100416531Y-91730595D01*
X100416531Y-91838345D01*
X100443468Y-91919157D01*
X100093282Y-91245722D02*
X99743096Y-90895536D01*
X99716158Y-91299597D01*
X99635346Y-91218784D01*
X99554534Y-91191847D01*
X99500659Y-91191847D01*
X99419847Y-91218784D01*
X99285160Y-91353471D01*
X99258223Y-91434284D01*
X99258223Y-91488158D01*
X99285160Y-91568971D01*
X99446784Y-91730595D01*
X99527597Y-91757532D01*
X99581471Y-91757532D01*
X82263277Y-93227592D02*
X82344089Y-93254529D01*
X82424902Y-93335341D01*
X82478776Y-93443091D01*
X82478776Y-93550841D01*
X82451839Y-93631653D01*
X82371027Y-93766340D01*
X82290215Y-93847152D01*
X82155528Y-93927964D01*
X82074715Y-93954902D01*
X81966966Y-93954902D01*
X81859216Y-93901027D01*
X81805341Y-93847152D01*
X81751467Y-93739402D01*
X81751467Y-93685528D01*
X81940028Y-93496966D01*
X82047778Y-93604715D01*
X81455155Y-93496966D02*
X82020841Y-92931280D01*
X81805341Y-92715781D01*
X81724529Y-92688844D01*
X81670654Y-92688844D01*
X81589842Y-92715781D01*
X81509030Y-92796593D01*
X81482093Y-92877406D01*
X81482093Y-92931280D01*
X81509030Y-93012093D01*
X81724529Y-93227592D01*
X80593158Y-92634969D02*
X80916407Y-92958218D01*
X80754783Y-92796593D02*
X81320468Y-92230908D01*
X81293531Y-92365595D01*
X81293531Y-92473345D01*
X81320468Y-92554157D01*
X80593158Y-91988471D02*
X80673971Y-92015409D01*
X80727845Y-92015409D01*
X80808658Y-91988471D01*
X80835595Y-91961534D01*
X80862532Y-91880722D01*
X80862532Y-91826847D01*
X80835595Y-91746035D01*
X80727845Y-91638285D01*
X80647033Y-91611348D01*
X80593158Y-91611348D01*
X80512346Y-91638285D01*
X80485409Y-91665223D01*
X80458471Y-91746035D01*
X80458471Y-91799910D01*
X80485409Y-91880722D01*
X80593158Y-91988471D01*
X80620096Y-92069284D01*
X80620096Y-92123158D01*
X80593158Y-92203971D01*
X80485409Y-92311720D01*
X80404597Y-92338658D01*
X80350722Y-92338658D01*
X80269910Y-92311720D01*
X80162160Y-92203971D01*
X80135223Y-92123158D01*
X80135223Y-92069284D01*
X80162160Y-91988471D01*
X80269910Y-91880722D01*
X80350722Y-91853784D01*
X80404597Y-91853784D01*
X80485409Y-91880722D01*
X82263277Y-100847592D02*
X82344089Y-100874529D01*
X82424902Y-100955341D01*
X82478776Y-101063091D01*
X82478776Y-101170841D01*
X82451839Y-101251653D01*
X82371027Y-101386340D01*
X82290215Y-101467152D01*
X82155528Y-101547964D01*
X82074715Y-101574902D01*
X81966966Y-101574902D01*
X81859216Y-101521027D01*
X81805341Y-101467152D01*
X81751467Y-101359402D01*
X81751467Y-101305528D01*
X81940028Y-101116966D01*
X82047778Y-101224715D01*
X81455155Y-101116966D02*
X82020841Y-100551280D01*
X81805341Y-100335781D01*
X81724529Y-100308844D01*
X81670654Y-100308844D01*
X81589842Y-100335781D01*
X81509030Y-100416593D01*
X81482093Y-100497406D01*
X81482093Y-100551280D01*
X81509030Y-100632093D01*
X81724529Y-100847592D01*
X80593158Y-100254969D02*
X80916407Y-100578218D01*
X80754783Y-100416593D02*
X81320468Y-99850908D01*
X81293531Y-99985595D01*
X81293531Y-100093345D01*
X81320468Y-100174157D01*
X80673971Y-99204410D02*
X80781720Y-99312160D01*
X80808658Y-99392972D01*
X80808658Y-99446847D01*
X80781720Y-99581534D01*
X80700908Y-99716221D01*
X80485409Y-99931720D01*
X80404597Y-99958658D01*
X80350722Y-99958658D01*
X80269910Y-99931720D01*
X80162160Y-99823971D01*
X80135223Y-99743158D01*
X80135223Y-99689284D01*
X80162160Y-99608471D01*
X80296847Y-99473784D01*
X80377659Y-99446847D01*
X80431534Y-99446847D01*
X80512346Y-99473784D01*
X80620096Y-99581534D01*
X80647033Y-99662346D01*
X80647033Y-99716221D01*
X80620096Y-99797033D01*
X82263277Y-98307592D02*
X82344089Y-98334529D01*
X82424902Y-98415341D01*
X82478776Y-98523091D01*
X82478776Y-98630841D01*
X82451839Y-98711653D01*
X82371027Y-98846340D01*
X82290215Y-98927152D01*
X82155528Y-99007964D01*
X82074715Y-99034902D01*
X81966966Y-99034902D01*
X81859216Y-98981027D01*
X81805341Y-98927152D01*
X81751467Y-98819402D01*
X81751467Y-98765528D01*
X81940028Y-98576966D01*
X82047778Y-98684715D01*
X81455155Y-98576966D02*
X82020841Y-98011280D01*
X81805341Y-97795781D01*
X81724529Y-97768844D01*
X81670654Y-97768844D01*
X81589842Y-97795781D01*
X81509030Y-97876593D01*
X81482093Y-97957406D01*
X81482093Y-98011280D01*
X81509030Y-98092093D01*
X81724529Y-98307592D01*
X80593158Y-97714969D02*
X80916407Y-98038218D01*
X80754783Y-97876593D02*
X81320468Y-97310908D01*
X81293531Y-97445595D01*
X81293531Y-97553345D01*
X81320468Y-97634157D01*
X80970282Y-96960722D02*
X80593158Y-96583598D01*
X80269910Y-97391720D01*
X100962903Y-54213218D02*
X101043715Y-54240155D01*
X101124528Y-54320967D01*
X101178402Y-54428717D01*
X101178402Y-54536467D01*
X101151465Y-54617279D01*
X101070653Y-54751966D01*
X100989841Y-54832778D01*
X100855154Y-54913590D01*
X100774341Y-54940528D01*
X100666592Y-54940528D01*
X100558842Y-54886653D01*
X100504967Y-54832778D01*
X100451093Y-54725028D01*
X100451093Y-54671154D01*
X100639654Y-54482592D01*
X100747404Y-54590341D01*
X100154781Y-54482592D02*
X100720467Y-53916906D01*
X100504967Y-53701407D01*
X100424155Y-53674470D01*
X100370280Y-53674470D01*
X100289468Y-53701407D01*
X100208656Y-53782219D01*
X100181719Y-53863032D01*
X100181719Y-53916906D01*
X100208656Y-53997719D01*
X100424155Y-54213218D01*
X99292784Y-53620595D02*
X99616033Y-53943844D01*
X99454409Y-53782219D02*
X100020094Y-53216534D01*
X99993157Y-53351221D01*
X99993157Y-53458971D01*
X100020094Y-53539783D01*
X100862903Y-51683218D02*
X100943715Y-51710155D01*
X101024528Y-51790967D01*
X101078402Y-51898717D01*
X101078402Y-52006467D01*
X101051465Y-52087279D01*
X100970653Y-52221966D01*
X100889841Y-52302778D01*
X100755154Y-52383590D01*
X100674341Y-52410528D01*
X100566592Y-52410528D01*
X100458842Y-52356653D01*
X100404967Y-52302778D01*
X100351093Y-52195028D01*
X100351093Y-52141154D01*
X100539654Y-51952592D01*
X100647404Y-52060341D01*
X100054781Y-51952592D02*
X100620467Y-51386906D01*
X100404967Y-51171407D01*
X100324155Y-51144470D01*
X100270280Y-51144470D01*
X100189468Y-51171407D01*
X100108656Y-51252219D01*
X100081719Y-51333032D01*
X100081719Y-51386906D01*
X100108656Y-51467719D01*
X100324155Y-51683218D01*
X99947032Y-50713471D02*
X99893157Y-50659597D01*
X99812345Y-50632659D01*
X99758470Y-50632659D01*
X99677658Y-50659597D01*
X99542971Y-50740409D01*
X99408284Y-50875096D01*
X99327471Y-51009783D01*
X99300534Y-51090595D01*
X99300534Y-51144470D01*
X99327471Y-51225282D01*
X99381346Y-51279157D01*
X99462158Y-51306094D01*
X99516033Y-51306094D01*
X99596845Y-51279157D01*
X99731532Y-51198345D01*
X99866219Y-51063658D01*
X99947032Y-50928971D01*
X99973969Y-50848158D01*
X99973969Y-50794284D01*
X99947032Y-50713471D01*
X100862903Y-66923218D02*
X100943715Y-66950155D01*
X101024528Y-67030967D01*
X101078402Y-67138717D01*
X101078402Y-67246467D01*
X101051465Y-67327279D01*
X100970653Y-67461966D01*
X100889841Y-67542778D01*
X100755154Y-67623590D01*
X100674341Y-67650528D01*
X100566592Y-67650528D01*
X100458842Y-67596653D01*
X100404967Y-67542778D01*
X100351093Y-67435028D01*
X100351093Y-67381154D01*
X100539654Y-67192592D01*
X100647404Y-67300341D01*
X100054781Y-67192592D02*
X100620467Y-66626906D01*
X100404967Y-66411407D01*
X100324155Y-66384470D01*
X100270280Y-66384470D01*
X100189468Y-66411407D01*
X100108656Y-66492219D01*
X100081719Y-66573032D01*
X100081719Y-66626906D01*
X100108656Y-66707719D01*
X100324155Y-66923218D01*
X99785407Y-65791847D02*
X100054781Y-66061221D01*
X99812345Y-66357532D01*
X99812345Y-66303658D01*
X99785407Y-66222845D01*
X99650720Y-66088158D01*
X99569908Y-66061221D01*
X99516033Y-66061221D01*
X99435221Y-66088158D01*
X99300534Y-66222845D01*
X99273597Y-66303658D01*
X99273597Y-66357532D01*
X99300534Y-66438345D01*
X99435221Y-66573032D01*
X99516033Y-66599969D01*
X99569908Y-66599969D01*
X100889841Y-56790155D02*
X100970653Y-56817093D01*
X101051465Y-56897905D01*
X101105340Y-57005654D01*
X101105340Y-57113404D01*
X101078402Y-57194216D01*
X100997590Y-57328903D01*
X100916778Y-57409715D01*
X100782091Y-57490528D01*
X100701279Y-57517465D01*
X100593529Y-57517465D01*
X100485780Y-57463590D01*
X100431905Y-57409715D01*
X100378030Y-57301966D01*
X100378030Y-57248091D01*
X100566592Y-57059529D01*
X100674341Y-57167279D01*
X100081719Y-57059529D02*
X100647404Y-56493844D01*
X99758470Y-56736280D01*
X100324155Y-56170595D01*
X99489096Y-56466906D02*
X100054781Y-55901221D01*
X99920094Y-55766534D01*
X99812345Y-55712659D01*
X99704595Y-55712659D01*
X99623783Y-55739597D01*
X99489096Y-55820409D01*
X99408284Y-55901221D01*
X99327471Y-56035908D01*
X99300534Y-56116720D01*
X99300534Y-56224470D01*
X99354409Y-56332219D01*
X99489096Y-56466906D01*
X100862903Y-77083218D02*
X100943715Y-77110155D01*
X101024528Y-77190967D01*
X101078402Y-77298717D01*
X101078402Y-77406467D01*
X101051465Y-77487279D01*
X100970653Y-77621966D01*
X100889841Y-77702778D01*
X100755154Y-77783590D01*
X100674341Y-77810528D01*
X100566592Y-77810528D01*
X100458842Y-77756653D01*
X100404967Y-77702778D01*
X100351093Y-77595028D01*
X100351093Y-77541154D01*
X100539654Y-77352592D01*
X100647404Y-77460341D01*
X100054781Y-77352592D02*
X100620467Y-76786906D01*
X100404967Y-76571407D01*
X100324155Y-76544470D01*
X100270280Y-76544470D01*
X100189468Y-76571407D01*
X100108656Y-76652219D01*
X100081719Y-76733032D01*
X100081719Y-76786906D01*
X100108656Y-76867719D01*
X100324155Y-77083218D01*
X99731532Y-76382845D02*
X99812345Y-76409783D01*
X99866219Y-76409783D01*
X99947032Y-76382845D01*
X99973969Y-76355908D01*
X100000906Y-76275096D01*
X100000906Y-76221221D01*
X99973969Y-76140409D01*
X99866219Y-76032659D01*
X99785407Y-76005722D01*
X99731532Y-76005722D01*
X99650720Y-76032659D01*
X99623783Y-76059597D01*
X99596845Y-76140409D01*
X99596845Y-76194284D01*
X99623783Y-76275096D01*
X99731532Y-76382845D01*
X99758470Y-76463658D01*
X99758470Y-76517532D01*
X99731532Y-76598345D01*
X99623783Y-76706094D01*
X99542971Y-76733032D01*
X99489096Y-76733032D01*
X99408284Y-76706094D01*
X99300534Y-76598345D01*
X99273597Y-76517532D01*
X99273597Y-76463658D01*
X99300534Y-76382845D01*
X99408284Y-76275096D01*
X99489096Y-76248158D01*
X99542971Y-76248158D01*
X99623783Y-76275096D01*
X81739841Y-82825155D02*
X81820653Y-82852093D01*
X81901465Y-82932905D01*
X81955340Y-83040654D01*
X81955340Y-83148404D01*
X81928402Y-83229216D01*
X81847590Y-83363903D01*
X81766778Y-83444715D01*
X81632091Y-83525528D01*
X81551279Y-83552465D01*
X81443529Y-83552465D01*
X81335780Y-83498590D01*
X81281905Y-83444715D01*
X81228030Y-83336966D01*
X81228030Y-83283091D01*
X81416592Y-83094529D01*
X81524341Y-83202279D01*
X80931719Y-83094529D02*
X81497404Y-82528844D01*
X80608470Y-82771280D01*
X81174155Y-82205595D01*
X80339096Y-82501906D02*
X80904781Y-81936221D01*
X80770094Y-81801534D01*
X80662345Y-81747659D01*
X80554595Y-81747659D01*
X80473783Y-81774597D01*
X80339096Y-81855409D01*
X80258284Y-81936221D01*
X80177471Y-82070908D01*
X80150534Y-82151720D01*
X80150534Y-82259470D01*
X80204409Y-82367219D01*
X80339096Y-82501906D01*
X81739841Y-57425155D02*
X81820653Y-57452093D01*
X81901465Y-57532905D01*
X81955340Y-57640654D01*
X81955340Y-57748404D01*
X81928402Y-57829216D01*
X81847590Y-57963903D01*
X81766778Y-58044715D01*
X81632091Y-58125528D01*
X81551279Y-58152465D01*
X81443529Y-58152465D01*
X81335780Y-58098590D01*
X81281905Y-58044715D01*
X81228030Y-57936966D01*
X81228030Y-57883091D01*
X81416592Y-57694529D01*
X81524341Y-57802279D01*
X80931719Y-57694529D02*
X81497404Y-57128844D01*
X80608470Y-57371280D01*
X81174155Y-56805595D01*
X80339096Y-57101906D02*
X80904781Y-56536221D01*
X80770094Y-56401534D01*
X80662345Y-56347659D01*
X80554595Y-56347659D01*
X80473783Y-56374597D01*
X80339096Y-56455409D01*
X80258284Y-56536221D01*
X80177471Y-56670908D01*
X80150534Y-56751720D01*
X80150534Y-56859470D01*
X80204409Y-56967219D01*
X80339096Y-57101906D01*
X93463904Y-57618380D02*
X92892476Y-57618380D01*
X93178190Y-58618380D02*
X93178190Y-57618380D01*
X92559142Y-58618380D02*
X92559142Y-57618380D01*
X92178190Y-57618380D01*
X92082952Y-57666000D01*
X92035333Y-57713619D01*
X91987714Y-57808857D01*
X91987714Y-57951714D01*
X92035333Y-58046952D01*
X92082952Y-58094571D01*
X92178190Y-58142190D01*
X92559142Y-58142190D01*
X91130571Y-57951714D02*
X91130571Y-58618380D01*
X91368666Y-57570761D02*
X91606761Y-58285047D01*
X90987714Y-58285047D01*
X93463904Y-62698380D02*
X92892476Y-62698380D01*
X93178190Y-63698380D02*
X93178190Y-62698380D01*
X92559142Y-63698380D02*
X92559142Y-62698380D01*
X92178190Y-62698380D01*
X92082952Y-62746000D01*
X92035333Y-62793619D01*
X91987714Y-62888857D01*
X91987714Y-63031714D01*
X92035333Y-63126952D01*
X92082952Y-63174571D01*
X92178190Y-63222190D01*
X92559142Y-63222190D01*
X91130571Y-62698380D02*
X91321047Y-62698380D01*
X91416285Y-62746000D01*
X91463904Y-62793619D01*
X91559142Y-62936476D01*
X91606761Y-63126952D01*
X91606761Y-63507904D01*
X91559142Y-63603142D01*
X91511523Y-63650761D01*
X91416285Y-63698380D01*
X91225809Y-63698380D01*
X91130571Y-63650761D01*
X91082952Y-63603142D01*
X91035333Y-63507904D01*
X91035333Y-63269809D01*
X91082952Y-63174571D01*
X91130571Y-63126952D01*
X91225809Y-63079333D01*
X91416285Y-63079333D01*
X91511523Y-63126952D01*
X91559142Y-63174571D01*
X91606761Y-63269809D01*
X93463904Y-60158380D02*
X92892476Y-60158380D01*
X93178190Y-61158380D02*
X93178190Y-60158380D01*
X92559142Y-61158380D02*
X92559142Y-60158380D01*
X92178190Y-60158380D01*
X92082952Y-60206000D01*
X92035333Y-60253619D01*
X91987714Y-60348857D01*
X91987714Y-60491714D01*
X92035333Y-60586952D01*
X92082952Y-60634571D01*
X92178190Y-60682190D01*
X92559142Y-60682190D01*
X91082952Y-60158380D02*
X91559142Y-60158380D01*
X91606761Y-60634571D01*
X91559142Y-60586952D01*
X91463904Y-60539333D01*
X91225809Y-60539333D01*
X91130571Y-60586952D01*
X91082952Y-60634571D01*
X91035333Y-60729809D01*
X91035333Y-60967904D01*
X91082952Y-61063142D01*
X91130571Y-61110761D01*
X91225809Y-61158380D01*
X91463904Y-61158380D01*
X91559142Y-61110761D01*
X91606761Y-61063142D01*
X82209402Y-71067964D02*
X81940028Y-70798590D01*
X82101653Y-71283463D02*
X82478776Y-70529216D01*
X81724529Y-70906340D01*
X81778404Y-69882719D02*
X81859216Y-69909656D01*
X81940028Y-69990468D01*
X81993903Y-70098218D01*
X81993903Y-70205967D01*
X81966966Y-70286780D01*
X81886154Y-70421467D01*
X81805341Y-70502279D01*
X81670654Y-70583091D01*
X81589842Y-70610028D01*
X81482093Y-70610028D01*
X81374343Y-70556154D01*
X81320468Y-70502279D01*
X81266593Y-70394529D01*
X81266593Y-70340654D01*
X81455155Y-70152093D01*
X81562905Y-70259842D01*
X80970282Y-70152093D02*
X81535967Y-69586407D01*
X80647033Y-69828844D01*
X81212719Y-69263158D01*
X80377659Y-69559470D02*
X80943345Y-68993784D01*
X80808658Y-68859097D01*
X80700908Y-68805223D01*
X80593158Y-68805223D01*
X80512346Y-68832160D01*
X80377659Y-68912972D01*
X80296847Y-68993784D01*
X80216035Y-69128471D01*
X80189097Y-69209284D01*
X80189097Y-69317033D01*
X80242972Y-69424783D01*
X80377659Y-69559470D01*
X81739841Y-95525155D02*
X81820653Y-95552093D01*
X81901465Y-95632905D01*
X81955340Y-95740654D01*
X81955340Y-95848404D01*
X81928402Y-95929216D01*
X81847590Y-96063903D01*
X81766778Y-96144715D01*
X81632091Y-96225528D01*
X81551279Y-96252465D01*
X81443529Y-96252465D01*
X81335780Y-96198590D01*
X81281905Y-96144715D01*
X81228030Y-96036966D01*
X81228030Y-95983091D01*
X81416592Y-95794529D01*
X81524341Y-95902279D01*
X80931719Y-95794529D02*
X81497404Y-95228844D01*
X80608470Y-95471280D01*
X81174155Y-94905595D01*
X80339096Y-95201906D02*
X80904781Y-94636221D01*
X80770094Y-94501534D01*
X80662345Y-94447659D01*
X80554595Y-94447659D01*
X80473783Y-94474597D01*
X80339096Y-94555409D01*
X80258284Y-94636221D01*
X80177471Y-94770908D01*
X80150534Y-94851720D01*
X80150534Y-94959470D01*
X80204409Y-95067219D01*
X80339096Y-95201906D01*
%LPC*%
D12*
X120142000Y-61849000D03*
X109982000Y-61849000D03*
D13*
X116332000Y-66929000D03*
D14*
X113792000Y-66929000D03*
D15*
X111252000Y-59309000D03*
D16*
X115062000Y-61849000D03*
D15*
X117602000Y-56769000D03*
D12*
X139192000Y-59436000D03*
X129032000Y-59436000D03*
D13*
X135382000Y-64516000D03*
D14*
X132842000Y-64516000D03*
D15*
X130302000Y-56896000D03*
D16*
X134112000Y-59436000D03*
D15*
X136652000Y-54356000D03*
D12*
X158242000Y-56896000D03*
X148082000Y-56896000D03*
D13*
X154432000Y-61976000D03*
D14*
X151892000Y-61976000D03*
D15*
X149352000Y-54356000D03*
D16*
X153162000Y-56896000D03*
D15*
X155702000Y-51816000D03*
D12*
X177292000Y-59436000D03*
X167132000Y-59436000D03*
D13*
X173482000Y-64516000D03*
D14*
X170942000Y-64516000D03*
D15*
X168402000Y-56896000D03*
D16*
X172212000Y-59436000D03*
D15*
X174752000Y-54356000D03*
D12*
X196342000Y-64643000D03*
X186182000Y-64643000D03*
D13*
X192532000Y-69723000D03*
D14*
X189992000Y-69723000D03*
D15*
X187452000Y-62103000D03*
D16*
X191262000Y-64643000D03*
D15*
X193802000Y-59563000D03*
D12*
X215392000Y-64643000D03*
X205232000Y-64643000D03*
D13*
X211582000Y-69723000D03*
D14*
X209042000Y-69723000D03*
D15*
X206502000Y-62103000D03*
D16*
X210312000Y-64643000D03*
D15*
X212852000Y-59563000D03*
D12*
X120142000Y-80899000D03*
X109982000Y-80899000D03*
D13*
X116332000Y-85979000D03*
D14*
X113792000Y-85979000D03*
D15*
X111252000Y-78359000D03*
D16*
X115062000Y-80899000D03*
D15*
X117602000Y-75819000D03*
D12*
X139192000Y-78486000D03*
X129032000Y-78486000D03*
D13*
X135382000Y-83566000D03*
D14*
X132842000Y-83566000D03*
D15*
X130302000Y-75946000D03*
D16*
X134112000Y-78486000D03*
D15*
X136652000Y-73406000D03*
D12*
X158242000Y-75946000D03*
X148082000Y-75946000D03*
D13*
X154432000Y-81026000D03*
D14*
X151892000Y-81026000D03*
D15*
X149352000Y-73406000D03*
D16*
X153162000Y-75946000D03*
D15*
X155702000Y-70866000D03*
D12*
X177292000Y-78486000D03*
X167132000Y-78486000D03*
D13*
X173482000Y-83566000D03*
D14*
X170942000Y-83566000D03*
D15*
X168402000Y-75946000D03*
D16*
X172212000Y-78486000D03*
D15*
X174752000Y-73406000D03*
D12*
X196342000Y-83693000D03*
X186182000Y-83693000D03*
D13*
X192532000Y-88773000D03*
D14*
X189992000Y-88773000D03*
D15*
X187452000Y-81153000D03*
D16*
X191262000Y-83693000D03*
D15*
X193802000Y-78613000D03*
D12*
X215392000Y-83693000D03*
X205232000Y-83693000D03*
D13*
X211582000Y-88773000D03*
D14*
X209042000Y-88773000D03*
D15*
X206502000Y-81153000D03*
D16*
X210312000Y-83693000D03*
D15*
X212852000Y-78613000D03*
D12*
X120142000Y-99949000D03*
X109982000Y-99949000D03*
D13*
X116332000Y-105029000D03*
D14*
X113792000Y-105029000D03*
D15*
X111252000Y-97409000D03*
D16*
X115062000Y-99949000D03*
D15*
X117602000Y-94869000D03*
D12*
X139192000Y-97536000D03*
X129032000Y-97536000D03*
D13*
X135382000Y-102616000D03*
D14*
X132842000Y-102616000D03*
D15*
X130302000Y-94996000D03*
D16*
X134112000Y-97536000D03*
D15*
X136652000Y-92456000D03*
D12*
X158242000Y-94996000D03*
X148082000Y-94996000D03*
D13*
X154432000Y-100076000D03*
D14*
X151892000Y-100076000D03*
D15*
X149352000Y-92456000D03*
D16*
X153162000Y-94996000D03*
D15*
X155702000Y-89916000D03*
D12*
X177292000Y-97536000D03*
X167132000Y-97536000D03*
D13*
X173482000Y-102616000D03*
D14*
X170942000Y-102616000D03*
D15*
X168402000Y-94996000D03*
D16*
X172212000Y-97536000D03*
D15*
X174752000Y-92456000D03*
D12*
X196342000Y-102743000D03*
X186182000Y-102743000D03*
D13*
X192532000Y-107823000D03*
D14*
X189992000Y-107823000D03*
D15*
X187452000Y-100203000D03*
D16*
X191262000Y-102743000D03*
D15*
X193802000Y-97663000D03*
D12*
X215392000Y-102743000D03*
X205232000Y-102743000D03*
D13*
X211582000Y-107823000D03*
D14*
X209042000Y-107823000D03*
D15*
X206502000Y-100203000D03*
D16*
X210312000Y-102743000D03*
D15*
X212852000Y-97663000D03*
D12*
X120142000Y-118999000D03*
X109982000Y-118999000D03*
D13*
X116332000Y-124079000D03*
D14*
X113792000Y-124079000D03*
D15*
X111252000Y-116459000D03*
D16*
X115062000Y-118999000D03*
D15*
X117602000Y-113919000D03*
D12*
X139192000Y-116586000D03*
X129032000Y-116586000D03*
D13*
X135382000Y-121666000D03*
D14*
X132842000Y-121666000D03*
D15*
X130302000Y-114046000D03*
D16*
X134112000Y-116586000D03*
D15*
X136652000Y-111506000D03*
D12*
X158242000Y-114046000D03*
X148082000Y-114046000D03*
D13*
X154432000Y-119126000D03*
D14*
X151892000Y-119126000D03*
D15*
X149352000Y-111506000D03*
D16*
X153162000Y-114046000D03*
D15*
X155702000Y-108966000D03*
D12*
X177292000Y-116586000D03*
X167132000Y-116586000D03*
D13*
X173482000Y-121666000D03*
D14*
X170942000Y-121666000D03*
D15*
X168402000Y-114046000D03*
D16*
X172212000Y-116586000D03*
D15*
X174752000Y-111506000D03*
D12*
X196342000Y-121793000D03*
X186182000Y-121793000D03*
D13*
X192532000Y-126873000D03*
D14*
X189992000Y-126873000D03*
D15*
X187452000Y-119253000D03*
D16*
X191262000Y-121793000D03*
D15*
X193802000Y-116713000D03*
D12*
X215392000Y-121793000D03*
X205232000Y-121793000D03*
D13*
X211582000Y-126873000D03*
D14*
X209042000Y-126873000D03*
D15*
X206502000Y-119253000D03*
D16*
X210312000Y-121793000D03*
D15*
X212852000Y-116713000D03*
D12*
X97409000Y-157052437D03*
X92329000Y-148253619D03*
D14*
X91104591Y-156292880D03*
D17*
G36*
X89733785Y-155925574D02*
G01*
X91471897Y-154922074D01*
X92475397Y-156660186D01*
X90737285Y-157663686D01*
X89733785Y-155925574D01*
X89733785Y-155925574D01*
G37*
D14*
X89834591Y-154093176D03*
D15*
X95163705Y-148083471D03*
D16*
X94869000Y-152653028D03*
D15*
X100538409Y-152312733D03*
D12*
X120738670Y-140053015D03*
X111530582Y-144346817D03*
D14*
X119432538Y-146267234D03*
D17*
G36*
X118947156Y-147600811D02*
G01*
X118098961Y-145781852D01*
X119917920Y-144933657D01*
X120766115Y-146752616D01*
X118947156Y-147600811D01*
X118947156Y-147600811D01*
G37*
D14*
X117130516Y-147340685D03*
D15*
X111608143Y-141508070D03*
D16*
X116134626Y-142199916D03*
D15*
X116289747Y-136522422D03*
D12*
X145669000Y-139319000D03*
X135509000Y-139319000D03*
D13*
X141859000Y-144399000D03*
D14*
X139319000Y-144399000D03*
D15*
X136779000Y-136779000D03*
D16*
X140589000Y-139319000D03*
D15*
X143129000Y-134239000D03*
D18*
X212648800Y-52984400D03*
X127127000Y-134493000D03*
X162179000Y-104521000D03*
X200914000Y-133096000D03*
X79756000Y-139192000D03*
X102108000Y-50901600D03*
D19*
X74332000Y-120675400D03*
D17*
G36*
X73822050Y-121475420D02*
G01*
X73812483Y-121472518D01*
X73803666Y-121467805D01*
X73795938Y-121461462D01*
X73789595Y-121453734D01*
X73784882Y-121444917D01*
X73781980Y-121435350D01*
X73781000Y-121425400D01*
X73781000Y-119925400D01*
X73781980Y-119915450D01*
X73784882Y-119905883D01*
X73789595Y-119897066D01*
X73795938Y-119889338D01*
X73803666Y-119882995D01*
X73812483Y-119878282D01*
X73822050Y-119875380D01*
X73832000Y-119874400D01*
X74982000Y-119874400D01*
X74991950Y-119875380D01*
X75001517Y-119878282D01*
X75010334Y-119882995D01*
X75018062Y-119889338D01*
X75024405Y-119897066D01*
X75029118Y-119905883D01*
X75032020Y-119915450D01*
X75033000Y-119925400D01*
X75032020Y-119935350D01*
X75029118Y-119944917D01*
X75024435Y-119953690D01*
X74543295Y-120675400D01*
X75024435Y-121397110D01*
X75029138Y-121405932D01*
X75032030Y-121415503D01*
X75033000Y-121425453D01*
X75032010Y-121435402D01*
X75029097Y-121444966D01*
X75024375Y-121453778D01*
X75018025Y-121461500D01*
X75010290Y-121467835D01*
X75001468Y-121472538D01*
X74991897Y-121475430D01*
X74982000Y-121476400D01*
X73832000Y-121476400D01*
X73822050Y-121475420D01*
X73822050Y-121475420D01*
G37*
D19*
X75782000Y-120675400D03*
D17*
G36*
X75272050Y-121475420D02*
G01*
X75262483Y-121472518D01*
X75253666Y-121467805D01*
X75245938Y-121461462D01*
X75239565Y-121453690D01*
X74739565Y-120703690D01*
X74734862Y-120694868D01*
X74731970Y-120685297D01*
X74731000Y-120675347D01*
X74731990Y-120665398D01*
X74734903Y-120655834D01*
X74739565Y-120647110D01*
X75239565Y-119897110D01*
X75245900Y-119889375D01*
X75253622Y-119883025D01*
X75262434Y-119878303D01*
X75271998Y-119875390D01*
X75282000Y-119874400D01*
X76282000Y-119874400D01*
X76291950Y-119875380D01*
X76301517Y-119878282D01*
X76310334Y-119882995D01*
X76318062Y-119889338D01*
X76324405Y-119897066D01*
X76329118Y-119905883D01*
X76332020Y-119915450D01*
X76333000Y-119925400D01*
X76333000Y-121425400D01*
X76332020Y-121435350D01*
X76329118Y-121444917D01*
X76324405Y-121453734D01*
X76318062Y-121461462D01*
X76310334Y-121467805D01*
X76301517Y-121472518D01*
X76291950Y-121475420D01*
X76282000Y-121476400D01*
X75282000Y-121476400D01*
X75272050Y-121475420D01*
X75272050Y-121475420D01*
G37*
D19*
X70877600Y-120675400D03*
D17*
G36*
X70367650Y-121475420D02*
G01*
X70358083Y-121472518D01*
X70349266Y-121467805D01*
X70341538Y-121461462D01*
X70335195Y-121453734D01*
X70330482Y-121444917D01*
X70327580Y-121435350D01*
X70326600Y-121425400D01*
X70326600Y-119925400D01*
X70327580Y-119915450D01*
X70330482Y-119905883D01*
X70335195Y-119897066D01*
X70341538Y-119889338D01*
X70349266Y-119882995D01*
X70358083Y-119878282D01*
X70367650Y-119875380D01*
X70377600Y-119874400D01*
X71527600Y-119874400D01*
X71537550Y-119875380D01*
X71547117Y-119878282D01*
X71555934Y-119882995D01*
X71563662Y-119889338D01*
X71570005Y-119897066D01*
X71574718Y-119905883D01*
X71577620Y-119915450D01*
X71578600Y-119925400D01*
X71577620Y-119935350D01*
X71574718Y-119944917D01*
X71570035Y-119953690D01*
X71088895Y-120675400D01*
X71570035Y-121397110D01*
X71574738Y-121405932D01*
X71577630Y-121415503D01*
X71578600Y-121425453D01*
X71577610Y-121435402D01*
X71574697Y-121444966D01*
X71569975Y-121453778D01*
X71563625Y-121461500D01*
X71555890Y-121467835D01*
X71547068Y-121472538D01*
X71537497Y-121475430D01*
X71527600Y-121476400D01*
X70377600Y-121476400D01*
X70367650Y-121475420D01*
X70367650Y-121475420D01*
G37*
D19*
X72327600Y-120675400D03*
D17*
G36*
X71817650Y-121475420D02*
G01*
X71808083Y-121472518D01*
X71799266Y-121467805D01*
X71791538Y-121461462D01*
X71785165Y-121453690D01*
X71285165Y-120703690D01*
X71280462Y-120694868D01*
X71277570Y-120685297D01*
X71276600Y-120675347D01*
X71277590Y-120665398D01*
X71280503Y-120655834D01*
X71285165Y-120647110D01*
X71785165Y-119897110D01*
X71791500Y-119889375D01*
X71799222Y-119883025D01*
X71808034Y-119878303D01*
X71817598Y-119875390D01*
X71827600Y-119874400D01*
X72827600Y-119874400D01*
X72837550Y-119875380D01*
X72847117Y-119878282D01*
X72855934Y-119882995D01*
X72863662Y-119889338D01*
X72870005Y-119897066D01*
X72874718Y-119905883D01*
X72877620Y-119915450D01*
X72878600Y-119925400D01*
X72878600Y-121425400D01*
X72877620Y-121435350D01*
X72874718Y-121444917D01*
X72870005Y-121453734D01*
X72863662Y-121461462D01*
X72855934Y-121467805D01*
X72847117Y-121472518D01*
X72837550Y-121475420D01*
X72827600Y-121476400D01*
X71827600Y-121476400D01*
X71817650Y-121475420D01*
X71817650Y-121475420D01*
G37*
D20*
X83566000Y-99592000D03*
D21*
X92456000Y-51562000D03*
X92456000Y-54102000D03*
D20*
X92456000Y-56642000D03*
D21*
X92456000Y-59182000D03*
X92456000Y-61722000D03*
X92456000Y-64262000D03*
X92456000Y-66802000D03*
D20*
X92456000Y-69342000D03*
D21*
X92456000Y-71882000D03*
X92456000Y-74422000D03*
X92456000Y-76962000D03*
X92456000Y-79502000D03*
D20*
X92456000Y-82042000D03*
D21*
X92456000Y-84582000D03*
X92456000Y-87122000D03*
X92456000Y-89662000D03*
X92456000Y-92202000D03*
D20*
X92456000Y-94742000D03*
D21*
X92456000Y-97282000D03*
X92456000Y-99822000D03*
X74676000Y-99822000D03*
X74676000Y-97282000D03*
D20*
X74676000Y-94742000D03*
D21*
X74676000Y-92202000D03*
X74676000Y-89662000D03*
X74676000Y-87122000D03*
X74676000Y-84582000D03*
D20*
X74676000Y-82042000D03*
D21*
X74676000Y-79502000D03*
X74676000Y-76962000D03*
X74676000Y-74422000D03*
X74676000Y-71882000D03*
D20*
X74676000Y-69342000D03*
D21*
X74676000Y-66802000D03*
X74676000Y-64262000D03*
X74676000Y-61722000D03*
X74676000Y-59182000D03*
D20*
X74676000Y-56642000D03*
D21*
X74676000Y-54102000D03*
X74676000Y-51562000D03*
X78486000Y-92202000D03*
X78486000Y-61722000D03*
D17*
G36*
X87884382Y-53418229D02*
G01*
X87929327Y-53424896D01*
X87973402Y-53435937D01*
X88016182Y-53451244D01*
X88057257Y-53470670D01*
X88096229Y-53494030D01*
X88132724Y-53521096D01*
X88166390Y-53551610D01*
X88196904Y-53585276D01*
X88223970Y-53621771D01*
X88247330Y-53660743D01*
X88266756Y-53701818D01*
X88282063Y-53744598D01*
X88293104Y-53788673D01*
X88299771Y-53833618D01*
X88302000Y-53879000D01*
X88302000Y-54805000D01*
X88299771Y-54850382D01*
X88293104Y-54895327D01*
X88282063Y-54939402D01*
X88266756Y-54982182D01*
X88247330Y-55023257D01*
X88223970Y-55062229D01*
X88196904Y-55098724D01*
X88166390Y-55132390D01*
X88132724Y-55162904D01*
X88096229Y-55189970D01*
X88057257Y-55213330D01*
X88016182Y-55232756D01*
X87973402Y-55248063D01*
X87929327Y-55259104D01*
X87884382Y-55265771D01*
X87839000Y-55268000D01*
X86913000Y-55268000D01*
X86867618Y-55265771D01*
X86822673Y-55259104D01*
X86778598Y-55248063D01*
X86735818Y-55232756D01*
X86694743Y-55213330D01*
X86655771Y-55189970D01*
X86619276Y-55162904D01*
X86585610Y-55132390D01*
X86555096Y-55098724D01*
X86528030Y-55062229D01*
X86504670Y-55023257D01*
X86485244Y-54982182D01*
X86469937Y-54939402D01*
X86458896Y-54895327D01*
X86452229Y-54850382D01*
X86450000Y-54805000D01*
X86450000Y-53879000D01*
X86452229Y-53833618D01*
X86458896Y-53788673D01*
X86469937Y-53744598D01*
X86485244Y-53701818D01*
X86504670Y-53660743D01*
X86528030Y-53621771D01*
X86555096Y-53585276D01*
X86585610Y-53551610D01*
X86619276Y-53521096D01*
X86655771Y-53494030D01*
X86694743Y-53470670D01*
X86735818Y-53451244D01*
X86778598Y-53435937D01*
X86822673Y-53424896D01*
X86867618Y-53418229D01*
X86913000Y-53416000D01*
X87839000Y-53416000D01*
X87884382Y-53418229D01*
X87884382Y-53418229D01*
G37*
D12*
X87376000Y-54342000D03*
D21*
X96266000Y-97282000D03*
X78486000Y-84582000D03*
X96266000Y-92202000D03*
X96266000Y-51562000D03*
D20*
X96266000Y-94742000D03*
X96266000Y-69342000D03*
D21*
X96266000Y-61722000D03*
X96266000Y-71882000D03*
X96266000Y-79502000D03*
X96266000Y-99822000D03*
D20*
X96266000Y-82042000D03*
D21*
X78486000Y-66802000D03*
X96266000Y-89662000D03*
X96266000Y-84582000D03*
D20*
X78486000Y-82042000D03*
D21*
X78486000Y-76962000D03*
X78486000Y-74422000D03*
X96266000Y-74422000D03*
X78486000Y-99822000D03*
X78486000Y-71882000D03*
X78486000Y-89662000D03*
X96266000Y-87122000D03*
X96266000Y-76962000D03*
X96266000Y-59182000D03*
D17*
G36*
X86868382Y-50643229D02*
G01*
X86913327Y-50649896D01*
X86957402Y-50660937D01*
X87000182Y-50676244D01*
X87041257Y-50695670D01*
X87080229Y-50719030D01*
X87116724Y-50746096D01*
X87150390Y-50776610D01*
X87180904Y-50810276D01*
X87207970Y-50846771D01*
X87231330Y-50885743D01*
X87250756Y-50926818D01*
X87266063Y-50969598D01*
X87277104Y-51013673D01*
X87283771Y-51058618D01*
X87286000Y-51104000D01*
X87286000Y-52030000D01*
X87283771Y-52075382D01*
X87277104Y-52120327D01*
X87266063Y-52164402D01*
X87250756Y-52207182D01*
X87231330Y-52248257D01*
X87207970Y-52287229D01*
X87180904Y-52323724D01*
X87150390Y-52357390D01*
X87116724Y-52387904D01*
X87080229Y-52414970D01*
X87041257Y-52438330D01*
X87000182Y-52457756D01*
X86957402Y-52473063D01*
X86913327Y-52484104D01*
X86868382Y-52490771D01*
X86823000Y-52493000D01*
X85897000Y-52493000D01*
X85851618Y-52490771D01*
X85806673Y-52484104D01*
X85762598Y-52473063D01*
X85719818Y-52457756D01*
X85678743Y-52438330D01*
X85639771Y-52414970D01*
X85603276Y-52387904D01*
X85569610Y-52357390D01*
X85539096Y-52323724D01*
X85512030Y-52287229D01*
X85488670Y-52248257D01*
X85469244Y-52207182D01*
X85453937Y-52164402D01*
X85442896Y-52120327D01*
X85436229Y-52075382D01*
X85434000Y-52030000D01*
X85434000Y-51104000D01*
X85436229Y-51058618D01*
X85442896Y-51013673D01*
X85453937Y-50969598D01*
X85469244Y-50926818D01*
X85488670Y-50885743D01*
X85512030Y-50846771D01*
X85539096Y-50810276D01*
X85569610Y-50776610D01*
X85603276Y-50746096D01*
X85639771Y-50719030D01*
X85678743Y-50695670D01*
X85719818Y-50676244D01*
X85762598Y-50660937D01*
X85806673Y-50649896D01*
X85851618Y-50643229D01*
X85897000Y-50641000D01*
X86823000Y-50641000D01*
X86868382Y-50643229D01*
X86868382Y-50643229D01*
G37*
D12*
X86360000Y-51567000D03*
D17*
G36*
X88900382Y-50643229D02*
G01*
X88945327Y-50649896D01*
X88989402Y-50660937D01*
X89032182Y-50676244D01*
X89073257Y-50695670D01*
X89112229Y-50719030D01*
X89148724Y-50746096D01*
X89182390Y-50776610D01*
X89212904Y-50810276D01*
X89239970Y-50846771D01*
X89263330Y-50885743D01*
X89282756Y-50926818D01*
X89298063Y-50969598D01*
X89309104Y-51013673D01*
X89315771Y-51058618D01*
X89318000Y-51104000D01*
X89318000Y-52030000D01*
X89315771Y-52075382D01*
X89309104Y-52120327D01*
X89298063Y-52164402D01*
X89282756Y-52207182D01*
X89263330Y-52248257D01*
X89239970Y-52287229D01*
X89212904Y-52323724D01*
X89182390Y-52357390D01*
X89148724Y-52387904D01*
X89112229Y-52414970D01*
X89073257Y-52438330D01*
X89032182Y-52457756D01*
X88989402Y-52473063D01*
X88945327Y-52484104D01*
X88900382Y-52490771D01*
X88855000Y-52493000D01*
X87929000Y-52493000D01*
X87883618Y-52490771D01*
X87838673Y-52484104D01*
X87794598Y-52473063D01*
X87751818Y-52457756D01*
X87710743Y-52438330D01*
X87671771Y-52414970D01*
X87635276Y-52387904D01*
X87601610Y-52357390D01*
X87571096Y-52323724D01*
X87544030Y-52287229D01*
X87520670Y-52248257D01*
X87501244Y-52207182D01*
X87485937Y-52164402D01*
X87474896Y-52120327D01*
X87468229Y-52075382D01*
X87466000Y-52030000D01*
X87466000Y-51104000D01*
X87468229Y-51058618D01*
X87474896Y-51013673D01*
X87485937Y-50969598D01*
X87501244Y-50926818D01*
X87520670Y-50885743D01*
X87544030Y-50846771D01*
X87571096Y-50810276D01*
X87601610Y-50776610D01*
X87635276Y-50746096D01*
X87671771Y-50719030D01*
X87710743Y-50695670D01*
X87751818Y-50676244D01*
X87794598Y-50660937D01*
X87838673Y-50649896D01*
X87883618Y-50643229D01*
X87929000Y-50641000D01*
X88855000Y-50641000D01*
X88900382Y-50643229D01*
X88900382Y-50643229D01*
G37*
D12*
X88392000Y-51567000D03*
D21*
X78486000Y-87122000D03*
X96266000Y-64262000D03*
D20*
X96266000Y-56642000D03*
D21*
X78486000Y-79502000D03*
X96266000Y-66802000D03*
D20*
X78486000Y-94742000D03*
X78486000Y-69342000D03*
D21*
X78486000Y-64262000D03*
X78486000Y-59182000D03*
X96266000Y-54102000D03*
X78486000Y-97282000D03*
D22*
X77586000Y-84582000D03*
X97166000Y-92202000D03*
X77586000Y-71882000D03*
X77586000Y-74422000D03*
D20*
X78486000Y-56642000D03*
D21*
X78486000Y-54102000D03*
D22*
X77586000Y-76962000D03*
X77586000Y-54102000D03*
D21*
X78486000Y-51562000D03*
D23*
X87376000Y-100492000D03*
D22*
X97166000Y-51562000D03*
X97166000Y-54102000D03*
X97166000Y-69342000D03*
X97166000Y-87122000D03*
X77586000Y-87122000D03*
X77586000Y-79502000D03*
X97166000Y-94742000D03*
X97166000Y-97282000D03*
X77586000Y-92202000D03*
X77586000Y-64262000D03*
X97166000Y-89662000D03*
X97166000Y-56642000D03*
X77586000Y-94742000D03*
X97166000Y-59182000D03*
X97166000Y-61722000D03*
X77586000Y-51562000D03*
X97166000Y-64262000D03*
X97166000Y-66802000D03*
X77586000Y-69342000D03*
D20*
X87376000Y-99592000D03*
D22*
X77586000Y-89662000D03*
X97166000Y-71882000D03*
X77586000Y-59182000D03*
X77586000Y-66802000D03*
X97166000Y-74422000D03*
X97166000Y-99822000D03*
X77586000Y-56642000D03*
X77586000Y-82042000D03*
X77586000Y-97282000D03*
X97166000Y-76962000D03*
X97166000Y-79502000D03*
X97166000Y-82042000D03*
X97166000Y-84582000D03*
X77586000Y-99822000D03*
X77586000Y-61722000D03*
D21*
X103759000Y-66675000D03*
X103759000Y-64135000D03*
X103759000Y-61595000D03*
D20*
X103759000Y-59055000D03*
D24*
X91925000Y-116840000D03*
X91925000Y-112340000D03*
X98425000Y-116840000D03*
X98425000Y-112340000D03*
D21*
X103124000Y-131699000D03*
X103124000Y-129159000D03*
X103124000Y-126619000D03*
D20*
X103124000Y-124079000D03*
D25*
X71915000Y-114554000D03*
D26*
X81415000Y-111804000D03*
X81415000Y-117304000D03*
X81915000Y-114554000D03*
X73215000Y-111304000D03*
X73215000Y-117804000D03*
D25*
X78915000Y-114554000D03*
D27*
X144399000Y-147955000D03*
D28*
X136779000Y-147955000D03*
D29*
X138814000Y-147955000D03*
X142364000Y-147955000D03*
D27*
X123440368Y-148361183D03*
X116534302Y-151581535D03*
D17*
G36*
X116171777Y-152577565D02*
G01*
X115538272Y-151219010D01*
X116896827Y-150585505D01*
X117530332Y-151944060D01*
X116171777Y-152577565D01*
X116171777Y-152577565D01*
G37*
D30*
X118378639Y-150721506D03*
D17*
G36*
X117965614Y-151494479D02*
G01*
X117521020Y-150541044D01*
X118791664Y-149948533D01*
X119236258Y-150901968D01*
X117965614Y-151494479D01*
X117965614Y-151494479D01*
G37*
D30*
X121596031Y-149221212D03*
D17*
G36*
X121183006Y-149994185D02*
G01*
X120738412Y-149040750D01*
X122009056Y-148448239D01*
X122453650Y-149401674D01*
X121183006Y-149994185D01*
X121183006Y-149994185D01*
G37*
D27*
X89274834Y-160386719D03*
X85464834Y-153787605D03*
D17*
G36*
X84440998Y-153513269D02*
G01*
X85739170Y-152763769D01*
X86488670Y-154061941D01*
X85190498Y-154811441D01*
X84440998Y-153513269D01*
X84440998Y-153513269D01*
G37*
D30*
X86482334Y-155549967D03*
D17*
G36*
X85676305Y-155205883D02*
G01*
X86587363Y-154679883D01*
X87288363Y-155894051D01*
X86377305Y-156420051D01*
X85676305Y-155205883D01*
X85676305Y-155205883D01*
G37*
D30*
X88257334Y-158624357D03*
D17*
G36*
X87451305Y-158280273D02*
G01*
X88362363Y-157754273D01*
X89063363Y-158968441D01*
X88152305Y-159494441D01*
X87451305Y-158280273D01*
X87451305Y-158280273D01*
G37*
D27*
X214122000Y-130429000D03*
D28*
X206502000Y-130429000D03*
D29*
X208537000Y-130429000D03*
X212087000Y-130429000D03*
D27*
X195072000Y-130429000D03*
D28*
X187452000Y-130429000D03*
D29*
X189487000Y-130429000D03*
X193037000Y-130429000D03*
D27*
X176146000Y-125222000D03*
D28*
X168526000Y-125222000D03*
D29*
X170561000Y-125222000D03*
X174111000Y-125222000D03*
D27*
X156972000Y-122682000D03*
D28*
X149352000Y-122682000D03*
D29*
X151387000Y-122682000D03*
X154937000Y-122682000D03*
D27*
X138049000Y-125222000D03*
D28*
X130429000Y-125222000D03*
D29*
X132464000Y-125222000D03*
X136014000Y-125222000D03*
D27*
X118872000Y-127635000D03*
D28*
X111252000Y-127635000D03*
D29*
X113287000Y-127635000D03*
X116837000Y-127635000D03*
D27*
X214122000Y-111379000D03*
D28*
X206502000Y-111379000D03*
D29*
X208537000Y-111379000D03*
X212087000Y-111379000D03*
D27*
X195199000Y-111379000D03*
D28*
X187579000Y-111379000D03*
D29*
X189614000Y-111379000D03*
X193164000Y-111379000D03*
D27*
X176149000Y-106172000D03*
D28*
X168529000Y-106172000D03*
D29*
X170564000Y-106172000D03*
X174114000Y-106172000D03*
D27*
X156972000Y-103632000D03*
D28*
X149352000Y-103632000D03*
D29*
X151387000Y-103632000D03*
X154937000Y-103632000D03*
D27*
X137922000Y-106172000D03*
D28*
X130302000Y-106172000D03*
D29*
X132337000Y-106172000D03*
X135887000Y-106172000D03*
D27*
X118999000Y-108585000D03*
D28*
X111379000Y-108585000D03*
D29*
X113414000Y-108585000D03*
X116964000Y-108585000D03*
D27*
X214122000Y-92329000D03*
D28*
X206502000Y-92329000D03*
D29*
X208537000Y-92329000D03*
X212087000Y-92329000D03*
D27*
X195199000Y-92329000D03*
D28*
X187579000Y-92329000D03*
D29*
X189614000Y-92329000D03*
X193164000Y-92329000D03*
D27*
X176149000Y-87122000D03*
D28*
X168529000Y-87122000D03*
D29*
X170564000Y-87122000D03*
X174114000Y-87122000D03*
D27*
X157099000Y-84582000D03*
D28*
X149479000Y-84582000D03*
D29*
X151514000Y-84582000D03*
X155064000Y-84582000D03*
D27*
X137922000Y-87122000D03*
D28*
X130302000Y-87122000D03*
D29*
X132337000Y-87122000D03*
X135887000Y-87122000D03*
D27*
X118872000Y-89535000D03*
D28*
X111252000Y-89535000D03*
D29*
X113287000Y-89535000D03*
X116837000Y-89535000D03*
D27*
X214122000Y-73279000D03*
D28*
X206502000Y-73279000D03*
D29*
X208537000Y-73279000D03*
X212087000Y-73279000D03*
D27*
X195072000Y-73279000D03*
D28*
X187452000Y-73279000D03*
D29*
X189487000Y-73279000D03*
X193037000Y-73279000D03*
D27*
X176152000Y-68072000D03*
D28*
X168532000Y-68072000D03*
D29*
X170567000Y-68072000D03*
X174117000Y-68072000D03*
D27*
X156972000Y-65532000D03*
D28*
X149352000Y-65532000D03*
D29*
X151387000Y-65532000D03*
X154937000Y-65532000D03*
D27*
X138049000Y-68072000D03*
D28*
X130429000Y-68072000D03*
D29*
X132464000Y-68072000D03*
X136014000Y-68072000D03*
D27*
X118872000Y-70485000D03*
D28*
X111252000Y-70485000D03*
D29*
X113287000Y-70485000D03*
X116837000Y-70485000D03*
M02*
