G04 #@! TF.GenerationSoftware,KiCad,Pcbnew,(5.1.4)-1*
G04 #@! TF.CreationDate,2021-09-07T00:36:14+08:00*
G04 #@! TF.ProjectId,Split Keeb,53706c69-7420-44b6-9565-622e6b696361,rev?*
G04 #@! TF.SameCoordinates,Original*
G04 #@! TF.FileFunction,Profile,NP*
%FSLAX46Y46*%
G04 Gerber Fmt 4.6, Leading zero omitted, Abs format (unit mm)*
G04 Created by KiCad (PCBNEW (5.1.4)-1) date 2021-09-07 00:36:14*
%MOMM*%
%LPD*%
G04 APERTURE LIST*
%ADD10C,0.050000*%
G04 APERTURE END LIST*
D10*
X105054400Y-135483600D02*
X105283000Y-52070000D01*
X81483200Y-149098000D02*
X105054400Y-135483600D01*
X91236800Y-165963600D02*
X81483200Y-149098000D01*
X125095000Y-148996400D02*
X91236800Y-165963600D01*
X150418800Y-149148800D02*
X125095000Y-148996400D01*
X150622000Y-123850400D02*
X150418800Y-149148800D01*
X162331400Y-123977400D02*
X150622000Y-123850400D01*
X162331400Y-126365000D02*
X162331400Y-123977400D01*
X181457600Y-126517400D02*
X162331400Y-126365000D01*
X181432200Y-131622800D02*
X181457600Y-126517400D01*
X220014800Y-131546600D02*
X181432200Y-131622800D01*
X219989400Y-54889400D02*
X220014800Y-131546600D01*
X181965600Y-54864000D02*
X219989400Y-54889400D01*
X182016400Y-49733200D02*
X181965600Y-54864000D01*
X162839400Y-49758600D02*
X182016400Y-49733200D01*
X162814000Y-47167800D02*
X162839400Y-49758600D01*
X143433800Y-47218600D02*
X162814000Y-47167800D01*
X143408400Y-49657000D02*
X143433800Y-47218600D01*
X124383800Y-49733200D02*
X143408400Y-49657000D01*
X124383800Y-52070000D02*
X124383800Y-49733200D01*
X105283000Y-52070000D02*
X124383800Y-52070000D01*
M02*
