<svg version="1.1" xmlns="http://www.w3.org/2000/svg" xmlns:xlink="http://www.w3.org/1999/xlink" stroke-linecap="round" stroke-linejoin="round" stroke-width="0" fill-rule="evenodd" width="138.961mm" height="119.2252mm" viewBox="81230.4 -166165.6 138961 119225.2" id="hC-JEdd-oyu86EnKE5mD"><g transform="translate(0,-213106) scale(1,-1)" fill="currentColor" stroke="currentColor"><path d="M 150444.2 -123926.6 162458.4 -123850.4 M 124282.2 -52019.2 105206.8 -52070 M 124282.2 -49682.4 124282.2 -52019.2 M 143306.8 -49555.4 124282.2 -49682.4 M 143332.2 -47142.4 143306.8 -49555.4 M 162966.4 -47015.4 143332.2 -47142.4 M 162941 -49682.4 162966.4 -47015.4 M 181965.6 -49682.4 162941 -49682.4 M 181991 -54914.8 181965.6 -49682.4 M 220116.4 -54889.4 181991 -54914.8 M 220091 -131648.2 220116.4 -54889.4 M 181483 -131749.8 220091 -131648.2 M 181457.6 -126466.6 181483 -131749.8 M 162407.6 -126517.4 181457.6 -126466.6 M 162458.4 -123850.4 162407.6 -126517.4 M 150444.2 -149148.8 150444.2 -123926.6 M 125069.6 -149174.2 150444.2 -149148.8 M 91338.4 -166090.6 125069.6 -149174.2 M 81305.4 -149148.8 91338.4 -166090.6 M 105283 -135483.6 81305.4 -149148.8 M 105206.8 -52070 105283 -135483.6" fill="none" stroke-width="150"/></g></svg>