M48
; DRILL file {KiCad (5.1.4)-1} date 06/07/2021 10:58:33 AM
; FORMAT={-:-/ absolute / metric / decimal}
; #@! TF.CreationDate,2021-07-06T10:58:33+08:00
; #@! TF.GenerationSoftware,Kicad,Pcbnew,(5.1.4)-1
; #@! TF.FileFunction,NonPlated,1,2,NPTH
FMAT,2
METRIC
T1C1.100
T2C1.702
T3C3.200
T4C3.988
%
G90
G05
T1
X71.915Y-114.554
X78.915Y-114.554
T2
X129.032Y-78.486
X139.192Y-78.486
X186.182Y-83.693
X196.342Y-83.693
X205.232Y-102.743
X215.392Y-102.743
X205.232Y-83.693
X215.392Y-83.693
X148.082Y-114.046
X158.242Y-114.046
X186.182Y-102.743
X196.342Y-102.743
X109.982Y-61.849
X120.142Y-61.849
X186.182Y-121.793
X196.342Y-121.793
X111.531Y-144.347
X120.739Y-140.053
X109.982Y-80.899
X120.142Y-80.899
X205.232Y-121.793
X215.392Y-121.793
X148.082Y-75.946
X158.242Y-75.946
X148.082Y-94.996
X158.242Y-94.996
X186.182Y-64.643
X196.342Y-64.643
X109.982Y-99.949
X120.142Y-99.949
X148.082Y-56.896
X158.242Y-56.896
X109.982Y-118.999
X120.142Y-118.999
X129.032Y-59.436
X139.192Y-59.436
X167.132Y-116.586
X177.292Y-116.586
X205.232Y-64.643
X215.392Y-64.643
X167.132Y-59.436
X177.292Y-59.436
X167.132Y-97.536
X177.292Y-97.536
X167.132Y-78.486
X177.292Y-78.486
X129.032Y-97.536
X139.192Y-97.536
X135.509Y-139.319
X145.669Y-139.319
X129.032Y-116.586
X139.192Y-116.586
X92.329Y-148.254
X97.409Y-157.052
T3
X79.756Y-139.192
X212.649Y-52.984
X162.179Y-104.521
X127.127Y-134.493
X200.914Y-133.096
X104.394Y-52.451
T4
X172.212Y-116.586
X210.312Y-64.643
X172.212Y-59.436
X172.212Y-97.536
X172.212Y-78.486
X134.112Y-97.536
X140.589Y-139.319
X134.112Y-116.586
X94.869Y-152.653
X134.112Y-78.486
X191.262Y-83.693
X210.312Y-102.743
X210.312Y-83.693
X153.162Y-114.046
X191.262Y-102.743
X115.062Y-61.849
X191.262Y-121.793
X116.135Y-142.2
X115.062Y-80.899
X210.312Y-121.793
X153.162Y-75.946
X153.162Y-94.996
X191.262Y-64.643
X115.062Y-99.949
X153.162Y-56.896
X115.062Y-118.999
X134.112Y-59.436
T0
M30
