M48
; DRILL file {KiCad (5.1.4)-1} date 06/07/2021 10:58:33 AM
; FORMAT={-:-/ absolute / metric / decimal}
; #@! TF.CreationDate,2021-07-06T10:58:33+08:00
; #@! TF.GenerationSoftware,Kicad,Pcbnew,(5.1.4)-1
; #@! TF.FileFunction,Plated,1,2,PTH
FMAT,2
METRIC
T1C0.400
T2C0.813
T3C1.000
T4C1.020
T5C1.100
T6C1.499
%
G90
G05
T1
X70.841Y-118.872
X73.494Y-122.081
X74.219Y-122.809
X75.387Y-118.847
X80.717Y-51.824
X85.979Y-55.753
X89.916Y-51.562
X90.297Y-149.86
X99.568Y-74.549
X100.748Y-55.626
X105.41Y-127.635
X106.172Y-108.585
X111.252Y-83.439
X130.302Y-83.377
X149.352Y-82.169
X167.64Y-92.837
X186.69Y-97.917
X201.168Y-105.791
T2
X187.579Y-92.329
X195.199Y-92.329
X130.429Y-125.222
X138.049Y-125.222
X149.352Y-103.632
X156.972Y-103.632
X149.352Y-122.682
X156.972Y-122.682
X149.352Y-65.532
X156.972Y-65.532
X168.529Y-106.172
X176.149Y-106.172
X136.779Y-147.955
X144.399Y-147.955
X130.429Y-68.072
X138.049Y-68.072
X206.502Y-73.279
X214.122Y-73.279
X206.502Y-130.429
X214.122Y-130.429
X168.532Y-68.072
X176.152Y-68.072
X111.252Y-89.535
X118.872Y-89.535
X111.252Y-127.635
X118.872Y-127.635
X111.379Y-108.585
X118.999Y-108.585
X206.502Y-111.379
X214.122Y-111.379
X111.252Y-70.485
X118.872Y-70.485
X168.529Y-87.122
X176.149Y-87.122
X187.452Y-130.429
X195.072Y-130.429
X149.479Y-84.582
X157.099Y-84.582
X130.302Y-106.172
X137.922Y-106.172
X187.579Y-111.379
X195.199Y-111.379
X168.526Y-125.222
X176.146Y-125.222
X187.452Y-73.279
X195.072Y-73.279
X116.534Y-151.582
X123.44Y-148.361
X206.502Y-92.329
X214.122Y-92.329
X130.302Y-87.122
X137.922Y-87.122
X85.465Y-153.788
X89.275Y-160.387
T3
X103.759Y-59.055
X103.759Y-61.595
X103.759Y-64.135
X103.759Y-66.675
X103.124Y-124.079
X103.124Y-126.619
X103.124Y-129.159
X103.124Y-131.699
X73.215Y-111.304
X73.215Y-117.804
X81.415Y-111.804
X81.415Y-117.304
X81.915Y-114.554
T4
X74.676Y-51.562
X74.676Y-54.102
X74.676Y-56.642
X74.676Y-59.182
X74.676Y-61.722
X74.676Y-64.262
X74.676Y-66.802
X74.676Y-69.342
X74.676Y-71.882
X74.676Y-74.422
X74.676Y-76.962
X74.676Y-79.502
X74.676Y-82.042
X74.676Y-84.582
X74.676Y-87.122
X74.676Y-89.662
X74.676Y-92.202
X74.676Y-94.742
X74.676Y-97.282
X74.676Y-99.822
X78.486Y-51.562
X78.486Y-54.102
X78.486Y-56.642
X78.486Y-59.182
X78.486Y-61.722
X78.486Y-64.262
X78.486Y-66.802
X78.486Y-69.342
X78.486Y-71.882
X78.486Y-74.422
X78.486Y-76.962
X78.486Y-79.502
X78.486Y-82.042
X78.486Y-84.582
X78.486Y-87.122
X78.486Y-89.662
X78.486Y-92.202
X78.486Y-94.742
X78.486Y-97.282
X78.486Y-99.822
X83.566Y-99.592
X87.376Y-99.592
X92.456Y-51.562
X92.456Y-54.102
X92.456Y-56.642
X92.456Y-59.182
X92.456Y-61.722
X92.456Y-64.262
X92.456Y-66.802
X92.456Y-69.342
X92.456Y-71.882
X92.456Y-74.422
X92.456Y-76.962
X92.456Y-79.502
X92.456Y-82.042
X92.456Y-84.582
X92.456Y-87.122
X92.456Y-89.662
X92.456Y-92.202
X92.456Y-94.742
X92.456Y-97.282
X92.456Y-99.822
X96.266Y-51.562
X96.266Y-54.102
X96.266Y-56.642
X96.266Y-59.182
X96.266Y-61.722
X96.266Y-64.262
X96.266Y-66.802
X96.266Y-69.342
X96.266Y-71.882
X96.266Y-74.422
X96.266Y-76.962
X96.266Y-79.502
X96.266Y-82.042
X96.266Y-84.582
X96.266Y-87.122
X96.266Y-89.662
X96.266Y-92.202
X96.266Y-94.742
X96.266Y-97.282
X96.266Y-99.822
T5
X91.925Y-112.34
X91.925Y-116.84
X98.425Y-112.34
X98.425Y-116.84
T6
X206.502Y-62.103
X207.772Y-59.563
X212.852Y-59.563
X214.122Y-62.103
X168.402Y-56.896
X169.672Y-54.356
X174.752Y-54.356
X176.022Y-56.896
X168.402Y-94.996
X169.672Y-92.456
X174.752Y-92.456
X176.022Y-94.996
X168.402Y-75.946
X169.672Y-73.406
X174.752Y-73.406
X176.022Y-75.946
X130.302Y-94.996
X131.572Y-92.456
X136.652Y-92.456
X137.922Y-94.996
X136.779Y-136.779
X138.049Y-134.239
X143.129Y-134.239
X144.399Y-136.779
X130.302Y-114.046
X131.572Y-111.506
X136.652Y-111.506
X137.922Y-114.046
X95.164Y-148.083
X97.998Y-147.913
X98.974Y-154.683
X100.538Y-152.313
X130.302Y-75.946
X131.572Y-73.406
X136.652Y-73.406
X137.922Y-75.946
X187.452Y-81.153
X188.722Y-78.613
X193.802Y-78.613
X195.072Y-81.153
X206.502Y-100.203
X207.772Y-97.663
X212.852Y-97.663
X214.122Y-100.203
X206.502Y-81.153
X207.772Y-78.613
X212.852Y-78.613
X214.122Y-81.153
X149.352Y-111.506
X150.622Y-108.966
X155.702Y-108.966
X156.972Y-111.506
X187.452Y-100.203
X188.722Y-97.663
X193.802Y-97.663
X195.072Y-100.203
X111.252Y-59.309
X112.522Y-56.769
X117.602Y-56.769
X118.872Y-59.309
X187.452Y-119.253
X188.722Y-116.713
X193.802Y-116.713
X195.072Y-119.253
X111.608Y-141.508
X111.686Y-138.669
X116.29Y-136.522
X118.514Y-138.288
X111.252Y-78.359
X112.522Y-75.819
X117.602Y-75.819
X118.872Y-78.359
X206.502Y-119.253
X207.772Y-116.713
X212.852Y-116.713
X214.122Y-119.253
X149.352Y-73.406
X150.622Y-70.866
X155.702Y-70.866
X156.972Y-73.406
X149.352Y-92.456
X150.622Y-89.916
X155.702Y-89.916
X156.972Y-92.456
X187.452Y-62.103
X188.722Y-59.563
X193.802Y-59.563
X195.072Y-62.103
X111.252Y-97.409
X112.522Y-94.869
X117.602Y-94.869
X118.872Y-97.409
X149.352Y-54.356
X150.622Y-51.816
X155.702Y-51.816
X156.972Y-54.356
X111.252Y-116.459
X112.522Y-113.919
X117.602Y-113.919
X118.872Y-116.459
X130.302Y-56.896
X131.572Y-54.356
X136.652Y-54.356
X137.922Y-56.896
X168.402Y-114.046
X169.672Y-111.506
X174.752Y-111.506
X176.022Y-114.046
T0
M30
