G04 #@! TF.GenerationSoftware,KiCad,Pcbnew,(5.1.4)-1*
G04 #@! TF.CreationDate,2021-07-06T10:58:29+08:00*
G04 #@! TF.ProjectId,Split Keeb,53706c69-7420-44b6-9565-622e6b696361,rev?*
G04 #@! TF.SameCoordinates,Original*
G04 #@! TF.FileFunction,Copper,L1,Top*
G04 #@! TF.FilePolarity,Positive*
%FSLAX46Y46*%
G04 Gerber Fmt 4.6, Leading zero omitted, Abs format (unit mm)*
G04 Created by KiCad (PCBNEW (5.1.4)-1) date 2021-07-06 10:58:29*
%MOMM*%
%LPD*%
G04 APERTURE LIST*
%ADD10C,0.300000*%
%ADD11C,0.100000*%
%ADD12C,2.286000*%
%ADD13R,1.700000X1.700000*%
%ADD14R,1.700000X3.500000*%
%ADD15R,3.500000X1.700000*%
%ADD16O,1.700000X1.700000*%
%ADD17C,1.750000*%
%ADD18C,2.000000*%
%ADD19C,1.300000*%
%ADD20C,1.500000*%
%ADD21R,1.300000X0.950000*%
%ADD22C,1.397000*%
%ADD23R,1.397000X1.397000*%
%ADD24C,0.950000*%
%ADD25C,0.800000*%
%ADD26C,0.250000*%
%ADD27C,0.400000*%
G04 APERTURE END LIST*
D10*
X70877600Y-120675400D03*
D11*
G36*
X71877600Y-120675400D02*
G01*
X71377600Y-121425400D01*
X70377600Y-121425400D01*
X70377600Y-119925400D01*
X71377600Y-119925400D01*
X71877600Y-120675400D01*
X71877600Y-120675400D01*
G37*
D10*
X72327600Y-120675400D03*
D11*
G36*
X72827600Y-121425400D02*
G01*
X71677600Y-121425400D01*
X72177600Y-120675400D01*
X71677600Y-119925400D01*
X72827600Y-119925400D01*
X72827600Y-121425400D01*
X72827600Y-121425400D01*
G37*
D10*
X74332000Y-120675400D03*
D11*
G36*
X75332000Y-120675400D02*
G01*
X74832000Y-121425400D01*
X73832000Y-121425400D01*
X73832000Y-119925400D01*
X74832000Y-119925400D01*
X75332000Y-120675400D01*
X75332000Y-120675400D01*
G37*
D10*
X75782000Y-120675400D03*
D11*
G36*
X76282000Y-121425400D02*
G01*
X75132000Y-121425400D01*
X75632000Y-120675400D01*
X75132000Y-119925400D01*
X76282000Y-119925400D01*
X76282000Y-121425400D01*
X76282000Y-121425400D01*
G37*
D12*
X118872000Y-59309000D03*
X112522000Y-56769000D03*
X117602000Y-56769000D03*
X111252000Y-59309000D03*
X137922000Y-56896000D03*
X131572000Y-54356000D03*
X136652000Y-54356000D03*
X130302000Y-56896000D03*
X156972000Y-54356000D03*
X150622000Y-51816000D03*
X155702000Y-51816000D03*
X149352000Y-54356000D03*
X176022000Y-56896000D03*
X169672000Y-54356000D03*
X174752000Y-54356000D03*
X168402000Y-56896000D03*
X195072000Y-62103000D03*
X188722000Y-59563000D03*
X193802000Y-59563000D03*
X187452000Y-62103000D03*
X214122000Y-62103000D03*
X207772000Y-59563000D03*
X212852000Y-59563000D03*
X206502000Y-62103000D03*
X118872000Y-78359000D03*
X112522000Y-75819000D03*
X117602000Y-75819000D03*
X111252000Y-78359000D03*
X137922000Y-75946000D03*
X131572000Y-73406000D03*
X136652000Y-73406000D03*
X130302000Y-75946000D03*
X156972000Y-73406000D03*
X150622000Y-70866000D03*
X155702000Y-70866000D03*
X149352000Y-73406000D03*
X176022000Y-75946000D03*
X169672000Y-73406000D03*
X174752000Y-73406000D03*
X168402000Y-75946000D03*
X195072000Y-81153000D03*
X188722000Y-78613000D03*
X193802000Y-78613000D03*
X187452000Y-81153000D03*
X214122000Y-81153000D03*
X207772000Y-78613000D03*
X212852000Y-78613000D03*
X206502000Y-81153000D03*
X118872000Y-97409000D03*
X112522000Y-94869000D03*
X117602000Y-94869000D03*
X111252000Y-97409000D03*
X137922000Y-94996000D03*
X131572000Y-92456000D03*
X136652000Y-92456000D03*
X130302000Y-94996000D03*
X156972000Y-92456000D03*
X150622000Y-89916000D03*
X155702000Y-89916000D03*
X149352000Y-92456000D03*
X176022000Y-94996000D03*
X169672000Y-92456000D03*
X174752000Y-92456000D03*
X168402000Y-94996000D03*
X195072000Y-100203000D03*
X188722000Y-97663000D03*
X193802000Y-97663000D03*
X187452000Y-100203000D03*
X214122000Y-100203000D03*
X207772000Y-97663000D03*
X212852000Y-97663000D03*
X206502000Y-100203000D03*
X118872000Y-116459000D03*
X112522000Y-113919000D03*
X117602000Y-113919000D03*
X111252000Y-116459000D03*
X137922000Y-114046000D03*
X131572000Y-111506000D03*
X136652000Y-111506000D03*
X130302000Y-114046000D03*
X156972000Y-111506000D03*
X150622000Y-108966000D03*
X155702000Y-108966000D03*
X149352000Y-111506000D03*
X176022000Y-114046000D03*
X169672000Y-111506000D03*
X174752000Y-111506000D03*
X168402000Y-114046000D03*
X195072000Y-119253000D03*
X188722000Y-116713000D03*
X193802000Y-116713000D03*
X187452000Y-119253000D03*
X214122000Y-119253000D03*
X207772000Y-116713000D03*
X212852000Y-116713000D03*
X206502000Y-119253000D03*
X98973705Y-154682585D03*
X97998409Y-147913323D03*
X100538409Y-152312733D03*
X95163705Y-148083471D03*
X118514208Y-138287719D03*
X111685703Y-138669323D03*
X116289747Y-136522422D03*
X111608143Y-141508070D03*
X144399000Y-136779000D03*
X138049000Y-134239000D03*
X143129000Y-134239000D03*
X136779000Y-136779000D03*
D13*
X83566000Y-99592000D03*
D14*
X83566000Y-100492000D03*
D15*
X93356000Y-99822000D03*
X93356000Y-97282000D03*
X93356000Y-94742000D03*
X93356000Y-92202000D03*
X93356000Y-89662000D03*
X93356000Y-87122000D03*
X93356000Y-84582000D03*
X93356000Y-82042000D03*
X93356000Y-79502000D03*
X93356000Y-76962000D03*
X93356000Y-74422000D03*
X93356000Y-71882000D03*
X93356000Y-69342000D03*
X93356000Y-66802000D03*
X93356000Y-64262000D03*
X93356000Y-61722000D03*
X93356000Y-59182000D03*
X93356000Y-56642000D03*
X93356000Y-54102000D03*
X93356000Y-51562000D03*
X73776000Y-99822000D03*
X73776000Y-97282000D03*
X73776000Y-94742000D03*
X73776000Y-92202000D03*
X73776000Y-89662000D03*
X73776000Y-87122000D03*
X73776000Y-84582000D03*
X73776000Y-82042000D03*
X73776000Y-79502000D03*
X73776000Y-76962000D03*
X73776000Y-74422000D03*
X73776000Y-71882000D03*
X73776000Y-69342000D03*
X73776000Y-66802000D03*
X73776000Y-64262000D03*
X73776000Y-61722000D03*
X73776000Y-59182000D03*
X73776000Y-56642000D03*
X73776000Y-54102000D03*
X73776000Y-51562000D03*
D16*
X92456000Y-51562000D03*
X92456000Y-54102000D03*
D13*
X92456000Y-56642000D03*
D16*
X92456000Y-59182000D03*
X92456000Y-61722000D03*
X92456000Y-64262000D03*
X92456000Y-66802000D03*
D13*
X92456000Y-69342000D03*
D16*
X92456000Y-71882000D03*
X92456000Y-74422000D03*
X92456000Y-76962000D03*
X92456000Y-79502000D03*
D13*
X92456000Y-82042000D03*
D16*
X92456000Y-84582000D03*
X92456000Y-87122000D03*
X92456000Y-89662000D03*
X92456000Y-92202000D03*
D13*
X92456000Y-94742000D03*
D16*
X92456000Y-97282000D03*
X92456000Y-99822000D03*
X74676000Y-99822000D03*
X74676000Y-97282000D03*
D13*
X74676000Y-94742000D03*
D16*
X74676000Y-92202000D03*
X74676000Y-89662000D03*
X74676000Y-87122000D03*
X74676000Y-84582000D03*
D13*
X74676000Y-82042000D03*
D16*
X74676000Y-79502000D03*
X74676000Y-76962000D03*
X74676000Y-74422000D03*
X74676000Y-71882000D03*
D13*
X74676000Y-69342000D03*
D16*
X74676000Y-66802000D03*
X74676000Y-64262000D03*
X74676000Y-61722000D03*
X74676000Y-59182000D03*
D13*
X74676000Y-56642000D03*
D16*
X74676000Y-54102000D03*
X74676000Y-51562000D03*
D11*
G36*
X84046382Y-53469107D02*
G01*
X84088852Y-53475406D01*
X84130500Y-53485839D01*
X84170924Y-53500303D01*
X84209736Y-53518659D01*
X84246562Y-53540732D01*
X84281047Y-53566308D01*
X84312859Y-53595141D01*
X84341692Y-53626953D01*
X84367268Y-53661438D01*
X84389341Y-53698264D01*
X84407697Y-53737076D01*
X84422161Y-53777500D01*
X84432594Y-53819148D01*
X84438893Y-53861618D01*
X84441000Y-53904500D01*
X84441000Y-54779500D01*
X84438893Y-54822382D01*
X84432594Y-54864852D01*
X84422161Y-54906500D01*
X84407697Y-54946924D01*
X84389341Y-54985736D01*
X84367268Y-55022562D01*
X84341692Y-55057047D01*
X84312859Y-55088859D01*
X84281047Y-55117692D01*
X84246562Y-55143268D01*
X84209736Y-55165341D01*
X84170924Y-55183697D01*
X84130500Y-55198161D01*
X84088852Y-55208594D01*
X84046382Y-55214893D01*
X84003500Y-55217000D01*
X83128500Y-55217000D01*
X83085618Y-55214893D01*
X83043148Y-55208594D01*
X83001500Y-55198161D01*
X82961076Y-55183697D01*
X82922264Y-55165341D01*
X82885438Y-55143268D01*
X82850953Y-55117692D01*
X82819141Y-55088859D01*
X82790308Y-55057047D01*
X82764732Y-55022562D01*
X82742659Y-54985736D01*
X82724303Y-54946924D01*
X82709839Y-54906500D01*
X82699406Y-54864852D01*
X82693107Y-54822382D01*
X82691000Y-54779500D01*
X82691000Y-53904500D01*
X82693107Y-53861618D01*
X82699406Y-53819148D01*
X82709839Y-53777500D01*
X82724303Y-53737076D01*
X82742659Y-53698264D01*
X82764732Y-53661438D01*
X82790308Y-53626953D01*
X82819141Y-53595141D01*
X82850953Y-53566308D01*
X82885438Y-53540732D01*
X82922264Y-53518659D01*
X82961076Y-53500303D01*
X83001500Y-53485839D01*
X83043148Y-53475406D01*
X83085618Y-53469107D01*
X83128500Y-53467000D01*
X84003500Y-53467000D01*
X84046382Y-53469107D01*
X84046382Y-53469107D01*
G37*
D17*
X83566000Y-54342000D03*
D11*
G36*
X83030382Y-50694107D02*
G01*
X83072852Y-50700406D01*
X83114500Y-50710839D01*
X83154924Y-50725303D01*
X83193736Y-50743659D01*
X83230562Y-50765732D01*
X83265047Y-50791308D01*
X83296859Y-50820141D01*
X83325692Y-50851953D01*
X83351268Y-50886438D01*
X83373341Y-50923264D01*
X83391697Y-50962076D01*
X83406161Y-51002500D01*
X83416594Y-51044148D01*
X83422893Y-51086618D01*
X83425000Y-51129500D01*
X83425000Y-52004500D01*
X83422893Y-52047382D01*
X83416594Y-52089852D01*
X83406161Y-52131500D01*
X83391697Y-52171924D01*
X83373341Y-52210736D01*
X83351268Y-52247562D01*
X83325692Y-52282047D01*
X83296859Y-52313859D01*
X83265047Y-52342692D01*
X83230562Y-52368268D01*
X83193736Y-52390341D01*
X83154924Y-52408697D01*
X83114500Y-52423161D01*
X83072852Y-52433594D01*
X83030382Y-52439893D01*
X82987500Y-52442000D01*
X82112500Y-52442000D01*
X82069618Y-52439893D01*
X82027148Y-52433594D01*
X81985500Y-52423161D01*
X81945076Y-52408697D01*
X81906264Y-52390341D01*
X81869438Y-52368268D01*
X81834953Y-52342692D01*
X81803141Y-52313859D01*
X81774308Y-52282047D01*
X81748732Y-52247562D01*
X81726659Y-52210736D01*
X81708303Y-52171924D01*
X81693839Y-52131500D01*
X81683406Y-52089852D01*
X81677107Y-52047382D01*
X81675000Y-52004500D01*
X81675000Y-51129500D01*
X81677107Y-51086618D01*
X81683406Y-51044148D01*
X81693839Y-51002500D01*
X81708303Y-50962076D01*
X81726659Y-50923264D01*
X81748732Y-50886438D01*
X81774308Y-50851953D01*
X81803141Y-50820141D01*
X81834953Y-50791308D01*
X81869438Y-50765732D01*
X81906264Y-50743659D01*
X81945076Y-50725303D01*
X81985500Y-50710839D01*
X82027148Y-50700406D01*
X82069618Y-50694107D01*
X82112500Y-50692000D01*
X82987500Y-50692000D01*
X83030382Y-50694107D01*
X83030382Y-50694107D01*
G37*
D17*
X82550000Y-51567000D03*
D11*
G36*
X85062382Y-50694107D02*
G01*
X85104852Y-50700406D01*
X85146500Y-50710839D01*
X85186924Y-50725303D01*
X85225736Y-50743659D01*
X85262562Y-50765732D01*
X85297047Y-50791308D01*
X85328859Y-50820141D01*
X85357692Y-50851953D01*
X85383268Y-50886438D01*
X85405341Y-50923264D01*
X85423697Y-50962076D01*
X85438161Y-51002500D01*
X85448594Y-51044148D01*
X85454893Y-51086618D01*
X85457000Y-51129500D01*
X85457000Y-52004500D01*
X85454893Y-52047382D01*
X85448594Y-52089852D01*
X85438161Y-52131500D01*
X85423697Y-52171924D01*
X85405341Y-52210736D01*
X85383268Y-52247562D01*
X85357692Y-52282047D01*
X85328859Y-52313859D01*
X85297047Y-52342692D01*
X85262562Y-52368268D01*
X85225736Y-52390341D01*
X85186924Y-52408697D01*
X85146500Y-52423161D01*
X85104852Y-52433594D01*
X85062382Y-52439893D01*
X85019500Y-52442000D01*
X84144500Y-52442000D01*
X84101618Y-52439893D01*
X84059148Y-52433594D01*
X84017500Y-52423161D01*
X83977076Y-52408697D01*
X83938264Y-52390341D01*
X83901438Y-52368268D01*
X83866953Y-52342692D01*
X83835141Y-52313859D01*
X83806308Y-52282047D01*
X83780732Y-52247562D01*
X83758659Y-52210736D01*
X83740303Y-52171924D01*
X83725839Y-52131500D01*
X83715406Y-52089852D01*
X83709107Y-52047382D01*
X83707000Y-52004500D01*
X83707000Y-51129500D01*
X83709107Y-51086618D01*
X83715406Y-51044148D01*
X83725839Y-51002500D01*
X83740303Y-50962076D01*
X83758659Y-50923264D01*
X83780732Y-50886438D01*
X83806308Y-50851953D01*
X83835141Y-50820141D01*
X83866953Y-50791308D01*
X83901438Y-50765732D01*
X83938264Y-50743659D01*
X83977076Y-50725303D01*
X84017500Y-50710839D01*
X84059148Y-50700406D01*
X84101618Y-50694107D01*
X84144500Y-50692000D01*
X85019500Y-50692000D01*
X85062382Y-50694107D01*
X85062382Y-50694107D01*
G37*
D17*
X84582000Y-51567000D03*
D16*
X78486000Y-92202000D03*
X78486000Y-61722000D03*
X96266000Y-97282000D03*
X78486000Y-84582000D03*
X96266000Y-92202000D03*
X96266000Y-51562000D03*
D13*
X96266000Y-94742000D03*
X96266000Y-69342000D03*
D16*
X96266000Y-61722000D03*
X96266000Y-71882000D03*
X96266000Y-79502000D03*
X96266000Y-99822000D03*
D13*
X96266000Y-82042000D03*
D16*
X78486000Y-66802000D03*
X96266000Y-89662000D03*
X96266000Y-84582000D03*
D13*
X78486000Y-82042000D03*
D16*
X78486000Y-76962000D03*
X78486000Y-74422000D03*
X96266000Y-74422000D03*
X78486000Y-99822000D03*
X78486000Y-71882000D03*
X78486000Y-89662000D03*
X96266000Y-87122000D03*
X96266000Y-76962000D03*
X96266000Y-59182000D03*
X78486000Y-87122000D03*
X96266000Y-64262000D03*
D13*
X96266000Y-56642000D03*
D16*
X78486000Y-79502000D03*
X96266000Y-66802000D03*
D13*
X78486000Y-94742000D03*
X78486000Y-69342000D03*
D16*
X78486000Y-64262000D03*
X78486000Y-59182000D03*
X96266000Y-54102000D03*
X78486000Y-97282000D03*
D13*
X78486000Y-56642000D03*
D16*
X78486000Y-54102000D03*
X78486000Y-51562000D03*
D13*
X87376000Y-99592000D03*
D16*
X103759000Y-66675000D03*
X103759000Y-64135000D03*
X103759000Y-61595000D03*
D13*
X103759000Y-59055000D03*
D18*
X91925000Y-116840000D03*
X91925000Y-112340000D03*
X98425000Y-116840000D03*
X98425000Y-112340000D03*
D16*
X103124000Y-131699000D03*
X103124000Y-129159000D03*
X103124000Y-126619000D03*
D13*
X103124000Y-124079000D03*
D19*
X71915000Y-114554000D03*
D20*
X81415000Y-111804000D03*
X81415000Y-117304000D03*
X81915000Y-114554000D03*
X73215000Y-111304000D03*
X73215000Y-117804000D03*
D19*
X78915000Y-114554000D03*
D21*
X142364000Y-147955000D03*
D22*
X144399000Y-147955000D03*
D23*
X136779000Y-147955000D03*
D21*
X138814000Y-147955000D03*
D24*
X121596031Y-149221212D03*
D11*
G36*
X121207675Y-149926410D02*
G01*
X120806187Y-149065418D01*
X121984387Y-148516014D01*
X122385875Y-149377006D01*
X121207675Y-149926410D01*
X121207675Y-149926410D01*
G37*
D22*
X123440368Y-148361183D03*
X116534302Y-151581535D03*
D11*
G36*
X116196445Y-152509790D02*
G01*
X115606047Y-151243678D01*
X116872159Y-150653280D01*
X117462557Y-151919392D01*
X116196445Y-152509790D01*
X116196445Y-152509790D01*
G37*
D24*
X118378639Y-150721506D03*
D11*
G36*
X117990283Y-151426704D02*
G01*
X117588795Y-150565712D01*
X118766995Y-150016308D01*
X119168483Y-150877300D01*
X117990283Y-151426704D01*
X117990283Y-151426704D01*
G37*
D24*
X88257334Y-158624357D03*
D11*
G36*
X87520972Y-158298940D02*
G01*
X88343696Y-157823940D01*
X88993696Y-158949774D01*
X88170972Y-159424774D01*
X87520972Y-158298940D01*
X87520972Y-158298940D01*
G37*
D22*
X89274834Y-160386719D03*
X85464834Y-153787605D03*
D11*
G36*
X84510665Y-153531936D02*
G01*
X85720503Y-152833436D01*
X86419003Y-154043274D01*
X85209165Y-154741774D01*
X84510665Y-153531936D01*
X84510665Y-153531936D01*
G37*
D24*
X86482334Y-155549967D03*
D11*
G36*
X85745972Y-155224550D02*
G01*
X86568696Y-154749550D01*
X87218696Y-155875384D01*
X86395972Y-156350384D01*
X85745972Y-155224550D01*
X85745972Y-155224550D01*
G37*
D21*
X212087000Y-130429000D03*
D22*
X214122000Y-130429000D03*
D23*
X206502000Y-130429000D03*
D21*
X208537000Y-130429000D03*
X193037000Y-130429000D03*
D22*
X195072000Y-130429000D03*
D23*
X187452000Y-130429000D03*
D21*
X189487000Y-130429000D03*
X174111000Y-125222000D03*
D22*
X176146000Y-125222000D03*
D23*
X168526000Y-125222000D03*
D21*
X170561000Y-125222000D03*
X154937000Y-122682000D03*
D22*
X156972000Y-122682000D03*
D23*
X149352000Y-122682000D03*
D21*
X151387000Y-122682000D03*
X136014000Y-125222000D03*
D22*
X138049000Y-125222000D03*
D23*
X130429000Y-125222000D03*
D21*
X132464000Y-125222000D03*
X116837000Y-127635000D03*
D22*
X118872000Y-127635000D03*
D23*
X111252000Y-127635000D03*
D21*
X113287000Y-127635000D03*
X212087000Y-111379000D03*
D22*
X214122000Y-111379000D03*
D23*
X206502000Y-111379000D03*
D21*
X208537000Y-111379000D03*
X193164000Y-111379000D03*
D22*
X195199000Y-111379000D03*
D23*
X187579000Y-111379000D03*
D21*
X189614000Y-111379000D03*
X174114000Y-106172000D03*
D22*
X176149000Y-106172000D03*
D23*
X168529000Y-106172000D03*
D21*
X170564000Y-106172000D03*
X154937000Y-103632000D03*
D22*
X156972000Y-103632000D03*
D23*
X149352000Y-103632000D03*
D21*
X151387000Y-103632000D03*
X135887000Y-106172000D03*
D22*
X137922000Y-106172000D03*
D23*
X130302000Y-106172000D03*
D21*
X132337000Y-106172000D03*
X116964000Y-108585000D03*
D22*
X118999000Y-108585000D03*
D23*
X111379000Y-108585000D03*
D21*
X113414000Y-108585000D03*
X212087000Y-92329000D03*
D22*
X214122000Y-92329000D03*
D23*
X206502000Y-92329000D03*
D21*
X208537000Y-92329000D03*
X193164000Y-92329000D03*
D22*
X195199000Y-92329000D03*
D23*
X187579000Y-92329000D03*
D21*
X189614000Y-92329000D03*
X174114000Y-87122000D03*
D22*
X176149000Y-87122000D03*
D23*
X168529000Y-87122000D03*
D21*
X170564000Y-87122000D03*
X155064000Y-84582000D03*
D22*
X157099000Y-84582000D03*
D23*
X149479000Y-84582000D03*
D21*
X151514000Y-84582000D03*
X135887000Y-87122000D03*
D22*
X137922000Y-87122000D03*
D23*
X130302000Y-87122000D03*
D21*
X132337000Y-87122000D03*
X116837000Y-89535000D03*
D22*
X118872000Y-89535000D03*
D23*
X111252000Y-89535000D03*
D21*
X113287000Y-89535000D03*
X212087000Y-73279000D03*
D22*
X214122000Y-73279000D03*
D23*
X206502000Y-73279000D03*
D21*
X208537000Y-73279000D03*
X193037000Y-73279000D03*
D22*
X195072000Y-73279000D03*
D23*
X187452000Y-73279000D03*
D21*
X189487000Y-73279000D03*
X174117000Y-68072000D03*
D22*
X176152000Y-68072000D03*
D23*
X168532000Y-68072000D03*
D21*
X170567000Y-68072000D03*
X154937000Y-65532000D03*
D22*
X156972000Y-65532000D03*
D23*
X149352000Y-65532000D03*
D21*
X151387000Y-65532000D03*
X136014000Y-68072000D03*
D22*
X138049000Y-68072000D03*
D23*
X130429000Y-68072000D03*
D21*
X132464000Y-68072000D03*
X116837000Y-70485000D03*
D22*
X118872000Y-70485000D03*
D23*
X111252000Y-70485000D03*
D21*
X113287000Y-70485000D03*
D25*
X99568000Y-74549000D03*
X106172000Y-108585000D03*
X105410000Y-127635000D03*
X90297000Y-149860000D03*
X85979000Y-55753000D03*
X100748000Y-55626000D03*
X89916000Y-51562000D03*
X80716704Y-51823599D03*
X111252000Y-83439000D03*
X130302000Y-83376998D03*
X149352000Y-82169000D03*
X167640000Y-92837000D03*
X186690000Y-97917000D03*
X201168000Y-105791000D03*
X73493800Y-122080798D03*
X74218800Y-122809000D03*
X70840600Y-118872000D03*
X75387200Y-118846600D03*
D26*
X118872000Y-58039000D02*
X118872000Y-59309000D01*
X117602000Y-56769000D02*
X118872000Y-58039000D01*
X118872000Y-59309000D02*
X118872000Y-70485000D01*
X116837000Y-70485000D02*
X118872000Y-70485000D01*
X208537000Y-73279000D02*
X206502000Y-73279000D01*
X189487000Y-73279000D02*
X187452000Y-73279000D01*
X170567000Y-68072000D02*
X168532000Y-68072000D01*
X151387000Y-65532000D02*
X149352000Y-65532000D01*
X132464000Y-68072000D02*
X130429000Y-68072000D01*
X111252000Y-70485000D02*
X113287000Y-70485000D01*
X99568000Y-83820000D02*
X96266000Y-87122000D01*
X99568000Y-74549000D02*
X99568000Y-83820000D01*
X137922000Y-55626000D02*
X137922000Y-56896000D01*
X136652000Y-54356000D02*
X137922000Y-55626000D01*
X137922000Y-67945000D02*
X138049000Y-68072000D01*
X137922000Y-56896000D02*
X137922000Y-67945000D01*
X136014000Y-68072000D02*
X138049000Y-68072000D01*
X156844999Y-54228999D02*
X156972000Y-54356000D01*
X156844999Y-52958999D02*
X156844999Y-54228999D01*
X155702000Y-51816000D02*
X156844999Y-52958999D01*
X156972000Y-54356000D02*
X156972000Y-65532000D01*
X156972000Y-65532000D02*
X154937000Y-65532000D01*
X175894999Y-56768999D02*
X176022000Y-56896000D01*
X175894999Y-55498999D02*
X175894999Y-56768999D01*
X174752000Y-54356000D02*
X175894999Y-55498999D01*
X176152000Y-67084172D02*
X176152000Y-68072000D01*
X176116099Y-67048271D02*
X176152000Y-67084172D01*
X176116099Y-58606545D02*
X176116099Y-67048271D01*
X176022000Y-58512446D02*
X176116099Y-58606545D01*
X176022000Y-56896000D02*
X176022000Y-58512446D01*
X176152000Y-68072000D02*
X174117000Y-68072000D01*
X195072000Y-60833000D02*
X195072000Y-62103000D01*
X193802000Y-59563000D02*
X195072000Y-60833000D01*
X195072000Y-65113334D02*
X195072000Y-73279000D01*
X195072000Y-62103000D02*
X195072000Y-65113334D01*
X195072000Y-73279000D02*
X193037000Y-73279000D01*
X214122000Y-60833000D02*
X214122000Y-62103000D01*
X212852000Y-59563000D02*
X214122000Y-60833000D01*
X214122000Y-62103000D02*
X214122000Y-73279000D01*
X214122000Y-73279000D02*
X212087000Y-73279000D01*
X118872000Y-77089000D02*
X118872000Y-78359000D01*
X117602000Y-75819000D02*
X118872000Y-77089000D01*
X118872000Y-78359000D02*
X118872000Y-89535000D01*
X118872000Y-89535000D02*
X116837000Y-89535000D01*
X208537000Y-92329000D02*
X206502000Y-92329000D01*
X189614000Y-92329000D02*
X187579000Y-92329000D01*
X170564000Y-87122000D02*
X168529000Y-87122000D01*
X149479000Y-84582000D02*
X151514000Y-84582000D01*
X132337000Y-87122000D02*
X130302000Y-87122000D01*
X113287000Y-89535000D02*
X111252000Y-89535000D01*
X137922000Y-74676000D02*
X137922000Y-75946000D01*
X136652000Y-73406000D02*
X137922000Y-74676000D01*
X137922000Y-75946000D02*
X137922000Y-87122000D01*
X135887000Y-87122000D02*
X137922000Y-87122000D01*
X156972000Y-72136000D02*
X156972000Y-73406000D01*
X155702000Y-70866000D02*
X156972000Y-72136000D01*
X156972000Y-84455000D02*
X157099000Y-84582000D01*
X156972000Y-73406000D02*
X156972000Y-84455000D01*
X157099000Y-84582000D02*
X155064000Y-84582000D01*
X176022000Y-74676000D02*
X176022000Y-75946000D01*
X174752000Y-73406000D02*
X176022000Y-74676000D01*
X176022000Y-86995000D02*
X176149000Y-87122000D01*
X176022000Y-75946000D02*
X176022000Y-86995000D01*
X174114000Y-87122000D02*
X176149000Y-87122000D01*
X195072000Y-79883000D02*
X195072000Y-81153000D01*
X193802000Y-78613000D02*
X195072000Y-79883000D01*
X195072000Y-92202000D02*
X195199000Y-92329000D01*
X195072000Y-81153000D02*
X195072000Y-92202000D01*
X195199000Y-92329000D02*
X193164000Y-92329000D01*
X214122000Y-79883000D02*
X214122000Y-81153000D01*
X212852000Y-78613000D02*
X214122000Y-79883000D01*
X214122000Y-81153000D02*
X214122000Y-92329000D01*
X214122000Y-92329000D02*
X212087000Y-92329000D01*
X118872000Y-96139000D02*
X118872000Y-97409000D01*
X117602000Y-94869000D02*
X118872000Y-96139000D01*
X118872000Y-108458000D02*
X118999000Y-108585000D01*
X118872000Y-97409000D02*
X118872000Y-108458000D01*
X116964000Y-108585000D02*
X118999000Y-108585000D01*
X208537000Y-111379000D02*
X206502000Y-111379000D01*
X189614000Y-111379000D02*
X187579000Y-111379000D01*
X170564000Y-106172000D02*
X168529000Y-106172000D01*
X151387000Y-103632000D02*
X149352000Y-103632000D01*
X130302000Y-106172000D02*
X132337000Y-106172000D01*
X111379000Y-108585000D02*
X113414000Y-108585000D01*
X106172000Y-108019315D02*
X100330000Y-102177315D01*
X106172000Y-108585000D02*
X106172000Y-108019315D01*
X96266000Y-92456998D02*
X96266000Y-92202000D01*
X100330000Y-96520998D02*
X96266000Y-92456998D01*
X100330000Y-102177315D02*
X100330000Y-96520998D01*
X137922000Y-93726000D02*
X137922000Y-94996000D01*
X136652000Y-92456000D02*
X137922000Y-93726000D01*
X135887000Y-106172000D02*
X137922000Y-106172000D01*
X137922000Y-94996000D02*
X137922000Y-98006334D01*
X137922000Y-98006334D02*
X137922000Y-106172000D01*
X156972000Y-91186000D02*
X156972000Y-92456000D01*
X155702000Y-89916000D02*
X156972000Y-91186000D01*
X156972000Y-92456000D02*
X156972000Y-103632000D01*
X154937000Y-103632000D02*
X156972000Y-103632000D01*
X176022000Y-93726000D02*
X176022000Y-94996000D01*
X174752000Y-92456000D02*
X176022000Y-93726000D01*
X176022000Y-106045000D02*
X176149000Y-106172000D01*
X176022000Y-94996000D02*
X176022000Y-106045000D01*
X176149000Y-106172000D02*
X174114000Y-106172000D01*
X195072000Y-98933000D02*
X195072000Y-100203000D01*
X193802000Y-97663000D02*
X195072000Y-98933000D01*
X195072000Y-111252000D02*
X195199000Y-111379000D01*
X195072000Y-100203000D02*
X195072000Y-111252000D01*
X195199000Y-111379000D02*
X193164000Y-111379000D01*
X214122000Y-98933000D02*
X214122000Y-100203000D01*
X212852000Y-97663000D02*
X214122000Y-98933000D01*
X214122000Y-100203000D02*
X214122000Y-111379000D01*
X214122000Y-111379000D02*
X212087000Y-111379000D01*
X118872000Y-115189000D02*
X118872000Y-116459000D01*
X117602000Y-113919000D02*
X118872000Y-115189000D01*
X118872000Y-116459000D02*
X118872000Y-127635000D01*
X116837000Y-127635000D02*
X118872000Y-127635000D01*
X208537000Y-130429000D02*
X206502000Y-130429000D01*
X189487000Y-130429000D02*
X187452000Y-130429000D01*
X170561000Y-125222000D02*
X168526000Y-125222000D01*
X149352000Y-122682000D02*
X151387000Y-122682000D01*
X130429000Y-125222000D02*
X132464000Y-125222000D01*
X105410000Y-127635000D02*
X105410000Y-108077000D01*
X105410000Y-108077000D02*
X99441000Y-102108000D01*
X99441000Y-100457000D02*
X96266000Y-97282000D01*
X99441000Y-102108000D02*
X99441000Y-100457000D01*
X113287000Y-127635000D02*
X111252000Y-127635000D01*
X137922000Y-112776000D02*
X137922000Y-114046000D01*
X136652000Y-111506000D02*
X137922000Y-112776000D01*
X137922000Y-125095000D02*
X138049000Y-125222000D01*
X137922000Y-114046000D02*
X137922000Y-125095000D01*
X136014000Y-125222000D02*
X138049000Y-125222000D01*
X154937000Y-122682000D02*
X156972000Y-122682000D01*
X156844999Y-111378999D02*
X156972000Y-111506000D01*
X156844999Y-110108999D02*
X156844999Y-111378999D01*
X155702000Y-108966000D02*
X156844999Y-110108999D01*
X156972000Y-111506000D02*
X156972000Y-122682000D01*
X176022000Y-112776000D02*
X176022000Y-114046000D01*
X174752000Y-111506000D02*
X176022000Y-112776000D01*
X176022000Y-125098000D02*
X176146000Y-125222000D01*
X176022000Y-114046000D02*
X176022000Y-125098000D01*
X176146000Y-125222000D02*
X174111000Y-125222000D01*
X195072000Y-117983000D02*
X195072000Y-119253000D01*
X193802000Y-116713000D02*
X195072000Y-117983000D01*
X195072000Y-119253000D02*
X195072000Y-130429000D01*
X195072000Y-130429000D02*
X193037000Y-130429000D01*
X214122000Y-117983000D02*
X214122000Y-119253000D01*
X212852000Y-116713000D02*
X214122000Y-117983000D01*
X214122000Y-122263334D02*
X214122000Y-130429000D01*
X214122000Y-119253000D02*
X214122000Y-122263334D01*
X214122000Y-130429000D02*
X212087000Y-130429000D01*
X88257334Y-159369219D02*
X89274834Y-160386719D01*
X88257334Y-158624357D02*
X88257334Y-159369219D01*
X90262662Y-160386719D02*
X89274834Y-160386719D01*
X91653125Y-160386719D02*
X90262662Y-160386719D01*
X97357259Y-154682585D02*
X91653125Y-160386719D01*
X98973705Y-154682585D02*
X97357259Y-154682585D01*
X100538409Y-153117881D02*
X100538409Y-152312733D01*
X98973705Y-154682585D02*
X100538409Y-153117881D01*
X138814000Y-147955000D02*
X136779000Y-147955000D01*
X117394331Y-150721506D02*
X116534302Y-151581535D01*
X118378639Y-150721506D02*
X117394331Y-150721506D01*
X85464834Y-154532467D02*
X86482334Y-155549967D01*
X85464834Y-153787605D02*
X85464834Y-154532467D01*
X104648000Y-108204000D02*
X96266000Y-99822000D01*
X104648000Y-134112000D02*
X104648000Y-108204000D01*
X100838000Y-137922000D02*
X104648000Y-134112000D01*
X98640002Y-137922000D02*
X100838000Y-137922000D01*
X90297000Y-149860000D02*
X90297000Y-146265002D01*
X90297000Y-146265002D02*
X98640002Y-137922000D01*
X117891910Y-137665421D02*
X118514208Y-138287719D01*
X117432746Y-137665421D02*
X117891910Y-137665421D01*
X116289747Y-136522422D02*
X117432746Y-137665421D01*
X118514208Y-139904165D02*
X119380000Y-140769957D01*
X118514208Y-138287719D02*
X118514208Y-139904165D01*
X119380000Y-144300815D02*
X123440368Y-148361183D01*
X119380000Y-140769957D02*
X119380000Y-144300815D01*
X122456060Y-148361183D02*
X121596031Y-149221212D01*
X123440368Y-148361183D02*
X122456060Y-148361183D01*
X144399000Y-135509000D02*
X144399000Y-136779000D01*
X143129000Y-134239000D02*
X144399000Y-135509000D01*
X144399000Y-138395446D02*
X144399000Y-147955000D01*
X144399000Y-136779000D02*
X144399000Y-138395446D01*
X144399000Y-147955000D02*
X142364000Y-147955000D01*
X73050400Y-76962000D02*
X74676000Y-76962000D01*
X70929022Y-79083378D02*
X73050400Y-76962000D01*
X70927820Y-105545200D02*
X70927820Y-79348960D01*
X75190019Y-112067999D02*
X75190019Y-109807399D01*
X70927820Y-79348960D02*
X70929022Y-79083378D01*
X75190019Y-109807399D02*
X70927820Y-105545200D01*
X103124000Y-131699000D02*
X100651002Y-131699000D01*
X82431001Y-113478999D02*
X76614601Y-113478999D01*
X76614601Y-113478999D02*
X76419602Y-113284000D01*
X76419602Y-113284000D02*
X76406020Y-113284000D01*
X100651002Y-131699000D02*
X82431001Y-113478999D01*
X76406020Y-113284000D02*
X75190019Y-112067999D01*
D27*
X103759000Y-61595000D02*
X102235000Y-60071000D01*
X93305999Y-50712001D02*
X92456000Y-51562000D01*
X93706001Y-50311999D02*
X93305999Y-50712001D01*
X98406997Y-50311999D02*
X93706001Y-50311999D01*
X102235000Y-54140002D02*
X98406997Y-50311999D01*
X102235000Y-60071000D02*
X102235000Y-54140002D01*
X91206000Y-94742000D02*
X92456000Y-94742000D01*
X91205999Y-111620999D02*
X91925000Y-112340000D01*
X91205999Y-111620999D02*
X91206000Y-94742000D01*
X84977000Y-55753000D02*
X83566000Y-54342000D01*
X85979000Y-55753000D02*
X84977000Y-55753000D01*
X80291000Y-56642000D02*
X78486000Y-56642000D01*
X82591000Y-54342000D02*
X80291000Y-56642000D01*
X83566000Y-54342000D02*
X82591000Y-54342000D01*
X103124000Y-117039000D02*
X98425000Y-112340000D01*
X103124000Y-124079000D02*
X103124000Y-117039000D01*
X75926000Y-82042000D02*
X74676000Y-82042000D01*
X75926001Y-85752001D02*
X75926000Y-82042000D01*
X75806003Y-85871999D02*
X75926001Y-85752001D01*
X75846001Y-85871999D02*
X75806003Y-85871999D01*
X75926001Y-85951999D02*
X75846001Y-85871999D01*
X75926001Y-94741999D02*
X75926001Y-85951999D01*
X74676000Y-94742000D02*
X75926001Y-94741999D01*
X75926000Y-56642000D02*
X74676000Y-56642000D01*
X75926001Y-80672001D02*
X75926000Y-56642000D01*
X74676000Y-81922002D02*
X75926001Y-80672001D01*
X74676000Y-82042000D02*
X74676000Y-81922002D01*
X75926001Y-78331999D02*
X75926001Y-80672001D01*
X75926001Y-69342001D02*
X75926001Y-78331999D01*
X74676000Y-69342000D02*
X75926001Y-69342001D01*
D26*
X93305999Y-62571999D02*
X92456000Y-61722000D01*
D27*
X101873999Y-116820001D02*
X98845998Y-113792000D01*
X103124000Y-126619000D02*
X101873999Y-125368999D01*
X101873999Y-125368999D02*
X101873999Y-116820001D01*
X90524999Y-99975001D02*
X90605990Y-99894010D01*
X90524999Y-113012001D02*
X90524999Y-99975001D01*
X91252999Y-113740001D02*
X90524999Y-113012001D01*
X98845998Y-113792000D02*
X98793999Y-113740001D01*
X98793999Y-113740001D02*
X91252999Y-113740001D01*
X90524999Y-63653001D02*
X92456000Y-61722000D01*
X90524999Y-99975001D02*
X90524999Y-63653001D01*
D26*
X89999989Y-88475989D02*
X78486000Y-76962000D01*
X89999989Y-114914989D02*
X89999989Y-88475989D01*
X91925000Y-116840000D02*
X89999989Y-114914989D01*
X73473919Y-79502000D02*
X74676000Y-79502000D01*
X73130998Y-79502000D02*
X73473919Y-79502000D01*
X71377830Y-81255168D02*
X73130998Y-79502000D01*
X71377830Y-105358800D02*
X71377830Y-81255168D01*
X75640029Y-111881599D02*
X75640028Y-109620998D01*
X103124000Y-129159000D02*
X98747412Y-129159000D01*
X98747412Y-129159000D02*
X82617401Y-113028989D01*
X76801001Y-113028989D02*
X76243212Y-112471200D01*
X75640028Y-109620998D02*
X71377830Y-105358800D01*
X82617401Y-113028989D02*
X76801001Y-113028989D01*
X76243212Y-112471200D02*
X76229630Y-112471200D01*
X76229630Y-112471200D02*
X75640029Y-111881599D01*
X103759000Y-66675000D02*
X100748000Y-63664000D01*
X100748000Y-63664000D02*
X100748000Y-55626000D01*
X83367569Y-50749431D02*
X82550000Y-51567000D01*
X83750010Y-50366990D02*
X83367569Y-50749431D01*
X89286675Y-50366990D02*
X83750010Y-50366990D01*
X89916000Y-50996315D02*
X89286675Y-50366990D01*
X89916000Y-51562000D02*
X89916000Y-50996315D01*
X103759000Y-64135000D02*
X101473000Y-61849000D01*
X101473000Y-61849000D02*
X101473000Y-55245000D01*
X85782010Y-52767010D02*
X85399569Y-52384569D01*
X101473000Y-55245000D02*
X98995010Y-52767010D01*
X85598000Y-52583000D02*
X84582000Y-51567000D01*
X90641001Y-52741999D02*
X90615990Y-52767010D01*
X89473076Y-49916981D02*
X90641001Y-51084906D01*
X82246667Y-49916981D02*
X89473076Y-49916981D01*
X81349990Y-50813658D02*
X82246667Y-49916981D01*
X81349990Y-51190313D02*
X81349990Y-50813658D01*
X90641001Y-51084906D02*
X90641001Y-52741999D01*
X80716704Y-51823599D02*
X81349990Y-51190313D01*
X90615990Y-52767010D02*
X85782010Y-52767010D01*
X98995010Y-52767010D02*
X90615990Y-52767010D01*
X97828261Y-148083471D02*
X97998409Y-147913323D01*
X95163705Y-148083471D02*
X97828261Y-148083471D01*
X111252000Y-58039000D02*
X111252000Y-59309000D01*
X112522000Y-56769000D02*
X111252000Y-58039000D01*
X113664999Y-74676001D02*
X112522000Y-75819000D01*
X114262001Y-74078999D02*
X113664999Y-74676001D01*
X114262001Y-69749999D02*
X114262001Y-74078999D01*
X112743099Y-68231097D02*
X114262001Y-69749999D01*
X112743099Y-60800099D02*
X112743099Y-68231097D01*
X111252000Y-59309000D02*
X112743099Y-60800099D01*
X111252000Y-77089000D02*
X111252000Y-78359000D01*
X112522000Y-75819000D02*
X111252000Y-77089000D01*
X113664999Y-93726001D02*
X112522000Y-94869000D01*
X114262001Y-93128999D02*
X113664999Y-93726001D01*
X114262001Y-83530975D02*
X114262001Y-93128999D01*
X111252000Y-80520974D02*
X114262001Y-83530975D01*
X111252000Y-78359000D02*
X111252000Y-80520974D01*
X111379001Y-97281999D02*
X111252000Y-97409000D01*
X111379001Y-96011999D02*
X111379001Y-97281999D01*
X112522000Y-94869000D02*
X111379001Y-96011999D01*
X113664999Y-112776001D02*
X112522000Y-113919000D01*
X114389001Y-112051999D02*
X113664999Y-112776001D01*
X114389001Y-102707975D02*
X114389001Y-112051999D01*
X111252000Y-99570974D02*
X114389001Y-102707975D01*
X111252000Y-97409000D02*
X111252000Y-99570974D01*
X111252000Y-115189000D02*
X111252000Y-116459000D01*
X112522000Y-113919000D02*
X111252000Y-115189000D01*
X111252000Y-125652998D02*
X108077000Y-128827998D01*
X111252000Y-116459000D02*
X111252000Y-125652998D01*
X108077000Y-137834732D02*
X97998409Y-147913323D01*
X108077000Y-128827998D02*
X108077000Y-137834732D01*
X111252000Y-80520974D02*
X111252000Y-83439000D01*
X111608143Y-140363329D02*
X111608143Y-141508070D01*
X111685703Y-140285769D02*
X111608143Y-140363329D01*
X111685703Y-138669323D02*
X111685703Y-140285769D01*
X130302000Y-55626000D02*
X130302000Y-56896000D01*
X131572000Y-54356000D02*
X130302000Y-55626000D01*
X132714999Y-72263001D02*
X131572000Y-73406000D01*
X133439001Y-71538999D02*
X132714999Y-72263001D01*
X133439001Y-67336999D02*
X133439001Y-71538999D01*
X130302000Y-64199998D02*
X133439001Y-67336999D01*
X130302000Y-56896000D02*
X130302000Y-64199998D01*
X130302000Y-74676000D02*
X130302000Y-75946000D01*
X131572000Y-73406000D02*
X130302000Y-74676000D01*
X132714999Y-91313001D02*
X131572000Y-92456000D01*
X133312001Y-90715999D02*
X132714999Y-91313001D01*
X133312001Y-86386999D02*
X133312001Y-90715999D01*
X130302000Y-83376998D02*
X130302000Y-83376998D01*
X130302000Y-75946000D02*
X130302000Y-83376998D01*
X130302000Y-93726000D02*
X130302000Y-94996000D01*
X131572000Y-92456000D02*
X130302000Y-93726000D01*
X132714999Y-110363001D02*
X131572000Y-111506000D01*
X133312001Y-109765999D02*
X132714999Y-110363001D01*
X133312001Y-100167975D02*
X133312001Y-109765999D01*
X130302000Y-97157974D02*
X133312001Y-100167975D01*
X130302000Y-94996000D02*
X130302000Y-97157974D01*
X130302000Y-112776000D02*
X130302000Y-114046000D01*
X131572000Y-111506000D02*
X130302000Y-112776000D01*
X128688667Y-115188999D02*
X125603000Y-118274666D01*
X130302000Y-114046000D02*
X129159001Y-115188999D01*
X129159001Y-115188999D02*
X128688667Y-115188999D01*
X125603000Y-124752026D02*
X111685703Y-138669323D01*
X125603000Y-118274666D02*
X125603000Y-124752026D01*
X130302000Y-83376998D02*
X133312001Y-86386999D01*
X149479001Y-54228999D02*
X149352000Y-54356000D01*
X149479001Y-52958999D02*
X149479001Y-54228999D01*
X150622000Y-51816000D02*
X149479001Y-52958999D01*
X151764999Y-69723001D02*
X150622000Y-70866000D01*
X152362001Y-69125999D02*
X151764999Y-69723001D01*
X152362001Y-64796999D02*
X152362001Y-69125999D01*
X149352000Y-61786998D02*
X152362001Y-64796999D01*
X149352000Y-54356000D02*
X149352000Y-61786998D01*
X149352000Y-72136000D02*
X149352000Y-73406000D01*
X150622000Y-70866000D02*
X149352000Y-72136000D01*
X151764999Y-88773001D02*
X150622000Y-89916000D01*
X152489001Y-88048999D02*
X151764999Y-88773001D01*
X152489001Y-83846999D02*
X152489001Y-88048999D01*
X149352000Y-80709998D02*
X152489001Y-83846999D01*
X149352000Y-73406000D02*
X149352000Y-80709998D01*
X149352000Y-91186000D02*
X149352000Y-92456000D01*
X150622000Y-89916000D02*
X149352000Y-91186000D01*
X151764999Y-107823001D02*
X150622000Y-108966000D01*
X152362001Y-107225999D02*
X151764999Y-107823001D01*
X152362001Y-102896999D02*
X152362001Y-107225999D01*
X149352000Y-99886998D02*
X152362001Y-102896999D01*
X149352000Y-92456000D02*
X149352000Y-99886998D01*
X149352000Y-110236000D02*
X149352000Y-111506000D01*
X150622000Y-108966000D02*
X149352000Y-110236000D01*
X136779000Y-135509000D02*
X136779000Y-136779000D01*
X138049000Y-134239000D02*
X136779000Y-135509000D01*
X147735554Y-111506000D02*
X143764000Y-115477554D01*
X149352000Y-111506000D02*
X147735554Y-111506000D01*
X143764000Y-128524000D02*
X138049000Y-134239000D01*
X143764000Y-115477554D02*
X143764000Y-128524000D01*
X149352000Y-80709998D02*
X149352000Y-82169000D01*
X168402000Y-55626000D02*
X168402000Y-56896000D01*
X169672000Y-54356000D02*
X168402000Y-55626000D01*
X170814999Y-72263001D02*
X169672000Y-73406000D01*
X171542001Y-71535999D02*
X170814999Y-72263001D01*
X171542001Y-67336999D02*
X171542001Y-71535999D01*
X169893099Y-65688097D02*
X171542001Y-67336999D01*
X169893099Y-58387099D02*
X169893099Y-65688097D01*
X168402000Y-56896000D02*
X169893099Y-58387099D01*
X168402000Y-74676000D02*
X168402000Y-75946000D01*
X169672000Y-73406000D02*
X168402000Y-74676000D01*
X170814999Y-91313001D02*
X169672000Y-92456000D01*
X171539001Y-90588999D02*
X170814999Y-91313001D01*
X171539001Y-86386999D02*
X171539001Y-90588999D01*
X168402000Y-83249998D02*
X171539001Y-86386999D01*
X168402000Y-75946000D02*
X168402000Y-83249998D01*
X168402000Y-93726000D02*
X168402000Y-94996000D01*
X169672000Y-92456000D02*
X168402000Y-93726000D01*
X170814999Y-110363001D02*
X169672000Y-111506000D01*
X171539001Y-109638999D02*
X170814999Y-110363001D01*
X171539001Y-105436999D02*
X171539001Y-109638999D01*
X168402000Y-102299998D02*
X171539001Y-105436999D01*
X168402000Y-94996000D02*
X168402000Y-102299998D01*
X168402000Y-112776000D02*
X168402000Y-114046000D01*
X169672000Y-111506000D02*
X168402000Y-112776000D01*
X168402000Y-93726000D02*
X168402000Y-93599000D01*
X168402000Y-93599000D02*
X167640000Y-92837000D01*
X187452000Y-60833000D02*
X187452000Y-62103000D01*
X188722000Y-59563000D02*
X187452000Y-60833000D01*
X189864999Y-77470001D02*
X188722000Y-78613000D01*
X190462001Y-76872999D02*
X189864999Y-77470001D01*
X190462001Y-72543999D02*
X190462001Y-76872999D01*
X187452000Y-69533998D02*
X190462001Y-72543999D01*
X187452000Y-62103000D02*
X187452000Y-69533998D01*
X189864999Y-96520001D02*
X188722000Y-97663000D01*
X190589001Y-95795999D02*
X189864999Y-96520001D01*
X190589001Y-86451975D02*
X190589001Y-95795999D01*
X187452000Y-83314974D02*
X190589001Y-86451975D01*
X187452000Y-81153000D02*
X187452000Y-83314974D01*
X187452000Y-98933000D02*
X187452000Y-100203000D01*
X188722000Y-97663000D02*
X187452000Y-98933000D01*
X189864999Y-115570001D02*
X188722000Y-116713000D01*
X190589001Y-114845999D02*
X189864999Y-115570001D01*
X190589001Y-110643999D02*
X190589001Y-114845999D01*
X187452000Y-107506998D02*
X190589001Y-110643999D01*
X187452000Y-100203000D02*
X187452000Y-107506998D01*
X187452000Y-117983000D02*
X187452000Y-119253000D01*
X188722000Y-116713000D02*
X187452000Y-117983000D01*
X187452000Y-79883000D02*
X187452000Y-81153000D01*
X188722000Y-78613000D02*
X187452000Y-79883000D01*
X187452000Y-98933000D02*
X187452000Y-98679000D01*
X187452000Y-98679000D02*
X186690000Y-97917000D01*
X206502000Y-60833000D02*
X206502000Y-62103000D01*
X207772000Y-59563000D02*
X206502000Y-60833000D01*
X206502000Y-79883000D02*
X206502000Y-81153000D01*
X207772000Y-78613000D02*
X206502000Y-79883000D01*
X208914999Y-77470001D02*
X207772000Y-78613000D01*
X209512001Y-76872999D02*
X208914999Y-77470001D01*
X209512001Y-72543999D02*
X209512001Y-76872999D01*
X206502000Y-69533998D02*
X209512001Y-72543999D01*
X206502000Y-62103000D02*
X206502000Y-69533998D01*
X208914999Y-96520001D02*
X207772000Y-97663000D01*
X209512001Y-95922999D02*
X208914999Y-96520001D01*
X209512001Y-91593999D02*
X209512001Y-95922999D01*
X206502000Y-88583998D02*
X209512001Y-91593999D01*
X206502000Y-81153000D02*
X206502000Y-88583998D01*
X208914999Y-115570001D02*
X207772000Y-116713000D01*
X209512001Y-114972999D02*
X208914999Y-115570001D01*
X209512001Y-110643999D02*
X209512001Y-114972999D01*
X206502000Y-107633998D02*
X209512001Y-110643999D01*
X206502000Y-100203000D02*
X206502000Y-107633998D01*
X206629001Y-100075999D02*
X206502000Y-100203000D01*
X206629001Y-98805999D02*
X206629001Y-100075999D01*
X207772000Y-97663000D02*
X206629001Y-98805999D01*
X206502000Y-117983000D02*
X206502000Y-119253000D01*
X207772000Y-116713000D02*
X206502000Y-117983000D01*
X206502000Y-107633998D02*
X203010998Y-107633998D01*
X203010998Y-107633998D02*
X201168000Y-105791000D01*
X91846010Y-53492010D02*
X92456000Y-54102000D01*
D27*
X73215000Y-111304000D02*
X73215000Y-117804000D01*
X79736001Y-50961999D02*
X79736001Y-52851999D01*
X79736001Y-52851999D02*
X78486000Y-54102000D01*
X71705999Y-50311999D02*
X79086001Y-50311999D01*
X69723000Y-57374441D02*
X69723000Y-52294998D01*
X69601667Y-57495774D02*
X69723000Y-57374441D01*
X69601667Y-57496331D02*
X69601667Y-57495774D01*
X73215000Y-111304000D02*
X73215000Y-109847676D01*
X69723000Y-52294998D02*
X71705999Y-50311999D01*
X69469000Y-106101676D02*
X69469000Y-93726000D01*
X73215000Y-109847676D02*
X69469000Y-106101676D01*
X69469000Y-93726000D02*
X69437857Y-93694856D01*
X69437857Y-93694856D02*
X69595758Y-58801573D01*
X79086001Y-50311999D02*
X79736001Y-50961999D01*
X69595758Y-58801573D02*
X69601667Y-57496331D01*
D26*
X83566000Y-99592000D02*
X87376000Y-99592000D01*
X81915000Y-114554000D02*
X80167939Y-116301061D01*
X80167939Y-116853991D02*
X78010590Y-119011340D01*
X80167939Y-116301061D02*
X80167939Y-116853991D01*
X78010590Y-121124000D02*
X76775600Y-122358990D01*
X78010590Y-119011340D02*
X78010590Y-121124000D01*
X74563600Y-122080798D02*
X74841792Y-122358990D01*
X73493800Y-122080798D02*
X74563600Y-122080798D01*
X74841792Y-122358990D02*
X76775600Y-122358990D01*
X74332000Y-121849198D02*
X74332000Y-120675400D01*
X74563600Y-122080798D02*
X74332000Y-121849198D01*
X78460600Y-121310400D02*
X76962000Y-122809000D01*
X78460600Y-119197740D02*
X78460600Y-121310400D01*
X81415000Y-117304000D02*
X80354340Y-117304000D01*
X80354340Y-117304000D02*
X78460600Y-119197740D01*
X76962000Y-122809000D02*
X74218800Y-122809000D01*
X73653115Y-122809000D02*
X74218800Y-122809000D01*
X73149000Y-122809000D02*
X73653115Y-122809000D01*
X72327600Y-121987600D02*
X73149000Y-122809000D01*
X72327600Y-120675400D02*
X72327600Y-121987600D01*
X70013650Y-87412650D02*
X69994010Y-87432290D01*
X69994010Y-87432290D02*
X69994010Y-105884210D01*
X69994010Y-105884210D02*
X74290001Y-110180201D01*
X70124317Y-68737483D02*
X70124317Y-69347083D01*
X70124317Y-69347083D02*
X70072819Y-69398581D01*
X70013650Y-87412650D02*
X69991199Y-87435101D01*
X70024683Y-80035730D02*
X70013650Y-82473965D01*
X70013650Y-82473965D02*
X70013650Y-87412650D01*
X70072819Y-69398581D02*
X70024683Y-80035730D01*
X71198474Y-51562000D02*
X70248010Y-52512464D01*
X70124317Y-68737483D02*
X70075590Y-68786210D01*
X70248010Y-52512464D02*
X70248010Y-57251600D01*
X70124317Y-58018683D02*
X70124317Y-68737483D01*
X70248010Y-57251600D02*
X70248010Y-57894990D01*
X70248010Y-57894990D02*
X70124317Y-58018683D01*
X74676000Y-51562000D02*
X71198474Y-51562000D01*
X74290001Y-110180201D02*
X74290001Y-118320001D01*
X70847601Y-118879001D02*
X70840600Y-118872000D01*
X74290001Y-118320001D02*
X73731001Y-118879001D01*
X73731001Y-118879001D02*
X70847601Y-118879001D01*
X70840600Y-120638400D02*
X70877600Y-120675400D01*
X70840600Y-118872000D02*
X70840600Y-120638400D01*
X75782000Y-119241400D02*
X75782000Y-120675400D01*
X70574327Y-69533483D02*
X70521986Y-69585824D01*
X70574327Y-58205083D02*
X70574327Y-69533483D01*
X70512627Y-71654099D02*
X70512627Y-78862473D01*
X74740009Y-118199409D02*
X75387200Y-118846600D01*
X70698020Y-56403580D02*
X70698019Y-58081391D01*
X70521986Y-69585824D02*
X70512627Y-71654099D01*
X74676000Y-54102000D02*
X72999600Y-54102000D01*
X70512627Y-78862473D02*
X70485000Y-78890100D01*
X72999600Y-54102000D02*
X70698020Y-56403580D01*
X70698019Y-58081391D02*
X70574327Y-58205083D01*
X70485000Y-78890100D02*
X70485000Y-78890990D01*
X70485000Y-78890990D02*
X70479855Y-78896135D01*
X70479855Y-78896135D02*
X70463660Y-82475002D01*
X74740009Y-109993799D02*
X74740009Y-118199409D01*
X70463660Y-82475002D02*
X70463660Y-105717450D01*
X70463660Y-105717450D02*
X74740009Y-109993799D01*
X75387200Y-118846600D02*
X75782000Y-119241400D01*
X97441001Y-55277001D02*
X96266000Y-54102000D01*
X97376001Y-57817001D02*
X97441001Y-57752001D01*
X77375999Y-57817001D02*
X97376001Y-57817001D01*
X97441001Y-57752001D02*
X97441001Y-55277001D01*
X77310999Y-57752001D02*
X77375999Y-57817001D01*
X77310999Y-56736999D02*
X77310999Y-57752001D01*
X74676000Y-54102000D02*
X77310999Y-56736999D01*
M02*
