<svg version="1.1" xmlns="http://www.w3.org/2000/svg" xmlns:xlink="http://www.w3.org/1999/xlink" stroke-linecap="round" stroke-linejoin="round" stroke-width="0" fill-rule="evenodd" width="153.14344mm" height="118.262453mm" viewBox="66840 -167224.453 153143.44 118262.453" id="BcsXApKtcsZfcIbVWPHt"><g transform="translate(0,-216186.45300000004) scale(1,-1)" fill="currentColor" stroke="currentColor"><path d="M 73626.26 -148082.279 73054.832 -148082.2 M 73340.546 -148082.239 73340.685 -147082.239 73245.427 -147225.083 73150.175 -147320.308 73054.931 -147367.914 M 74483.542 -147082.398 74293.066 -147082.371 74197.821 -147129.977 74150.195 -147177.59 74054.937 -147320.434 74007.292 -147510.903 74007.239 -147891.856 74054.845 -147987.1 74102.457 -148034.726 74197.689 -148082.358 74388.165 -148082.385 74483.41 -148034.779 74531.035 -147987.166 74578.668 -147891.935 74578.701 -147653.84 74531.095 -147558.595 74483.482 -147510.969 74388.251 -147463.337 74197.775 -147463.311 74102.53 -147510.916 74054.904 -147558.529 74007.272 -147653.76 M 75007.226 -147987.232 75054.838 -148034.858 75007.213 -148082.471 74959.6 -148034.845 75007.226 -147987.232 75007.213 -148082.471 M 75435.91 -147177.768 75483.535 -147130.156 75578.78 -147082.55 75816.875 -147082.583 75912.107 -147130.215 75959.719 -147177.841 76007.325 -147273.085 76007.312 -147368.324 75959.673 -147511.174 75388.165 -148082.523 76007.213 -148082.609 M 76959.594 -148082.741 76388.165 -148082.662 M 76673.879 -148082.702 76674.018 -147082.702 76578.76 -147225.546 76483.509 -147320.771 76388.264 -147368.376 M 77435.784 -148082.807 77626.26 -148082.834 77721.505 -148035.228 77769.131 -147987.616 77864.388 -147844.772 77912.034 -147654.302 77912.087 -147273.35 77864.481 -147178.105 77816.868 -147130.479 77721.637 -147082.847 77531.161 -147082.821 77435.916 -147130.427 77388.29 -147178.039 77340.658 -147273.27 77340.625 -147511.366 77388.231 -147606.61 77435.843 -147654.236 77531.075 -147701.868 77721.551 -147701.895 77816.796 -147654.289 77864.421 -147606.676 77912.054 -147511.445 M 79102.451 -148083.039 79102.543 -147416.372 M 79102.53 -147511.61 79150.156 -147463.998 79245.4 -147416.392 79388.257 -147416.412 79483.489 -147464.044 79531.095 -147559.289 79531.022 -148083.098 M 79531.095 -147559.289 79578.727 -147464.057 79673.972 -147416.451 79816.829 -147416.471 79912.06 -147464.103 79959.666 -147559.348 79959.593 -148083.158 M 80435.784 -148083.224 80435.876 -147416.557 M 80435.863 -147511.795 80483.489 -147464.183 80578.734 -147416.577 80721.591 -147416.597 80816.822 -147464.229 80864.428 -147559.474 80864.355 -148083.283 M 80864.428 -147559.474 80912.06 -147464.242 81007.305 -147416.636 81150.162 -147416.656 81245.394 -147464.288 81292.999 -147559.533 81292.927 -148083.343" fill="none" stroke-width="150"/><path d="M 85306.987 -148901.519 69088.165 -148899.269 M 85306.822 -150090.85 85307.068 -148315.098 M 69088 -150088.6 69088.246 -148312.848 M 69088.165 -148899.269 70214.75 -148313.005 M 69088.165 -148899.269 70214.587 -149485.846 M 85306.987 -148901.519 84180.565 -148314.942 M 85306.987 -148901.519 84180.402 -149487.783" fill="none" stroke-width="120"/><path d="M 182578.952 -51293.78 182578.952 -52008.066 182531.333 -52150.923 182436.095 -52246.161 182293.238 -52293.78 182198 -52293.78 M 183531.333 -52293.78 183055.142 -52293.78 183055.142 -51293.78 M 184436.095 -52198.542 184388.476 -52246.161 184245.619 -52293.78 184150.38 -52293.78 184007.523 -52246.161 183912.285 -52150.923 183864.666 -52055.685 183817.047 -51865.209 183817.047 -51722.352 183864.666 -51531.876 183912.285 -51436.638 184007.523 -51341.4 184150.38 -51293.78 184245.619 -51293.78 184388.476 -51341.4 184436.095 -51389.019 M 185150.38 -51293.78 185150.38 -52008.066 185102.761 -52150.923 185007.523 -52246.161 184864.666 -52293.78 184769.428 -52293.78 M 186102.761 -52293.78 185626.571 -52293.78 185626.571 -51293.78 M 187007.523 -52198.542 186959.904 -52246.161 186817.047 -52293.78 186721.809 -52293.78 186578.952 -52246.161 186483.714 -52150.923 186436.095 -52055.685 186388.476 -51865.209 186388.476 -51722.352 186436.095 -51531.876 186483.714 -51436.638 186578.952 -51341.4 186721.809 -51293.78 186817.047 -51293.78 186959.904 -51341.4 187007.523 -51389.019 M 187721.809 -51293.78 187721.809 -52008.066 187674.19 -52150.923 187578.952 -52246.161 187436.095 -52293.78 187340.857 -52293.78 M 188674.19 -52293.78 188198 -52293.78 188198 -51293.78 M 189578.952 -52198.542 189531.333 -52246.161 189388.476 -52293.78 189293.238 -52293.78 189150.38 -52246.161 189055.142 -52150.923 189007.523 -52055.685 188959.904 -51865.209 188959.904 -51722.352 189007.523 -51531.876 189055.142 -51436.638 189150.38 -51341.4 189293.238 -51293.78 189388.476 -51293.78 189531.333 -51341.4 189578.952 -51389.019 M 190293.238 -51293.78 190293.238 -52008.066 190245.619 -52150.923 190150.38 -52246.161 190007.523 -52293.78 189912.285 -52293.78 M 191245.619 -52293.78 190769.428 -52293.78 190769.428 -51293.78 M 192150.38 -52198.542 192102.761 -52246.161 191959.904 -52293.78 191864.666 -52293.78 191721.809 -52246.161 191626.571 -52150.923 191578.952 -52055.685 191531.333 -51865.209 191531.333 -51722.352 191578.952 -51531.876 191626.571 -51436.638 191721.809 -51341.4 191864.666 -51293.78 191959.904 -51293.78 192102.761 -51341.4 192150.38 -51389.019 M 219908.424 -111272.364 219908.423 -111843.793 M 219908.423 -111558.079 218908.423 -111558.077 219051.28 -111653.315 219146.518 -111748.553 219194.137 -111843.792 M 219908.426 -110319.983 219908.425 -110891.412 M 219908.425 -110605.698 218908.425 -110605.696 219051.282 -110700.934 219146.52 -110796.172 219194.139 -110891.411 M 218908.427 -109462.839 218908.427 -109653.315 218956.046 -109748.553 219003.665 -109796.172 219146.522 -109891.411 219336.998 -109939.03 219717.95 -109939.031 219813.188 -109891.412 219860.807 -109843.793 219908.427 -109748.555 219908.427 -109558.079 219860.808 -109462.84 219813.189 -109415.221 219717.951 -109367.602 219479.856 -109367.602 219384.618 -109415.221 219336.999 -109462.84 219289.379 -109558.078 219289.379 -109748.554 219336.998 -109843.792 219384.617 -109891.411 219479.855 -109939.03 M 219813.19 -108939.031 219860.809 -108891.412 219908.428 -108939.031 219860.809 -108986.65 219813.19 -108939.031 219908.428 -108939.031 M 219241.763 -108034.268 219908.43 -108034.269 M 218860.81 -108272.362 219575.096 -108510.459 219575.097 -107891.411 M 218908.431 -107319.982 218908.431 -107224.743 218956.051 -107129.505 219003.67 -107081.887 219098.908 -107034.268 219289.384 -106986.649 219527.48 -106986.649 219717.956 -107034.269 219813.194 -107081.888 219860.813 -107129.507 219908.431 -107224.745 219908.431 -107319.983 219860.812 -107415.221 219813.193 -107462.84 219717.955 -107510.459 219527.478 -107558.078 219289.383 -107558.078 219098.907 -107510.458 219003.669 -107462.839 218956.05 -107415.22 218908.431 -107319.982 M 218908.434 -106081.886 218908.433 -106558.077 219384.623 -106605.697 219337.004 -106558.078 219289.385 -106462.839 219289.386 -106224.744 219337.005 -106129.506 219384.624 -106081.887 219479.862 -106034.268 219717.958 -106034.269 219813.196 -106081.888 219860.814 -106129.507 219908.433 -106224.745 219908.433 -106462.841 219860.814 -106558.079 219813.195 -106605.698 M 219908.436 -104843.793 219241.769 -104843.792 M 219337.007 -104843.792 219289.388 -104796.173 219241.77 -104700.935 219241.77 -104558.077 219289.389 -104462.839 219384.627 -104415.221 219908.437 -104415.222 M 219384.627 -104415.221 219289.389 -104367.601 219241.77 -104272.363 219241.771 -104129.506 219289.39 -104034.268 219384.628 -103986.649 219908.438 -103986.65 M 219908.438 -103510.46 219241.772 -103510.458 M 219337.01 -103510.459 219289.391 -103462.839 219241.772 -103367.601 219241.772 -103224.744 219289.392 -103129.506 219384.63 -103081.887 219908.439 -103081.888 M 219384.63 -103081.887 219289.392 -103034.268 219241.773 -102939.03 219241.773 -102796.173 219289.392 -102700.935 219384.631 -102653.316 219908.44 -102653.317" fill="none" stroke-width="150"/><path d="M 218186.161 -49022.281 218185.942 -165427.205 M 69088 -49022 218772.582 -49022.282 M 69087.781 -165426.924 218772.363 -165427.206 M 218185.942 -165427.205 217599.523 -164300.7 M 218185.942 -165427.205 218772.365 -164300.702 M 218186.161 -49022.281 217599.738 -50148.784 M 218186.161 -49022.281 218772.58 -50148.786" fill="none" stroke-width="120"/><path d="M 139589.843 -167149.437 139018.414 -167149.436 M 139304.128 -167149.436 139304.13 -166149.436 139208.892 -166292.293 139113.654 -166387.531 139018.415 -166435.15 M 140446.987 -166482.772 140446.985 -167149.438 M 140208.892 -166101.819 139970.796 -166816.104 140589.843 -166816.105 M 141018.414 -167149.44 141208.89 -167149.44 141304.128 -167101.821 141351.748 -167054.202 141446.986 -166911.345 141494.605 -166720.869 141494.606 -166339.917 141446.987 -166244.678 141399.368 -166197.059 141304.13 -166149.44 141113.654 -166149.44 141018.416 -166197.059 140970.797 -166244.678 140923.177 -166339.916 140923.177 -166578.011 140970.796 -166673.249 141018.415 -166720.868 141113.653 -166768.487 141304.129 -166768.488 141399.367 -166720.869 141446.986 -166673.25 141494.606 -166578.012 M 141923.176 -167054.203 141970.795 -167101.822 141923.176 -167149.441 141875.557 -167101.822 141923.176 -167054.203 141923.176 -167149.441 M 142589.844 -166149.442 142685.083 -166149.443 142780.321 -166197.062 142827.94 -166244.681 142875.558 -166339.919 142923.177 -166530.395 142923.177 -166768.491 142875.557 -166958.967 142827.938 -167054.205 142780.319 -167101.824 142685.081 -167149.443 142589.843 -167149.442 142494.605 -167101.823 142446.986 -167054.204 142399.367 -166958.966 142351.748 -166768.49 142351.749 -166530.394 142399.368 -166339.918 142446.987 -166244.68 142494.606 -166197.061 142589.844 -166149.442 M 143399.366 -167149.444 143589.843 -167149.444 143685.081 -167101.825 143732.7 -167054.207 143827.938 -166911.35 143875.558 -166720.873 143875.558 -166339.921 143827.94 -166244.683 143780.321 -166197.064 143685.083 -166149.445 143494.606 -166149.444 143399.368 -166197.063 143351.749 -166244.682 143304.13 -166339.92 143304.129 -166578.015 143351.748 -166673.253 143399.367 -166720.873 143494.605 -166768.492 143685.081 -166768.492 143780.32 -166720.873 143827.939 -166673.254 143875.558 -166578.016 M 144351.747 -167149.446 144542.224 -167149.446 144637.462 -167101.827 144685.081 -167054.208 144780.319 -166911.351 144827.939 -166720.875 144827.939 -166339.923 144780.32 -166244.685 144732.702 -166197.066 144637.464 -166149.446 144446.987 -166149.446 144351.749 -166197.065 144304.13 -166244.684 144256.511 -166339.922 144256.51 -166578.017 144304.129 -166673.255 144351.748 -166720.874 144446.986 -166768.494 144637.462 -166768.494 144732.701 -166720.875 144780.32 -166673.256 144827.939 -166578.018 M 146018.414 -167149.449 146018.415 -166482.782 M 146018.415 -166578.02 146066.034 -166530.401 146161.272 -166482.783 146304.13 -166482.783 146399.368 -166530.402 146446.986 -166625.64 146446.985 -167149.45 M 146446.986 -166625.64 146494.606 -166530.402 146589.844 -166482.783 146732.701 -166482.784 146827.939 -166530.403 146875.558 -166625.641 146875.557 -167149.451 M 147351.747 -167149.451 147351.749 -166482.785 M 147351.748 -166578.023 147399.368 -166530.404 147494.606 -166482.785 147637.463 -166482.785 147732.701 -166530.405 147780.32 -166625.643 147780.319 -167149.452 M 147780.32 -166625.643 147827.939 -166530.405 147923.177 -166482.786 148066.034 -166482.786 148161.272 -166530.405 148208.891 -166625.644 148208.89 -167149.453" fill="none" stroke-width="150"/><path d="M 69087.781 -165426.924 218187.149 -165427.204 M 69088 -49022 69087.78 -166013.345 M 218187.368 -49022.28 218187.148 -166013.625 M 218187.149 -165427.204 217060.644 -166013.623 M 218187.149 -165427.204 217060.646 -164840.781 M 69087.781 -165426.924 70214.284 -166013.347 M 69087.781 -165426.924 70214.286 -164840.505" fill="none" stroke-width="120"/><path d="M 105418.047 -67203.58 105418.047 -66203.58 105656.142 -66203.58 105799 -66251.2 105894.238 -66346.438 105941.857 -66441.676 105989.476 -66632.152 105989.476 -66775.009 105941.857 -66965.485 105894.238 -67060.723 105799 -67155.961 105656.142 -67203.58 105418.047 -67203.58 M 106418.047 -66822.628 107179.952 -66822.628 M 106799 -67203.58 106799 -66441.676 M 105392.647 -64663.58 105392.647 -63663.58 105630.742 -63663.58 105773.6 -63711.2 105868.838 -63806.438 105916.457 -63901.676 105964.076 -64092.152 105964.076 -64235.009 105916.457 -64425.485 105868.838 -64520.723 105773.6 -64615.961 105630.742 -64663.58 105392.647 -64663.58 M 106392.647 -64282.628 107154.552 -64282.628 M 105278.466 -61225.18 105611.8 -62225.18 105945.133 -61225.18 M 106611.8 -61701.371 106754.657 -61748.99 106802.276 -61796.609 106849.895 -61891.847 106849.895 -62034.704 106802.276 -62129.942 106754.657 -62177.561 106659.419 -62225.18 106278.466 -62225.18 106278.466 -61225.18 106611.8 -61225.18 106707.038 -61272.8 106754.657 -61320.419 106802.276 -61415.657 106802.276 -61510.895 106754.657 -61606.133 106707.038 -61653.752 106611.8 -61701.371 106278.466 -61701.371 M 107278.466 -61225.18 107278.466 -62034.704 107326.085 -62129.942 107373.704 -62177.561 107468.942 -62225.18 107659.419 -62225.18 107754.657 -62177.561 107802.276 -62129.942 107849.895 -62034.704 107849.895 -61225.18 M 108278.466 -62177.561 108421.323 -62225.18 108659.419 -62225.18 108754.657 -62177.561 108802.276 -62129.942 108849.895 -62034.704 108849.895 -61939.466 108802.276 -61844.228 108754.657 -61796.609 108659.419 -61748.99 108468.942 -61701.371 108373.704 -61653.752 108326.085 -61606.133 108278.466 -61510.895 108278.466 -61415.657 108326.085 -61320.419 108373.704 -61272.8 108468.942 -61225.18 108707.038 -61225.18 108849.895 -61272.8 M 105841.895 -58580.4 105746.657 -58532.78 105603.8 -58532.78 105460.942 -58580.4 105365.704 -58675.638 105318.085 -58770.876 105270.466 -58961.352 105270.466 -59104.209 105318.085 -59294.685 105365.704 -59389.923 105460.942 -59485.161 105603.8 -59532.78 105699.038 -59532.78 105841.895 -59485.161 105889.514 -59437.542 105889.514 -59104.209 105699.038 -59104.209 M 106318.085 -59532.78 106318.085 -58532.78 106889.514 -59532.78 106889.514 -58532.78 M 107365.704 -59532.78 107365.704 -58532.78 107603.8 -58532.78 107746.657 -58580.4 107841.895 -58675.638 107889.514 -58770.876 107937.133 -58961.352 107937.133 -59104.209 107889.514 -59294.685 107841.895 -59389.923 107746.657 -59485.161 107603.8 -59532.78 107365.704 -59532.78 M 213039.533 -134405.714 213277.628 -135072.38 213515.723 -134405.714 M 213896.676 -134977.142 213944.295 -135024.761 213896.676 -135072.38 213849.057 -135024.761 213896.676 -134977.142 213896.676 -135072.38 M 214896.676 -135072.38 214325.247 -135072.38 M 214610.961 -135072.38 214610.961 -134072.38 214515.723 -134215.238 214420.485 -134310.476 214325.247 -134358.095 M 215325.247 -134977.142 215372.866 -135024.761 215325.247 -135072.38 215277.628 -135024.761 215325.247 -134977.142 215325.247 -135072.38 M 215991.914 -134072.38 216087.152 -134072.38 216182.39 -134120 216230.009 -134167.619 216277.628 -134262.857 216325.247 -134453.333 216325.247 -134691.428 216277.628 -134881.904 216230.009 -134977.142 216182.39 -135024.761 216087.152 -135072.38 215991.914 -135072.38 215896.676 -135024.761 215849.057 -134977.142 215801.438 -134881.904 215753.819 -134691.428 215753.819 -134453.333 215801.438 -134262.857 215849.057 -134167.619 215896.676 -134120 215991.914 -134072.38" fill="none" stroke-width="150"/><path d="M 69215 -50368.2 A 1346.2 1346.2 0 0 0 70561.2 -49022 M 216662 -49022 A 1524 1524 0 0 0 218186 -50546 M 218185.746 -135102.605 A 1269.9999254 1269.9999254 0 0 0 216916 -136398 M 124826.908 -149436.724 A 1650.9986032 1650.9986032 0 0 0 125349 -149352 M 68995.286 -133967.988 A 1558.6115035 1558.6115035 0 0 0 68834 -133215.703 M 154432 -137414 A 1270 1270 0 0 0 155702 -136144 M 154432 -148590 A 762 762 0 0 0 153670 -149352 M 90302.555 -165239.036 A 1831.6193424 1831.6193424 0 0 0 88011.001 -164591.999 M 68834 -133215.703 69215 -50368.2 M 88011 -164592 68995.287 -133967.987 M 216916 -136398 155702 -136144 M 218186 -50546 218186 -135102.605 M 124826.908 -149436.724 90302.555 -165239.035 M 153670 -149352 125349 -149352 M 154432 -137414 154432 -148590 M 70561.2 -49022 216662 -49022" fill="none" stroke-width="50"/><path d="M 70202.6 -119675.4 73002.6 -119675.4 73002.6 -121675.4 70202.6 -121675.4 70202.6 -119675.4 M 73657 -119675.4 76457 -119675.4 76457 -121675.4 73657 -121675.4 73657 -119675.4" fill="none" stroke-width="120"/><path d="M 108062 -55849 108062 -54849 M 108062 -68849 108062 -67849 M 122062 -54849 122062 -55849 M 121062 -54849 122062 -54849 M 122062 -68849 121062 -68849 M 122062 -67849 122062 -68849 M 109062 -68849 108062 -68849 M 108062 -54849 109062 -54849 M 127112 -53436 127112 -52436 M 127112 -66436 127112 -65436 M 141112 -52436 141112 -53436 M 140112 -52436 141112 -52436 M 141112 -66436 140112 -66436 M 141112 -65436 141112 -66436 M 128112 -66436 127112 -66436 M 127112 -52436 128112 -52436 M 146162 -50896 146162 -49896 M 146162 -63896 146162 -62896 M 160162 -49896 160162 -50896 M 159162 -49896 160162 -49896 M 160162 -63896 159162 -63896 M 160162 -62896 160162 -63896 M 147162 -63896 146162 -63896 M 146162 -49896 147162 -49896 M 165212 -53436 165212 -52436 M 165212 -66436 165212 -65436 M 179212 -52436 179212 -53436 M 178212 -52436 179212 -52436 M 179212 -66436 178212 -66436 M 179212 -65436 179212 -66436 M 166212 -66436 165212 -66436 M 165212 -52436 166212 -52436 M 184262 -58643 184262 -57643 M 184262 -71643 184262 -70643 M 198262 -57643 198262 -58643 M 197262 -57643 198262 -57643 M 198262 -71643 197262 -71643 M 198262 -70643 198262 -71643 M 185262 -71643 184262 -71643 M 184262 -57643 185262 -57643 M 203312 -58643 203312 -57643 M 203312 -71643 203312 -70643 M 217312 -57643 217312 -58643 M 216312 -57643 217312 -57643 M 217312 -71643 216312 -71643 M 217312 -70643 217312 -71643 M 204312 -71643 203312 -71643 M 203312 -57643 204312 -57643 M 108062 -74899 108062 -73899 M 108062 -87899 108062 -86899 M 122062 -73899 122062 -74899 M 121062 -73899 122062 -73899 M 122062 -87899 121062 -87899 M 122062 -86899 122062 -87899 M 109062 -87899 108062 -87899 M 108062 -73899 109062 -73899 M 127112 -72486 127112 -71486 M 127112 -85486 127112 -84486 M 141112 -71486 141112 -72486 M 140112 -71486 141112 -71486 M 141112 -85486 140112 -85486 M 141112 -84486 141112 -85486 M 128112 -85486 127112 -85486 M 127112 -71486 128112 -71486 M 146162 -69946 146162 -68946 M 146162 -82946 146162 -81946 M 160162 -68946 160162 -69946 M 159162 -68946 160162 -68946 M 160162 -82946 159162 -82946 M 160162 -81946 160162 -82946 M 147162 -82946 146162 -82946 M 146162 -68946 147162 -68946 M 165212 -72486 165212 -71486 M 165212 -85486 165212 -84486 M 179212 -71486 179212 -72486 M 178212 -71486 179212 -71486 M 179212 -85486 178212 -85486 M 179212 -84486 179212 -85486 M 166212 -85486 165212 -85486 M 165212 -71486 166212 -71486 M 184262 -77693 184262 -76693 M 184262 -90693 184262 -89693 M 198262 -76693 198262 -77693 M 197262 -76693 198262 -76693 M 198262 -90693 197262 -90693 M 198262 -89693 198262 -90693 M 185262 -90693 184262 -90693 M 184262 -76693 185262 -76693 M 203312 -77693 203312 -76693 M 203312 -90693 203312 -89693 M 217312 -76693 217312 -77693 M 216312 -76693 217312 -76693 M 217312 -90693 216312 -90693 M 217312 -89693 217312 -90693 M 204312 -90693 203312 -90693 M 203312 -76693 204312 -76693 M 108062 -93949 108062 -92949 M 108062 -106949 108062 -105949 M 122062 -92949 122062 -93949 M 121062 -92949 122062 -92949 M 122062 -106949 121062 -106949 M 122062 -105949 122062 -106949 M 109062 -106949 108062 -106949 M 108062 -92949 109062 -92949 M 127112 -91536 127112 -90536 M 127112 -104536 127112 -103536 M 141112 -90536 141112 -91536 M 140112 -90536 141112 -90536 M 141112 -104536 140112 -104536 M 141112 -103536 141112 -104536 M 128112 -104536 127112 -104536 M 127112 -90536 128112 -90536 M 146162 -88996 146162 -87996 M 146162 -101996 146162 -100996 M 160162 -87996 160162 -88996 M 159162 -87996 160162 -87996 M 160162 -101996 159162 -101996 M 160162 -100996 160162 -101996 M 147162 -101996 146162 -101996 M 146162 -87996 147162 -87996 M 165212 -91536 165212 -90536 M 165212 -104536 165212 -103536 M 179212 -90536 179212 -91536 M 178212 -90536 179212 -90536 M 179212 -104536 178212 -104536 M 179212 -103536 179212 -104536 M 166212 -104536 165212 -104536 M 165212 -90536 166212 -90536 M 184262 -96743 184262 -95743 M 184262 -109743 184262 -108743 M 198262 -95743 198262 -96743 M 197262 -95743 198262 -95743 M 198262 -109743 197262 -109743 M 198262 -108743 198262 -109743 M 185262 -109743 184262 -109743 M 184262 -95743 185262 -95743 M 203312 -96743 203312 -95743 M 203312 -109743 203312 -108743 M 217312 -95743 217312 -96743 M 216312 -95743 217312 -95743 M 217312 -109743 216312 -109743 M 217312 -108743 217312 -109743 M 204312 -109743 203312 -109743 M 203312 -95743 204312 -95743 M 108062 -112999 108062 -111999 M 108062 -125999 108062 -124999 M 122062 -111999 122062 -112999 M 121062 -111999 122062 -111999 M 122062 -125999 121062 -125999 M 122062 -124999 122062 -125999 M 109062 -125999 108062 -125999 M 108062 -111999 109062 -111999 M 127112 -110586 127112 -109586 M 127112 -123586 127112 -122586 M 141112 -109586 141112 -110586 M 140112 -109586 141112 -109586 M 141112 -123586 140112 -123586 M 141112 -122586 141112 -123586 M 128112 -123586 127112 -123586 M 127112 -109586 128112 -109586 M 146162 -108046 146162 -107046 M 146162 -121046 146162 -120046 M 160162 -107046 160162 -108046 M 159162 -107046 160162 -107046 M 160162 -121046 159162 -121046 M 160162 -120046 160162 -121046 M 147162 -121046 146162 -121046 M 146162 -107046 147162 -107046 M 165212 -110586 165212 -109586 M 165212 -123586 165212 -122586 M 179212 -109586 179212 -110586 M 178212 -109586 179212 -109586 M 179212 -123586 178212 -123586 M 179212 -122586 179212 -123586 M 166212 -123586 165212 -123586 M 165212 -109586 166212 -109586 M 184262 -115793 184262 -114793 M 184262 -128793 184262 -127793 M 198262 -114793 198262 -115793 M 197262 -114793 198262 -114793 M 198262 -128793 197262 -128793 M 198262 -127793 198262 -128793 M 185262 -128793 184262 -128793 M 184262 -114793 185262 -114793 M 203312 -115793 203312 -114793 M 203312 -128793 203312 -127793 M 217312 -114793 217312 -115793 M 216312 -114793 217312 -114793 M 217312 -128793 216312 -128793 M 217312 -127793 217312 -128793 M 204312 -128793 203312 -128793 M 203312 -114793 204312 -114793 M 96565.152 -143590.85 97431.178 -143090.85 M 85306.822 -150090.85 86172.848 -149590.85 M 104431.178 -155215.206 103565.152 -155715.206 M 103931.178 -154349.18 104431.178 -155215.206 M 92306.822 -162215.206 91806.822 -161349.18 M 93172.848 -161715.206 92306.822 -162215.206 M 85806.822 -150956.876 85306.822 -150090.85 M 97431.178 -143090.85 97931.178 -143956.876 M 107254.762 -139720.397 106832.144 -138814.089 M 112748.799 -151502.398 112326.181 -150596.091 M 119520.453 -132897.434 119943.071 -133803.741 M 118614.145 -133320.052 119520.453 -132897.434 M 125437.108 -145585.743 124530.801 -146008.361 M 125014.49 -144679.435 125437.108 -145585.743 M 113655.107 -151079.78 112748.799 -151502.398 M 106832.144 -138814.089 107738.451 -138391.471 M 133589 -133319 133589 -132319 M 133589 -146319 133589 -145319 M 147589 -132319 147589 -133319 M 146589 -132319 147589 -132319 M 147589 -146319 146589 -146319 M 147589 -145319 147589 -146319 M 134589 -146319 133589 -146319 M 133589 -132319 134589 -132319" fill="none" stroke-width="150"/><path d="M 84666 -101192 85066 -101192 M 82066 -101192 82466 -101192 M 94066 -101192 87266 -101192 M 94066 -90792 94066 -91192 M 94066 -83092 94066 -83492 M 94066 -57692 94066 -58092 M 94066 -50192 94066 -50492 M 94066 -72992 94066 -73392 M 94066 -88192 94066 -88592 M 94066 -67892 94066 -68292 M 94066 -62792 94066 -63192 M 94066 -75492 94066 -75892 M 94066 -80592 94066 -80992 M 94066 -95792 94066 -96192 M 94066 -98392 94066 -98792 M 94066 -93292 94066 -93692 M 94066 -60292 94066 -60692 M 94066 -52592 94066 -52992 M 94066 -55192 94066 -55592 M 94066 -85692 94066 -86092 M 94066 -77992 94066 -78392 M 94066 -70392 94066 -70792 M 94066 -65292 94066 -65692 M 73066 -98392 73066 -98792 M 73066 -95792 73066 -96192 M 73066 -93292 73066 -93692 M 73066 -90792 73066 -91192 M 73066 -88192 73066 -88592 M 73066 -85692 73066 -86092 M 73066 -83092 73066 -83492 M 73066 -80592 73066 -80992 M 73066 -77992 73066 -78392 M 73066 -75492 73066 -75892 M 73066 -72992 73066 -73392 M 73066 -70392 73066 -70792 M 73066 -67892 73066 -68292 M 73066 -65292 73066 -65692 M 73066 -62792 73066 -63192 M 73066 -60292 73066 -60692 M 73066 -57692 73066 -58092 M 73066 -55192 73066 -55592 M 73066 -52592 73066 -52992 M 73066 -50192 73066 -50492 M 76073 -52859 76073 -50192 M 73066 -52859 76073 -52859 M 79866 -101192 73066 -101192 M 73066 -50192 94066 -50192 M 79716 -49882 79716 -52682 M 87416 -49882 87416 -52682 M 79716 -52682 79416 -52682 79416 -54232 M 87716 -52682 87416 -52682 M 87716 -52682 87716 -54232 M 103759 -57725 105089 -57725 105089 -59055 M 105089 -60325 105089 -68005 M 102429 -68005 105089 -68005 M 102429 -60325 102429 -68005 M 102429 -60325 105089 -60325 M 91675 -113840 91675 -115340 M 92925 -117840 97425 -117840 M 98675 -115340 98675 -113840 M 97425 -111340 92925 -111340 M 103124 -122749 104454 -122749 104454 -124079 M 104454 -125349 104454 -133029 M 101794 -133029 104454 -133029 M 101794 -125349 101794 -133029 M 101794 -125349 104454 -125349" fill="none" stroke-width="120"/><path d="M 69515 -111004 82015 -111004 M 69515 -111004 69515 -111554 66915 -111554 66915 -117554 M 69515 -117554 66915 -117554 M 69515 -118104 69515 -117554 M 82015 -118104 69515 -118104 M 82015 -111004 82015 -118104 M 143289 -148705 143289 -147205 M 137889 -148705 143289 -148705 M 137889 -147205 137889 -148705 M 143289 -147205 137889 -147205 M 140089 -147455 140089 -148455 M 141089 -148455 140189 -147955 M 141089 -147455 141089 -148455 M 140189 -147955 141089 -147455 M 122751.33 -149510.021 122117.402 -148150.559 M 117857.268 -151792.159 122751.33 -149510.021 M 117223.34 -150432.697 117857.268 -151792.159 M 122117.402 -148150.559 117223.34 -150432.697 M 119322.872 -149729.514 119745.49 -150635.822 M 120651.798 -150213.204 119624.812 -150140.406 M 120229.18 -149306.896 120651.798 -150213.204 M 119624.812 -150140.406 120229.18 -149306.896 M 88070.315 -159800.431 89369.353 -159050.431 M 85370.315 -155123.893 88070.315 -159800.431 M 86669.353 -154373.893 85370.315 -155123.893 M 89369.353 -159050.431 86669.353 -154373.893 M 87552.847 -156404.149 86686.821 -156904.149 M 87186.821 -157770.175 87169.834 -156740.752 M 88052.847 -157270.175 87186.821 -157770.175 M 87169.834 -156740.752 88052.847 -157270.175 M 213012 -131179 213012 -129679 M 207612 -131179 213012 -131179 M 207612 -129679 207612 -131179 M 213012 -129679 207612 -129679 M 209812 -129929 209812 -130929 M 210812 -130929 209912 -130429 M 210812 -129929 210812 -130929 M 209912 -130429 210812 -129929 M 193962 -131179 193962 -129679 M 188562 -131179 193962 -131179 M 188562 -129679 188562 -131179 M 193962 -129679 188562 -129679 M 190762 -129929 190762 -130929 M 191762 -130929 190862 -130429 M 191762 -129929 191762 -130929 M 190862 -130429 191762 -129929 M 175036 -125972 175036 -124472 M 169636 -125972 175036 -125972 M 169636 -124472 169636 -125972 M 175036 -124472 169636 -124472 M 171836 -124722 171836 -125722 M 172836 -125722 171936 -125222 M 172836 -124722 172836 -125722 M 171936 -125222 172836 -124722 M 155862 -123432 155862 -121932 M 150462 -123432 155862 -123432 M 150462 -121932 150462 -123432 M 155862 -121932 150462 -121932 M 152662 -122182 152662 -123182 M 153662 -123182 152762 -122682 M 153662 -122182 153662 -123182 M 152762 -122682 153662 -122182 M 136939 -125972 136939 -124472 M 131539 -125972 136939 -125972 M 131539 -124472 131539 -125972 M 136939 -124472 131539 -124472 M 133739 -124722 133739 -125722 M 134739 -125722 133839 -125222 M 134739 -124722 134739 -125722 M 133839 -125222 134739 -124722 M 117762 -128385 117762 -126885 M 112362 -128385 117762 -128385 M 112362 -126885 112362 -128385 M 117762 -126885 112362 -126885 M 114562 -127135 114562 -128135 M 115562 -128135 114662 -127635 M 115562 -127135 115562 -128135 M 114662 -127635 115562 -127135 M 213012 -112129 213012 -110629 M 207612 -112129 213012 -112129 M 207612 -110629 207612 -112129 M 213012 -110629 207612 -110629 M 209812 -110879 209812 -111879 M 210812 -111879 209912 -111379 M 210812 -110879 210812 -111879 M 209912 -111379 210812 -110879 M 194089 -112129 194089 -110629 M 188689 -112129 194089 -112129 M 188689 -110629 188689 -112129 M 194089 -110629 188689 -110629 M 190889 -110879 190889 -111879 M 191889 -111879 190989 -111379 M 191889 -110879 191889 -111879 M 190989 -111379 191889 -110879 M 175039 -106922 175039 -105422 M 169639 -106922 175039 -106922 M 169639 -105422 169639 -106922 M 175039 -105422 169639 -105422 M 171839 -105672 171839 -106672 M 172839 -106672 171939 -106172 M 172839 -105672 172839 -106672 M 171939 -106172 172839 -105672 M 155862 -104382 155862 -102882 M 150462 -104382 155862 -104382 M 150462 -102882 150462 -104382 M 155862 -102882 150462 -102882 M 152662 -103132 152662 -104132 M 153662 -104132 152762 -103632 M 153662 -103132 153662 -104132 M 152762 -103632 153662 -103132 M 136812 -106922 136812 -105422 M 131412 -106922 136812 -106922 M 131412 -105422 131412 -106922 M 136812 -105422 131412 -105422 M 133612 -105672 133612 -106672 M 134612 -106672 133712 -106172 M 134612 -105672 134612 -106672 M 133712 -106172 134612 -105672 M 117889 -109335 117889 -107835 M 112489 -109335 117889 -109335 M 112489 -107835 112489 -109335 M 117889 -107835 112489 -107835 M 114689 -108085 114689 -109085 M 115689 -109085 114789 -108585 M 115689 -108085 115689 -109085 M 114789 -108585 115689 -108085 M 213012 -93079 213012 -91579 M 207612 -93079 213012 -93079 M 207612 -91579 207612 -93079 M 213012 -91579 207612 -91579 M 209812 -91829 209812 -92829 M 210812 -92829 209912 -92329 M 210812 -91829 210812 -92829 M 209912 -92329 210812 -91829 M 194089 -93079 194089 -91579 M 188689 -93079 194089 -93079 M 188689 -91579 188689 -93079 M 194089 -91579 188689 -91579 M 190889 -91829 190889 -92829 M 191889 -92829 190989 -92329 M 191889 -91829 191889 -92829 M 190989 -92329 191889 -91829 M 175039 -87872 175039 -86372 M 169639 -87872 175039 -87872 M 169639 -86372 169639 -87872 M 175039 -86372 169639 -86372 M 171839 -86622 171839 -87622 M 172839 -87622 171939 -87122 M 172839 -86622 172839 -87622 M 171939 -87122 172839 -86622 M 155989 -85332 155989 -83832 M 150589 -85332 155989 -85332 M 150589 -83832 150589 -85332 M 155989 -83832 150589 -83832 M 152789 -84082 152789 -85082 M 153789 -85082 152889 -84582 M 153789 -84082 153789 -85082 M 152889 -84582 153789 -84082 M 136812 -87872 136812 -86372 M 131412 -87872 136812 -87872 M 131412 -86372 131412 -87872 M 136812 -86372 131412 -86372 M 133612 -86622 133612 -87622 M 134612 -87622 133712 -87122 M 134612 -86622 134612 -87622 M 133712 -87122 134612 -86622 M 117762 -90285 117762 -88785 M 112362 -90285 117762 -90285 M 112362 -88785 112362 -90285 M 117762 -88785 112362 -88785 M 114562 -89035 114562 -90035 M 115562 -90035 114662 -89535 M 115562 -89035 115562 -90035 M 114662 -89535 115562 -89035 M 213012 -74029 213012 -72529 M 207612 -74029 213012 -74029 M 207612 -72529 207612 -74029 M 213012 -72529 207612 -72529 M 209812 -72779 209812 -73779 M 210812 -73779 209912 -73279 M 210812 -72779 210812 -73779 M 209912 -73279 210812 -72779 M 193962 -74029 193962 -72529 M 188562 -74029 193962 -74029 M 188562 -72529 188562 -74029 M 193962 -72529 188562 -72529 M 190762 -72779 190762 -73779 M 191762 -73779 190862 -73279 M 191762 -72779 191762 -73779 M 190862 -73279 191762 -72779 M 175042 -68822 175042 -67322 M 169642 -68822 175042 -68822 M 169642 -67322 169642 -68822 M 175042 -67322 169642 -67322 M 171842 -67572 171842 -68572 M 172842 -68572 171942 -68072 M 172842 -67572 172842 -68572 M 171942 -68072 172842 -67572 M 155862 -66282 155862 -64782 M 150462 -66282 155862 -66282 M 150462 -64782 150462 -66282 M 155862 -64782 150462 -64782 M 152662 -65032 152662 -66032 M 153662 -66032 152762 -65532 M 153662 -65032 153662 -66032 M 152762 -65532 153662 -65032 M 136939 -68822 136939 -67322 M 131539 -68822 136939 -68822 M 131539 -67322 131539 -68822 M 136939 -67322 131539 -67322 M 133739 -67572 133739 -68572 M 134739 -68572 133839 -68072 M 134739 -67572 134739 -68572 M 133839 -68072 134739 -67572 M 117762 -71235 117762 -69735 M 112362 -71235 117762 -71235 M 112362 -69735 112362 -71235 M 117762 -69735 112362 -69735 M 114562 -69985 114562 -70985 M 115562 -70985 114662 -70485 M 115562 -69985 115562 -70985 M 114662 -70485 115562 -69985" fill="none" stroke-width="150"/><path d="M 81610.104 -62244.228 81653.783 -62250.706 81696.611 -62261.435 81738.185 -62276.309 81778.101 -62295.188 81815.972 -62317.887 81851.44 -62344.192 81884.155 -62373.845 81913.808 -62406.56 81940.113 -62442.028 81962.812 -62479.899 81981.691 -62519.815 81996.565 -62561.389 82007.294 -62604.217 82013.772 -62647.896 82016 -62693.233 82016 -63690.767 82013.772 -63736.104 82007.294 -63779.783 81996.565 -63822.611 81981.691 -63864.185 81962.812 -63904.101 81940.113 -63941.972 81913.808 -63977.44 81884.155 -64010.155 81851.44 -64039.808 81815.972 -64066.113 81778.101 -64088.812 81738.185 -64107.691 81696.611 -64122.565 81653.783 -64133.294 81610.104 -64139.772 81564.767 -64142 80567.233 -64142 80521.896 -64139.772 80478.217 -64133.294 80435.389 -64122.565 80393.815 -64107.691 80353.899 -64088.812 80316.028 -64066.113 80280.56 -64039.808 80247.845 -64010.155 80218.192 -63977.44 80191.887 -63941.972 80169.188 -63904.101 80150.309 -63864.185 80135.435 -63822.611 80124.706 -63779.783 80118.228 -63736.104 80116 -63690.767 80116 -62693.233 80118.228 -62647.896 80124.706 -62604.217 80135.435 -62561.389 80150.309 -62519.815 80169.188 -62479.899 80191.887 -62442.028 80218.192 -62406.56 80247.845 -62373.845 80280.56 -62344.192 80316.028 -62317.887 80353.899 -62295.188 80393.815 -62276.309 80435.389 -62261.435 80478.217 -62250.706 80521.896 -62244.228 80567.233 -62242 81564.767 -62242 81610.104 -62244.228 M 81610.104 -59744.228 81653.783 -59750.706 81696.611 -59761.435 81738.185 -59776.309 81778.101 -59795.188 81815.972 -59817.887 81851.44 -59844.192 81884.155 -59873.845 81913.808 -59906.56 81940.113 -59942.028 81962.812 -59979.899 81981.691 -60019.815 81996.565 -60061.389 82007.294 -60104.217 82013.772 -60147.896 82016 -60193.233 82016 -61190.767 82013.772 -61236.104 82007.294 -61279.783 81996.565 -61322.611 81981.691 -61364.185 81962.812 -61404.101 81940.113 -61441.972 81913.808 -61477.44 81884.155 -61510.155 81851.44 -61539.808 81815.972 -61566.113 81778.101 -61588.812 81738.185 -61607.691 81696.611 -61622.565 81653.783 -61633.294 81610.104 -61639.772 81564.767 -61642 80567.233 -61642 80521.896 -61639.772 80478.217 -61633.294 80435.389 -61622.565 80393.815 -61607.691 80353.899 -61588.812 80316.028 -61566.113 80280.56 -61539.808 80247.845 -61510.155 80218.192 -61477.44 80191.887 -61441.972 80169.188 -61404.101 80150.309 -61364.185 80135.435 -61322.611 80124.706 -61279.783 80118.228 -61236.104 80116 -61190.767 80116 -60193.233 80118.228 -60147.896 80124.706 -60104.217 80135.435 -60061.389 80150.309 -60019.815 80169.188 -59979.899 80191.887 -59942.028 80218.192 -59906.56 80247.845 -59873.845 80280.56 -59844.192 80316.028 -59817.887 80353.899 -59795.188 80393.815 -59776.309 80435.389 -59761.435 80478.217 -59750.706 80521.896 -59744.228 80567.233 -59742 81564.767 -59742 81610.104 -59744.228 M 81610.104 -57244.228 81653.783 -57250.706 81696.611 -57261.435 81738.185 -57276.309 81778.101 -57295.188 81815.972 -57317.887 81851.44 -57344.192 81884.155 -57373.845 81913.808 -57406.56 81940.113 -57442.028 81962.812 -57479.899 81981.691 -57519.815 81996.565 -57561.389 82007.294 -57604.217 82013.772 -57647.896 82016 -57693.233 82016 -58690.767 82013.772 -58736.104 82007.294 -58779.783 81996.565 -58822.611 81981.691 -58864.185 81962.812 -58904.101 81940.113 -58941.972 81913.808 -58977.44 81884.155 -59010.155 81851.44 -59039.808 81815.972 -59066.113 81778.101 -59088.812 81738.185 -59107.691 81696.611 -59122.565 81653.783 -59133.294 81610.104 -59139.772 81564.767 -59142 80567.233 -59142 80521.896 -59139.772 80478.217 -59133.294 80435.389 -59122.565 80393.815 -59107.691 80353.899 -59088.812 80316.028 -59066.113 80280.56 -59039.808 80247.845 -59010.155 80218.192 -58977.44 80191.887 -58941.972 80169.188 -58904.101 80150.309 -58864.185 80135.435 -58822.611 80124.706 -58779.783 80118.228 -58736.104 80116 -58690.767 80116 -57693.233 80118.228 -57647.896 80124.706 -57604.217 80135.435 -57561.389 80150.309 -57519.815 80169.188 -57479.899 80191.887 -57442.028 80218.192 -57406.56 80247.845 -57373.845 80280.56 -57344.192 80316.028 -57317.887 80353.899 -57295.188 80393.815 -57276.309 80435.389 -57261.435 80478.217 -57250.706 80521.896 -57244.228 80567.233 -57242 81564.767 -57242 81610.104 -57244.228 M 85486 -54302 85486 -54702 M 86486 -54302 86486 -54702 M 85486 -54702 A 500 500 0 0 1 86486 -54702 M 86486 -54302 A 500 500 0 0 1 85486 -54302 M 80646 -54302 80646 -54702 M 81646 -54302 81646 -54702 M 80646 -54702 A 500 500 0 0 1 81646 -54702 M 81646 -54302 A 500 500 0 0 1 80646 -54302 M 85671 -51327 85671 -51677 M 86921 -51327 86921 -51677 M 85671 -51677 A 625 625 0 0 1 86921 -51677 M 86921 -51327 A 625 625 0 0 1 85671 -51327 M 80211 -51327 80211 -51677 M 81461 -51327 81461 -51677 M 80211 -51677 A 625 625 0 0 1 81461 -51677 M 81461 -51327 A 625 625 0 0 1 80211 -51327 M 145047.5 -147955 A 648.5 648.5 0 0 1 143750.5 -147955 648.5 648.5 0 0 1 145047.5 -147955 M 136130.5 -147306.5 136130.5 -148603.5 137427.5 -148603.5 137427.5 -147306.5 136130.5 -147306.5 M 124088.868 -148361.183 A 648.5 648.5 0 0 1 122791.868 -148361.183 648.5 648.5 0 0 1 124088.868 -148361.183 M 116196.445 -152509.79 115606.047 -151243.678 116872.159 -150653.28 117462.557 -151919.392 116196.445 -152509.79 M 89923.334 -160386.719 A 648.5 648.5 0 0 1 88626.334 -160386.719 648.5 648.5 0 0 1 89923.334 -160386.719 M 84510.665 -153531.936 85720.503 -152833.436 86419.003 -154043.274 85209.165 -154741.774 84510.665 -153531.936 M 214770.5 -130429 A 648.5 648.5 0 0 1 213473.5 -130429 648.5 648.5 0 0 1 214770.5 -130429 M 205853.5 -129780.5 205853.5 -131077.5 207150.5 -131077.5 207150.5 -129780.5 205853.5 -129780.5 M 195720.5 -130429 A 648.5 648.5 0 0 1 194423.5 -130429 648.5 648.5 0 0 1 195720.5 -130429 M 186803.5 -129780.5 186803.5 -131077.5 188100.5 -131077.5 188100.5 -129780.5 186803.5 -129780.5 M 176794.5 -125222 A 648.5 648.5 0 0 1 175497.5 -125222 648.5 648.5 0 0 1 176794.5 -125222 M 167877.5 -124573.5 167877.5 -125870.5 169174.5 -125870.5 169174.5 -124573.5 167877.5 -124573.5 M 157620.5 -122682 A 648.5 648.5 0 0 1 156323.5 -122682 648.5 648.5 0 0 1 157620.5 -122682 M 148703.5 -122033.5 148703.5 -123330.5 150000.5 -123330.5 150000.5 -122033.5 148703.5 -122033.5 M 138697.5 -125222 A 648.5 648.5 0 0 1 137400.5 -125222 648.5 648.5 0 0 1 138697.5 -125222 M 129780.5 -124573.5 129780.5 -125870.5 131077.5 -125870.5 131077.5 -124573.5 129780.5 -124573.5 M 119520.5 -127635 A 648.5 648.5 0 0 1 118223.5 -127635 648.5 648.5 0 0 1 119520.5 -127635 M 110603.5 -126986.5 110603.5 -128283.5 111900.5 -128283.5 111900.5 -126986.5 110603.5 -126986.5 M 214770.5 -111379 A 648.5 648.5 0 0 1 213473.5 -111379 648.5 648.5 0 0 1 214770.5 -111379 M 205853.5 -110730.5 205853.5 -112027.5 207150.5 -112027.5 207150.5 -110730.5 205853.5 -110730.5 M 195847.5 -111379 A 648.5 648.5 0 0 1 194550.5 -111379 648.5 648.5 0 0 1 195847.5 -111379 M 186930.5 -110730.5 186930.5 -112027.5 188227.5 -112027.5 188227.5 -110730.5 186930.5 -110730.5 M 176797.5 -106172 A 648.5 648.5 0 0 1 175500.5 -106172 648.5 648.5 0 0 1 176797.5 -106172 M 167880.5 -105523.5 167880.5 -106820.5 169177.5 -106820.5 169177.5 -105523.5 167880.5 -105523.5 M 157620.5 -103632 A 648.5 648.5 0 0 1 156323.5 -103632 648.5 648.5 0 0 1 157620.5 -103632 M 148703.5 -102983.5 148703.5 -104280.5 150000.5 -104280.5 150000.5 -102983.5 148703.5 -102983.5 M 138570.5 -106172 A 648.5 648.5 0 0 1 137273.5 -106172 648.5 648.5 0 0 1 138570.5 -106172 M 129653.5 -105523.5 129653.5 -106820.5 130950.5 -106820.5 130950.5 -105523.5 129653.5 -105523.5 M 119647.5 -108585 A 648.5 648.5 0 0 1 118350.5 -108585 648.5 648.5 0 0 1 119647.5 -108585 M 110730.5 -107936.5 110730.5 -109233.5 112027.5 -109233.5 112027.5 -107936.5 110730.5 -107936.5 M 214770.5 -92329 A 648.5 648.5 0 0 1 213473.5 -92329 648.5 648.5 0 0 1 214770.5 -92329 M 205853.5 -91680.5 205853.5 -92977.5 207150.5 -92977.5 207150.5 -91680.5 205853.5 -91680.5 M 195847.5 -92329 A 648.5 648.5 0 0 1 194550.5 -92329 648.5 648.5 0 0 1 195847.5 -92329 M 186930.5 -91680.5 186930.5 -92977.5 188227.5 -92977.5 188227.5 -91680.5 186930.5 -91680.5 M 176797.5 -87122 A 648.5 648.5 0 0 1 175500.5 -87122 648.5 648.5 0 0 1 176797.5 -87122 M 167880.5 -86473.5 167880.5 -87770.5 169177.5 -87770.5 169177.5 -86473.5 167880.5 -86473.5 M 157747.5 -84582 A 648.5 648.5 0 0 1 156450.5 -84582 648.5 648.5 0 0 1 157747.5 -84582 M 148830.5 -83933.5 148830.5 -85230.5 150127.5 -85230.5 150127.5 -83933.5 148830.5 -83933.5 M 138570.5 -87122 A 648.5 648.5 0 0 1 137273.5 -87122 648.5 648.5 0 0 1 138570.5 -87122 M 129653.5 -86473.5 129653.5 -87770.5 130950.5 -87770.5 130950.5 -86473.5 129653.5 -86473.5 M 119520.5 -89535 A 648.5 648.5 0 0 1 118223.5 -89535 648.5 648.5 0 0 1 119520.5 -89535 M 110603.5 -88886.5 110603.5 -90183.5 111900.5 -90183.5 111900.5 -88886.5 110603.5 -88886.5 M 214770.5 -73279 A 648.5 648.5 0 0 1 213473.5 -73279 648.5 648.5 0 0 1 214770.5 -73279 M 205853.5 -72630.5 205853.5 -73927.5 207150.5 -73927.5 207150.5 -72630.5 205853.5 -72630.5 M 195720.5 -73279 A 648.5 648.5 0 0 1 194423.5 -73279 648.5 648.5 0 0 1 195720.5 -73279 M 186803.5 -72630.5 186803.5 -73927.5 188100.5 -73927.5 188100.5 -72630.5 186803.5 -72630.5 M 176800.5 -68072 A 648.5 648.5 0 0 1 175503.5 -68072 648.5 648.5 0 0 1 176800.5 -68072 M 167883.5 -67423.5 167883.5 -68720.5 169180.5 -68720.5 169180.5 -67423.5 167883.5 -67423.5 M 157620.5 -65532 A 648.5 648.5 0 0 1 156323.5 -65532 648.5 648.5 0 0 1 157620.5 -65532 M 148703.5 -64883.5 148703.5 -66180.5 150000.5 -66180.5 150000.5 -64883.5 148703.5 -64883.5 M 138697.5 -68072 A 648.5 648.5 0 0 1 137400.5 -68072 648.5 648.5 0 0 1 138697.5 -68072 M 129780.5 -67423.5 129780.5 -68720.5 131077.5 -68720.5 131077.5 -67423.5 129780.5 -67423.5 M 119520.5 -70485 A 648.5 648.5 0 0 1 118223.5 -70485 648.5 648.5 0 0 1 119520.5 -70485 M 110603.5 -69836.5 110603.5 -71133.5 111900.5 -71133.5 111900.5 -69836.5 110603.5 -69836.5" fill="none" stroke-width="100"/><path d="M 69979.096 -54213.218 69898.284 -54240.155 69817.471 -54320.967 69763.597 -54428.717 69763.597 -54536.467 69790.534 -54617.279 69871.346 -54751.966 69952.158 -54832.778 70086.845 -54913.59 70167.658 -54940.528 70275.407 -54940.528 70383.157 -54886.653 70437.032 -54832.778 70490.906 -54725.028 70490.906 -54671.154 70302.345 -54482.592 70194.595 -54590.341 M 70787.218 -54482.592 70221.532 -53916.906 70437.032 -53701.407 70517.844 -53674.47 70571.719 -53674.47 70652.531 -53701.407 70733.343 -53782.219 70760.28 -53863.032 70760.28 -53916.906 70733.343 -53997.719 70517.844 -54213.218 M 71649.215 -53620.595 71325.966 -53943.844 M 71487.59 -53782.219 70921.905 -53216.534 70948.842 -53351.221 70948.842 -53458.971 70921.905 -53539.783 M 69979.096 -59303.218 69898.284 -59330.155 69817.471 -59410.967 69763.597 -59518.717 69763.597 -59626.467 69790.534 -59707.279 69871.346 -59841.966 69952.158 -59922.778 70086.845 -60003.59 70167.658 -60030.528 70275.407 -60030.528 70383.157 -59976.653 70437.032 -59922.778 70490.906 -59815.028 70490.906 -59761.154 70302.345 -59572.592 70194.595 -59680.341 M 70787.218 -59572.592 70221.532 -59006.906 70437.032 -58791.407 70517.844 -58764.47 70571.719 -58764.47 70652.531 -58791.407 70733.343 -58872.219 70760.28 -58953.032 70760.28 -59006.906 70733.343 -59087.719 70517.844 -59303.218 M 70814.155 -58522.033 70814.155 -58468.158 70841.093 -58387.346 70975.78 -58252.659 71056.592 -58225.722 71110.467 -58225.722 71191.279 -58252.659 71245.154 -58306.534 71299.028 -58414.284 71299.028 -59060.781 71649.215 -58710.595 M 70079.096 -51683.218 69998.284 -51710.155 69917.471 -51790.967 69863.597 -51898.717 69863.597 -52006.467 69890.534 -52087.279 69971.346 -52221.966 70052.158 -52302.778 70186.845 -52383.59 70267.658 -52410.528 70375.407 -52410.528 70483.157 -52356.653 70537.032 -52302.778 70590.906 -52195.028 70590.906 -52141.154 70402.345 -51952.592 70294.595 -52060.341 M 70887.218 -51952.592 70321.532 -51386.906 70537.032 -51171.407 70617.844 -51144.47 70671.719 -51144.47 70752.531 -51171.407 70833.343 -51252.219 70860.28 -51333.032 70860.28 -51386.906 70833.343 -51467.719 70617.844 -51683.218 M 70994.967 -50713.471 71048.842 -50659.597 71129.654 -50632.659 71183.529 -50632.659 71264.341 -50659.597 71399.028 -50740.409 71533.715 -50875.096 71614.528 -51009.783 71641.465 -51090.595 71641.465 -51144.47 71614.528 -51225.282 71560.653 -51279.157 71479.841 -51306.094 71425.966 -51306.094 71345.154 -51279.157 71210.467 -51198.345 71075.78 -51063.658 70994.967 -50928.971 70968.03 -50848.158 70968.03 -50794.284 70994.967 -50713.471 M 70079.096 -61843.218 69998.284 -61870.155 69917.471 -61950.967 69863.597 -62058.717 69863.597 -62166.467 69890.534 -62247.279 69971.346 -62381.966 70052.158 -62462.778 70186.845 -62543.59 70267.658 -62570.528 70375.407 -62570.528 70483.157 -62516.653 70537.032 -62462.778 70590.906 -62355.028 70590.906 -62301.154 70402.345 -62112.592 70294.595 -62220.341 M 70887.218 -62112.592 70321.532 -61546.906 70537.032 -61331.407 70617.844 -61304.47 70671.719 -61304.47 70752.531 -61331.407 70833.343 -61412.219 70860.28 -61493.032 70860.28 -61546.906 70833.343 -61627.719 70617.844 -61843.218 M 70833.343 -61035.096 71183.529 -60684.91 71210.467 -61088.971 71291.279 -61008.158 71372.091 -60981.221 71425.966 -60981.221 71506.778 -61008.158 71641.465 -61142.845 71668.402 -61223.658 71668.402 -61277.532 71641.465 -61358.345 71479.841 -61519.969 71399.028 -61546.906 71345.154 -61546.906 M 70079.096 -64383.218 69998.284 -64410.155 69917.471 -64490.967 69863.597 -64598.717 69863.597 -64706.467 69890.534 -64787.279 69971.346 -64921.966 70052.158 -65002.778 70186.845 -65083.59 70267.658 -65110.528 70375.407 -65110.528 70483.157 -65056.653 70537.032 -65002.778 70590.906 -64895.028 70590.906 -64841.154 70402.345 -64652.592 70294.595 -64760.341 M 70887.218 -64652.592 70321.532 -64086.906 70537.032 -63871.407 70617.844 -63844.47 70671.719 -63844.47 70752.531 -63871.407 70833.343 -63952.219 70860.28 -64033.032 70860.28 -64086.906 70833.343 -64167.719 70617.844 -64383.218 M 71318.216 -63467.346 71695.34 -63844.47 M 70968.03 -63386.534 71237.404 -63925.282 71587.59 -63575.096 M 70079.096 -66923.218 69998.284 -66950.155 69917.471 -67030.967 69863.597 -67138.717 69863.597 -67246.467 69890.534 -67327.279 69971.346 -67461.966 70052.158 -67542.778 70186.845 -67623.59 70267.658 -67650.528 70375.407 -67650.528 70483.157 -67596.653 70537.032 -67542.778 70590.906 -67435.028 70590.906 -67381.154 70402.345 -67192.592 70294.595 -67300.341 M 70887.218 -67192.592 70321.532 -66626.906 70537.032 -66411.407 70617.844 -66384.47 70671.719 -66384.47 70752.531 -66411.407 70833.343 -66492.219 70860.28 -66573.032 70860.28 -66626.906 70833.343 -66707.719 70617.844 -66923.218 M 71156.592 -65791.847 70887.218 -66061.221 71129.654 -66357.532 71129.654 -66303.658 71156.592 -66222.845 71291.279 -66088.158 71372.091 -66061.221 71425.966 -66061.221 71506.778 -66088.158 71641.465 -66222.845 71668.402 -66303.658 71668.402 -66357.532 71641.465 -66438.345 71506.778 -66573.032 71425.966 -66599.969 71372.091 -66599.969 M 70079.096 -72003.218 69998.284 -72030.155 69917.471 -72110.967 69863.597 -72218.717 69863.597 -72326.467 69890.534 -72407.279 69971.346 -72541.966 70052.158 -72622.778 70186.845 -72703.59 70267.658 -72730.528 70375.407 -72730.528 70483.157 -72676.653 70537.032 -72622.778 70590.906 -72515.028 70590.906 -72461.154 70402.345 -72272.592 70294.595 -72380.341 M 70887.218 -72272.592 70321.532 -71706.906 70537.032 -71491.407 70617.844 -71464.47 70671.719 -71464.47 70752.531 -71491.407 70833.343 -71572.219 70860.28 -71653.032 70860.28 -71706.906 70833.343 -71787.719 70617.844 -72003.218 M 71129.654 -70898.784 71021.905 -71006.534 70994.967 -71087.346 70994.967 -71141.221 71021.905 -71275.908 71102.717 -71410.595 71318.216 -71626.094 71399.028 -71653.032 71452.903 -71653.032 71533.715 -71626.094 71641.465 -71518.345 71668.402 -71437.532 71668.402 -71383.658 71641.465 -71302.845 71506.778 -71168.158 71425.966 -71141.221 71372.091 -71141.221 71291.279 -71168.158 71183.529 -71275.908 71156.592 -71356.72 71156.592 -71410.595 71183.529 -71491.407 M 70179.096 -74513.218 70098.284 -74540.155 70017.471 -74620.967 69963.597 -74728.717 69963.597 -74836.467 69990.534 -74917.279 70071.346 -75051.966 70152.158 -75132.778 70286.845 -75213.59 70367.658 -75240.528 70475.407 -75240.528 70583.157 -75186.653 70637.032 -75132.778 70690.906 -75025.028 70690.906 -74971.154 70502.345 -74782.592 70394.595 -74890.341 M 70987.218 -74782.592 70421.532 -74216.906 70637.032 -74001.407 70717.844 -73974.47 70771.719 -73974.47 70852.531 -74001.407 70933.343 -74082.219 70960.28 -74163.032 70960.28 -74216.906 70933.343 -74297.719 70717.844 -74513.218 M 70933.343 -73705.096 71310.467 -73327.972 71633.715 -74136.094 M 70079.096 -77083.218 69998.284 -77110.155 69917.471 -77190.967 69863.597 -77298.717 69863.597 -77406.467 69890.534 -77487.279 69971.346 -77621.966 70052.158 -77702.778 70186.845 -77783.59 70267.658 -77810.528 70375.407 -77810.528 70483.157 -77756.653 70537.032 -77702.778 70590.906 -77595.028 70590.906 -77541.154 70402.345 -77352.592 70294.595 -77460.341 M 70887.218 -77352.592 70321.532 -76786.906 70537.032 -76571.407 70617.844 -76544.47 70671.719 -76544.47 70752.531 -76571.407 70833.343 -76652.219 70860.28 -76733.032 70860.28 -76786.906 70833.343 -76867.719 70617.844 -77083.218 M 71210.467 -76382.845 71129.654 -76409.783 71075.78 -76409.783 70994.967 -76382.845 70968.03 -76355.908 70941.093 -76275.096 70941.093 -76221.221 70968.03 -76140.409 71075.78 -76032.659 71156.592 -76005.722 71210.467 -76005.722 71291.279 -76032.659 71318.216 -76059.597 71345.154 -76140.409 71345.154 -76194.284 71318.216 -76275.096 71210.467 -76382.845 71183.529 -76463.658 71183.529 -76517.532 71210.467 -76598.345 71318.216 -76706.094 71399.028 -76733.032 71452.903 -76733.032 71533.715 -76706.094 71641.465 -76598.345 71668.402 -76517.532 71668.402 -76463.658 71641.465 -76382.845 71533.715 -76275.096 71452.903 -76248.158 71399.028 -76248.158 71318.216 -76275.096 M 70079.096 -79623.218 69998.284 -79650.155 69917.471 -79730.967 69863.597 -79838.717 69863.597 -79946.467 69890.534 -80027.279 69971.346 -80161.966 70052.158 -80242.778 70186.845 -80323.59 70267.658 -80350.528 70375.407 -80350.528 70483.157 -80296.653 70537.032 -80242.778 70590.906 -80135.028 70590.906 -80081.154 70402.345 -79892.592 70294.595 -80000.341 M 70887.218 -79892.592 70321.532 -79326.906 70537.032 -79111.407 70617.844 -79084.47 70671.719 -79084.47 70752.531 -79111.407 70833.343 -79192.219 70860.28 -79273.032 70860.28 -79326.906 70833.343 -79407.719 70617.844 -79623.218 M 71479.841 -79299.969 71587.59 -79192.219 71614.528 -79111.407 71614.528 -79057.532 71587.59 -78922.845 71506.778 -78788.158 71291.279 -78572.659 71210.467 -78545.722 71156.592 -78545.722 71075.78 -78572.659 70968.03 -78680.409 70941.093 -78761.221 70941.093 -78815.096 70968.03 -78895.908 71102.717 -79030.595 71183.529 -79057.532 71237.404 -79057.532 71318.216 -79030.595 71425.966 -78922.845 71452.903 -78842.033 71452.903 -78788.158 71425.966 -78707.346 M 69555.722 -84972.592 69474.91 -84999.529 69394.097 -85080.341 69340.223 -85188.091 69340.223 -85295.841 69367.16 -85376.653 69447.972 -85511.34 69528.784 -85592.152 69663.471 -85672.964 69744.284 -85699.902 69852.033 -85699.902 69959.783 -85646.027 70013.658 -85592.152 70067.532 -85484.402 70067.532 -85430.528 69878.971 -85241.966 69771.221 -85349.715 M 70363.844 -85241.966 69798.158 -84676.28 70013.658 -84460.781 70094.47 -84433.844 70148.345 -84433.844 70229.157 -84460.781 70309.969 -84541.593 70336.906 -84622.406 70336.906 -84676.28 70309.969 -84757.093 70094.47 -84972.592 M 71225.841 -84379.969 70902.592 -84703.218 M 71064.216 -84541.593 70498.531 -83975.908 70525.468 -84110.595 70525.468 -84218.345 70498.531 -84299.157 M 71010.341 -83464.097 71064.216 -83410.223 71145.028 -83383.285 71198.903 -83383.285 71279.715 -83410.223 71414.402 -83491.035 71549.089 -83625.722 71629.902 -83760.409 71656.839 -83841.221 71656.839 -83895.096 71629.902 -83975.908 71576.027 -84029.783 71495.215 -84056.72 71441.34 -84056.72 71360.528 -84029.783 71225.841 -83948.971 71091.154 -83814.284 71010.341 -83679.597 70983.404 -83598.784 70983.404 -83544.91 71010.341 -83464.097 M 69409.722 -87512.592 69328.91 -87539.529 69248.097 -87620.341 69194.223 -87728.091 69194.223 -87835.841 69221.16 -87916.653 69301.972 -88051.34 69382.784 -88132.152 69517.471 -88212.964 69598.284 -88239.902 69706.033 -88239.902 69813.783 -88186.027 69867.658 -88132.152 69921.532 -88024.402 69921.532 -87970.528 69732.971 -87781.966 69625.221 -87889.715 M 70217.844 -87781.966 69652.158 -87216.28 69867.658 -87000.781 69948.47 -86973.844 70002.345 -86973.844 70083.157 -87000.781 70163.969 -87081.593 70190.906 -87162.406 70190.906 -87216.28 70163.969 -87297.093 69948.47 -87512.592 M 71079.841 -86919.969 70756.592 -87243.218 M 70918.216 -87081.593 70352.531 -86515.908 70379.468 -86650.595 70379.468 -86758.345 70352.531 -86839.157 M 71618.589 -86381.221 71295.34 -86704.47 M 71456.964 -86542.845 70891.279 -85977.16 70918.216 -86111.847 70918.216 -86219.597 70891.279 -86300.409 M 69409.722 -90052.592 69328.91 -90079.529 69248.097 -90160.341 69194.223 -90268.091 69194.223 -90375.841 69221.16 -90456.653 69301.972 -90591.34 69382.784 -90672.152 69517.471 -90752.964 69598.284 -90779.902 69706.033 -90779.902 69813.783 -90726.027 69867.658 -90672.152 69921.532 -90564.402 69921.532 -90510.528 69732.971 -90321.966 69625.221 -90429.715 M 70217.844 -90321.966 69652.158 -89756.28 69867.658 -89540.781 69948.47 -89513.844 70002.345 -89513.844 70083.157 -89540.781 70163.969 -89621.593 70190.906 -89702.406 70190.906 -89756.28 70163.969 -89837.093 69948.47 -90052.592 M 71079.841 -89459.969 70756.592 -89783.218 M 70918.216 -89621.593 70352.531 -89055.908 70379.468 -89190.595 70379.468 -89298.345 70352.531 -89379.157 M 70783.529 -88732.659 70783.529 -88678.784 70810.467 -88597.972 70945.154 -88463.285 71025.966 -88436.348 71079.841 -88436.348 71160.653 -88463.285 71214.528 -88517.16 71268.402 -88624.91 71268.402 -89271.407 71618.589 -88921.221 M 69555.722 -92592.592 69474.91 -92619.529 69394.097 -92700.341 69340.223 -92808.091 69340.223 -92915.841 69367.16 -92996.653 69447.972 -93131.34 69528.784 -93212.152 69663.471 -93292.964 69744.284 -93319.902 69852.033 -93319.902 69959.783 -93266.027 70013.658 -93212.152 70067.532 -93104.402 70067.532 -93050.528 69878.971 -92861.966 69771.221 -92969.715 M 70363.844 -92861.966 69798.158 -92296.28 70013.658 -92080.781 70094.47 -92053.844 70148.345 -92053.844 70229.157 -92080.781 70309.969 -92161.593 70336.906 -92242.406 70336.906 -92296.28 70309.969 -92377.093 70094.47 -92592.592 M 71225.841 -91999.969 70902.592 -92323.218 M 71064.216 -92161.593 70498.531 -91595.908 70525.468 -91730.595 70525.468 -91838.345 70498.531 -91919.157 M 70848.717 -91245.722 71198.903 -90895.536 71225.841 -91299.597 71306.653 -91218.784 71387.465 -91191.847 71441.34 -91191.847 71522.152 -91218.784 71656.839 -91353.471 71683.776 -91434.284 71683.776 -91488.158 71656.839 -91568.971 71495.215 -91730.595 71414.402 -91757.532 71360.528 -91757.532 M 69509.722 -97672.592 69428.91 -97699.529 69348.097 -97780.341 69294.223 -97888.091 69294.223 -97995.841 69321.16 -98076.653 69401.972 -98211.34 69482.784 -98292.152 69617.471 -98372.964 69698.284 -98399.902 69806.033 -98399.902 69913.783 -98346.027 69967.658 -98292.152 70021.532 -98184.402 70021.532 -98130.528 69832.971 -97941.966 69725.221 -98049.715 M 70317.844 -97941.966 69752.158 -97376.28 69967.658 -97160.781 70048.47 -97133.844 70102.345 -97133.844 70183.157 -97160.781 70263.969 -97241.593 70290.906 -97322.406 70290.906 -97376.28 70263.969 -97457.093 70048.47 -97672.592 M 71179.841 -97079.969 70856.592 -97403.218 M 71018.216 -97241.593 70452.531 -96675.908 70479.468 -96810.595 70479.468 -96918.345 70452.531 -96999.157 M 71287.59 -96217.972 71664.714 -96595.096 M 70937.404 -96137.16 71206.778 -96675.908 71556.964 -96325.722 M 69555.722 -100212.592 69474.91 -100239.529 69394.097 -100320.341 69340.223 -100428.091 69340.223 -100535.841 69367.16 -100616.653 69447.972 -100751.34 69528.784 -100832.152 69663.471 -100912.964 69744.284 -100939.902 69852.033 -100939.902 69959.783 -100886.027 70013.658 -100832.152 70067.532 -100724.402 70067.532 -100670.528 69878.971 -100481.966 69771.221 -100589.715 M 70363.844 -100481.966 69798.158 -99916.28 70013.658 -99700.781 70094.47 -99673.844 70148.345 -99673.844 70229.157 -99700.781 70309.969 -99781.593 70336.906 -99862.406 70336.906 -99916.28 70309.969 -99997.093 70094.47 -100212.592 M 71225.841 -99619.969 70902.592 -99943.218 M 71064.216 -99781.593 70498.531 -99215.908 70525.468 -99350.595 70525.468 -99458.345 70498.531 -99539.157 M 71171.966 -98542.473 70902.592 -98811.847 71145.028 -99108.158 71145.028 -99054.284 71171.966 -98973.471 71306.653 -98838.784 71387.465 -98811.847 71441.34 -98811.847 71522.152 -98838.784 71656.839 -98973.471 71683.776 -99054.284 71683.776 -99108.158 71656.839 -99188.971 71522.152 -99323.658 71441.34 -99350.595 71387.465 -99350.595 M 88678.722 -100847.592 88597.91 -100874.529 88517.097 -100955.341 88463.223 -101063.091 88463.223 -101170.841 88490.16 -101251.653 88570.972 -101386.34 88651.784 -101467.152 88786.471 -101547.964 88867.284 -101574.902 88975.033 -101574.902 89082.783 -101521.027 89136.658 -101467.152 89190.532 -101359.402 89190.532 -101305.528 89001.971 -101116.966 88894.221 -101224.715 M 89486.844 -101116.966 88921.158 -100551.28 89136.658 -100335.781 89217.47 -100308.844 89271.345 -100308.844 89352.157 -100335.781 89432.969 -100416.593 89459.906 -100497.406 89459.906 -100551.28 89432.969 -100632.093 89217.47 -100847.592 M 90348.841 -100254.969 90025.592 -100578.218 M 90187.216 -100416.593 89621.531 -99850.908 89648.468 -99985.595 89648.468 -100093.345 89621.531 -100174.157 M 90268.028 -99204.41 90160.279 -99312.16 90133.341 -99392.972 90133.341 -99446.847 90160.279 -99581.534 90241.091 -99716.221 90456.59 -99931.72 90537.402 -99958.658 90591.277 -99958.658 90672.089 -99931.72 90779.839 -99823.971 90806.776 -99743.158 90806.776 -99689.284 90779.839 -99608.471 90645.152 -99473.784 90564.34 -99446.847 90510.465 -99446.847 90429.653 -99473.784 90321.903 -99581.534 90294.966 -99662.346 90294.966 -99716.221 90321.903 -99797.033 M 88678.722 -98307.592 88597.91 -98334.529 88517.097 -98415.341 88463.223 -98523.091 88463.223 -98630.841 88490.16 -98711.653 88570.972 -98846.34 88651.784 -98927.152 88786.471 -99007.964 88867.284 -99034.902 88975.033 -99034.902 89082.783 -98981.027 89136.658 -98927.152 89190.532 -98819.402 89190.532 -98765.528 89001.971 -98576.966 88894.221 -98684.715 M 89486.844 -98576.966 88921.158 -98011.28 89136.658 -97795.781 89217.47 -97768.844 89271.345 -97768.844 89352.157 -97795.781 89432.969 -97876.593 89459.906 -97957.406 89459.906 -98011.28 89432.969 -98092.093 89217.47 -98307.592 M 90348.841 -97714.969 90025.592 -98038.218 M 90187.216 -97876.593 89621.531 -97310.908 89648.468 -97445.595 89648.468 -97553.345 89621.531 -97634.157 M 89971.717 -96960.722 90348.841 -96583.598 90672.089 -97391.72 M 88678.722 -93227.592 88597.91 -93254.529 88517.097 -93335.341 88463.223 -93443.091 88463.223 -93550.841 88490.16 -93631.653 88570.972 -93766.34 88651.784 -93847.152 88786.471 -93927.964 88867.284 -93954.902 88975.033 -93954.902 89082.783 -93901.027 89136.658 -93847.152 89190.532 -93739.402 89190.532 -93685.528 89001.971 -93496.966 88894.221 -93604.715 M 89486.844 -93496.966 88921.158 -92931.28 89136.658 -92715.781 89217.47 -92688.844 89271.345 -92688.844 89352.157 -92715.781 89432.969 -92796.593 89459.906 -92877.406 89459.906 -92931.28 89432.969 -93012.093 89217.47 -93227.592 M 90348.841 -92634.969 90025.592 -92958.218 M 90187.216 -92796.593 89621.531 -92230.908 89648.468 -92365.595 89648.468 -92473.345 89621.531 -92554.157 M 90348.841 -91988.471 90268.028 -92015.409 90214.154 -92015.409 90133.341 -91988.471 90106.404 -91961.534 90079.467 -91880.722 90079.467 -91826.847 90106.404 -91746.035 90214.154 -91638.285 90294.966 -91611.348 90348.841 -91611.348 90429.653 -91638.285 90456.59 -91665.223 90483.528 -91746.035 90483.528 -91799.91 90456.59 -91880.722 90348.841 -91988.471 90321.903 -92069.284 90321.903 -92123.158 90348.841 -92203.971 90456.59 -92311.72 90537.402 -92338.658 90591.277 -92338.658 90672.089 -92311.72 90779.839 -92203.971 90806.776 -92123.158 90806.776 -92069.284 90779.839 -91988.471 90672.089 -91880.722 90591.277 -91853.784 90537.402 -91853.784 90456.59 -91880.722 M 88678.722 -90687.592 88597.91 -90714.529 88517.097 -90795.341 88463.223 -90903.091 88463.223 -91010.841 88490.16 -91091.653 88570.972 -91226.34 88651.784 -91307.152 88786.471 -91387.964 88867.284 -91414.902 88975.033 -91414.902 89082.783 -91361.027 89136.658 -91307.152 89190.532 -91199.402 89190.532 -91145.528 89001.971 -90956.966 88894.221 -91064.715 M 89486.844 -90956.966 88921.158 -90391.28 89136.658 -90175.781 89217.47 -90148.844 89271.345 -90148.844 89352.157 -90175.781 89432.969 -90256.593 89459.906 -90337.406 89459.906 -90391.28 89432.969 -90472.093 89217.47 -90687.592 M 90348.841 -90094.969 90025.592 -90418.218 M 90187.216 -90256.593 89621.531 -89690.908 89648.468 -89825.595 89648.468 -89933.345 89621.531 -90014.157 M 90618.215 -89825.595 90725.964 -89717.845 90752.902 -89637.033 90752.902 -89583.158 90725.964 -89448.471 90645.152 -89313.784 90429.653 -89098.285 90348.841 -89071.348 90294.966 -89071.348 90214.154 -89098.285 90106.404 -89206.035 90079.467 -89286.847 90079.467 -89340.722 90106.404 -89421.534 90241.091 -89556.221 90321.903 -89583.158 90375.778 -89583.158 90456.59 -89556.221 90564.34 -89448.471 90591.277 -89367.659 90591.277 -89313.784 90564.34 -89232.972 M 88678.722 -88147.592 88597.91 -88174.529 88517.097 -88255.341 88463.223 -88363.091 88463.223 -88470.841 88490.16 -88551.653 88570.972 -88686.34 88651.784 -88767.152 88786.471 -88847.964 88867.284 -88874.902 88975.033 -88874.902 89082.783 -88821.027 89136.658 -88767.152 89190.532 -88659.402 89190.532 -88605.528 89001.971 -88416.966 88894.221 -88524.715 M 89486.844 -88416.966 88921.158 -87851.28 89136.658 -87635.781 89217.47 -87608.844 89271.345 -87608.844 89352.157 -87635.781 89432.969 -87716.593 89459.906 -87797.406 89459.906 -87851.28 89432.969 -87932.093 89217.47 -88147.592 M 89513.781 -87366.407 89513.781 -87312.532 89540.719 -87231.72 89675.406 -87097.033 89756.218 -87070.096 89810.093 -87070.096 89890.905 -87097.033 89944.78 -87150.908 89998.654 -87258.658 89998.654 -87905.155 90348.841 -87554.969 M 90133.341 -86639.097 90187.216 -86585.223 90268.028 -86558.285 90321.903 -86558.285 90402.715 -86585.223 90537.402 -86666.035 90672.089 -86800.722 90752.902 -86935.409 90779.839 -87016.221 90779.839 -87070.096 90752.902 -87150.908 90699.027 -87204.783 90618.215 -87231.72 90564.34 -87231.72 90483.528 -87204.783 90348.841 -87123.971 90214.154 -86989.284 90133.341 -86854.597 90106.404 -86773.784 90106.404 -86719.91 90133.341 -86639.097 M 88678.722 -85617.592 88597.91 -85644.529 88517.097 -85725.341 88463.223 -85833.091 88463.223 -85940.841 88490.16 -86021.653 88570.972 -86156.34 88651.784 -86237.152 88786.471 -86317.964 88867.284 -86344.902 88975.033 -86344.902 89082.783 -86291.027 89136.658 -86237.152 89190.532 -86129.402 89190.532 -86075.528 89001.971 -85886.966 88894.221 -85994.715 M 89486.844 -85886.966 88921.158 -85321.28 89136.658 -85105.781 89217.47 -85078.844 89271.345 -85078.844 89352.157 -85105.781 89432.969 -85186.593 89459.906 -85267.406 89459.906 -85321.28 89432.969 -85402.093 89217.47 -85617.592 M 89513.781 -84836.407 89513.781 -84782.532 89540.719 -84701.72 89675.406 -84567.033 89756.218 -84540.096 89810.093 -84540.096 89890.905 -84567.033 89944.78 -84620.908 89998.654 -84728.658 89998.654 -85375.155 90348.841 -85024.969 M 90887.589 -84486.221 90564.34 -84809.47 M 90725.964 -84647.845 90160.279 -84082.16 90187.216 -84216.847 90187.216 -84324.597 90160.279 -84405.409 M 88678.722 -80527.592 88597.91 -80554.529 88517.097 -80635.341 88463.223 -80743.091 88463.223 -80850.841 88490.16 -80931.653 88570.972 -81066.34 88651.784 -81147.152 88786.471 -81227.964 88867.284 -81254.902 88975.033 -81254.902 89082.783 -81201.027 89136.658 -81147.152 89190.532 -81039.402 89190.532 -80985.528 89001.971 -80796.966 88894.221 -80904.715 M 89486.844 -80796.966 88921.158 -80231.28 89136.658 -80015.781 89217.47 -79988.844 89271.345 -79988.844 89352.157 -80015.781 89432.969 -80096.593 89459.906 -80177.406 89459.906 -80231.28 89432.969 -80312.093 89217.47 -80527.592 M 89513.781 -79746.407 89513.781 -79692.532 89540.719 -79611.72 89675.406 -79477.033 89756.218 -79450.096 89810.093 -79450.096 89890.905 -79477.033 89944.78 -79530.908 89998.654 -79638.658 89998.654 -80285.155 90348.841 -79934.969 M 90052.529 -79207.659 90052.529 -79153.784 90079.467 -79072.972 90214.154 -78938.285 90294.966 -78911.348 90348.841 -78911.348 90429.653 -78938.285 90483.528 -78992.16 90537.402 -79099.91 90537.402 -79746.407 90887.589 -79396.221 M 89754.375 -78270.435 89296.439 -78189.622 M 89431.126 -78593.683 88865.441 -78027.998 89080.94 -77812.499 89161.752 -77785.561 89215.627 -77785.561 89296.439 -77812.499 89377.251 -77893.311 89404.189 -77974.123 89404.189 -78027.998 89377.251 -78108.81 89161.752 -78324.309 M 89431.126 -77462.312 89889.062 -77920.248 89969.874 -77947.186 90023.749 -77947.186 90104.561 -77920.248 90212.311 -77812.499 90239.248 -77731.687 90239.248 -77677.812 90212.311 -77597 89754.375 -77139.064 M 90589.435 -77435.375 90023.749 -76869.69 90912.683 -77112.126 90346.998 -76546.441 M 88678.722 -75447.592 88597.91 -75474.529 88517.097 -75555.341 88463.223 -75663.091 88463.223 -75770.841 88490.16 -75851.653 88570.972 -75986.34 88651.784 -76067.152 88786.471 -76147.964 88867.284 -76174.902 88975.033 -76174.902 89082.783 -76121.027 89136.658 -76067.152 89190.532 -75959.402 89190.532 -75905.528 89001.971 -75716.966 88894.221 -75824.715 M 89486.844 -75716.966 88921.158 -75151.28 89136.658 -74935.781 89217.47 -74908.844 89271.345 -74908.844 89352.157 -74935.781 89432.969 -75016.593 89459.906 -75097.406 89459.906 -75151.28 89432.969 -75232.093 89217.47 -75447.592 M 89513.781 -74666.407 89513.781 -74612.532 89540.719 -74531.72 89675.406 -74397.033 89756.218 -74370.096 89810.093 -74370.096 89890.905 -74397.033 89944.78 -74450.908 89998.654 -74558.658 89998.654 -75205.155 90348.841 -74854.969 M 90268.028 -73804.41 90160.279 -73912.16 90133.341 -73992.972 90133.341 -74046.847 90160.279 -74181.534 90241.091 -74316.221 90456.59 -74531.72 90537.402 -74558.658 90591.277 -74558.658 90672.089 -74531.72 90779.839 -74423.971 90806.776 -74343.158 90806.776 -74289.284 90779.839 -74208.471 90645.152 -74073.784 90564.34 -74046.847 90510.465 -74046.847 90429.653 -74073.784 90321.903 -74181.534 90294.966 -74262.346 90294.966 -74316.221 90321.903 -74397.033 M 88678.722 -72917.592 88597.91 -72944.529 88517.097 -73025.341 88463.223 -73133.091 88463.223 -73240.841 88490.16 -73321.653 88570.972 -73456.34 88651.784 -73537.152 88786.471 -73617.964 88867.284 -73644.902 88975.033 -73644.902 89082.783 -73591.027 89136.658 -73537.152 89190.532 -73429.402 89190.532 -73375.528 89001.971 -73186.966 88894.221 -73294.715 M 89486.844 -73186.966 88921.158 -72621.28 89136.658 -72405.781 89217.47 -72378.844 89271.345 -72378.844 89352.157 -72405.781 89432.969 -72486.593 89459.906 -72567.406 89459.906 -72621.28 89432.969 -72702.093 89217.47 -72917.592 M 89513.781 -72136.407 89513.781 -72082.532 89540.719 -72001.72 89675.406 -71867.033 89756.218 -71840.096 89810.093 -71840.096 89890.905 -71867.033 89944.78 -71920.908 89998.654 -72028.658 89998.654 -72675.155 90348.841 -72324.969 M 89971.717 -71570.722 90348.841 -71193.598 90672.089 -72001.72 M 88678.722 -67573.592 88597.91 -67600.529 88517.097 -67681.341 88463.223 -67789.091 88463.223 -67896.841 88490.16 -67977.653 88570.972 -68112.34 88651.784 -68193.152 88786.471 -68273.964 88867.284 -68300.902 88975.033 -68300.902 89082.783 -68247.027 89136.658 -68193.152 89190.532 -68085.402 89190.532 -68031.528 89001.971 -67842.966 88894.221 -67950.715 M 89486.844 -67842.966 88921.158 -67277.28 89136.658 -67061.781 89217.47 -67034.844 89271.345 -67034.844 89352.157 -67061.781 89432.969 -67142.593 89459.906 -67223.406 89459.906 -67277.28 89432.969 -67358.093 89217.47 -67573.592 M 89513.781 -66792.407 89513.781 -66738.532 89540.719 -66657.72 89675.406 -66523.033 89756.218 -66496.096 89810.093 -66496.096 89890.905 -66523.033 89944.78 -66576.908 89998.654 -66684.658 89998.654 -67331.155 90348.841 -66980.969 M 90348.841 -66334.471 90268.028 -66361.409 90214.154 -66361.409 90133.341 -66334.471 90106.404 -66307.534 90079.467 -66226.722 90079.467 -66172.847 90106.404 -66092.035 90214.154 -65984.285 90294.966 -65957.348 90348.841 -65957.348 90429.653 -65984.285 90456.59 -66011.223 90483.528 -66092.035 90483.528 -66145.91 90456.59 -66226.722 90348.841 -66334.471 90321.903 -66415.284 90321.903 -66469.158 90348.841 -66549.971 90456.59 -66657.72 90537.402 -66684.658 90591.277 -66684.658 90672.089 -66657.72 90779.839 -66549.971 90806.776 -66469.158 90806.776 -66415.284 90779.839 -66334.471 90672.089 -66226.722 90591.277 -66199.784 90537.402 -66199.784 90456.59 -66226.722 M 86800.788 -67565.773 87070.162 -67296.399 M 86908.537 -67781.272 86531.414 -67027.025 87285.661 -67404.149 M 87474.223 -67215.587 86908.537 -66649.902 87043.224 -66515.215 87150.974 -66461.34 87258.723 -66461.34 87339.536 -66488.277 87474.223 -66569.089 87555.035 -66649.902 87635.847 -66784.589 87662.784 -66865.401 87662.784 -66973.15 87608.91 -67080.9 87474.223 -67215.587 M 88309.282 -66272.778 88309.282 -66326.653 88255.407 -66434.402 88201.532 -66488.277 88093.783 -66542.152 87986.033 -66542.152 87905.221 -66515.215 87770.534 -66434.402 87689.722 -66353.59 87608.91 -66218.903 87581.972 -66138.091 87581.972 -66030.341 87635.847 -65922.592 87689.722 -65868.717 87797.471 -65814.842 87851.346 -65814.842 M 88524.781 -66272.778 88955.78 -65841.78 M 88390.094 -65168.345 89144.341 -65545.468 88767.218 -64791.221 M 89844.714 -64845.096 89386.778 -64764.284 M 89521.465 -65168.345 88955.78 -64602.659 89171.279 -64387.16 89252.091 -64360.223 89305.966 -64360.223 89386.778 -64387.16 89467.59 -64467.972 89494.528 -64548.784 89494.528 -64602.659 89467.59 -64683.471 89252.091 -64898.971 M 89790.839 -64306.348 89979.401 -64117.786 M 90356.524 -64333.285 90087.15 -64602.659 89521.465 -64036.974 89790.839 -63767.6 M 90491.211 -63605.975 90302.65 -63794.537 M 90598.961 -64090.849 90033.276 -63525.163 90302.65 -63255.789 M 88905.847 -62747.592 89256.033 -62397.406 89282.971 -62801.467 89363.783 -62720.654 89444.595 -62693.717 89498.47 -62693.717 89579.282 -62720.654 89713.969 -62855.341 89740.906 -62936.154 89740.906 -62990.028 89713.969 -63070.841 89552.345 -63232.465 89471.532 -63259.402 89417.658 -63259.402 M 89417.658 -62235.781 90171.905 -62612.905 89794.781 -61858.658 M 89929.468 -61723.971 90279.654 -61373.784 90306.592 -61777.845 90387.404 -61697.033 90468.216 -61670.096 90522.091 -61670.096 90602.903 -61697.033 90737.59 -61831.72 90764.528 -61912.532 90764.528 -61966.407 90737.59 -62047.219 90575.966 -62208.844 90495.154 -62235.781 90441.279 -62235.781 M 87503.131 -61610.308 87853.317 -61260.122 87880.255 -61664.183 87961.067 -61583.37 88041.879 -61556.433 88095.754 -61556.433 88176.566 -61583.37 88311.253 -61718.057 88338.19 -61798.87 88338.19 -61852.744 88311.253 -61933.557 88149.629 -62095.181 88068.816 -62122.118 88014.942 -62122.118 M 88014.942 -61098.497 88769.189 -61475.621 88392.065 -60721.374 M 88526.752 -60586.687 88876.938 -60236.5 88903.876 -60640.561 88984.688 -60559.749 89065.5 -60532.812 89119.375 -60532.812 89200.187 -60559.749 89334.874 -60694.436 89361.812 -60775.248 89361.812 -60829.123 89334.874 -60909.935 89173.25 -61071.56 89092.438 -61098.497 89038.563 -61098.497 M 89604.248 -60748.311 90035.247 -60317.312 M 89819.748 -59832.439 90008.309 -59643.877 M 90385.433 -59859.377 90116.059 -60128.751 89550.374 -59563.065 89819.748 -59293.691 M 90627.87 -59616.94 90062.184 -59051.255 90951.118 -59293.691 90385.433 -58728.006 M 88501.473 -55396.966 89255.72 -55774.089 88878.597 -55019.842 M 89578.969 -55396.966 89686.719 -55343.091 89821.406 -55208.404 89848.343 -55127.592 89848.343 -55073.717 89821.406 -54992.905 89767.531 -54939.03 89686.719 -54912.093 89632.844 -54912.093 89552.032 -54939.03 89417.345 -55019.842 89336.532 -55046.78 89282.658 -55046.78 89201.845 -55019.842 89147.971 -54965.967 89121.033 -54885.155 89121.033 -54831.28 89147.971 -54750.468 89282.658 -54615.781 89390.407 -54561.906 M 90009.967 -54481.094 90279.341 -54750.468 M 89525.094 -54373.345 90009.967 -54481.094 89902.218 -53996.221 M 90602.59 -54373.345 90710.34 -54319.47 90845.027 -54184.783 90871.964 -54103.971 90871.964 -54050.096 90845.027 -53969.284 90791.152 -53915.409 90710.34 -53888.471 90656.465 -53888.471 90575.653 -53915.409 90440.966 -53996.221 90360.154 -54023.158 90306.279 -54023.158 90225.467 -53996.221 90171.592 -53942.346 90144.654 -53861.534 90144.654 -53807.659 90171.592 -53726.847 90306.279 -53592.16 90414.028 -53538.285 M 88534.129 -52854.309 89288.377 -53231.433 88911.253 -52477.186 M 89557.751 -52369.436 89665.5 -52315.561 89719.375 -52315.561 89800.187 -52342.499 89880.999 -52423.311 89907.937 -52504.123 89907.937 -52557.998 89881 -52638.81 89665.5 -52854.309 89099.815 -52288.624 89288.377 -52100.062 89369.189 -52073.125 89423.064 -52073.125 89503.876 -52100.062 89557.751 -52153.937 89584.688 -52234.749 89584.688 -52288.624 89557.751 -52369.436 89369.189 -52557.998 M 89665.5 -51722.938 90123.436 -52180.874 90204.248 -52207.812 90258.123 -52207.812 90338.935 -52180.874 90446.685 -52073.125 90473.622 -51992.312 90473.622 -51938.438 90446.685 -51857.625 89988.749 -51399.69 M 90769.934 -51696.001 90877.683 -51642.126 91012.37 -51507.439 91039.308 -51426.627 91039.308 -51372.752 91012.37 -51291.94 90958.496 -51238.065 90877.683 -51211.128 90823.809 -51211.128 90742.996 -51238.065 90608.309 -51318.877 90527.497 -51345.815 90473.622 -51345.815 90392.81 -51318.877 90338.935 -51265.003 90311.998 -51184.19 90311.998 -51130.316 90338.935 -51049.503 90473.622 -50914.816 90581.372 -50860.942 M 70052.158 -56790.155 69971.346 -56817.093 69890.534 -56897.905 69836.659 -57005.654 69836.659 -57113.404 69863.597 -57194.216 69944.409 -57328.903 70025.221 -57409.715 70159.908 -57490.528 70240.72 -57517.465 70348.47 -57517.465 70456.219 -57463.59 70510.094 -57409.715 70563.969 -57301.966 70563.969 -57248.091 70375.407 -57059.529 70267.658 -57167.279 M 70860.28 -57059.529 70294.595 -56493.844 71183.529 -56736.28 70617.844 -56170.595 M 71452.903 -56466.906 70887.218 -55901.221 71021.905 -55766.534 71129.654 -55712.659 71237.404 -55712.659 71318.216 -55739.597 71452.903 -55820.409 71533.715 -55901.221 71614.528 -56035.908 71641.465 -56116.72 71641.465 -56224.47 71587.59 -56332.219 71452.903 -56466.906 M 70052.158 -69490.155 69971.346 -69517.093 69890.534 -69597.905 69836.659 -69705.654 69836.659 -69813.404 69863.597 -69894.216 69944.409 -70028.903 70025.221 -70109.715 70159.908 -70190.528 70240.72 -70217.465 70348.47 -70217.465 70456.219 -70163.59 70510.094 -70109.715 70563.969 -70001.966 70563.969 -69948.091 70375.407 -69759.529 70267.658 -69867.279 M 70860.28 -69759.529 70294.595 -69193.844 71183.529 -69436.28 70617.844 -68870.595 M 71452.903 -69166.906 70887.218 -68601.221 71021.905 -68466.534 71129.654 -68412.659 71237.404 -68412.659 71318.216 -68439.597 71452.903 -68520.409 71533.715 -68601.221 71614.528 -68735.908 71641.465 -68816.72 71641.465 -68924.47 71587.59 -69032.219 71452.903 -69166.906 M 70052.158 -82190.155 69971.346 -82217.093 69890.534 -82297.905 69836.659 -82405.654 69836.659 -82513.404 69863.597 -82594.216 69944.409 -82728.903 70025.221 -82809.715 70159.908 -82890.528 70240.72 -82917.465 70348.47 -82917.465 70456.219 -82863.59 70510.094 -82809.715 70563.969 -82701.966 70563.969 -82648.091 70375.407 -82459.529 70267.658 -82567.279 M 70860.28 -82459.529 70294.595 -81893.844 71183.529 -82136.28 70617.844 -81570.595 M 71452.903 -81866.906 70887.218 -81301.221 71021.905 -81166.534 71129.654 -81112.659 71237.404 -81112.659 71318.216 -81139.597 71452.903 -81220.409 71533.715 -81301.221 71614.528 -81435.908 71641.465 -81516.72 71641.465 -81624.47 71587.59 -81732.219 71452.903 -81866.906 M 70052.158 -94890.155 69971.346 -94917.093 69890.534 -94997.905 69836.659 -95105.654 69836.659 -95213.404 69863.597 -95294.216 69944.409 -95428.903 70025.221 -95509.715 70159.908 -95590.528 70240.72 -95617.465 70348.47 -95617.465 70456.219 -95563.59 70510.094 -95509.715 70563.969 -95401.966 70563.969 -95348.091 70375.407 -95159.529 70267.658 -95267.279 M 70860.28 -95159.529 70294.595 -94593.844 71183.529 -94836.28 70617.844 -94270.595 M 71452.903 -94566.906 70887.218 -94001.221 71021.905 -93866.534 71129.654 -93812.659 71237.404 -93812.659 71318.216 -93839.597 71452.903 -93920.409 71533.715 -94001.221 71614.528 -94135.908 71641.465 -94216.72 71641.465 -94324.47 71587.59 -94432.219 71452.903 -94566.906 M 89202.158 -95525.155 89121.346 -95552.093 89040.534 -95632.905 88986.659 -95740.654 88986.659 -95848.404 89013.597 -95929.216 89094.409 -96063.903 89175.221 -96144.715 89309.908 -96225.528 89390.72 -96252.465 89498.47 -96252.465 89606.219 -96198.59 89660.094 -96144.715 89713.969 -96036.966 89713.969 -95983.091 89525.407 -95794.529 89417.658 -95902.279 M 90010.28 -95794.529 89444.595 -95228.844 90333.529 -95471.28 89767.844 -94905.595 M 90602.903 -95201.906 90037.218 -94636.221 90171.905 -94501.534 90279.654 -94447.659 90387.404 -94447.659 90468.216 -94474.597 90602.903 -94555.409 90683.715 -94636.221 90764.528 -94770.908 90791.465 -94851.72 90791.465 -94959.47 90737.59 -95067.219 90602.903 -95201.906 M 89202.158 -82825.155 89121.346 -82852.093 89040.534 -82932.905 88986.659 -83040.654 88986.659 -83148.404 89013.597 -83229.216 89094.409 -83363.903 89175.221 -83444.715 89309.908 -83525.528 89390.72 -83552.465 89498.47 -83552.465 89606.219 -83498.59 89660.094 -83444.715 89713.969 -83336.966 89713.969 -83283.091 89525.407 -83094.529 89417.658 -83202.279 M 90010.28 -83094.529 89444.595 -82528.844 90333.529 -82771.28 89767.844 -82205.595 M 90602.903 -82501.906 90037.218 -81936.221 90171.905 -81801.534 90279.654 -81747.659 90387.404 -81747.659 90468.216 -81774.597 90602.903 -81855.409 90683.715 -81936.221 90764.528 -82070.908 90791.465 -82151.72 90791.465 -82259.47 90737.59 -82367.219 90602.903 -82501.906 M 89202.158 -57425.155 89121.346 -57452.093 89040.534 -57532.905 88986.659 -57640.654 88986.659 -57748.404 89013.597 -57829.216 89094.409 -57963.903 89175.221 -58044.715 89309.908 -58125.528 89390.72 -58152.465 89498.47 -58152.465 89606.219 -58098.59 89660.094 -58044.715 89713.969 -57936.966 89713.969 -57883.091 89525.407 -57694.529 89417.658 -57802.279 M 90010.28 -57694.529 89444.595 -57128.844 90333.529 -57371.28 89767.844 -56805.595 M 90602.903 -57101.906 90037.218 -56536.221 90171.905 -56401.534 90279.654 -56347.659 90387.404 -56347.659 90468.216 -56374.597 90602.903 -56455.409 90683.715 -56536.221 90764.528 -56670.908 90791.465 -56751.72 90791.465 -56859.47 90737.59 -56967.219 90602.903 -57101.906 M 88732.597 -71067.964 89001.971 -70798.59 M 88840.346 -71283.463 88463.223 -70529.216 89217.47 -70906.34 M 89163.595 -69882.719 89082.783 -69909.656 89001.971 -69990.468 88948.096 -70098.218 88948.096 -70205.967 88975.033 -70286.78 89055.845 -70421.467 89136.658 -70502.279 89271.345 -70583.091 89352.157 -70610.028 89459.906 -70610.028 89567.656 -70556.154 89621.531 -70502.279 89675.406 -70394.529 89675.406 -70340.654 89486.844 -70152.093 89379.094 -70259.842 M 89971.717 -70152.093 89406.032 -69586.407 90294.966 -69828.844 89729.28 -69263.158 M 90564.34 -69559.47 89998.654 -68993.784 90133.341 -68859.097 90241.091 -68805.223 90348.841 -68805.223 90429.653 -68832.16 90564.34 -68912.972 90645.152 -68993.784 90725.964 -69128.471 90752.902 -69209.284 90752.902 -69317.033 90699.027 -69424.783 90564.34 -69559.47 M 77478.095 -57618.38 78049.523 -57618.38 M 77763.809 -58618.38 77763.809 -57618.38 M 78382.857 -58618.38 78382.857 -57618.38 78763.809 -57618.38 78859.047 -57666 78906.666 -57713.619 78954.285 -57808.857 78954.285 -57951.714 78906.666 -58046.952 78859.047 -58094.571 78763.809 -58142.19 78382.857 -58142.19 M 79811.428 -57951.714 79811.428 -58618.38 M 79573.333 -57570.761 79335.238 -58285.047 79954.285 -58285.047 M 77478.095 -60158.38 78049.523 -60158.38 M 77763.809 -61158.38 77763.809 -60158.38 M 78382.857 -61158.38 78382.857 -60158.38 78763.809 -60158.38 78859.047 -60206 78906.666 -60253.619 78954.285 -60348.857 78954.285 -60491.714 78906.666 -60586.952 78859.047 -60634.571 78763.809 -60682.19 78382.857 -60682.19 M 79859.047 -60158.38 79382.857 -60158.38 79335.238 -60634.571 79382.857 -60586.952 79478.095 -60539.333 79716.19 -60539.333 79811.428 -60586.952 79859.047 -60634.571 79906.666 -60729.809 79906.666 -60967.904 79859.047 -61063.142 79811.428 -61110.761 79716.19 -61158.38 79478.095 -61158.38 79382.857 -61110.761 79335.238 -61063.142 M 77478.095 -62698.38 78049.523 -62698.38 M 77763.809 -63698.38 77763.809 -62698.38 M 78382.857 -63698.38 78382.857 -62698.38 78763.809 -62698.38 78859.047 -62746 78906.666 -62793.619 78954.285 -62888.857 78954.285 -63031.714 78906.666 -63126.952 78859.047 -63174.571 78763.809 -63222.19 78382.857 -63222.19 M 79811.428 -62698.38 79620.952 -62698.38 79525.714 -62746 79478.095 -62793.619 79382.857 -62936.476 79335.238 -63126.952 79335.238 -63507.904 79382.857 -63603.142 79430.476 -63650.761 79525.714 -63698.38 79716.19 -63698.38 79811.428 -63650.761 79859.047 -63603.142 79906.666 -63507.904 79906.666 -63269.809 79859.047 -63174.571 79811.428 -63126.952 79716.19 -63079.333 79525.714 -63079.333 79430.476 -63126.952 79382.857 -63174.571 79335.238 -63269.809 M 100211.38 -55737.38 100211.38 -56546.904 100259 -56642.142 100306.619 -56689.761 100401.857 -56737.38 100592.333 -56737.38 100687.571 -56689.761 100735.19 -56642.142 100782.809 -56546.904 100782.809 -55737.38 M 101211.38 -56689.761 101354.238 -56737.38 101592.333 -56737.38 101687.571 -56689.761 101735.19 -56642.142 101782.809 -56546.904 101782.809 -56451.666 101735.19 -56356.428 101687.571 -56308.809 101592.333 -56261.19 101401.857 -56213.571 101306.619 -56165.952 101259 -56118.333 101211.38 -56023.095 101211.38 -55927.857 101259 -55832.619 101306.619 -55785 101401.857 -55737.38 101639.952 -55737.38 101782.809 -55785 M 102544.714 -56213.571 102687.571 -56261.19 102735.19 -56308.809 102782.809 -56404.047 102782.809 -56546.904 102735.19 -56642.142 102687.571 -56689.761 102592.333 -56737.38 102211.38 -56737.38 102211.38 -55737.38 102544.714 -55737.38 102639.952 -55785 102687.571 -55832.619 102735.19 -55927.857 102735.19 -56023.095 102687.571 -56118.333 102639.952 -56165.952 102544.714 -56213.571 102211.38 -56213.571 M 102973.285 -56832.619 103735.19 -56832.619 M 104163.761 -55737.38 104354.238 -55737.38 104449.476 -55785 104544.714 -55880.238 104592.333 -56070.714 104592.333 -56404.047 104544.714 -56594.523 104449.476 -56689.761 104354.238 -56737.38 104163.761 -56737.38 104068.523 -56689.761 103973.285 -56594.523 103925.666 -56404.047 103925.666 -56070.714 103973.285 -55880.238 104068.523 -55785 104163.761 -55737.38 M 105020.904 -55737.38 105020.904 -56546.904 105068.523 -56642.142 105116.142 -56689.761 105211.38 -56737.38 105401.857 -56737.38 105497.095 -56689.761 105544.714 -56642.142 105592.333 -56546.904 105592.333 -55737.38 M 105925.666 -55737.38 106497.095 -55737.38 M 106211.38 -56737.38 106211.38 -55737.38 M 107354.238 -56737.38 106782.809 -56737.38 M 107068.523 -56737.38 107068.523 -55737.38 106973.285 -55880.238 106878.047 -55975.476 106782.809 -56023.095 M 93789.666 -115009.561 93932.523 -115057.18 94170.619 -115057.18 94265.857 -115009.561 94313.476 -114961.942 94361.095 -114866.704 94361.095 -114771.466 94313.476 -114676.228 94265.857 -114628.609 94170.619 -114580.99 93980.142 -114533.371 93884.904 -114485.752 93837.285 -114438.133 93789.666 -114342.895 93789.666 -114247.657 93837.285 -114152.419 93884.904 -114104.8 93980.142 -114057.18 94218.238 -114057.18 94361.095 -114104.8 M 94694.428 -114057.18 94932.523 -115057.18 95123 -114342.895 95313.476 -115057.18 95551.571 -114057.18 M 96456.333 -115057.18 95884.904 -115057.18 M 96170.619 -115057.18 96170.619 -114057.18 96075.38 -114200.038 95980.142 -114295.276 95884.904 -114342.895" fill="none" stroke-width="150"/></g></svg>