<svg version="1.1" xmlns="http://www.w3.org/2000/svg" xmlns:xlink="http://www.w3.org/1999/xlink" stroke-linecap="round" stroke-linejoin="round" stroke-width="0" fill-rule="evenodd" width="149.35313750350002mm" height="116.38561934239999mm" viewBox="68832.8624965 -165407.6193424 149353.1375035 116385.6193424" id="yoiqC5-uU7NWX19xoU--"><g transform="translate(0,-214429.6193424) scale(1,-1)" fill="currentColor" stroke="currentColor"><path d="M 69215 -50368.2 A 1346.2 1346.2 0 0 0 70561.2 -49022 L 216662 -49022 A 1524 1524 0 0 0 218186 -50546 L 218186 -135102.605 M 218185.746 -135102.605 A 1269.9999254 1269.9999254 0 0 0 216916 -136398 L 155702 -136144 A 1270 1270 0 0 1 154432 -137414 L 154432 -148590 A 762 762 0 0 0 153670 -149352 L 125349 -149352 A 1650.9986032 1650.9986032 0 0 1 124826.908 -149436.724 L 90302.555 -165239.035 A 1831.6193424 1831.6193424 0 0 0 88011 -164592 L 68995.287 -133967.987 A 1558.6115035 1558.6115035 0 0 0 68834 -133215.703 L 69215 -50368.2" fill="none" stroke-width="50"/></g></svg>