<svg version="1.1" xmlns="http://www.w3.org/2000/svg" xmlns:xlink="http://www.w3.org/1999/xlink" stroke-linecap="round" stroke-linejoin="round" stroke-width="0" fill-rule="evenodd" width="149.4031375035mm" height="116.43561934239999mm" viewBox="68807.8624965 -165432.6193424 149403.1375035 116435.6193424" id="s7e6y0OXa7GaCu5kiBGL"><defs><circle cx="0" cy="0" r="150" id="s7e6y0OXa7GaCu5kiBGL_pad-11"/><circle cx="0" cy="0" r="1143" id="s7e6y0OXa7GaCu5kiBGL_pad-13"/><rect x="-850" y="-850" width="1700" height="1700" id="s7e6y0OXa7GaCu5kiBGL_pad-14"/><rect x="-850" y="-850" width="1700" height="1700" rx="850" ry="850" id="s7e6y0OXa7GaCu5kiBGL_pad-15"/><circle cx="0" cy="0" r="875" id="s7e6y0OXa7GaCu5kiBGL_pad-16"/><rect x="-1750" y="-850" width="3500" height="1700" id="s7e6y0OXa7GaCu5kiBGL_pad-17"/><rect x="-850" y="-1750" width="1700" height="3500" id="s7e6y0OXa7GaCu5kiBGL_pad-18"/><circle cx="0" cy="0" r="1000" id="s7e6y0OXa7GaCu5kiBGL_pad-19"/><circle cx="0" cy="0" r="650" id="s7e6y0OXa7GaCu5kiBGL_pad-20"/><circle cx="0" cy="0" r="750" id="s7e6y0OXa7GaCu5kiBGL_pad-21"/><circle cx="0" cy="0" r="2200" id="s7e6y0OXa7GaCu5kiBGL_pad-22"/><rect x="-650" y="-475" width="1300" height="950" id="s7e6y0OXa7GaCu5kiBGL_pad-23"/><circle cx="0" cy="0" r="698.5" id="s7e6y0OXa7GaCu5kiBGL_pad-24"/><rect x="-698.5" y="-698.5" width="1397" height="1397" id="s7e6y0OXa7GaCu5kiBGL_pad-25"/><circle cx="0" cy="0" r="475" id="s7e6y0OXa7GaCu5kiBGL_pad-26"/><circle cx="0" cy="0" r="400" id="s7e6y0OXa7GaCu5kiBGL_pad-27"/></defs><g transform="translate(0,-214429.6193424) scale(1,-1)" fill="currentColor" stroke="currentColor"><path d="M 69215 -50368.2 A 1346.2 1346.2 0 0 0 70561.2 -49022 M 216662 -49022 A 1524 1524 0 0 0 218186 -50546 M 218185.746 -135102.605 A 1269.9999254 1269.9999254 0 0 0 216916 -136398 M 124826.908 -149436.724 A 1650.9986032 1650.9986032 0 0 0 125349 -149352 M 68995.286 -133967.988 A 1558.6115035 1558.6115035 0 0 0 68834 -133215.703 M 154432 -137414 A 1270 1270 0 0 0 155702 -136144 M 154432 -148590 A 762 762 0 0 0 153670 -149352 M 90302.555 -165239.036 A 1831.6193424 1831.6193424 0 0 0 88011.001 -164591.999 M 68834 -133215.703 69215 -50368.2 M 88011 -164592 68995.287 -133967.987 M 216916 -136398 155702 -136144 M 218186 -50546 218186 -135102.605 M 124826.908 -149436.724 90302.555 -165239.035 M 153670 -149352 125349 -149352 M 154432 -137414 154432 -148590 M 70561.2 -49022 216662 -49022" fill="none" stroke-width="50"/><use xlink:href="#s7e6y0OXa7GaCu5kiBGL_pad-11" x="70877.6" y="-120675.4"/><path d="M 71877.6 -120675.4 71377.6 -121425.4 70377.6 -121425.4 70377.6 -119925.4 71377.6 -119925.4 71877.6 -120675.4 71877.6 -120675.4"/><use xlink:href="#s7e6y0OXa7GaCu5kiBGL_pad-11" x="72327.6" y="-120675.4"/><path d="M 72827.6 -121425.4 71677.6 -121425.4 72177.6 -120675.4 71677.6 -119925.4 72827.6 -119925.4 72827.6 -121425.4 72827.6 -121425.4"/><use xlink:href="#s7e6y0OXa7GaCu5kiBGL_pad-11" x="74332" y="-120675.4"/><path d="M 75332 -120675.4 74832 -121425.4 73832 -121425.4 73832 -119925.4 74832 -119925.4 75332 -120675.4 75332 -120675.4"/><use xlink:href="#s7e6y0OXa7GaCu5kiBGL_pad-11" x="75782" y="-120675.4"/><path d="M 76282 -121425.4 75132 -121425.4 75632 -120675.4 75132 -119925.4 76282 -119925.4 76282 -121425.4 76282 -121425.4"/><use xlink:href="#s7e6y0OXa7GaCu5kiBGL_pad-13" x="111252" y="-59309"/><use xlink:href="#s7e6y0OXa7GaCu5kiBGL_pad-13" x="117602" y="-56769"/><use xlink:href="#s7e6y0OXa7GaCu5kiBGL_pad-13" x="112522" y="-56769"/><use xlink:href="#s7e6y0OXa7GaCu5kiBGL_pad-13" x="118872" y="-59309"/><use xlink:href="#s7e6y0OXa7GaCu5kiBGL_pad-13" x="130302" y="-56896"/><use xlink:href="#s7e6y0OXa7GaCu5kiBGL_pad-13" x="136652" y="-54356"/><use xlink:href="#s7e6y0OXa7GaCu5kiBGL_pad-13" x="131572" y="-54356"/><use xlink:href="#s7e6y0OXa7GaCu5kiBGL_pad-13" x="137922" y="-56896"/><use xlink:href="#s7e6y0OXa7GaCu5kiBGL_pad-13" x="149352" y="-54356"/><use xlink:href="#s7e6y0OXa7GaCu5kiBGL_pad-13" x="155702" y="-51816"/><use xlink:href="#s7e6y0OXa7GaCu5kiBGL_pad-13" x="150622" y="-51816"/><use xlink:href="#s7e6y0OXa7GaCu5kiBGL_pad-13" x="156972" y="-54356"/><use xlink:href="#s7e6y0OXa7GaCu5kiBGL_pad-13" x="168402" y="-56896"/><use xlink:href="#s7e6y0OXa7GaCu5kiBGL_pad-13" x="174752" y="-54356"/><use xlink:href="#s7e6y0OXa7GaCu5kiBGL_pad-13" x="169672" y="-54356"/><use xlink:href="#s7e6y0OXa7GaCu5kiBGL_pad-13" x="176022" y="-56896"/><use xlink:href="#s7e6y0OXa7GaCu5kiBGL_pad-13" x="187452" y="-62103"/><use xlink:href="#s7e6y0OXa7GaCu5kiBGL_pad-13" x="193802" y="-59563"/><use xlink:href="#s7e6y0OXa7GaCu5kiBGL_pad-13" x="188722" y="-59563"/><use xlink:href="#s7e6y0OXa7GaCu5kiBGL_pad-13" x="195072" y="-62103"/><use xlink:href="#s7e6y0OXa7GaCu5kiBGL_pad-13" x="206502" y="-62103"/><use xlink:href="#s7e6y0OXa7GaCu5kiBGL_pad-13" x="212852" y="-59563"/><use xlink:href="#s7e6y0OXa7GaCu5kiBGL_pad-13" x="207772" y="-59563"/><use xlink:href="#s7e6y0OXa7GaCu5kiBGL_pad-13" x="214122" y="-62103"/><use xlink:href="#s7e6y0OXa7GaCu5kiBGL_pad-13" x="111252" y="-78359"/><use xlink:href="#s7e6y0OXa7GaCu5kiBGL_pad-13" x="117602" y="-75819"/><use xlink:href="#s7e6y0OXa7GaCu5kiBGL_pad-13" x="112522" y="-75819"/><use xlink:href="#s7e6y0OXa7GaCu5kiBGL_pad-13" x="118872" y="-78359"/><use xlink:href="#s7e6y0OXa7GaCu5kiBGL_pad-13" x="130302" y="-75946"/><use xlink:href="#s7e6y0OXa7GaCu5kiBGL_pad-13" x="136652" y="-73406"/><use xlink:href="#s7e6y0OXa7GaCu5kiBGL_pad-13" x="131572" y="-73406"/><use xlink:href="#s7e6y0OXa7GaCu5kiBGL_pad-13" x="137922" y="-75946"/><use xlink:href="#s7e6y0OXa7GaCu5kiBGL_pad-13" x="149352" y="-73406"/><use xlink:href="#s7e6y0OXa7GaCu5kiBGL_pad-13" x="155702" y="-70866"/><use xlink:href="#s7e6y0OXa7GaCu5kiBGL_pad-13" x="150622" y="-70866"/><use xlink:href="#s7e6y0OXa7GaCu5kiBGL_pad-13" x="156972" y="-73406"/><use xlink:href="#s7e6y0OXa7GaCu5kiBGL_pad-13" x="168402" y="-75946"/><use xlink:href="#s7e6y0OXa7GaCu5kiBGL_pad-13" x="174752" y="-73406"/><use xlink:href="#s7e6y0OXa7GaCu5kiBGL_pad-13" x="169672" y="-73406"/><use xlink:href="#s7e6y0OXa7GaCu5kiBGL_pad-13" x="176022" y="-75946"/><use xlink:href="#s7e6y0OXa7GaCu5kiBGL_pad-13" x="187452" y="-81153"/><use xlink:href="#s7e6y0OXa7GaCu5kiBGL_pad-13" x="193802" y="-78613"/><use xlink:href="#s7e6y0OXa7GaCu5kiBGL_pad-13" x="188722" y="-78613"/><use xlink:href="#s7e6y0OXa7GaCu5kiBGL_pad-13" x="195072" y="-81153"/><use xlink:href="#s7e6y0OXa7GaCu5kiBGL_pad-13" x="206502" y="-81153"/><use xlink:href="#s7e6y0OXa7GaCu5kiBGL_pad-13" x="212852" y="-78613"/><use xlink:href="#s7e6y0OXa7GaCu5kiBGL_pad-13" x="207772" y="-78613"/><use xlink:href="#s7e6y0OXa7GaCu5kiBGL_pad-13" x="214122" y="-81153"/><use xlink:href="#s7e6y0OXa7GaCu5kiBGL_pad-13" x="111252" y="-97409"/><use xlink:href="#s7e6y0OXa7GaCu5kiBGL_pad-13" x="117602" y="-94869"/><use xlink:href="#s7e6y0OXa7GaCu5kiBGL_pad-13" x="112522" y="-94869"/><use xlink:href="#s7e6y0OXa7GaCu5kiBGL_pad-13" x="118872" y="-97409"/><use xlink:href="#s7e6y0OXa7GaCu5kiBGL_pad-13" x="130302" y="-94996"/><use xlink:href="#s7e6y0OXa7GaCu5kiBGL_pad-13" x="136652" y="-92456"/><use xlink:href="#s7e6y0OXa7GaCu5kiBGL_pad-13" x="131572" y="-92456"/><use xlink:href="#s7e6y0OXa7GaCu5kiBGL_pad-13" x="137922" y="-94996"/><use xlink:href="#s7e6y0OXa7GaCu5kiBGL_pad-13" x="149352" y="-92456"/><use xlink:href="#s7e6y0OXa7GaCu5kiBGL_pad-13" x="155702" y="-89916"/><use xlink:href="#s7e6y0OXa7GaCu5kiBGL_pad-13" x="150622" y="-89916"/><use xlink:href="#s7e6y0OXa7GaCu5kiBGL_pad-13" x="156972" y="-92456"/><use xlink:href="#s7e6y0OXa7GaCu5kiBGL_pad-13" x="168402" y="-94996"/><use xlink:href="#s7e6y0OXa7GaCu5kiBGL_pad-13" x="174752" y="-92456"/><use xlink:href="#s7e6y0OXa7GaCu5kiBGL_pad-13" x="169672" y="-92456"/><use xlink:href="#s7e6y0OXa7GaCu5kiBGL_pad-13" x="176022" y="-94996"/><use xlink:href="#s7e6y0OXa7GaCu5kiBGL_pad-13" x="187452" y="-100203"/><use xlink:href="#s7e6y0OXa7GaCu5kiBGL_pad-13" x="193802" y="-97663"/><use xlink:href="#s7e6y0OXa7GaCu5kiBGL_pad-13" x="188722" y="-97663"/><use xlink:href="#s7e6y0OXa7GaCu5kiBGL_pad-13" x="195072" y="-100203"/><use xlink:href="#s7e6y0OXa7GaCu5kiBGL_pad-13" x="206502" y="-100203"/><use xlink:href="#s7e6y0OXa7GaCu5kiBGL_pad-13" x="212852" y="-97663"/><use xlink:href="#s7e6y0OXa7GaCu5kiBGL_pad-13" x="207772" y="-97663"/><use xlink:href="#s7e6y0OXa7GaCu5kiBGL_pad-13" x="214122" y="-100203"/><use xlink:href="#s7e6y0OXa7GaCu5kiBGL_pad-13" x="111252" y="-116459"/><use xlink:href="#s7e6y0OXa7GaCu5kiBGL_pad-13" x="117602" y="-113919"/><use xlink:href="#s7e6y0OXa7GaCu5kiBGL_pad-13" x="112522" y="-113919"/><use xlink:href="#s7e6y0OXa7GaCu5kiBGL_pad-13" x="118872" y="-116459"/><use xlink:href="#s7e6y0OXa7GaCu5kiBGL_pad-13" x="130302" y="-114046"/><use xlink:href="#s7e6y0OXa7GaCu5kiBGL_pad-13" x="136652" y="-111506"/><use xlink:href="#s7e6y0OXa7GaCu5kiBGL_pad-13" x="131572" y="-111506"/><use xlink:href="#s7e6y0OXa7GaCu5kiBGL_pad-13" x="137922" y="-114046"/><use xlink:href="#s7e6y0OXa7GaCu5kiBGL_pad-13" x="149352" y="-111506"/><use xlink:href="#s7e6y0OXa7GaCu5kiBGL_pad-13" x="155702" y="-108966"/><use xlink:href="#s7e6y0OXa7GaCu5kiBGL_pad-13" x="150622" y="-108966"/><use xlink:href="#s7e6y0OXa7GaCu5kiBGL_pad-13" x="156972" y="-111506"/><use xlink:href="#s7e6y0OXa7GaCu5kiBGL_pad-13" x="168402" y="-114046"/><use xlink:href="#s7e6y0OXa7GaCu5kiBGL_pad-13" x="174752" y="-111506"/><use xlink:href="#s7e6y0OXa7GaCu5kiBGL_pad-13" x="169672" y="-111506"/><use xlink:href="#s7e6y0OXa7GaCu5kiBGL_pad-13" x="176022" y="-114046"/><use xlink:href="#s7e6y0OXa7GaCu5kiBGL_pad-13" x="187452" y="-119253"/><use xlink:href="#s7e6y0OXa7GaCu5kiBGL_pad-13" x="193802" y="-116713"/><use xlink:href="#s7e6y0OXa7GaCu5kiBGL_pad-13" x="188722" y="-116713"/><use xlink:href="#s7e6y0OXa7GaCu5kiBGL_pad-13" x="195072" y="-119253"/><use xlink:href="#s7e6y0OXa7GaCu5kiBGL_pad-13" x="206502" y="-119253"/><use xlink:href="#s7e6y0OXa7GaCu5kiBGL_pad-13" x="212852" y="-116713"/><use xlink:href="#s7e6y0OXa7GaCu5kiBGL_pad-13" x="207772" y="-116713"/><use xlink:href="#s7e6y0OXa7GaCu5kiBGL_pad-13" x="214122" y="-119253"/><use xlink:href="#s7e6y0OXa7GaCu5kiBGL_pad-13" x="95163.705" y="-148083.471"/><use xlink:href="#s7e6y0OXa7GaCu5kiBGL_pad-13" x="100538.409" y="-152312.733"/><use xlink:href="#s7e6y0OXa7GaCu5kiBGL_pad-13" x="97998.409" y="-147913.323"/><use xlink:href="#s7e6y0OXa7GaCu5kiBGL_pad-13" x="98973.705" y="-154682.585"/><use xlink:href="#s7e6y0OXa7GaCu5kiBGL_pad-13" x="111608.143" y="-141508.07"/><use xlink:href="#s7e6y0OXa7GaCu5kiBGL_pad-13" x="116289.747" y="-136522.422"/><use xlink:href="#s7e6y0OXa7GaCu5kiBGL_pad-13" x="111685.703" y="-138669.323"/><use xlink:href="#s7e6y0OXa7GaCu5kiBGL_pad-13" x="118514.208" y="-138287.719"/><use xlink:href="#s7e6y0OXa7GaCu5kiBGL_pad-13" x="136779" y="-136779"/><use xlink:href="#s7e6y0OXa7GaCu5kiBGL_pad-13" x="143129" y="-134239"/><use xlink:href="#s7e6y0OXa7GaCu5kiBGL_pad-13" x="138049" y="-134239"/><use xlink:href="#s7e6y0OXa7GaCu5kiBGL_pad-13" x="144399" y="-136779"/><use xlink:href="#s7e6y0OXa7GaCu5kiBGL_pad-14" x="87376" y="-99592"/><use xlink:href="#s7e6y0OXa7GaCu5kiBGL_pad-15" x="78486" y="-51562"/><use xlink:href="#s7e6y0OXa7GaCu5kiBGL_pad-15" x="78486" y="-54102"/><use xlink:href="#s7e6y0OXa7GaCu5kiBGL_pad-14" x="78486" y="-56642"/><use xlink:href="#s7e6y0OXa7GaCu5kiBGL_pad-15" x="78486" y="-97282"/><use xlink:href="#s7e6y0OXa7GaCu5kiBGL_pad-15" x="96266" y="-54102"/><use xlink:href="#s7e6y0OXa7GaCu5kiBGL_pad-15" x="78486" y="-59182"/><use xlink:href="#s7e6y0OXa7GaCu5kiBGL_pad-15" x="78486" y="-64262"/><use xlink:href="#s7e6y0OXa7GaCu5kiBGL_pad-14" x="78486" y="-69342"/><use xlink:href="#s7e6y0OXa7GaCu5kiBGL_pad-14" x="78486" y="-94742"/><use xlink:href="#s7e6y0OXa7GaCu5kiBGL_pad-15" x="96266" y="-66802"/><use xlink:href="#s7e6y0OXa7GaCu5kiBGL_pad-15" x="78486" y="-79502"/><use xlink:href="#s7e6y0OXa7GaCu5kiBGL_pad-14" x="96266" y="-56642"/><use xlink:href="#s7e6y0OXa7GaCu5kiBGL_pad-15" x="96266" y="-64262"/><use xlink:href="#s7e6y0OXa7GaCu5kiBGL_pad-15" x="78486" y="-87122"/><use xlink:href="#s7e6y0OXa7GaCu5kiBGL_pad-15" x="96266" y="-59182"/><use xlink:href="#s7e6y0OXa7GaCu5kiBGL_pad-15" x="96266" y="-76962"/><use xlink:href="#s7e6y0OXa7GaCu5kiBGL_pad-15" x="96266" y="-87122"/><use xlink:href="#s7e6y0OXa7GaCu5kiBGL_pad-15" x="78486" y="-89662"/><use xlink:href="#s7e6y0OXa7GaCu5kiBGL_pad-15" x="78486" y="-71882"/><use xlink:href="#s7e6y0OXa7GaCu5kiBGL_pad-15" x="78486" y="-99822"/><use xlink:href="#s7e6y0OXa7GaCu5kiBGL_pad-15" x="96266" y="-74422"/><use xlink:href="#s7e6y0OXa7GaCu5kiBGL_pad-15" x="78486" y="-74422"/><use xlink:href="#s7e6y0OXa7GaCu5kiBGL_pad-15" x="78486" y="-76962"/><use xlink:href="#s7e6y0OXa7GaCu5kiBGL_pad-14" x="78486" y="-82042"/><use xlink:href="#s7e6y0OXa7GaCu5kiBGL_pad-15" x="96266" y="-84582"/><use xlink:href="#s7e6y0OXa7GaCu5kiBGL_pad-15" x="96266" y="-89662"/><use xlink:href="#s7e6y0OXa7GaCu5kiBGL_pad-15" x="78486" y="-66802"/><use xlink:href="#s7e6y0OXa7GaCu5kiBGL_pad-14" x="96266" y="-82042"/><use xlink:href="#s7e6y0OXa7GaCu5kiBGL_pad-15" x="96266" y="-99822"/><use xlink:href="#s7e6y0OXa7GaCu5kiBGL_pad-15" x="96266" y="-79502"/><use xlink:href="#s7e6y0OXa7GaCu5kiBGL_pad-15" x="96266" y="-71882"/><use xlink:href="#s7e6y0OXa7GaCu5kiBGL_pad-15" x="96266" y="-61722"/><use xlink:href="#s7e6y0OXa7GaCu5kiBGL_pad-14" x="96266" y="-69342"/><use xlink:href="#s7e6y0OXa7GaCu5kiBGL_pad-14" x="96266" y="-94742"/><use xlink:href="#s7e6y0OXa7GaCu5kiBGL_pad-15" x="96266" y="-51562"/><use xlink:href="#s7e6y0OXa7GaCu5kiBGL_pad-15" x="96266" y="-92202"/><use xlink:href="#s7e6y0OXa7GaCu5kiBGL_pad-15" x="78486" y="-84582"/><use xlink:href="#s7e6y0OXa7GaCu5kiBGL_pad-15" x="96266" y="-97282"/><use xlink:href="#s7e6y0OXa7GaCu5kiBGL_pad-15" x="78486" y="-61722"/><use xlink:href="#s7e6y0OXa7GaCu5kiBGL_pad-15" x="78486" y="-92202"/><path d="M 85062.382 -50694.107 85104.852 -50700.406 85146.5 -50710.839 85186.924 -50725.303 85225.736 -50743.659 85262.562 -50765.732 85297.047 -50791.308 85328.859 -50820.141 85357.692 -50851.953 85383.268 -50886.438 85405.341 -50923.264 85423.697 -50962.076 85438.161 -51002.5 85448.594 -51044.148 85454.893 -51086.618 85457 -51129.5 85457 -52004.5 85454.893 -52047.382 85448.594 -52089.852 85438.161 -52131.5 85423.697 -52171.924 85405.341 -52210.736 85383.268 -52247.562 85357.692 -52282.047 85328.859 -52313.859 85297.047 -52342.692 85262.562 -52368.268 85225.736 -52390.341 85186.924 -52408.697 85146.5 -52423.161 85104.852 -52433.594 85062.382 -52439.893 85019.5 -52442 84144.5 -52442 84101.618 -52439.893 84059.148 -52433.594 84017.5 -52423.161 83977.076 -52408.697 83938.264 -52390.341 83901.438 -52368.268 83866.953 -52342.692 83835.141 -52313.859 83806.308 -52282.047 83780.732 -52247.562 83758.659 -52210.736 83740.303 -52171.924 83725.839 -52131.5 83715.406 -52089.852 83709.107 -52047.382 83707 -52004.5 83707 -51129.5 83709.107 -51086.618 83715.406 -51044.148 83725.839 -51002.5 83740.303 -50962.076 83758.659 -50923.264 83780.732 -50886.438 83806.308 -50851.953 83835.141 -50820.141 83866.953 -50791.308 83901.438 -50765.732 83938.264 -50743.659 83977.076 -50725.303 84017.5 -50710.839 84059.148 -50700.406 84101.618 -50694.107 84144.5 -50692 85019.5 -50692 85062.382 -50694.107 85062.382 -50694.107"/><use xlink:href="#s7e6y0OXa7GaCu5kiBGL_pad-16" x="84582" y="-51567"/><path d="M 83030.382 -50694.107 83072.852 -50700.406 83114.5 -50710.839 83154.924 -50725.303 83193.736 -50743.659 83230.562 -50765.732 83265.047 -50791.308 83296.859 -50820.141 83325.692 -50851.953 83351.268 -50886.438 83373.341 -50923.264 83391.697 -50962.076 83406.161 -51002.5 83416.594 -51044.148 83422.893 -51086.618 83425 -51129.5 83425 -52004.5 83422.893 -52047.382 83416.594 -52089.852 83406.161 -52131.5 83391.697 -52171.924 83373.341 -52210.736 83351.268 -52247.562 83325.692 -52282.047 83296.859 -52313.859 83265.047 -52342.692 83230.562 -52368.268 83193.736 -52390.341 83154.924 -52408.697 83114.5 -52423.161 83072.852 -52433.594 83030.382 -52439.893 82987.5 -52442 82112.5 -52442 82069.618 -52439.893 82027.148 -52433.594 81985.5 -52423.161 81945.076 -52408.697 81906.264 -52390.341 81869.438 -52368.268 81834.953 -52342.692 81803.141 -52313.859 81774.308 -52282.047 81748.732 -52247.562 81726.659 -52210.736 81708.303 -52171.924 81693.839 -52131.5 81683.406 -52089.852 81677.107 -52047.382 81675 -52004.5 81675 -51129.5 81677.107 -51086.618 81683.406 -51044.148 81693.839 -51002.5 81708.303 -50962.076 81726.659 -50923.264 81748.732 -50886.438 81774.308 -50851.953 81803.141 -50820.141 81834.953 -50791.308 81869.438 -50765.732 81906.264 -50743.659 81945.076 -50725.303 81985.5 -50710.839 82027.148 -50700.406 82069.618 -50694.107 82112.5 -50692 82987.5 -50692 83030.382 -50694.107 83030.382 -50694.107"/><use xlink:href="#s7e6y0OXa7GaCu5kiBGL_pad-16" x="82550" y="-51567"/><path d="M 84046.382 -53469.107 84088.852 -53475.406 84130.5 -53485.839 84170.924 -53500.303 84209.736 -53518.659 84246.562 -53540.732 84281.047 -53566.308 84312.859 -53595.141 84341.692 -53626.953 84367.268 -53661.438 84389.341 -53698.264 84407.697 -53737.076 84422.161 -53777.5 84432.594 -53819.148 84438.893 -53861.618 84441 -53904.5 84441 -54779.5 84438.893 -54822.382 84432.594 -54864.852 84422.161 -54906.5 84407.697 -54946.924 84389.341 -54985.736 84367.268 -55022.562 84341.692 -55057.047 84312.859 -55088.859 84281.047 -55117.692 84246.562 -55143.268 84209.736 -55165.341 84170.924 -55183.697 84130.5 -55198.161 84088.852 -55208.594 84046.382 -55214.893 84003.5 -55217 83128.5 -55217 83085.618 -55214.893 83043.148 -55208.594 83001.5 -55198.161 82961.076 -55183.697 82922.264 -55165.341 82885.438 -55143.268 82850.953 -55117.692 82819.141 -55088.859 82790.308 -55057.047 82764.732 -55022.562 82742.659 -54985.736 82724.303 -54946.924 82709.839 -54906.5 82699.406 -54864.852 82693.107 -54822.382 82691 -54779.5 82691 -53904.5 82693.107 -53861.618 82699.406 -53819.148 82709.839 -53777.5 82724.303 -53737.076 82742.659 -53698.264 82764.732 -53661.438 82790.308 -53626.953 82819.141 -53595.141 82850.953 -53566.308 82885.438 -53540.732 82922.264 -53518.659 82961.076 -53500.303 83001.5 -53485.839 83043.148 -53475.406 83085.618 -53469.107 83128.5 -53467 84003.5 -53467 84046.382 -53469.107 84046.382 -53469.107"/><use xlink:href="#s7e6y0OXa7GaCu5kiBGL_pad-16" x="83566" y="-54342"/><use xlink:href="#s7e6y0OXa7GaCu5kiBGL_pad-15" x="74676" y="-51562"/><use xlink:href="#s7e6y0OXa7GaCu5kiBGL_pad-15" x="74676" y="-54102"/><use xlink:href="#s7e6y0OXa7GaCu5kiBGL_pad-14" x="74676" y="-56642"/><use xlink:href="#s7e6y0OXa7GaCu5kiBGL_pad-15" x="74676" y="-59182"/><use xlink:href="#s7e6y0OXa7GaCu5kiBGL_pad-15" x="74676" y="-61722"/><use xlink:href="#s7e6y0OXa7GaCu5kiBGL_pad-15" x="74676" y="-64262"/><use xlink:href="#s7e6y0OXa7GaCu5kiBGL_pad-15" x="74676" y="-66802"/><use xlink:href="#s7e6y0OXa7GaCu5kiBGL_pad-14" x="74676" y="-69342"/><use xlink:href="#s7e6y0OXa7GaCu5kiBGL_pad-15" x="74676" y="-71882"/><use xlink:href="#s7e6y0OXa7GaCu5kiBGL_pad-15" x="74676" y="-74422"/><use xlink:href="#s7e6y0OXa7GaCu5kiBGL_pad-15" x="74676" y="-76962"/><use xlink:href="#s7e6y0OXa7GaCu5kiBGL_pad-15" x="74676" y="-79502"/><use xlink:href="#s7e6y0OXa7GaCu5kiBGL_pad-14" x="74676" y="-82042"/><use xlink:href="#s7e6y0OXa7GaCu5kiBGL_pad-15" x="74676" y="-84582"/><use xlink:href="#s7e6y0OXa7GaCu5kiBGL_pad-15" x="74676" y="-87122"/><use xlink:href="#s7e6y0OXa7GaCu5kiBGL_pad-15" x="74676" y="-89662"/><use xlink:href="#s7e6y0OXa7GaCu5kiBGL_pad-15" x="74676" y="-92202"/><use xlink:href="#s7e6y0OXa7GaCu5kiBGL_pad-14" x="74676" y="-94742"/><use xlink:href="#s7e6y0OXa7GaCu5kiBGL_pad-15" x="74676" y="-97282"/><use xlink:href="#s7e6y0OXa7GaCu5kiBGL_pad-15" x="74676" y="-99822"/><use xlink:href="#s7e6y0OXa7GaCu5kiBGL_pad-15" x="92456" y="-99822"/><use xlink:href="#s7e6y0OXa7GaCu5kiBGL_pad-15" x="92456" y="-97282"/><use xlink:href="#s7e6y0OXa7GaCu5kiBGL_pad-14" x="92456" y="-94742"/><use xlink:href="#s7e6y0OXa7GaCu5kiBGL_pad-15" x="92456" y="-92202"/><use xlink:href="#s7e6y0OXa7GaCu5kiBGL_pad-15" x="92456" y="-89662"/><use xlink:href="#s7e6y0OXa7GaCu5kiBGL_pad-15" x="92456" y="-87122"/><use xlink:href="#s7e6y0OXa7GaCu5kiBGL_pad-15" x="92456" y="-84582"/><use xlink:href="#s7e6y0OXa7GaCu5kiBGL_pad-14" x="92456" y="-82042"/><use xlink:href="#s7e6y0OXa7GaCu5kiBGL_pad-15" x="92456" y="-79502"/><use xlink:href="#s7e6y0OXa7GaCu5kiBGL_pad-15" x="92456" y="-76962"/><use xlink:href="#s7e6y0OXa7GaCu5kiBGL_pad-15" x="92456" y="-74422"/><use xlink:href="#s7e6y0OXa7GaCu5kiBGL_pad-15" x="92456" y="-71882"/><use xlink:href="#s7e6y0OXa7GaCu5kiBGL_pad-14" x="92456" y="-69342"/><use xlink:href="#s7e6y0OXa7GaCu5kiBGL_pad-15" x="92456" y="-66802"/><use xlink:href="#s7e6y0OXa7GaCu5kiBGL_pad-15" x="92456" y="-64262"/><use xlink:href="#s7e6y0OXa7GaCu5kiBGL_pad-15" x="92456" y="-61722"/><use xlink:href="#s7e6y0OXa7GaCu5kiBGL_pad-15" x="92456" y="-59182"/><use xlink:href="#s7e6y0OXa7GaCu5kiBGL_pad-14" x="92456" y="-56642"/><use xlink:href="#s7e6y0OXa7GaCu5kiBGL_pad-15" x="92456" y="-54102"/><use xlink:href="#s7e6y0OXa7GaCu5kiBGL_pad-15" x="92456" y="-51562"/><use xlink:href="#s7e6y0OXa7GaCu5kiBGL_pad-17" x="73776" y="-51562"/><use xlink:href="#s7e6y0OXa7GaCu5kiBGL_pad-17" x="73776" y="-54102"/><use xlink:href="#s7e6y0OXa7GaCu5kiBGL_pad-17" x="73776" y="-56642"/><use xlink:href="#s7e6y0OXa7GaCu5kiBGL_pad-17" x="73776" y="-59182"/><use xlink:href="#s7e6y0OXa7GaCu5kiBGL_pad-17" x="73776" y="-61722"/><use xlink:href="#s7e6y0OXa7GaCu5kiBGL_pad-17" x="73776" y="-64262"/><use xlink:href="#s7e6y0OXa7GaCu5kiBGL_pad-17" x="73776" y="-66802"/><use xlink:href="#s7e6y0OXa7GaCu5kiBGL_pad-17" x="73776" y="-69342"/><use xlink:href="#s7e6y0OXa7GaCu5kiBGL_pad-17" x="73776" y="-71882"/><use xlink:href="#s7e6y0OXa7GaCu5kiBGL_pad-17" x="73776" y="-74422"/><use xlink:href="#s7e6y0OXa7GaCu5kiBGL_pad-17" x="73776" y="-76962"/><use xlink:href="#s7e6y0OXa7GaCu5kiBGL_pad-17" x="73776" y="-79502"/><use xlink:href="#s7e6y0OXa7GaCu5kiBGL_pad-17" x="73776" y="-82042"/><use xlink:href="#s7e6y0OXa7GaCu5kiBGL_pad-17" x="73776" y="-84582"/><use xlink:href="#s7e6y0OXa7GaCu5kiBGL_pad-17" x="73776" y="-87122"/><use xlink:href="#s7e6y0OXa7GaCu5kiBGL_pad-17" x="73776" y="-89662"/><use xlink:href="#s7e6y0OXa7GaCu5kiBGL_pad-17" x="73776" y="-92202"/><use xlink:href="#s7e6y0OXa7GaCu5kiBGL_pad-17" x="73776" y="-94742"/><use xlink:href="#s7e6y0OXa7GaCu5kiBGL_pad-17" x="73776" y="-97282"/><use xlink:href="#s7e6y0OXa7GaCu5kiBGL_pad-17" x="73776" y="-99822"/><use xlink:href="#s7e6y0OXa7GaCu5kiBGL_pad-17" x="93356" y="-51562"/><use xlink:href="#s7e6y0OXa7GaCu5kiBGL_pad-17" x="93356" y="-54102"/><use xlink:href="#s7e6y0OXa7GaCu5kiBGL_pad-17" x="93356" y="-56642"/><use xlink:href="#s7e6y0OXa7GaCu5kiBGL_pad-17" x="93356" y="-59182"/><use xlink:href="#s7e6y0OXa7GaCu5kiBGL_pad-17" x="93356" y="-61722"/><use xlink:href="#s7e6y0OXa7GaCu5kiBGL_pad-17" x="93356" y="-64262"/><use xlink:href="#s7e6y0OXa7GaCu5kiBGL_pad-17" x="93356" y="-66802"/><use xlink:href="#s7e6y0OXa7GaCu5kiBGL_pad-17" x="93356" y="-69342"/><use xlink:href="#s7e6y0OXa7GaCu5kiBGL_pad-17" x="93356" y="-71882"/><use xlink:href="#s7e6y0OXa7GaCu5kiBGL_pad-17" x="93356" y="-74422"/><use xlink:href="#s7e6y0OXa7GaCu5kiBGL_pad-17" x="93356" y="-76962"/><use xlink:href="#s7e6y0OXa7GaCu5kiBGL_pad-17" x="93356" y="-79502"/><use xlink:href="#s7e6y0OXa7GaCu5kiBGL_pad-17" x="93356" y="-82042"/><use xlink:href="#s7e6y0OXa7GaCu5kiBGL_pad-17" x="93356" y="-84582"/><use xlink:href="#s7e6y0OXa7GaCu5kiBGL_pad-17" x="93356" y="-87122"/><use xlink:href="#s7e6y0OXa7GaCu5kiBGL_pad-17" x="93356" y="-89662"/><use xlink:href="#s7e6y0OXa7GaCu5kiBGL_pad-17" x="93356" y="-92202"/><use xlink:href="#s7e6y0OXa7GaCu5kiBGL_pad-17" x="93356" y="-94742"/><use xlink:href="#s7e6y0OXa7GaCu5kiBGL_pad-17" x="93356" y="-97282"/><use xlink:href="#s7e6y0OXa7GaCu5kiBGL_pad-17" x="93356" y="-99822"/><use xlink:href="#s7e6y0OXa7GaCu5kiBGL_pad-18" x="83566" y="-100492"/><use xlink:href="#s7e6y0OXa7GaCu5kiBGL_pad-14" x="83566" y="-99592"/><use xlink:href="#s7e6y0OXa7GaCu5kiBGL_pad-15" x="103759" y="-66675"/><use xlink:href="#s7e6y0OXa7GaCu5kiBGL_pad-15" x="103759" y="-64135"/><use xlink:href="#s7e6y0OXa7GaCu5kiBGL_pad-15" x="103759" y="-61595"/><use xlink:href="#s7e6y0OXa7GaCu5kiBGL_pad-14" x="103759" y="-59055"/><use xlink:href="#s7e6y0OXa7GaCu5kiBGL_pad-19" x="91925" y="-116840"/><use xlink:href="#s7e6y0OXa7GaCu5kiBGL_pad-19" x="91925" y="-112340"/><use xlink:href="#s7e6y0OXa7GaCu5kiBGL_pad-19" x="98425" y="-116840"/><use xlink:href="#s7e6y0OXa7GaCu5kiBGL_pad-19" x="98425" y="-112340"/><use xlink:href="#s7e6y0OXa7GaCu5kiBGL_pad-15" x="103124" y="-131699"/><use xlink:href="#s7e6y0OXa7GaCu5kiBGL_pad-15" x="103124" y="-129159"/><use xlink:href="#s7e6y0OXa7GaCu5kiBGL_pad-15" x="103124" y="-126619"/><use xlink:href="#s7e6y0OXa7GaCu5kiBGL_pad-14" x="103124" y="-124079"/><use xlink:href="#s7e6y0OXa7GaCu5kiBGL_pad-20" x="78915" y="-114554"/><use xlink:href="#s7e6y0OXa7GaCu5kiBGL_pad-21" x="73215" y="-117804"/><use xlink:href="#s7e6y0OXa7GaCu5kiBGL_pad-21" x="73215" y="-111304"/><use xlink:href="#s7e6y0OXa7GaCu5kiBGL_pad-21" x="81915" y="-114554"/><use xlink:href="#s7e6y0OXa7GaCu5kiBGL_pad-21" x="81415" y="-117304"/><use xlink:href="#s7e6y0OXa7GaCu5kiBGL_pad-21" x="81415" y="-111804"/><use xlink:href="#s7e6y0OXa7GaCu5kiBGL_pad-20" x="71915" y="-114554"/><use xlink:href="#s7e6y0OXa7GaCu5kiBGL_pad-22" x="212648.8" y="-52984.4"/><use xlink:href="#s7e6y0OXa7GaCu5kiBGL_pad-22" x="127127" y="-134493"/><use xlink:href="#s7e6y0OXa7GaCu5kiBGL_pad-22" x="162179" y="-104521"/><use xlink:href="#s7e6y0OXa7GaCu5kiBGL_pad-22" x="200914" y="-133096"/><use xlink:href="#s7e6y0OXa7GaCu5kiBGL_pad-22" x="79756" y="-139192"/><use xlink:href="#s7e6y0OXa7GaCu5kiBGL_pad-22" x="104394" y="-52451"/><use xlink:href="#s7e6y0OXa7GaCu5kiBGL_pad-23" x="142364" y="-147955"/><use xlink:href="#s7e6y0OXa7GaCu5kiBGL_pad-24" x="144399" y="-147955"/><use xlink:href="#s7e6y0OXa7GaCu5kiBGL_pad-25" x="136779" y="-147955"/><use xlink:href="#s7e6y0OXa7GaCu5kiBGL_pad-23" x="138814" y="-147955"/><use xlink:href="#s7e6y0OXa7GaCu5kiBGL_pad-26" x="121596.031" y="-149221.212"/><path d="M 121207.675 -149926.41 120806.187 -149065.418 121984.387 -148516.014 122385.875 -149377.006 121207.675 -149926.41 121207.675 -149926.41"/><use xlink:href="#s7e6y0OXa7GaCu5kiBGL_pad-24" x="123440.368" y="-148361.183"/><use xlink:href="#s7e6y0OXa7GaCu5kiBGL_pad-24" x="116534.302" y="-151581.535"/><path d="M 116196.445 -152509.79 115606.047 -151243.678 116872.159 -150653.28 117462.557 -151919.392 116196.445 -152509.79 116196.445 -152509.79"/><use xlink:href="#s7e6y0OXa7GaCu5kiBGL_pad-26" x="118378.639" y="-150721.506"/><path d="M 117990.283 -151426.704 117588.795 -150565.712 118766.995 -150016.308 119168.483 -150877.3 117990.283 -151426.704 117990.283 -151426.704"/><use xlink:href="#s7e6y0OXa7GaCu5kiBGL_pad-26" x="88257.334" y="-158624.357"/><path d="M 87520.972 -158298.94 88343.696 -157823.94 88993.696 -158949.774 88170.972 -159424.774 87520.972 -158298.94 87520.972 -158298.94"/><use xlink:href="#s7e6y0OXa7GaCu5kiBGL_pad-24" x="89274.834" y="-160386.719"/><use xlink:href="#s7e6y0OXa7GaCu5kiBGL_pad-24" x="85464.834" y="-153787.605"/><path d="M 84510.665 -153531.936 85720.503 -152833.436 86419.003 -154043.274 85209.165 -154741.774 84510.665 -153531.936 84510.665 -153531.936"/><use xlink:href="#s7e6y0OXa7GaCu5kiBGL_pad-26" x="86482.334" y="-155549.967"/><path d="M 85745.972 -155224.55 86568.696 -154749.55 87218.696 -155875.384 86395.972 -156350.384 85745.972 -155224.55 85745.972 -155224.55"/><use xlink:href="#s7e6y0OXa7GaCu5kiBGL_pad-23" x="212087" y="-130429"/><use xlink:href="#s7e6y0OXa7GaCu5kiBGL_pad-24" x="214122" y="-130429"/><use xlink:href="#s7e6y0OXa7GaCu5kiBGL_pad-25" x="206502" y="-130429"/><use xlink:href="#s7e6y0OXa7GaCu5kiBGL_pad-23" x="208537" y="-130429"/><use xlink:href="#s7e6y0OXa7GaCu5kiBGL_pad-23" x="193037" y="-130429"/><use xlink:href="#s7e6y0OXa7GaCu5kiBGL_pad-24" x="195072" y="-130429"/><use xlink:href="#s7e6y0OXa7GaCu5kiBGL_pad-25" x="187452" y="-130429"/><use xlink:href="#s7e6y0OXa7GaCu5kiBGL_pad-23" x="189487" y="-130429"/><use xlink:href="#s7e6y0OXa7GaCu5kiBGL_pad-23" x="174111" y="-125222"/><use xlink:href="#s7e6y0OXa7GaCu5kiBGL_pad-24" x="176146" y="-125222"/><use xlink:href="#s7e6y0OXa7GaCu5kiBGL_pad-25" x="168526" y="-125222"/><use xlink:href="#s7e6y0OXa7GaCu5kiBGL_pad-23" x="170561" y="-125222"/><use xlink:href="#s7e6y0OXa7GaCu5kiBGL_pad-23" x="154937" y="-122682"/><use xlink:href="#s7e6y0OXa7GaCu5kiBGL_pad-24" x="156972" y="-122682"/><use xlink:href="#s7e6y0OXa7GaCu5kiBGL_pad-25" x="149352" y="-122682"/><use xlink:href="#s7e6y0OXa7GaCu5kiBGL_pad-23" x="151387" y="-122682"/><use xlink:href="#s7e6y0OXa7GaCu5kiBGL_pad-23" x="136014" y="-125222"/><use xlink:href="#s7e6y0OXa7GaCu5kiBGL_pad-24" x="138049" y="-125222"/><use xlink:href="#s7e6y0OXa7GaCu5kiBGL_pad-25" x="130429" y="-125222"/><use xlink:href="#s7e6y0OXa7GaCu5kiBGL_pad-23" x="132464" y="-125222"/><use xlink:href="#s7e6y0OXa7GaCu5kiBGL_pad-23" x="116837" y="-127635"/><use xlink:href="#s7e6y0OXa7GaCu5kiBGL_pad-24" x="118872" y="-127635"/><use xlink:href="#s7e6y0OXa7GaCu5kiBGL_pad-25" x="111252" y="-127635"/><use xlink:href="#s7e6y0OXa7GaCu5kiBGL_pad-23" x="113287" y="-127635"/><use xlink:href="#s7e6y0OXa7GaCu5kiBGL_pad-23" x="212087" y="-111379"/><use xlink:href="#s7e6y0OXa7GaCu5kiBGL_pad-24" x="214122" y="-111379"/><use xlink:href="#s7e6y0OXa7GaCu5kiBGL_pad-25" x="206502" y="-111379"/><use xlink:href="#s7e6y0OXa7GaCu5kiBGL_pad-23" x="208537" y="-111379"/><use xlink:href="#s7e6y0OXa7GaCu5kiBGL_pad-23" x="193164" y="-111379"/><use xlink:href="#s7e6y0OXa7GaCu5kiBGL_pad-24" x="195199" y="-111379"/><use xlink:href="#s7e6y0OXa7GaCu5kiBGL_pad-25" x="187579" y="-111379"/><use xlink:href="#s7e6y0OXa7GaCu5kiBGL_pad-23" x="189614" y="-111379"/><use xlink:href="#s7e6y0OXa7GaCu5kiBGL_pad-23" x="174114" y="-106172"/><use xlink:href="#s7e6y0OXa7GaCu5kiBGL_pad-24" x="176149" y="-106172"/><use xlink:href="#s7e6y0OXa7GaCu5kiBGL_pad-25" x="168529" y="-106172"/><use xlink:href="#s7e6y0OXa7GaCu5kiBGL_pad-23" x="170564" y="-106172"/><use xlink:href="#s7e6y0OXa7GaCu5kiBGL_pad-23" x="154937" y="-103632"/><use xlink:href="#s7e6y0OXa7GaCu5kiBGL_pad-24" x="156972" y="-103632"/><use xlink:href="#s7e6y0OXa7GaCu5kiBGL_pad-25" x="149352" y="-103632"/><use xlink:href="#s7e6y0OXa7GaCu5kiBGL_pad-23" x="151387" y="-103632"/><use xlink:href="#s7e6y0OXa7GaCu5kiBGL_pad-23" x="135887" y="-106172"/><use xlink:href="#s7e6y0OXa7GaCu5kiBGL_pad-24" x="137922" y="-106172"/><use xlink:href="#s7e6y0OXa7GaCu5kiBGL_pad-25" x="130302" y="-106172"/><use xlink:href="#s7e6y0OXa7GaCu5kiBGL_pad-23" x="132337" y="-106172"/><use xlink:href="#s7e6y0OXa7GaCu5kiBGL_pad-23" x="116964" y="-108585"/><use xlink:href="#s7e6y0OXa7GaCu5kiBGL_pad-24" x="118999" y="-108585"/><use xlink:href="#s7e6y0OXa7GaCu5kiBGL_pad-25" x="111379" y="-108585"/><use xlink:href="#s7e6y0OXa7GaCu5kiBGL_pad-23" x="113414" y="-108585"/><use xlink:href="#s7e6y0OXa7GaCu5kiBGL_pad-23" x="212087" y="-92329"/><use xlink:href="#s7e6y0OXa7GaCu5kiBGL_pad-24" x="214122" y="-92329"/><use xlink:href="#s7e6y0OXa7GaCu5kiBGL_pad-25" x="206502" y="-92329"/><use xlink:href="#s7e6y0OXa7GaCu5kiBGL_pad-23" x="208537" y="-92329"/><use xlink:href="#s7e6y0OXa7GaCu5kiBGL_pad-23" x="193164" y="-92329"/><use xlink:href="#s7e6y0OXa7GaCu5kiBGL_pad-24" x="195199" y="-92329"/><use xlink:href="#s7e6y0OXa7GaCu5kiBGL_pad-25" x="187579" y="-92329"/><use xlink:href="#s7e6y0OXa7GaCu5kiBGL_pad-23" x="189614" y="-92329"/><use xlink:href="#s7e6y0OXa7GaCu5kiBGL_pad-23" x="174114" y="-87122"/><use xlink:href="#s7e6y0OXa7GaCu5kiBGL_pad-24" x="176149" y="-87122"/><use xlink:href="#s7e6y0OXa7GaCu5kiBGL_pad-25" x="168529" y="-87122"/><use xlink:href="#s7e6y0OXa7GaCu5kiBGL_pad-23" x="170564" y="-87122"/><use xlink:href="#s7e6y0OXa7GaCu5kiBGL_pad-23" x="155064" y="-84582"/><use xlink:href="#s7e6y0OXa7GaCu5kiBGL_pad-24" x="157099" y="-84582"/><use xlink:href="#s7e6y0OXa7GaCu5kiBGL_pad-25" x="149479" y="-84582"/><use xlink:href="#s7e6y0OXa7GaCu5kiBGL_pad-23" x="151514" y="-84582"/><use xlink:href="#s7e6y0OXa7GaCu5kiBGL_pad-23" x="135887" y="-87122"/><use xlink:href="#s7e6y0OXa7GaCu5kiBGL_pad-24" x="137922" y="-87122"/><use xlink:href="#s7e6y0OXa7GaCu5kiBGL_pad-25" x="130302" y="-87122"/><use xlink:href="#s7e6y0OXa7GaCu5kiBGL_pad-23" x="132337" y="-87122"/><use xlink:href="#s7e6y0OXa7GaCu5kiBGL_pad-23" x="116837" y="-89535"/><use xlink:href="#s7e6y0OXa7GaCu5kiBGL_pad-24" x="118872" y="-89535"/><use xlink:href="#s7e6y0OXa7GaCu5kiBGL_pad-25" x="111252" y="-89535"/><use xlink:href="#s7e6y0OXa7GaCu5kiBGL_pad-23" x="113287" y="-89535"/><use xlink:href="#s7e6y0OXa7GaCu5kiBGL_pad-23" x="212087" y="-73279"/><use xlink:href="#s7e6y0OXa7GaCu5kiBGL_pad-24" x="214122" y="-73279"/><use xlink:href="#s7e6y0OXa7GaCu5kiBGL_pad-25" x="206502" y="-73279"/><use xlink:href="#s7e6y0OXa7GaCu5kiBGL_pad-23" x="208537" y="-73279"/><use xlink:href="#s7e6y0OXa7GaCu5kiBGL_pad-23" x="193037" y="-73279"/><use xlink:href="#s7e6y0OXa7GaCu5kiBGL_pad-24" x="195072" y="-73279"/><use xlink:href="#s7e6y0OXa7GaCu5kiBGL_pad-25" x="187452" y="-73279"/><use xlink:href="#s7e6y0OXa7GaCu5kiBGL_pad-23" x="189487" y="-73279"/><use xlink:href="#s7e6y0OXa7GaCu5kiBGL_pad-23" x="174117" y="-68072"/><use xlink:href="#s7e6y0OXa7GaCu5kiBGL_pad-24" x="176152" y="-68072"/><use xlink:href="#s7e6y0OXa7GaCu5kiBGL_pad-25" x="168532" y="-68072"/><use xlink:href="#s7e6y0OXa7GaCu5kiBGL_pad-23" x="170567" y="-68072"/><use xlink:href="#s7e6y0OXa7GaCu5kiBGL_pad-23" x="154937" y="-65532"/><use xlink:href="#s7e6y0OXa7GaCu5kiBGL_pad-24" x="156972" y="-65532"/><use xlink:href="#s7e6y0OXa7GaCu5kiBGL_pad-25" x="149352" y="-65532"/><use xlink:href="#s7e6y0OXa7GaCu5kiBGL_pad-23" x="151387" y="-65532"/><use xlink:href="#s7e6y0OXa7GaCu5kiBGL_pad-23" x="136014" y="-68072"/><use xlink:href="#s7e6y0OXa7GaCu5kiBGL_pad-24" x="138049" y="-68072"/><use xlink:href="#s7e6y0OXa7GaCu5kiBGL_pad-25" x="130429" y="-68072"/><use xlink:href="#s7e6y0OXa7GaCu5kiBGL_pad-23" x="132464" y="-68072"/><use xlink:href="#s7e6y0OXa7GaCu5kiBGL_pad-23" x="116837" y="-70485"/><use xlink:href="#s7e6y0OXa7GaCu5kiBGL_pad-24" x="118872" y="-70485"/><use xlink:href="#s7e6y0OXa7GaCu5kiBGL_pad-25" x="111252" y="-70485"/><use xlink:href="#s7e6y0OXa7GaCu5kiBGL_pad-23" x="113287" y="-70485"/><use xlink:href="#s7e6y0OXa7GaCu5kiBGL_pad-27" x="99568" y="-74549"/><use xlink:href="#s7e6y0OXa7GaCu5kiBGL_pad-27" x="106172" y="-108585"/><use xlink:href="#s7e6y0OXa7GaCu5kiBGL_pad-27" x="105410" y="-127635"/><use xlink:href="#s7e6y0OXa7GaCu5kiBGL_pad-27" x="90297" y="-149860"/><use xlink:href="#s7e6y0OXa7GaCu5kiBGL_pad-27" x="85979" y="-55753"/><use xlink:href="#s7e6y0OXa7GaCu5kiBGL_pad-27" x="100748" y="-55626"/><use xlink:href="#s7e6y0OXa7GaCu5kiBGL_pad-27" x="89916" y="-51562"/><use xlink:href="#s7e6y0OXa7GaCu5kiBGL_pad-27" x="80716.704" y="-51823.599"/><use xlink:href="#s7e6y0OXa7GaCu5kiBGL_pad-27" x="111252" y="-83439"/><use xlink:href="#s7e6y0OXa7GaCu5kiBGL_pad-27" x="130302" y="-83376.998"/><use xlink:href="#s7e6y0OXa7GaCu5kiBGL_pad-27" x="149352" y="-82169"/><use xlink:href="#s7e6y0OXa7GaCu5kiBGL_pad-27" x="167640" y="-92837"/><use xlink:href="#s7e6y0OXa7GaCu5kiBGL_pad-27" x="186690" y="-97917"/><use xlink:href="#s7e6y0OXa7GaCu5kiBGL_pad-27" x="201168" y="-105791"/><use xlink:href="#s7e6y0OXa7GaCu5kiBGL_pad-27" x="73493.8" y="-122080.798"/><use xlink:href="#s7e6y0OXa7GaCu5kiBGL_pad-27" x="74218.8" y="-122809"/><use xlink:href="#s7e6y0OXa7GaCu5kiBGL_pad-27" x="70840.6" y="-118872"/><use xlink:href="#s7e6y0OXa7GaCu5kiBGL_pad-27" x="75387.2" y="-118846.6"/><path d="M 118872 -58039 118872 -59309 M 117602 -56769 118872 -58039 M 118872 -59309 118872 -70485 M 116837 -70485 118872 -70485 M 208537 -73279 206502 -73279 M 189487 -73279 187452 -73279 M 170567 -68072 168532 -68072 M 151387 -65532 149352 -65532 M 132464 -68072 130429 -68072 M 111252 -70485 113287 -70485 M 99568 -83820 96266 -87122 M 99568 -74549 99568 -83820 M 137922 -55626 137922 -56896 M 136652 -54356 137922 -55626 M 137922 -67945 138049 -68072 M 137922 -56896 137922 -67945 M 136014 -68072 138049 -68072 M 156844.999 -54228.999 156972 -54356 M 156844.999 -52958.999 156844.999 -54228.999 M 155702 -51816 156844.999 -52958.999 M 156972 -54356 156972 -65532 154937 -65532 M 175894.999 -56768.999 176022 -56896 M 175894.999 -55498.999 175894.999 -56768.999 M 174752 -54356 175894.999 -55498.999 M 176152 -67084.172 176152 -68072 M 176116.099 -67048.271 176152 -67084.172 M 176116.099 -58606.545 176116.099 -67048.271 M 176022 -58512.446 176116.099 -58606.545 M 176022 -56896 176022 -58512.446 M 176152 -68072 174117 -68072 M 195072 -60833 195072 -62103 M 193802 -59563 195072 -60833 M 195072 -65113.334 195072 -73279 M 195072 -62103 195072 -65113.334 M 195072 -73279 193037 -73279 M 214122 -60833 214122 -62103 M 212852 -59563 214122 -60833 M 214122 -62103 214122 -73279 212087 -73279 M 118872 -77089 118872 -78359 M 117602 -75819 118872 -77089 M 118872 -78359 118872 -89535 116837 -89535 M 208537 -92329 206502 -92329 M 189614 -92329 187579 -92329 M 170564 -87122 168529 -87122 M 149479 -84582 151514 -84582 M 132337 -87122 130302 -87122 M 113287 -89535 111252 -89535 M 137922 -74676 137922 -75946 M 136652 -73406 137922 -74676 M 137922 -75946 137922 -87122 M 135887 -87122 137922 -87122 M 156972 -72136 156972 -73406 M 155702 -70866 156972 -72136 M 156972 -84455 157099 -84582 M 156972 -73406 156972 -84455 M 157099 -84582 155064 -84582 M 176022 -74676 176022 -75946 M 174752 -73406 176022 -74676 M 176022 -86995 176149 -87122 M 176022 -75946 176022 -86995 M 174114 -87122 176149 -87122 M 195072 -79883 195072 -81153 M 193802 -78613 195072 -79883 M 195072 -92202 195199 -92329 M 195072 -81153 195072 -92202 M 195199 -92329 193164 -92329 M 214122 -79883 214122 -81153 M 212852 -78613 214122 -79883 M 214122 -81153 214122 -92329 212087 -92329 M 118872 -96139 118872 -97409 M 117602 -94869 118872 -96139 M 118872 -108458 118999 -108585 M 118872 -97409 118872 -108458 M 116964 -108585 118999 -108585 M 208537 -111379 206502 -111379 M 189614 -111379 187579 -111379 M 170564 -106172 168529 -106172 M 151387 -103632 149352 -103632 M 130302 -106172 132337 -106172 M 111379 -108585 113414 -108585 M 106172 -108019.315 100330 -102177.315 M 106172 -108585 106172 -108019.315 M 96266 -92456.998 96266 -92202 M 100330 -96520.998 96266 -92456.998 M 100330 -102177.315 100330 -96520.998 M 137922 -93726 137922 -94996 M 136652 -92456 137922 -93726 M 135887 -106172 137922 -106172 M 137922 -94996 137922 -98006.334 137922 -106172 M 156972 -91186 156972 -92456 M 155702 -89916 156972 -91186 M 156972 -92456 156972 -103632 M 154937 -103632 156972 -103632 M 176022 -93726 176022 -94996 M 174752 -92456 176022 -93726 M 176022 -106045 176149 -106172 M 176022 -94996 176022 -106045 M 176149 -106172 174114 -106172 M 195072 -98933 195072 -100203 M 193802 -97663 195072 -98933 M 195072 -111252 195199 -111379 M 195072 -100203 195072 -111252 M 195199 -111379 193164 -111379 M 214122 -98933 214122 -100203 M 212852 -97663 214122 -98933 M 214122 -100203 214122 -111379 212087 -111379 M 118872 -115189 118872 -116459 M 117602 -113919 118872 -115189 M 118872 -116459 118872 -127635 M 116837 -127635 118872 -127635 M 208537 -130429 206502 -130429 M 189487 -130429 187452 -130429 M 170561 -125222 168526 -125222 M 149352 -122682 151387 -122682 M 130429 -125222 132464 -125222 M 105410 -127635 105410 -108077 99441 -102108 M 99441 -100457 96266 -97282 M 99441 -102108 99441 -100457 M 113287 -127635 111252 -127635 M 137922 -112776 137922 -114046 M 136652 -111506 137922 -112776 M 137922 -125095 138049 -125222 M 137922 -114046 137922 -125095 M 136014 -125222 138049 -125222 M 154937 -122682 156972 -122682 M 156844.999 -111378.999 156972 -111506 M 156844.999 -110108.999 156844.999 -111378.999 M 155702 -108966 156844.999 -110108.999 M 156972 -111506 156972 -122682 M 176022 -112776 176022 -114046 M 174752 -111506 176022 -112776 M 176022 -125098 176146 -125222 M 176022 -114046 176022 -125098 M 176146 -125222 174111 -125222 M 195072 -117983 195072 -119253 M 193802 -116713 195072 -117983 M 195072 -119253 195072 -130429 193037 -130429 M 214122 -117983 214122 -119253 M 212852 -116713 214122 -117983 M 214122 -122263.334 214122 -130429 M 214122 -119253 214122 -122263.334 M 214122 -130429 212087 -130429 M 88257.334 -159369.219 89274.834 -160386.719 M 88257.334 -158624.357 88257.334 -159369.219 M 90262.662 -160386.719 89274.834 -160386.719 M 91653.125 -160386.719 90262.662 -160386.719 M 97357.259 -154682.585 91653.125 -160386.719 M 98973.705 -154682.585 97357.259 -154682.585 M 100538.409 -153117.881 100538.409 -152312.733 M 98973.705 -154682.585 100538.409 -153117.881 M 138814 -147955 136779 -147955 M 117394.331 -150721.506 116534.302 -151581.535 M 118378.639 -150721.506 117394.331 -150721.506 M 85464.834 -154532.467 86482.334 -155549.967 M 85464.834 -153787.605 85464.834 -154532.467 M 104648 -108204 96266 -99822 M 104648 -134112 104648 -108204 M 100838 -137922 104648 -134112 M 98640.002 -137922 100838 -137922 M 90297 -149860 90297 -146265.002 98640.002 -137922 M 117891.91 -137665.421 118514.208 -138287.719 M 117432.746 -137665.421 117891.91 -137665.421 M 116289.747 -136522.422 117432.746 -137665.421 M 118514.208 -139904.165 119380 -140769.957 M 118514.208 -138287.719 118514.208 -139904.165 M 119380 -144300.815 123440.368 -148361.183 M 119380 -140769.957 119380 -144300.815 M 122456.06 -148361.183 121596.031 -149221.212 M 123440.368 -148361.183 122456.06 -148361.183 M 144399 -135509 144399 -136779 M 143129 -134239 144399 -135509 M 144399 -138395.446 144399 -147955 M 144399 -136779 144399 -138395.446 M 144399 -147955 142364 -147955 M 73050.4 -76962 74676 -76962 M 70929.022 -79083.378 73050.4 -76962 M 70927.82 -105545.2 70927.82 -79348.96 M 75190.019 -112067.999 75190.019 -109807.399 M 70927.82 -79348.96 70929.022 -79083.378 M 75190.019 -109807.399 70927.82 -105545.2 M 103124 -131699 100651.002 -131699 M 82431.001 -113478.999 76614.601 -113478.999 76419.602 -113284 76406.02 -113284 M 100651.002 -131699 82431.001 -113478.999 M 76406.02 -113284 75190.019 -112067.999" fill="none" stroke-width="250"/><path d="M 103759 -61595 102235 -60071 M 93305.999 -50712.001 92456 -51562 M 93706.001 -50311.999 93305.999 -50712.001 M 98406.997 -50311.999 93706.001 -50311.999 M 102235 -54140.002 98406.997 -50311.999 M 102235 -60071 102235 -54140.002 M 91206 -94742 92456 -94742 M 91205.999 -111620.999 91925 -112340 M 91205.999 -111620.999 91206 -94742 M 84977 -55753 83566 -54342 M 85979 -55753 84977 -55753 M 80291 -56642 78486 -56642 M 82591 -54342 80291 -56642 M 83566 -54342 82591 -54342 M 103124 -117039 98425 -112340 M 103124 -124079 103124 -117039 M 75926 -82042 74676 -82042 M 75926.001 -85752.001 75926 -82042 M 75806.003 -85871.999 75926.001 -85752.001 M 75846.001 -85871.999 75806.003 -85871.999 M 75926.001 -85951.999 75846.001 -85871.999 M 75926.001 -94741.999 75926.001 -85951.999 M 74676 -94742 75926.001 -94741.999 M 75926 -56642 74676 -56642 M 75926.001 -80672.001 75926 -56642 M 74676 -81922.002 75926.001 -80672.001 M 74676 -82042 74676 -81922.002 M 75926.001 -78331.999 75926.001 -80672.001 M 75926.001 -69342.001 75926.001 -78331.999 M 74676 -69342 75926.001 -69342.001" fill="none" stroke-width="400"/><path d="M 93305.999 -62571.999 92456 -61722" fill="none" stroke-width="250"/><path d="M 101873.999 -116820.001 98845.998 -113792 M 103124 -126619 101873.999 -125368.999 101873.999 -116820.001 M 90524.999 -99975.001 90605.99 -99894.01 M 90524.999 -113012.001 90524.999 -99975.001 M 91252.999 -113740.001 90524.999 -113012.001 M 98845.998 -113792 98793.999 -113740.001 91252.999 -113740.001 M 90524.999 -63653.001 92456 -61722 M 90524.999 -99975.001 90524.999 -63653.001" fill="none" stroke-width="400"/><path d="M 89999.989 -88475.989 78486 -76962 M 89999.989 -114914.989 89999.989 -88475.989 M 91925 -116840 89999.989 -114914.989 M 73473.919 -79502 74676 -79502 M 73130.998 -79502 73473.919 -79502 M 71377.83 -81255.168 73130.998 -79502 M 71377.83 -105358.8 71377.83 -81255.168 M 75640.029 -111881.599 75640.028 -109620.998 M 103124 -129159 98747.412 -129159 82617.401 -113028.989 M 76801.001 -113028.989 76243.212 -112471.2 M 75640.028 -109620.998 71377.83 -105358.8 M 82617.401 -113028.989 76801.001 -113028.989 M 76243.212 -112471.2 76229.63 -112471.2 75640.029 -111881.599 M 103759 -66675 100748 -63664 100748 -55626 M 83367.569 -50749.431 82550 -51567 M 83750.01 -50366.99 83367.569 -50749.431 M 89286.675 -50366.99 83750.01 -50366.99 M 89916 -50996.315 89286.675 -50366.99 M 89916 -51562 89916 -50996.315 M 103759 -64135 101473 -61849 101473 -55245 M 85782.01 -52767.01 85399.569 -52384.569 M 101473 -55245 98995.01 -52767.01 M 85598 -52583 84582 -51567 M 90641.001 -52741.999 90615.99 -52767.01 M 89473.076 -49916.981 90641.001 -51084.906 M 82246.667 -49916.981 89473.076 -49916.981 M 81349.99 -50813.658 82246.667 -49916.981 M 81349.99 -51190.313 81349.99 -50813.658 M 90641.001 -51084.906 90641.001 -52741.999 M 80716.704 -51823.599 81349.99 -51190.313 M 90615.99 -52767.01 85782.01 -52767.01 M 98995.01 -52767.01 90615.99 -52767.01 M 97828.261 -148083.471 97998.409 -147913.323 M 95163.705 -148083.471 97828.261 -148083.471 M 111252 -58039 111252 -59309 M 112522 -56769 111252 -58039 M 113664.999 -74676.001 112522 -75819 M 114262.001 -74078.999 113664.999 -74676.001 M 114262.001 -69749.999 114262.001 -74078.999 M 112743.099 -68231.097 114262.001 -69749.999 M 112743.099 -60800.099 112743.099 -68231.097 M 111252 -59309 112743.099 -60800.099 M 111252 -77089 111252 -78359 M 112522 -75819 111252 -77089 M 113664.999 -93726.001 112522 -94869 M 114262.001 -93128.999 113664.999 -93726.001 M 114262.001 -83530.975 114262.001 -93128.999 M 111252 -80520.974 114262.001 -83530.975 M 111252 -78359 111252 -80520.974 M 111379.001 -97281.999 111252 -97409 M 111379.001 -96011.999 111379.001 -97281.999 M 112522 -94869 111379.001 -96011.999 M 113664.999 -112776.001 112522 -113919 M 114389.001 -112051.999 113664.999 -112776.001 M 114389.001 -102707.975 114389.001 -112051.999 M 111252 -99570.974 114389.001 -102707.975 M 111252 -97409 111252 -99570.974 M 111252 -115189 111252 -116459 M 112522 -113919 111252 -115189 M 111252 -125652.998 108077 -128827.998 M 111252 -116459 111252 -125652.998 M 108077 -137834.732 97998.409 -147913.323 M 108077 -128827.998 108077 -137834.732 M 111252 -80520.974 111252 -83439 M 111608.143 -140363.329 111608.143 -141508.07 M 111685.703 -140285.769 111608.143 -140363.329 M 111685.703 -138669.323 111685.703 -140285.769 M 130302 -55626 130302 -56896 M 131572 -54356 130302 -55626 M 132714.999 -72263.001 131572 -73406 M 133439.001 -71538.999 132714.999 -72263.001 M 133439.001 -67336.999 133439.001 -71538.999 M 130302 -64199.998 133439.001 -67336.999 M 130302 -56896 130302 -64199.998 M 130302 -74676 130302 -75946 M 131572 -73406 130302 -74676 M 132714.999 -91313.001 131572 -92456 M 133312.001 -90715.999 132714.999 -91313.001 M 133312.001 -86386.999 133312.001 -90715.999 M 130302 -83376.998 130302 -83376.998 M 130302 -75946 130302 -83376.998 M 130302 -93726 130302 -94996 M 131572 -92456 130302 -93726 M 132714.999 -110363.001 131572 -111506 M 133312.001 -109765.999 132714.999 -110363.001 M 133312.001 -100167.975 133312.001 -109765.999 M 130302 -97157.974 133312.001 -100167.975 M 130302 -94996 130302 -97157.974 M 130302 -112776 130302 -114046 M 131572 -111506 130302 -112776 M 128688.667 -115188.999 125603 -118274.666 M 130302 -114046 129159.001 -115188.999 128688.667 -115188.999 M 125603 -124752.026 111685.703 -138669.323 M 125603 -118274.666 125603 -124752.026 M 130302 -83376.998 133312.001 -86386.999 M 149479.001 -54228.999 149352 -54356 M 149479.001 -52958.999 149479.001 -54228.999 M 150622 -51816 149479.001 -52958.999 M 151764.999 -69723.001 150622 -70866 M 152362.001 -69125.999 151764.999 -69723.001 M 152362.001 -64796.999 152362.001 -69125.999 M 149352 -61786.998 152362.001 -64796.999 M 149352 -54356 149352 -61786.998 M 149352 -72136 149352 -73406 M 150622 -70866 149352 -72136 M 151764.999 -88773.001 150622 -89916 M 152489.001 -88048.999 151764.999 -88773.001 M 152489.001 -83846.999 152489.001 -88048.999 M 149352 -80709.998 152489.001 -83846.999 M 149352 -73406 149352 -80709.998 M 149352 -91186 149352 -92456 M 150622 -89916 149352 -91186 M 151764.999 -107823.001 150622 -108966 M 152362.001 -107225.999 151764.999 -107823.001 M 152362.001 -102896.999 152362.001 -107225.999 M 149352 -99886.998 152362.001 -102896.999 M 149352 -92456 149352 -99886.998 M 149352 -110236 149352 -111506 M 150622 -108966 149352 -110236 M 136779 -135509 136779 -136779 M 138049 -134239 136779 -135509 M 147735.554 -111506 143764 -115477.554 M 149352 -111506 147735.554 -111506 M 143764 -128524 138049 -134239 M 143764 -115477.554 143764 -128524 M 149352 -80709.998 149352 -82169 M 168402 -55626 168402 -56896 M 169672 -54356 168402 -55626 M 170814.999 -72263.001 169672 -73406 M 171542.001 -71535.999 170814.999 -72263.001 M 171542.001 -67336.999 171542.001 -71535.999 M 169893.099 -65688.097 171542.001 -67336.999 M 169893.099 -58387.099 169893.099 -65688.097 M 168402 -56896 169893.099 -58387.099 M 168402 -74676 168402 -75946 M 169672 -73406 168402 -74676 M 170814.999 -91313.001 169672 -92456 M 171539.001 -90588.999 170814.999 -91313.001 M 171539.001 -86386.999 171539.001 -90588.999 M 168402 -83249.998 171539.001 -86386.999 M 168402 -75946 168402 -83249.998 M 168402 -93726 168402 -94996 M 169672 -92456 168402 -93726 M 170814.999 -110363.001 169672 -111506 M 171539.001 -109638.999 170814.999 -110363.001 M 171539.001 -105436.999 171539.001 -109638.999 M 168402 -102299.998 171539.001 -105436.999 M 168402 -94996 168402 -102299.998 M 168402 -112776 168402 -114046 M 169672 -111506 168402 -112776 M 168402 -93726 168402 -93599 167640 -92837 M 187452 -60833 187452 -62103 M 188722 -59563 187452 -60833 M 189864.999 -77470.001 188722 -78613 M 190462.001 -76872.999 189864.999 -77470.001 M 190462.001 -72543.999 190462.001 -76872.999 M 187452 -69533.998 190462.001 -72543.999 M 187452 -62103 187452 -69533.998 M 189864.999 -96520.001 188722 -97663 M 190589.001 -95795.999 189864.999 -96520.001 M 190589.001 -86451.975 190589.001 -95795.999 M 187452 -83314.974 190589.001 -86451.975 M 187452 -81153 187452 -83314.974 M 187452 -98933 187452 -100203 M 188722 -97663 187452 -98933 M 189864.999 -115570.001 188722 -116713 M 190589.001 -114845.999 189864.999 -115570.001 M 190589.001 -110643.999 190589.001 -114845.999 M 187452 -107506.998 190589.001 -110643.999 M 187452 -100203 187452 -107506.998 M 187452 -117983 187452 -119253 M 188722 -116713 187452 -117983 M 187452 -79883 187452 -81153 M 188722 -78613 187452 -79883 M 187452 -98933 187452 -98679 186690 -97917 M 206502 -60833 206502 -62103 M 207772 -59563 206502 -60833 M 206502 -79883 206502 -81153 M 207772 -78613 206502 -79883 M 208914.999 -77470.001 207772 -78613 M 209512.001 -76872.999 208914.999 -77470.001 M 209512.001 -72543.999 209512.001 -76872.999 M 206502 -69533.998 209512.001 -72543.999 M 206502 -62103 206502 -69533.998 M 208914.999 -96520.001 207772 -97663 M 209512.001 -95922.999 208914.999 -96520.001 M 209512.001 -91593.999 209512.001 -95922.999 M 206502 -88583.998 209512.001 -91593.999 M 206502 -81153 206502 -88583.998 M 208914.999 -115570.001 207772 -116713 M 209512.001 -114972.999 208914.999 -115570.001 M 209512.001 -110643.999 209512.001 -114972.999 M 206502 -107633.998 209512.001 -110643.999 M 206502 -100203 206502 -107633.998 M 206629.001 -100075.999 206502 -100203 M 206629.001 -98805.999 206629.001 -100075.999 M 207772 -97663 206629.001 -98805.999 M 206502 -117983 206502 -119253 M 207772 -116713 206502 -117983 M 206502 -107633.998 203010.998 -107633.998 201168 -105791 M 91846.01 -53492.01 92456 -54102" fill="none" stroke-width="250"/><path d="M 73215 -111304 73215 -117804 M 79736.001 -50961.999 79736.001 -52851.999 78486 -54102 M 71705.999 -50311.999 79086.001 -50311.999 M 69723 -57374.441 69723 -52294.998 M 69601.667 -57495.774 69723 -57374.441 M 69601.667 -57496.331 69601.667 -57495.774 M 73215 -111304 73215 -109847.676 M 69723 -52294.998 71705.999 -50311.999 M 69469 -106101.676 69469 -93726 M 73215 -109847.676 69469 -106101.676 M 69469 -93726 69437.857 -93694.856 69595.758 -58801.573 M 79086.001 -50311.999 79736.001 -50961.999 M 69595.758 -58801.573 69601.667 -57496.331" fill="none" stroke-width="400"/><path d="M 83566 -99592 87376 -99592 M 81915 -114554 80167.939 -116301.061 M 80167.939 -116853.991 78010.59 -119011.34 M 80167.939 -116301.061 80167.939 -116853.991 M 78010.59 -121124 76775.6 -122358.99 M 78010.59 -119011.34 78010.59 -121124 M 74563.6 -122080.798 74841.792 -122358.99 M 73493.8 -122080.798 74563.6 -122080.798 M 74841.792 -122358.99 76775.6 -122358.99 M 74332 -121849.198 74332 -120675.4 M 74563.6 -122080.798 74332 -121849.198 M 78460.6 -121310.4 76962 -122809 M 78460.6 -119197.74 78460.6 -121310.4 M 81415 -117304 80354.34 -117304 78460.6 -119197.74 M 76962 -122809 74218.8 -122809 M 73653.115 -122809 74218.8 -122809 M 73149 -122809 73653.115 -122809 M 72327.6 -121987.6 73149 -122809 M 72327.6 -120675.4 72327.6 -121987.6 M 70013.65 -87412.65 69994.01 -87432.29 69994.01 -105884.21 74290.001 -110180.201 M 70124.317 -68737.483 70124.317 -69347.083 70072.819 -69398.581 M 70013.65 -87412.65 69991.199 -87435.101 M 70024.683 -80035.73 70013.65 -82473.965 70013.65 -87412.65 M 70072.819 -69398.581 70024.683 -80035.73 M 71198.474 -51562 70248.01 -52512.464 M 70124.317 -68737.483 70075.59 -68786.21 M 70248.01 -52512.464 70248.01 -57251.6 M 70124.317 -58018.683 70124.317 -68737.483 M 70248.01 -57251.6 70248.01 -57894.99 70124.317 -58018.683 M 74676 -51562 71198.474 -51562 M 74290.001 -110180.201 74290.001 -118320.001 M 70847.601 -118879.001 70840.6 -118872 M 74290.001 -118320.001 73731.001 -118879.001 70847.601 -118879.001 M 70840.6 -120638.4 70877.6 -120675.4 M 70840.6 -118872 70840.6 -120638.4 M 75782 -119241.4 75782 -120675.4 M 70574.327 -69533.483 70521.986 -69585.824 M 70574.327 -58205.083 70574.327 -69533.483 M 70512.627 -71654.099 70512.627 -78862.473 M 74740.009 -118199.409 75387.2 -118846.6 M 70698.02 -56403.58 70698.019 -58081.391 M 70521.986 -69585.824 70512.627 -71654.099 M 74676 -54102 72999.6 -54102 M 70512.627 -78862.473 70485 -78890.1 M 72999.6 -54102 70698.02 -56403.58 M 70698.019 -58081.391 70574.327 -58205.083 M 70485 -78890.1 70485 -78890.99 70479.855 -78896.135 70463.66 -82475.002 M 74740.009 -109993.799 74740.009 -118199.409 M 70463.66 -82475.002 70463.66 -105717.45 74740.009 -109993.799 M 75387.2 -118846.6 75782 -119241.4 M 97441.001 -55277.001 96266 -54102 M 97376.001 -57817.001 97441.001 -57752.001 M 77375.999 -57817.001 97376.001 -57817.001 M 97441.001 -57752.001 97441.001 -55277.001 M 77310.999 -57752.001 77375.999 -57817.001 M 77310.999 -56736.999 77310.999 -57752.001 M 74676 -54102 77310.999 -56736.999" fill="none" stroke-width="250"/></g></svg>