<svg version="1.1" xmlns="http://www.w3.org/2000/svg" xmlns:xlink="http://www.w3.org/1999/xlink" stroke-linecap="round" stroke-linejoin="round" stroke-width="0" fill-rule="evenodd" width="149.4031375035mm" height="116.43561934239999mm" viewBox="68807.8624965 -165432.6193424 149403.1375035 116435.6193424" id="t7uSFf5gmoQafmOidTd4"><defs><circle cx="0" cy="0" r="150" id="t7uSFf5gmoQafmOidTd4_pad-11"/><circle cx="0" cy="0" r="1143" id="t7uSFf5gmoQafmOidTd4_pad-13"/><rect x="-1750" y="-850" width="3500" height="1700" id="t7uSFf5gmoQafmOidTd4_pad-14"/><rect x="-850" y="-850" width="1700" height="1700" id="t7uSFf5gmoQafmOidTd4_pad-15"/><rect x="-850" y="-1750" width="1700" height="3500" id="t7uSFf5gmoQafmOidTd4_pad-16"/><rect x="-850" y="-850" width="1700" height="1700" rx="850" ry="850" id="t7uSFf5gmoQafmOidTd4_pad-17"/><circle cx="0" cy="0" r="875" id="t7uSFf5gmoQafmOidTd4_pad-18"/><circle cx="0" cy="0" r="1000" id="t7uSFf5gmoQafmOidTd4_pad-19"/><circle cx="0" cy="0" r="650" id="t7uSFf5gmoQafmOidTd4_pad-20"/><circle cx="0" cy="0" r="750" id="t7uSFf5gmoQafmOidTd4_pad-21"/><circle cx="0" cy="0" r="2200" id="t7uSFf5gmoQafmOidTd4_pad-22"/><circle cx="0" cy="0" r="698.5" id="t7uSFf5gmoQafmOidTd4_pad-23"/><rect x="-698.5" y="-698.5" width="1397" height="1397" id="t7uSFf5gmoQafmOidTd4_pad-24"/><rect x="-650" y="-475" width="1300" height="950" id="t7uSFf5gmoQafmOidTd4_pad-25"/><circle cx="0" cy="0" r="475" id="t7uSFf5gmoQafmOidTd4_pad-26"/><circle cx="0" cy="0" r="400" id="t7uSFf5gmoQafmOidTd4_pad-27"/></defs><g transform="translate(0,-214429.6193424) scale(1,-1)" fill="currentColor" stroke="currentColor"><path d="M 69215 -50368.2 A 1346.2 1346.2 0 0 0 70561.2 -49022 M 216662 -49022 A 1524 1524 0 0 0 218186 -50546 M 218185.746 -135102.605 A 1269.9999254 1269.9999254 0 0 0 216916 -136398 M 124826.908 -149436.724 A 1650.9986032 1650.9986032 0 0 0 125349 -149352 M 68995.286 -133967.988 A 1558.6115035 1558.6115035 0 0 0 68834 -133215.703 M 154432 -137414 A 1270 1270 0 0 0 155702 -136144 M 154432 -148590 A 762 762 0 0 0 153670 -149352 M 90302.555 -165239.036 A 1831.6193424 1831.6193424 0 0 0 88011.001 -164591.999 M 68834 -133215.703 69215 -50368.2 M 88011 -164592 68995.287 -133967.987 M 216916 -136398 155702 -136144 M 218186 -50546 218186 -135102.605 M 124826.908 -149436.724 90302.555 -165239.035 M 153670 -149352 125349 -149352 M 154432 -137414 154432 -148590 M 70561.2 -49022 216662 -49022" fill="none" stroke-width="50"/><use xlink:href="#t7uSFf5gmoQafmOidTd4_pad-11" x="74332" y="-120675.4"/><path d="M 73832 -119925.4 74982 -119925.4 74482 -120675.4 74982 -121425.4 73832 -121425.4 73832 -119925.4 73832 -119925.4"/><use xlink:href="#t7uSFf5gmoQafmOidTd4_pad-11" x="75782" y="-120675.4"/><path d="M 74782 -120675.4 75282 -119925.4 76282 -119925.4 76282 -121425.4 75282 -121425.4 74782 -120675.4 74782 -120675.4"/><use xlink:href="#t7uSFf5gmoQafmOidTd4_pad-11" x="70877.6" y="-120675.4"/><path d="M 70377.6 -119925.4 71527.6 -119925.4 71027.6 -120675.4 71527.6 -121425.4 70377.6 -121425.4 70377.6 -119925.4 70377.6 -119925.4"/><use xlink:href="#t7uSFf5gmoQafmOidTd4_pad-11" x="72327.6" y="-120675.4"/><path d="M 71327.6 -120675.4 71827.6 -119925.4 72827.6 -119925.4 72827.6 -121425.4 71827.6 -121425.4 71327.6 -120675.4 71327.6 -120675.4"/><use xlink:href="#t7uSFf5gmoQafmOidTd4_pad-13" x="111252" y="-59309"/><use xlink:href="#t7uSFf5gmoQafmOidTd4_pad-13" x="117602" y="-56769"/><use xlink:href="#t7uSFf5gmoQafmOidTd4_pad-13" x="112522" y="-56769"/><use xlink:href="#t7uSFf5gmoQafmOidTd4_pad-13" x="118872" y="-59309"/><use xlink:href="#t7uSFf5gmoQafmOidTd4_pad-13" x="130302" y="-56896"/><use xlink:href="#t7uSFf5gmoQafmOidTd4_pad-13" x="136652" y="-54356"/><use xlink:href="#t7uSFf5gmoQafmOidTd4_pad-13" x="131572" y="-54356"/><use xlink:href="#t7uSFf5gmoQafmOidTd4_pad-13" x="137922" y="-56896"/><use xlink:href="#t7uSFf5gmoQafmOidTd4_pad-13" x="149352" y="-54356"/><use xlink:href="#t7uSFf5gmoQafmOidTd4_pad-13" x="155702" y="-51816"/><use xlink:href="#t7uSFf5gmoQafmOidTd4_pad-13" x="150622" y="-51816"/><use xlink:href="#t7uSFf5gmoQafmOidTd4_pad-13" x="156972" y="-54356"/><use xlink:href="#t7uSFf5gmoQafmOidTd4_pad-13" x="168402" y="-56896"/><use xlink:href="#t7uSFf5gmoQafmOidTd4_pad-13" x="174752" y="-54356"/><use xlink:href="#t7uSFf5gmoQafmOidTd4_pad-13" x="169672" y="-54356"/><use xlink:href="#t7uSFf5gmoQafmOidTd4_pad-13" x="176022" y="-56896"/><use xlink:href="#t7uSFf5gmoQafmOidTd4_pad-13" x="187452" y="-62103"/><use xlink:href="#t7uSFf5gmoQafmOidTd4_pad-13" x="193802" y="-59563"/><use xlink:href="#t7uSFf5gmoQafmOidTd4_pad-13" x="188722" y="-59563"/><use xlink:href="#t7uSFf5gmoQafmOidTd4_pad-13" x="195072" y="-62103"/><use xlink:href="#t7uSFf5gmoQafmOidTd4_pad-13" x="206502" y="-62103"/><use xlink:href="#t7uSFf5gmoQafmOidTd4_pad-13" x="212852" y="-59563"/><use xlink:href="#t7uSFf5gmoQafmOidTd4_pad-13" x="207772" y="-59563"/><use xlink:href="#t7uSFf5gmoQafmOidTd4_pad-13" x="214122" y="-62103"/><use xlink:href="#t7uSFf5gmoQafmOidTd4_pad-13" x="111252" y="-78359"/><use xlink:href="#t7uSFf5gmoQafmOidTd4_pad-13" x="117602" y="-75819"/><use xlink:href="#t7uSFf5gmoQafmOidTd4_pad-13" x="112522" y="-75819"/><use xlink:href="#t7uSFf5gmoQafmOidTd4_pad-13" x="118872" y="-78359"/><use xlink:href="#t7uSFf5gmoQafmOidTd4_pad-13" x="130302" y="-75946"/><use xlink:href="#t7uSFf5gmoQafmOidTd4_pad-13" x="136652" y="-73406"/><use xlink:href="#t7uSFf5gmoQafmOidTd4_pad-13" x="131572" y="-73406"/><use xlink:href="#t7uSFf5gmoQafmOidTd4_pad-13" x="137922" y="-75946"/><use xlink:href="#t7uSFf5gmoQafmOidTd4_pad-13" x="149352" y="-73406"/><use xlink:href="#t7uSFf5gmoQafmOidTd4_pad-13" x="155702" y="-70866"/><use xlink:href="#t7uSFf5gmoQafmOidTd4_pad-13" x="150622" y="-70866"/><use xlink:href="#t7uSFf5gmoQafmOidTd4_pad-13" x="156972" y="-73406"/><use xlink:href="#t7uSFf5gmoQafmOidTd4_pad-13" x="168402" y="-75946"/><use xlink:href="#t7uSFf5gmoQafmOidTd4_pad-13" x="174752" y="-73406"/><use xlink:href="#t7uSFf5gmoQafmOidTd4_pad-13" x="169672" y="-73406"/><use xlink:href="#t7uSFf5gmoQafmOidTd4_pad-13" x="176022" y="-75946"/><use xlink:href="#t7uSFf5gmoQafmOidTd4_pad-13" x="187452" y="-81153"/><use xlink:href="#t7uSFf5gmoQafmOidTd4_pad-13" x="193802" y="-78613"/><use xlink:href="#t7uSFf5gmoQafmOidTd4_pad-13" x="188722" y="-78613"/><use xlink:href="#t7uSFf5gmoQafmOidTd4_pad-13" x="195072" y="-81153"/><use xlink:href="#t7uSFf5gmoQafmOidTd4_pad-13" x="206502" y="-81153"/><use xlink:href="#t7uSFf5gmoQafmOidTd4_pad-13" x="212852" y="-78613"/><use xlink:href="#t7uSFf5gmoQafmOidTd4_pad-13" x="207772" y="-78613"/><use xlink:href="#t7uSFf5gmoQafmOidTd4_pad-13" x="214122" y="-81153"/><use xlink:href="#t7uSFf5gmoQafmOidTd4_pad-13" x="111252" y="-97409"/><use xlink:href="#t7uSFf5gmoQafmOidTd4_pad-13" x="117602" y="-94869"/><use xlink:href="#t7uSFf5gmoQafmOidTd4_pad-13" x="112522" y="-94869"/><use xlink:href="#t7uSFf5gmoQafmOidTd4_pad-13" x="118872" y="-97409"/><use xlink:href="#t7uSFf5gmoQafmOidTd4_pad-13" x="130302" y="-94996"/><use xlink:href="#t7uSFf5gmoQafmOidTd4_pad-13" x="136652" y="-92456"/><use xlink:href="#t7uSFf5gmoQafmOidTd4_pad-13" x="131572" y="-92456"/><use xlink:href="#t7uSFf5gmoQafmOidTd4_pad-13" x="137922" y="-94996"/><use xlink:href="#t7uSFf5gmoQafmOidTd4_pad-13" x="149352" y="-92456"/><use xlink:href="#t7uSFf5gmoQafmOidTd4_pad-13" x="155702" y="-89916"/><use xlink:href="#t7uSFf5gmoQafmOidTd4_pad-13" x="150622" y="-89916"/><use xlink:href="#t7uSFf5gmoQafmOidTd4_pad-13" x="156972" y="-92456"/><use xlink:href="#t7uSFf5gmoQafmOidTd4_pad-13" x="168402" y="-94996"/><use xlink:href="#t7uSFf5gmoQafmOidTd4_pad-13" x="174752" y="-92456"/><use xlink:href="#t7uSFf5gmoQafmOidTd4_pad-13" x="169672" y="-92456"/><use xlink:href="#t7uSFf5gmoQafmOidTd4_pad-13" x="176022" y="-94996"/><use xlink:href="#t7uSFf5gmoQafmOidTd4_pad-13" x="187452" y="-100203"/><use xlink:href="#t7uSFf5gmoQafmOidTd4_pad-13" x="193802" y="-97663"/><use xlink:href="#t7uSFf5gmoQafmOidTd4_pad-13" x="188722" y="-97663"/><use xlink:href="#t7uSFf5gmoQafmOidTd4_pad-13" x="195072" y="-100203"/><use xlink:href="#t7uSFf5gmoQafmOidTd4_pad-13" x="206502" y="-100203"/><use xlink:href="#t7uSFf5gmoQafmOidTd4_pad-13" x="212852" y="-97663"/><use xlink:href="#t7uSFf5gmoQafmOidTd4_pad-13" x="207772" y="-97663"/><use xlink:href="#t7uSFf5gmoQafmOidTd4_pad-13" x="214122" y="-100203"/><use xlink:href="#t7uSFf5gmoQafmOidTd4_pad-13" x="111252" y="-116459"/><use xlink:href="#t7uSFf5gmoQafmOidTd4_pad-13" x="117602" y="-113919"/><use xlink:href="#t7uSFf5gmoQafmOidTd4_pad-13" x="112522" y="-113919"/><use xlink:href="#t7uSFf5gmoQafmOidTd4_pad-13" x="118872" y="-116459"/><use xlink:href="#t7uSFf5gmoQafmOidTd4_pad-13" x="130302" y="-114046"/><use xlink:href="#t7uSFf5gmoQafmOidTd4_pad-13" x="136652" y="-111506"/><use xlink:href="#t7uSFf5gmoQafmOidTd4_pad-13" x="131572" y="-111506"/><use xlink:href="#t7uSFf5gmoQafmOidTd4_pad-13" x="137922" y="-114046"/><use xlink:href="#t7uSFf5gmoQafmOidTd4_pad-13" x="149352" y="-111506"/><use xlink:href="#t7uSFf5gmoQafmOidTd4_pad-13" x="155702" y="-108966"/><use xlink:href="#t7uSFf5gmoQafmOidTd4_pad-13" x="150622" y="-108966"/><use xlink:href="#t7uSFf5gmoQafmOidTd4_pad-13" x="156972" y="-111506"/><use xlink:href="#t7uSFf5gmoQafmOidTd4_pad-13" x="168402" y="-114046"/><use xlink:href="#t7uSFf5gmoQafmOidTd4_pad-13" x="174752" y="-111506"/><use xlink:href="#t7uSFf5gmoQafmOidTd4_pad-13" x="169672" y="-111506"/><use xlink:href="#t7uSFf5gmoQafmOidTd4_pad-13" x="176022" y="-114046"/><use xlink:href="#t7uSFf5gmoQafmOidTd4_pad-13" x="187452" y="-119253"/><use xlink:href="#t7uSFf5gmoQafmOidTd4_pad-13" x="193802" y="-116713"/><use xlink:href="#t7uSFf5gmoQafmOidTd4_pad-13" x="188722" y="-116713"/><use xlink:href="#t7uSFf5gmoQafmOidTd4_pad-13" x="195072" y="-119253"/><use xlink:href="#t7uSFf5gmoQafmOidTd4_pad-13" x="206502" y="-119253"/><use xlink:href="#t7uSFf5gmoQafmOidTd4_pad-13" x="212852" y="-116713"/><use xlink:href="#t7uSFf5gmoQafmOidTd4_pad-13" x="207772" y="-116713"/><use xlink:href="#t7uSFf5gmoQafmOidTd4_pad-13" x="214122" y="-119253"/><use xlink:href="#t7uSFf5gmoQafmOidTd4_pad-13" x="95163.705" y="-148083.471"/><use xlink:href="#t7uSFf5gmoQafmOidTd4_pad-13" x="100538.409" y="-152312.733"/><use xlink:href="#t7uSFf5gmoQafmOidTd4_pad-13" x="97998.409" y="-147913.323"/><use xlink:href="#t7uSFf5gmoQafmOidTd4_pad-13" x="98973.705" y="-154682.585"/><use xlink:href="#t7uSFf5gmoQafmOidTd4_pad-13" x="111608.143" y="-141508.07"/><use xlink:href="#t7uSFf5gmoQafmOidTd4_pad-13" x="116289.747" y="-136522.422"/><use xlink:href="#t7uSFf5gmoQafmOidTd4_pad-13" x="111685.703" y="-138669.323"/><use xlink:href="#t7uSFf5gmoQafmOidTd4_pad-13" x="118514.208" y="-138287.719"/><use xlink:href="#t7uSFf5gmoQafmOidTd4_pad-13" x="136779" y="-136779"/><use xlink:href="#t7uSFf5gmoQafmOidTd4_pad-13" x="143129" y="-134239"/><use xlink:href="#t7uSFf5gmoQafmOidTd4_pad-13" x="138049" y="-134239"/><use xlink:href="#t7uSFf5gmoQafmOidTd4_pad-13" x="144399" y="-136779"/><use xlink:href="#t7uSFf5gmoQafmOidTd4_pad-14" x="77586" y="-61722"/><use xlink:href="#t7uSFf5gmoQafmOidTd4_pad-14" x="77586" y="-99822"/><use xlink:href="#t7uSFf5gmoQafmOidTd4_pad-14" x="97166" y="-84582"/><use xlink:href="#t7uSFf5gmoQafmOidTd4_pad-14" x="97166" y="-82042"/><use xlink:href="#t7uSFf5gmoQafmOidTd4_pad-14" x="97166" y="-79502"/><use xlink:href="#t7uSFf5gmoQafmOidTd4_pad-14" x="97166" y="-76962"/><use xlink:href="#t7uSFf5gmoQafmOidTd4_pad-14" x="77586" y="-97282"/><use xlink:href="#t7uSFf5gmoQafmOidTd4_pad-14" x="77586" y="-82042"/><use xlink:href="#t7uSFf5gmoQafmOidTd4_pad-14" x="77586" y="-56642"/><use xlink:href="#t7uSFf5gmoQafmOidTd4_pad-14" x="97166" y="-99822"/><use xlink:href="#t7uSFf5gmoQafmOidTd4_pad-14" x="97166" y="-74422"/><use xlink:href="#t7uSFf5gmoQafmOidTd4_pad-14" x="77586" y="-66802"/><use xlink:href="#t7uSFf5gmoQafmOidTd4_pad-14" x="77586" y="-59182"/><use xlink:href="#t7uSFf5gmoQafmOidTd4_pad-14" x="97166" y="-71882"/><use xlink:href="#t7uSFf5gmoQafmOidTd4_pad-14" x="77586" y="-89662"/><use xlink:href="#t7uSFf5gmoQafmOidTd4_pad-15" x="87376" y="-99592"/><use xlink:href="#t7uSFf5gmoQafmOidTd4_pad-14" x="77586" y="-69342"/><use xlink:href="#t7uSFf5gmoQafmOidTd4_pad-14" x="97166" y="-66802"/><use xlink:href="#t7uSFf5gmoQafmOidTd4_pad-14" x="97166" y="-64262"/><use xlink:href="#t7uSFf5gmoQafmOidTd4_pad-14" x="77586" y="-51562"/><use xlink:href="#t7uSFf5gmoQafmOidTd4_pad-14" x="97166" y="-61722"/><use xlink:href="#t7uSFf5gmoQafmOidTd4_pad-14" x="97166" y="-59182"/><use xlink:href="#t7uSFf5gmoQafmOidTd4_pad-14" x="77586" y="-94742"/><use xlink:href="#t7uSFf5gmoQafmOidTd4_pad-14" x="97166" y="-56642"/><use xlink:href="#t7uSFf5gmoQafmOidTd4_pad-14" x="97166" y="-89662"/><use xlink:href="#t7uSFf5gmoQafmOidTd4_pad-14" x="77586" y="-64262"/><use xlink:href="#t7uSFf5gmoQafmOidTd4_pad-14" x="77586" y="-92202"/><use xlink:href="#t7uSFf5gmoQafmOidTd4_pad-14" x="97166" y="-97282"/><use xlink:href="#t7uSFf5gmoQafmOidTd4_pad-14" x="97166" y="-94742"/><use xlink:href="#t7uSFf5gmoQafmOidTd4_pad-14" x="77586" y="-79502"/><use xlink:href="#t7uSFf5gmoQafmOidTd4_pad-14" x="77586" y="-87122"/><use xlink:href="#t7uSFf5gmoQafmOidTd4_pad-14" x="97166" y="-87122"/><use xlink:href="#t7uSFf5gmoQafmOidTd4_pad-14" x="97166" y="-69342"/><use xlink:href="#t7uSFf5gmoQafmOidTd4_pad-14" x="97166" y="-54102"/><use xlink:href="#t7uSFf5gmoQafmOidTd4_pad-14" x="97166" y="-51562"/><use xlink:href="#t7uSFf5gmoQafmOidTd4_pad-16" x="87376" y="-100492"/><use xlink:href="#t7uSFf5gmoQafmOidTd4_pad-17" x="78486" y="-51562"/><use xlink:href="#t7uSFf5gmoQafmOidTd4_pad-14" x="77586" y="-54102"/><use xlink:href="#t7uSFf5gmoQafmOidTd4_pad-14" x="77586" y="-76962"/><use xlink:href="#t7uSFf5gmoQafmOidTd4_pad-17" x="78486" y="-54102"/><use xlink:href="#t7uSFf5gmoQafmOidTd4_pad-15" x="78486" y="-56642"/><use xlink:href="#t7uSFf5gmoQafmOidTd4_pad-14" x="77586" y="-74422"/><use xlink:href="#t7uSFf5gmoQafmOidTd4_pad-14" x="77586" y="-71882"/><use xlink:href="#t7uSFf5gmoQafmOidTd4_pad-14" x="97166" y="-92202"/><use xlink:href="#t7uSFf5gmoQafmOidTd4_pad-14" x="77586" y="-84582"/><use xlink:href="#t7uSFf5gmoQafmOidTd4_pad-17" x="78486" y="-97282"/><use xlink:href="#t7uSFf5gmoQafmOidTd4_pad-17" x="96266" y="-54102"/><use xlink:href="#t7uSFf5gmoQafmOidTd4_pad-17" x="78486" y="-59182"/><use xlink:href="#t7uSFf5gmoQafmOidTd4_pad-17" x="78486" y="-64262"/><use xlink:href="#t7uSFf5gmoQafmOidTd4_pad-15" x="78486" y="-69342"/><use xlink:href="#t7uSFf5gmoQafmOidTd4_pad-15" x="78486" y="-94742"/><use xlink:href="#t7uSFf5gmoQafmOidTd4_pad-17" x="96266" y="-66802"/><use xlink:href="#t7uSFf5gmoQafmOidTd4_pad-17" x="78486" y="-79502"/><use xlink:href="#t7uSFf5gmoQafmOidTd4_pad-15" x="96266" y="-56642"/><use xlink:href="#t7uSFf5gmoQafmOidTd4_pad-17" x="96266" y="-64262"/><use xlink:href="#t7uSFf5gmoQafmOidTd4_pad-17" x="78486" y="-87122"/><path d="M 88872.382 -50694.107 88914.852 -50700.406 88956.5 -50710.839 88996.924 -50725.303 89035.736 -50743.659 89072.562 -50765.732 89107.047 -50791.308 89138.859 -50820.141 89167.692 -50851.953 89193.268 -50886.438 89215.341 -50923.264 89233.697 -50962.076 89248.161 -51002.5 89258.594 -51044.148 89264.893 -51086.618 89267 -51129.5 89267 -52004.5 89264.893 -52047.382 89258.594 -52089.852 89248.161 -52131.5 89233.697 -52171.924 89215.341 -52210.736 89193.268 -52247.562 89167.692 -52282.047 89138.859 -52313.859 89107.047 -52342.692 89072.562 -52368.268 89035.736 -52390.341 88996.924 -52408.697 88956.5 -52423.161 88914.852 -52433.594 88872.382 -52439.893 88829.5 -52442 87954.5 -52442 87911.618 -52439.893 87869.148 -52433.594 87827.5 -52423.161 87787.076 -52408.697 87748.264 -52390.341 87711.438 -52368.268 87676.953 -52342.692 87645.141 -52313.859 87616.308 -52282.047 87590.732 -52247.562 87568.659 -52210.736 87550.303 -52171.924 87535.839 -52131.5 87525.406 -52089.852 87519.107 -52047.382 87517 -52004.5 87517 -51129.5 87519.107 -51086.618 87525.406 -51044.148 87535.839 -51002.5 87550.303 -50962.076 87568.659 -50923.264 87590.732 -50886.438 87616.308 -50851.953 87645.141 -50820.141 87676.953 -50791.308 87711.438 -50765.732 87748.264 -50743.659 87787.076 -50725.303 87827.5 -50710.839 87869.148 -50700.406 87911.618 -50694.107 87954.5 -50692 88829.5 -50692 88872.382 -50694.107 88872.382 -50694.107"/><use xlink:href="#t7uSFf5gmoQafmOidTd4_pad-18" x="88392" y="-51567"/><path d="M 86840.382 -50694.107 86882.852 -50700.406 86924.5 -50710.839 86964.924 -50725.303 87003.736 -50743.659 87040.562 -50765.732 87075.047 -50791.308 87106.859 -50820.141 87135.692 -50851.953 87161.268 -50886.438 87183.341 -50923.264 87201.697 -50962.076 87216.161 -51002.5 87226.594 -51044.148 87232.893 -51086.618 87235 -51129.5 87235 -52004.5 87232.893 -52047.382 87226.594 -52089.852 87216.161 -52131.5 87201.697 -52171.924 87183.341 -52210.736 87161.268 -52247.562 87135.692 -52282.047 87106.859 -52313.859 87075.047 -52342.692 87040.562 -52368.268 87003.736 -52390.341 86964.924 -52408.697 86924.5 -52423.161 86882.852 -52433.594 86840.382 -52439.893 86797.5 -52442 85922.5 -52442 85879.618 -52439.893 85837.148 -52433.594 85795.5 -52423.161 85755.076 -52408.697 85716.264 -52390.341 85679.438 -52368.268 85644.953 -52342.692 85613.141 -52313.859 85584.308 -52282.047 85558.732 -52247.562 85536.659 -52210.736 85518.303 -52171.924 85503.839 -52131.5 85493.406 -52089.852 85487.107 -52047.382 85485 -52004.5 85485 -51129.5 85487.107 -51086.618 85493.406 -51044.148 85503.839 -51002.5 85518.303 -50962.076 85536.659 -50923.264 85558.732 -50886.438 85584.308 -50851.953 85613.141 -50820.141 85644.953 -50791.308 85679.438 -50765.732 85716.264 -50743.659 85755.076 -50725.303 85795.5 -50710.839 85837.148 -50700.406 85879.618 -50694.107 85922.5 -50692 86797.5 -50692 86840.382 -50694.107 86840.382 -50694.107"/><use xlink:href="#t7uSFf5gmoQafmOidTd4_pad-18" x="86360" y="-51567"/><use xlink:href="#t7uSFf5gmoQafmOidTd4_pad-17" x="96266" y="-59182"/><use xlink:href="#t7uSFf5gmoQafmOidTd4_pad-17" x="96266" y="-76962"/><use xlink:href="#t7uSFf5gmoQafmOidTd4_pad-17" x="96266" y="-87122"/><use xlink:href="#t7uSFf5gmoQafmOidTd4_pad-17" x="78486" y="-89662"/><use xlink:href="#t7uSFf5gmoQafmOidTd4_pad-17" x="78486" y="-71882"/><use xlink:href="#t7uSFf5gmoQafmOidTd4_pad-17" x="78486" y="-99822"/><use xlink:href="#t7uSFf5gmoQafmOidTd4_pad-17" x="96266" y="-74422"/><use xlink:href="#t7uSFf5gmoQafmOidTd4_pad-17" x="78486" y="-74422"/><use xlink:href="#t7uSFf5gmoQafmOidTd4_pad-17" x="78486" y="-76962"/><use xlink:href="#t7uSFf5gmoQafmOidTd4_pad-15" x="78486" y="-82042"/><use xlink:href="#t7uSFf5gmoQafmOidTd4_pad-17" x="96266" y="-84582"/><use xlink:href="#t7uSFf5gmoQafmOidTd4_pad-17" x="96266" y="-89662"/><use xlink:href="#t7uSFf5gmoQafmOidTd4_pad-17" x="78486" y="-66802"/><use xlink:href="#t7uSFf5gmoQafmOidTd4_pad-15" x="96266" y="-82042"/><use xlink:href="#t7uSFf5gmoQafmOidTd4_pad-17" x="96266" y="-99822"/><use xlink:href="#t7uSFf5gmoQafmOidTd4_pad-17" x="96266" y="-79502"/><use xlink:href="#t7uSFf5gmoQafmOidTd4_pad-17" x="96266" y="-71882"/><use xlink:href="#t7uSFf5gmoQafmOidTd4_pad-17" x="96266" y="-61722"/><use xlink:href="#t7uSFf5gmoQafmOidTd4_pad-15" x="96266" y="-69342"/><use xlink:href="#t7uSFf5gmoQafmOidTd4_pad-15" x="96266" y="-94742"/><use xlink:href="#t7uSFf5gmoQafmOidTd4_pad-17" x="96266" y="-51562"/><use xlink:href="#t7uSFf5gmoQafmOidTd4_pad-17" x="96266" y="-92202"/><use xlink:href="#t7uSFf5gmoQafmOidTd4_pad-17" x="78486" y="-84582"/><use xlink:href="#t7uSFf5gmoQafmOidTd4_pad-17" x="96266" y="-97282"/><path d="M 87856.382 -53469.107 87898.852 -53475.406 87940.5 -53485.839 87980.924 -53500.303 88019.736 -53518.659 88056.562 -53540.732 88091.047 -53566.308 88122.859 -53595.141 88151.692 -53626.953 88177.268 -53661.438 88199.341 -53698.264 88217.697 -53737.076 88232.161 -53777.5 88242.594 -53819.148 88248.893 -53861.618 88251 -53904.5 88251 -54779.5 88248.893 -54822.382 88242.594 -54864.852 88232.161 -54906.5 88217.697 -54946.924 88199.341 -54985.736 88177.268 -55022.562 88151.692 -55057.047 88122.859 -55088.859 88091.047 -55117.692 88056.562 -55143.268 88019.736 -55165.341 87980.924 -55183.697 87940.5 -55198.161 87898.852 -55208.594 87856.382 -55214.893 87813.5 -55217 86938.5 -55217 86895.618 -55214.893 86853.148 -55208.594 86811.5 -55198.161 86771.076 -55183.697 86732.264 -55165.341 86695.438 -55143.268 86660.953 -55117.692 86629.141 -55088.859 86600.308 -55057.047 86574.732 -55022.562 86552.659 -54985.736 86534.303 -54946.924 86519.839 -54906.5 86509.406 -54864.852 86503.107 -54822.382 86501 -54779.5 86501 -53904.5 86503.107 -53861.618 86509.406 -53819.148 86519.839 -53777.5 86534.303 -53737.076 86552.659 -53698.264 86574.732 -53661.438 86600.308 -53626.953 86629.141 -53595.141 86660.953 -53566.308 86695.438 -53540.732 86732.264 -53518.659 86771.076 -53500.303 86811.5 -53485.839 86853.148 -53475.406 86895.618 -53469.107 86938.5 -53467 87813.5 -53467 87856.382 -53469.107 87856.382 -53469.107"/><use xlink:href="#t7uSFf5gmoQafmOidTd4_pad-18" x="87376" y="-54342"/><use xlink:href="#t7uSFf5gmoQafmOidTd4_pad-17" x="78486" y="-61722"/><use xlink:href="#t7uSFf5gmoQafmOidTd4_pad-17" x="78486" y="-92202"/><use xlink:href="#t7uSFf5gmoQafmOidTd4_pad-17" x="74676" y="-51562"/><use xlink:href="#t7uSFf5gmoQafmOidTd4_pad-17" x="74676" y="-54102"/><use xlink:href="#t7uSFf5gmoQafmOidTd4_pad-15" x="74676" y="-56642"/><use xlink:href="#t7uSFf5gmoQafmOidTd4_pad-17" x="74676" y="-59182"/><use xlink:href="#t7uSFf5gmoQafmOidTd4_pad-17" x="74676" y="-61722"/><use xlink:href="#t7uSFf5gmoQafmOidTd4_pad-17" x="74676" y="-64262"/><use xlink:href="#t7uSFf5gmoQafmOidTd4_pad-17" x="74676" y="-66802"/><use xlink:href="#t7uSFf5gmoQafmOidTd4_pad-15" x="74676" y="-69342"/><use xlink:href="#t7uSFf5gmoQafmOidTd4_pad-17" x="74676" y="-71882"/><use xlink:href="#t7uSFf5gmoQafmOidTd4_pad-17" x="74676" y="-74422"/><use xlink:href="#t7uSFf5gmoQafmOidTd4_pad-17" x="74676" y="-76962"/><use xlink:href="#t7uSFf5gmoQafmOidTd4_pad-17" x="74676" y="-79502"/><use xlink:href="#t7uSFf5gmoQafmOidTd4_pad-15" x="74676" y="-82042"/><use xlink:href="#t7uSFf5gmoQafmOidTd4_pad-17" x="74676" y="-84582"/><use xlink:href="#t7uSFf5gmoQafmOidTd4_pad-17" x="74676" y="-87122"/><use xlink:href="#t7uSFf5gmoQafmOidTd4_pad-17" x="74676" y="-89662"/><use xlink:href="#t7uSFf5gmoQafmOidTd4_pad-17" x="74676" y="-92202"/><use xlink:href="#t7uSFf5gmoQafmOidTd4_pad-15" x="74676" y="-94742"/><use xlink:href="#t7uSFf5gmoQafmOidTd4_pad-17" x="74676" y="-97282"/><use xlink:href="#t7uSFf5gmoQafmOidTd4_pad-17" x="74676" y="-99822"/><use xlink:href="#t7uSFf5gmoQafmOidTd4_pad-17" x="92456" y="-99822"/><use xlink:href="#t7uSFf5gmoQafmOidTd4_pad-17" x="92456" y="-97282"/><use xlink:href="#t7uSFf5gmoQafmOidTd4_pad-15" x="92456" y="-94742"/><use xlink:href="#t7uSFf5gmoQafmOidTd4_pad-17" x="92456" y="-92202"/><use xlink:href="#t7uSFf5gmoQafmOidTd4_pad-17" x="92456" y="-89662"/><use xlink:href="#t7uSFf5gmoQafmOidTd4_pad-17" x="92456" y="-87122"/><use xlink:href="#t7uSFf5gmoQafmOidTd4_pad-17" x="92456" y="-84582"/><use xlink:href="#t7uSFf5gmoQafmOidTd4_pad-15" x="92456" y="-82042"/><use xlink:href="#t7uSFf5gmoQafmOidTd4_pad-17" x="92456" y="-79502"/><use xlink:href="#t7uSFf5gmoQafmOidTd4_pad-17" x="92456" y="-76962"/><use xlink:href="#t7uSFf5gmoQafmOidTd4_pad-17" x="92456" y="-74422"/><use xlink:href="#t7uSFf5gmoQafmOidTd4_pad-17" x="92456" y="-71882"/><use xlink:href="#t7uSFf5gmoQafmOidTd4_pad-15" x="92456" y="-69342"/><use xlink:href="#t7uSFf5gmoQafmOidTd4_pad-17" x="92456" y="-66802"/><use xlink:href="#t7uSFf5gmoQafmOidTd4_pad-17" x="92456" y="-64262"/><use xlink:href="#t7uSFf5gmoQafmOidTd4_pad-17" x="92456" y="-61722"/><use xlink:href="#t7uSFf5gmoQafmOidTd4_pad-17" x="92456" y="-59182"/><use xlink:href="#t7uSFf5gmoQafmOidTd4_pad-15" x="92456" y="-56642"/><use xlink:href="#t7uSFf5gmoQafmOidTd4_pad-17" x="92456" y="-54102"/><use xlink:href="#t7uSFf5gmoQafmOidTd4_pad-17" x="92456" y="-51562"/><use xlink:href="#t7uSFf5gmoQafmOidTd4_pad-15" x="83566" y="-99592"/><use xlink:href="#t7uSFf5gmoQafmOidTd4_pad-17" x="103759" y="-66675"/><use xlink:href="#t7uSFf5gmoQafmOidTd4_pad-17" x="103759" y="-64135"/><use xlink:href="#t7uSFf5gmoQafmOidTd4_pad-17" x="103759" y="-61595"/><use xlink:href="#t7uSFf5gmoQafmOidTd4_pad-15" x="103759" y="-59055"/><use xlink:href="#t7uSFf5gmoQafmOidTd4_pad-19" x="91925" y="-116840"/><use xlink:href="#t7uSFf5gmoQafmOidTd4_pad-19" x="91925" y="-112340"/><use xlink:href="#t7uSFf5gmoQafmOidTd4_pad-19" x="98425" y="-116840"/><use xlink:href="#t7uSFf5gmoQafmOidTd4_pad-19" x="98425" y="-112340"/><use xlink:href="#t7uSFf5gmoQafmOidTd4_pad-17" x="103124" y="-131699"/><use xlink:href="#t7uSFf5gmoQafmOidTd4_pad-17" x="103124" y="-129159"/><use xlink:href="#t7uSFf5gmoQafmOidTd4_pad-17" x="103124" y="-126619"/><use xlink:href="#t7uSFf5gmoQafmOidTd4_pad-15" x="103124" y="-124079"/><use xlink:href="#t7uSFf5gmoQafmOidTd4_pad-20" x="78915" y="-114554"/><use xlink:href="#t7uSFf5gmoQafmOidTd4_pad-21" x="73215" y="-117804"/><use xlink:href="#t7uSFf5gmoQafmOidTd4_pad-21" x="73215" y="-111304"/><use xlink:href="#t7uSFf5gmoQafmOidTd4_pad-21" x="81915" y="-114554"/><use xlink:href="#t7uSFf5gmoQafmOidTd4_pad-21" x="81415" y="-117304"/><use xlink:href="#t7uSFf5gmoQafmOidTd4_pad-21" x="81415" y="-111804"/><use xlink:href="#t7uSFf5gmoQafmOidTd4_pad-20" x="71915" y="-114554"/><use xlink:href="#t7uSFf5gmoQafmOidTd4_pad-22" x="212648.8" y="-52984.4"/><use xlink:href="#t7uSFf5gmoQafmOidTd4_pad-22" x="127127" y="-134493"/><use xlink:href="#t7uSFf5gmoQafmOidTd4_pad-22" x="162179" y="-104521"/><use xlink:href="#t7uSFf5gmoQafmOidTd4_pad-22" x="200914" y="-133096"/><use xlink:href="#t7uSFf5gmoQafmOidTd4_pad-22" x="79756" y="-139192"/><use xlink:href="#t7uSFf5gmoQafmOidTd4_pad-22" x="104394" y="-52451"/><use xlink:href="#t7uSFf5gmoQafmOidTd4_pad-23" x="144399" y="-147955"/><use xlink:href="#t7uSFf5gmoQafmOidTd4_pad-24" x="136779" y="-147955"/><use xlink:href="#t7uSFf5gmoQafmOidTd4_pad-25" x="138814" y="-147955"/><use xlink:href="#t7uSFf5gmoQafmOidTd4_pad-25" x="142364" y="-147955"/><use xlink:href="#t7uSFf5gmoQafmOidTd4_pad-23" x="123440.368" y="-148361.183"/><use xlink:href="#t7uSFf5gmoQafmOidTd4_pad-23" x="116534.302" y="-151581.535"/><path d="M 116196.445 -152509.79 115606.047 -151243.678 116872.159 -150653.28 117462.557 -151919.392 116196.445 -152509.79 116196.445 -152509.79"/><use xlink:href="#t7uSFf5gmoQafmOidTd4_pad-26" x="118378.639" y="-150721.506"/><path d="M 117990.283 -151426.704 117588.795 -150565.712 118766.995 -150016.308 119168.483 -150877.3 117990.283 -151426.704 117990.283 -151426.704"/><use xlink:href="#t7uSFf5gmoQafmOidTd4_pad-26" x="121596.031" y="-149221.212"/><path d="M 121207.675 -149926.41 120806.187 -149065.418 121984.387 -148516.014 122385.875 -149377.006 121207.675 -149926.41 121207.675 -149926.41"/><use xlink:href="#t7uSFf5gmoQafmOidTd4_pad-23" x="89274.834" y="-160386.719"/><use xlink:href="#t7uSFf5gmoQafmOidTd4_pad-23" x="85464.834" y="-153787.605"/><path d="M 84510.665 -153531.936 85720.503 -152833.436 86419.003 -154043.274 85209.165 -154741.774 84510.665 -153531.936 84510.665 -153531.936"/><use xlink:href="#t7uSFf5gmoQafmOidTd4_pad-26" x="86482.334" y="-155549.967"/><path d="M 85745.972 -155224.55 86568.696 -154749.55 87218.696 -155875.384 86395.972 -156350.384 85745.972 -155224.55 85745.972 -155224.55"/><use xlink:href="#t7uSFf5gmoQafmOidTd4_pad-26" x="88257.334" y="-158624.357"/><path d="M 87520.972 -158298.94 88343.696 -157823.94 88993.696 -158949.774 88170.972 -159424.774 87520.972 -158298.94 87520.972 -158298.94"/><use xlink:href="#t7uSFf5gmoQafmOidTd4_pad-23" x="214122" y="-130429"/><use xlink:href="#t7uSFf5gmoQafmOidTd4_pad-24" x="206502" y="-130429"/><use xlink:href="#t7uSFf5gmoQafmOidTd4_pad-25" x="208537" y="-130429"/><use xlink:href="#t7uSFf5gmoQafmOidTd4_pad-25" x="212087" y="-130429"/><use xlink:href="#t7uSFf5gmoQafmOidTd4_pad-23" x="195072" y="-130429"/><use xlink:href="#t7uSFf5gmoQafmOidTd4_pad-24" x="187452" y="-130429"/><use xlink:href="#t7uSFf5gmoQafmOidTd4_pad-25" x="189487" y="-130429"/><use xlink:href="#t7uSFf5gmoQafmOidTd4_pad-25" x="193037" y="-130429"/><use xlink:href="#t7uSFf5gmoQafmOidTd4_pad-23" x="176146" y="-125222"/><use xlink:href="#t7uSFf5gmoQafmOidTd4_pad-24" x="168526" y="-125222"/><use xlink:href="#t7uSFf5gmoQafmOidTd4_pad-25" x="170561" y="-125222"/><use xlink:href="#t7uSFf5gmoQafmOidTd4_pad-25" x="174111" y="-125222"/><use xlink:href="#t7uSFf5gmoQafmOidTd4_pad-23" x="156972" y="-122682"/><use xlink:href="#t7uSFf5gmoQafmOidTd4_pad-24" x="149352" y="-122682"/><use xlink:href="#t7uSFf5gmoQafmOidTd4_pad-25" x="151387" y="-122682"/><use xlink:href="#t7uSFf5gmoQafmOidTd4_pad-25" x="154937" y="-122682"/><use xlink:href="#t7uSFf5gmoQafmOidTd4_pad-23" x="138049" y="-125222"/><use xlink:href="#t7uSFf5gmoQafmOidTd4_pad-24" x="130429" y="-125222"/><use xlink:href="#t7uSFf5gmoQafmOidTd4_pad-25" x="132464" y="-125222"/><use xlink:href="#t7uSFf5gmoQafmOidTd4_pad-25" x="136014" y="-125222"/><use xlink:href="#t7uSFf5gmoQafmOidTd4_pad-23" x="118872" y="-127635"/><use xlink:href="#t7uSFf5gmoQafmOidTd4_pad-24" x="111252" y="-127635"/><use xlink:href="#t7uSFf5gmoQafmOidTd4_pad-25" x="113287" y="-127635"/><use xlink:href="#t7uSFf5gmoQafmOidTd4_pad-25" x="116837" y="-127635"/><use xlink:href="#t7uSFf5gmoQafmOidTd4_pad-23" x="214122" y="-111379"/><use xlink:href="#t7uSFf5gmoQafmOidTd4_pad-24" x="206502" y="-111379"/><use xlink:href="#t7uSFf5gmoQafmOidTd4_pad-25" x="208537" y="-111379"/><use xlink:href="#t7uSFf5gmoQafmOidTd4_pad-25" x="212087" y="-111379"/><use xlink:href="#t7uSFf5gmoQafmOidTd4_pad-23" x="195199" y="-111379"/><use xlink:href="#t7uSFf5gmoQafmOidTd4_pad-24" x="187579" y="-111379"/><use xlink:href="#t7uSFf5gmoQafmOidTd4_pad-25" x="189614" y="-111379"/><use xlink:href="#t7uSFf5gmoQafmOidTd4_pad-25" x="193164" y="-111379"/><use xlink:href="#t7uSFf5gmoQafmOidTd4_pad-23" x="176149" y="-106172"/><use xlink:href="#t7uSFf5gmoQafmOidTd4_pad-24" x="168529" y="-106172"/><use xlink:href="#t7uSFf5gmoQafmOidTd4_pad-25" x="170564" y="-106172"/><use xlink:href="#t7uSFf5gmoQafmOidTd4_pad-25" x="174114" y="-106172"/><use xlink:href="#t7uSFf5gmoQafmOidTd4_pad-23" x="156972" y="-103632"/><use xlink:href="#t7uSFf5gmoQafmOidTd4_pad-24" x="149352" y="-103632"/><use xlink:href="#t7uSFf5gmoQafmOidTd4_pad-25" x="151387" y="-103632"/><use xlink:href="#t7uSFf5gmoQafmOidTd4_pad-25" x="154937" y="-103632"/><use xlink:href="#t7uSFf5gmoQafmOidTd4_pad-23" x="137922" y="-106172"/><use xlink:href="#t7uSFf5gmoQafmOidTd4_pad-24" x="130302" y="-106172"/><use xlink:href="#t7uSFf5gmoQafmOidTd4_pad-25" x="132337" y="-106172"/><use xlink:href="#t7uSFf5gmoQafmOidTd4_pad-25" x="135887" y="-106172"/><use xlink:href="#t7uSFf5gmoQafmOidTd4_pad-23" x="118999" y="-108585"/><use xlink:href="#t7uSFf5gmoQafmOidTd4_pad-24" x="111379" y="-108585"/><use xlink:href="#t7uSFf5gmoQafmOidTd4_pad-25" x="113414" y="-108585"/><use xlink:href="#t7uSFf5gmoQafmOidTd4_pad-25" x="116964" y="-108585"/><use xlink:href="#t7uSFf5gmoQafmOidTd4_pad-23" x="214122" y="-92329"/><use xlink:href="#t7uSFf5gmoQafmOidTd4_pad-24" x="206502" y="-92329"/><use xlink:href="#t7uSFf5gmoQafmOidTd4_pad-25" x="208537" y="-92329"/><use xlink:href="#t7uSFf5gmoQafmOidTd4_pad-25" x="212087" y="-92329"/><use xlink:href="#t7uSFf5gmoQafmOidTd4_pad-23" x="195199" y="-92329"/><use xlink:href="#t7uSFf5gmoQafmOidTd4_pad-24" x="187579" y="-92329"/><use xlink:href="#t7uSFf5gmoQafmOidTd4_pad-25" x="189614" y="-92329"/><use xlink:href="#t7uSFf5gmoQafmOidTd4_pad-25" x="193164" y="-92329"/><use xlink:href="#t7uSFf5gmoQafmOidTd4_pad-23" x="176149" y="-87122"/><use xlink:href="#t7uSFf5gmoQafmOidTd4_pad-24" x="168529" y="-87122"/><use xlink:href="#t7uSFf5gmoQafmOidTd4_pad-25" x="170564" y="-87122"/><use xlink:href="#t7uSFf5gmoQafmOidTd4_pad-25" x="174114" y="-87122"/><use xlink:href="#t7uSFf5gmoQafmOidTd4_pad-23" x="157099" y="-84582"/><use xlink:href="#t7uSFf5gmoQafmOidTd4_pad-24" x="149479" y="-84582"/><use xlink:href="#t7uSFf5gmoQafmOidTd4_pad-25" x="151514" y="-84582"/><use xlink:href="#t7uSFf5gmoQafmOidTd4_pad-25" x="155064" y="-84582"/><use xlink:href="#t7uSFf5gmoQafmOidTd4_pad-23" x="137922" y="-87122"/><use xlink:href="#t7uSFf5gmoQafmOidTd4_pad-24" x="130302" y="-87122"/><use xlink:href="#t7uSFf5gmoQafmOidTd4_pad-25" x="132337" y="-87122"/><use xlink:href="#t7uSFf5gmoQafmOidTd4_pad-25" x="135887" y="-87122"/><use xlink:href="#t7uSFf5gmoQafmOidTd4_pad-23" x="118872" y="-89535"/><use xlink:href="#t7uSFf5gmoQafmOidTd4_pad-24" x="111252" y="-89535"/><use xlink:href="#t7uSFf5gmoQafmOidTd4_pad-25" x="113287" y="-89535"/><use xlink:href="#t7uSFf5gmoQafmOidTd4_pad-25" x="116837" y="-89535"/><use xlink:href="#t7uSFf5gmoQafmOidTd4_pad-23" x="214122" y="-73279"/><use xlink:href="#t7uSFf5gmoQafmOidTd4_pad-24" x="206502" y="-73279"/><use xlink:href="#t7uSFf5gmoQafmOidTd4_pad-25" x="208537" y="-73279"/><use xlink:href="#t7uSFf5gmoQafmOidTd4_pad-25" x="212087" y="-73279"/><use xlink:href="#t7uSFf5gmoQafmOidTd4_pad-23" x="195072" y="-73279"/><use xlink:href="#t7uSFf5gmoQafmOidTd4_pad-24" x="187452" y="-73279"/><use xlink:href="#t7uSFf5gmoQafmOidTd4_pad-25" x="189487" y="-73279"/><use xlink:href="#t7uSFf5gmoQafmOidTd4_pad-25" x="193037" y="-73279"/><use xlink:href="#t7uSFf5gmoQafmOidTd4_pad-23" x="176152" y="-68072"/><use xlink:href="#t7uSFf5gmoQafmOidTd4_pad-24" x="168532" y="-68072"/><use xlink:href="#t7uSFf5gmoQafmOidTd4_pad-25" x="170567" y="-68072"/><use xlink:href="#t7uSFf5gmoQafmOidTd4_pad-25" x="174117" y="-68072"/><use xlink:href="#t7uSFf5gmoQafmOidTd4_pad-23" x="156972" y="-65532"/><use xlink:href="#t7uSFf5gmoQafmOidTd4_pad-24" x="149352" y="-65532"/><use xlink:href="#t7uSFf5gmoQafmOidTd4_pad-25" x="151387" y="-65532"/><use xlink:href="#t7uSFf5gmoQafmOidTd4_pad-25" x="154937" y="-65532"/><use xlink:href="#t7uSFf5gmoQafmOidTd4_pad-23" x="138049" y="-68072"/><use xlink:href="#t7uSFf5gmoQafmOidTd4_pad-24" x="130429" y="-68072"/><use xlink:href="#t7uSFf5gmoQafmOidTd4_pad-25" x="132464" y="-68072"/><use xlink:href="#t7uSFf5gmoQafmOidTd4_pad-25" x="136014" y="-68072"/><use xlink:href="#t7uSFf5gmoQafmOidTd4_pad-23" x="118872" y="-70485"/><use xlink:href="#t7uSFf5gmoQafmOidTd4_pad-24" x="111252" y="-70485"/><use xlink:href="#t7uSFf5gmoQafmOidTd4_pad-25" x="113287" y="-70485"/><use xlink:href="#t7uSFf5gmoQafmOidTd4_pad-25" x="116837" y="-70485"/><use xlink:href="#t7uSFf5gmoQafmOidTd4_pad-27" x="99568" y="-74549"/><use xlink:href="#t7uSFf5gmoQafmOidTd4_pad-27" x="106172" y="-108585"/><use xlink:href="#t7uSFf5gmoQafmOidTd4_pad-27" x="105410" y="-127635"/><use xlink:href="#t7uSFf5gmoQafmOidTd4_pad-27" x="90297" y="-149860"/><use xlink:href="#t7uSFf5gmoQafmOidTd4_pad-27" x="85979" y="-55753"/><use xlink:href="#t7uSFf5gmoQafmOidTd4_pad-27" x="100748" y="-55626"/><use xlink:href="#t7uSFf5gmoQafmOidTd4_pad-27" x="89916" y="-51562"/><use xlink:href="#t7uSFf5gmoQafmOidTd4_pad-27" x="80716.704" y="-51823.599"/><use xlink:href="#t7uSFf5gmoQafmOidTd4_pad-27" x="111252" y="-83439"/><use xlink:href="#t7uSFf5gmoQafmOidTd4_pad-27" x="130302" y="-83376.998"/><use xlink:href="#t7uSFf5gmoQafmOidTd4_pad-27" x="149352" y="-82169"/><use xlink:href="#t7uSFf5gmoQafmOidTd4_pad-27" x="167640" y="-92837"/><use xlink:href="#t7uSFf5gmoQafmOidTd4_pad-27" x="186690" y="-97917"/><use xlink:href="#t7uSFf5gmoQafmOidTd4_pad-27" x="201168" y="-105791"/><use xlink:href="#t7uSFf5gmoQafmOidTd4_pad-27" x="73493.8" y="-122080.798"/><use xlink:href="#t7uSFf5gmoQafmOidTd4_pad-27" x="74218.8" y="-122809"/><use xlink:href="#t7uSFf5gmoQafmOidTd4_pad-27" x="70840.6" y="-118872"/><use xlink:href="#t7uSFf5gmoQafmOidTd4_pad-27" x="75387.2" y="-118846.6"/><path d="M 118872 -70485 116837 -70485 M 208537 -73279 206502 -73279 M 205553.5 -73279 203775.5 -75057 M 206502 -73279 205553.5 -73279 M 190387 -73279 189487 -73279 M 192165 -75057 190387 -73279 M 203775.5 -75057 192165 -75057 M 189487 -73279 187452 -73279 184531 -73279 180975 -69723 M 171467 -68072 170567 -68072 M 173118 -69723 171467 -68072 M 180975 -69723 173118 -69723 M 170567 -68072 168532 -68072 M 151387 -65532 149352 -65532 M 167583.5 -68072 166948.5 -67437 M 168532 -68072 167583.5 -68072 M 152287 -65532 151387 -65532 M 154192 -67437 152287 -65532 M 166948.5 -67437 154192 -67437 M 130429 -68072 132464 -68072 M 148403.5 -65532 143831.5 -70104 M 149352 -65532 148403.5 -65532 M 133364 -68072 132464 -68072 M 135396 -70104 133364 -68072 M 143831.5 -70104 135396 -70104 M 113287 -70485 111252 -70485 M 130429 -68072 129480.5 -68072 M 114187 -70485 113287 -70485 M 115965 -72263 114187 -70485 M 125289.5 -72263 115965 -72263 M 129480.5 -68072 125289.5 -72263 M 111252 -70485 103632 -70485 99568 -74549 M 94359.59 -87122 96266 -87122 M 93184.589 -88297.001 94359.59 -87122 M 75575.999 -88297.001 93184.589 -88297.001 M 74676 -87397.002 75575.999 -88297.001 M 74676 -87122 74676 -87397.002 M 136014 -68072 138049 -68072 M 156972 -65532 154937 -65532 M 174117 -68072 176152 -68072 M 195072 -73279 193037 -73279 M 212087 -73279 214122 -73279 M 116837 -89535 118872 -89535 M 208537 -92329 206502 -92329 M 205553.5 -92329 203902.5 -93980 M 206502 -92329 205553.5 -92329 M 190514 -92329 189614 -92329 M 192165 -93980 190514 -92329 M 203902.5 -93980 192165 -93980 M 189614 -92329 187579 -92329 184658 -92329 181483 -89154 M 171464 -87122 170564 -87122 M 173496 -89154 171464 -87122 M 181483 -89154 173496 -89154 M 170564 -87122 168529 -87122 M 151514 -84582 149479 -84582 M 168529 -87122 162687 -87122 161925 -86360 M 152414 -84582 151514 -84582 M 154192 -86360 152414 -84582 M 161925 -86360 154192 -86360 M 130302 -87122 132337 -87122 M 133237 -87122 132337 -87122 M 134260.501 -88145.501 133237 -87122 M 144966.999 -88145.501 134260.501 -88145.501 M 148530.5 -84582 144966.999 -88145.501 M 149479 -84582 148530.5 -84582 M 111252 -89535 113287 -89535 M 114187 -89535 113287 -89535 M 115210.501 -90558.501 114187 -89535 M 125916.999 -90558.501 115210.501 -90558.501 M 129353.5 -87122 125916.999 -90558.501 M 130302 -87122 129353.5 -87122 M 96393 -89535 96266 -89662 M 111252 -89535 96393 -89535 M 74676 -89937.002 74676 -89662 M 75575.999 -90837.001 74676 -89937.002 M 93184.589 -90837.001 75575.999 -90837.001 M 94359.59 -89662 93184.589 -90837.001 M 96266 -89662 94359.59 -89662 M 135887 -87122 137922 -87122 M 155064 -84582 157099 -84582 M 176149 -87122 174114 -87122 M 193164 -92329 195199 -92329 M 212087 -92329 214122 -92329 M 118999 -108585 116964 -108585 M 208537 -111379 206502 -111379 M 190514 -111379 189614 -111379 M 191537.501 -112402.501 190514 -111379 M 204529.999 -112402.501 191537.501 -112402.501 M 205553.5 -111379 204529.999 -112402.501 M 206502 -111379 205553.5 -111379 M 189614 -111379 187579 -111379 184658 -111379 180975 -107696 M 171464 -106172 170564 -106172 M 172988 -107696 171464 -106172 M 180975 -107696 172988 -107696 M 170564 -106172 168529 -106172 M 151387 -103632 149352 -103632 M 152287 -103632 151387 -103632 M 155701.001 -107046.001 152287 -103632 M 166706.499 -107046.001 155701.001 -107046.001 M 167580.5 -106172 166706.499 -107046.001 M 168529 -106172 167580.5 -106172 M 132337 -106172 130302 -106172 M 133237 -106172 132337 -106172 M 134260.501 -107195.501 133237 -106172 M 144839.999 -107195.501 134260.501 -107195.501 M 148403.5 -103632 144839.999 -107195.501 M 149352 -103632 148403.5 -103632 M 114314 -108585 113414 -108585 M 115337.501 -109608.501 114314 -108585 M 119490.281 -109608.501 115337.501 -109608.501 M 122926.782 -106172 119490.281 -109608.501 M 130302 -106172 122926.782 -106172 M 113414 -108585 111379 -108585 106172 -108585 M 95090.999 -93377.001 96266 -92202 M 75575.999 -93377.001 95090.999 -93377.001 M 74676 -92477.002 75575.999 -93377.001 M 74676 -92202 74676 -92477.002 M 137922 -106172 135887 -106172 M 156972 -103632 154937 -103632 M 174114 -106172 176149 -106172 M 195199 -111379 193164 -111379 M 212087 -111379 214122 -111379 M 116837 -127635 118872 -127635 M 208537 -130429 206502 -130429 198628 -130429 M 190387 -130429 189487 -130429 M 191911 -131953 190387 -130429 M 197104 -131953 191911 -131953 M 198628 -130429 197104 -131953 M 189487 -130429 187452 -130429 185547 -130429 M 171461 -125222 170561 -125222 M 172484.501 -126245.501 171461 -125222 M 181363.501 -126245.501 172484.501 -126245.501 M 185547 -130429 181363.501 -126245.501 M 170561 -125222 168526 -125222 M 151387 -122682 149352 -122682 M 152287 -122682 151387 -122682 M 154827 -125222 152287 -122682 M 168526 -125222 154827 -125222 M 132464 -125222 130429 -125222 M 133364 -125222 132464 -125222 M 134387.501 -126245.501 133364 -125222 M 146736.999 -126245.501 134387.501 -126245.501 M 149352 -123630.5 146736.999 -126245.501 M 149352 -122682 149352 -123630.5 M 114187 -127635 113287 -127635 M 115210.501 -128658.501 114187 -127635 M 126043.999 -128658.501 115210.501 -128658.501 M 129480.5 -125222 126043.999 -128658.501 M 130429 -125222 129480.5 -125222 M 111252 -127635 105410 -127635 M 94359.59 -97282 96266 -97282 M 91891.999 -98457.001 93184.589 -98457.001 M 91351.998 -97917 91891.999 -98457.001 M 82955.998 -97917 91351.998 -97917 M 82415.997 -98457.001 82955.998 -97917 M 93184.589 -98457.001 94359.59 -97282 M 75575.999 -98457.001 82415.997 -98457.001 M 74676 -97557.002 75575.999 -98457.001 M 74676 -97282 74676 -97557.002 M 113287 -127635 111252 -127635 M 138049 -125222 136014 -125222 M 154937 -122682 156972 -122682 M 174111 -125222 176146 -125222 M 195072 -130429 193037 -130429 M 212087 -130429 214122 -130429 M 88257.334 -159369.219 89274.834 -160386.719 M 88257.334 -158624.357 88257.334 -159369.219 M 136779 -147955 138814 -147955 M 85464.834 -154532.467 86482.334 -155549.967 M 85464.834 -153787.605 85464.834 -154532.467 M 115937.98 -150985.213 116534.302 -151581.535 M 114812.767 -149860 115937.98 -150985.213 M 92172.301 -149860 114812.767 -149860 M 86482.334 -155549.967 92172.301 -149860 M 135830.5 -147955 136779 -147955 M 135213.182 -147337.682 135830.5 -147955 M 92172.301 -149860 90297 -149860 M 93070.989 -103017.011 96266 -99822 M 76668.93 -103017.011 93070.989 -103017.011 M 74676 -101024.081 76668.93 -103017.011 M 74676 -99822 74676 -101024.081 M 121759.882 -147340.263 118378.639 -150721.506 M 121759.882 -147337.682 121759.882 -147340.263 M 121759.882 -147337.682 135213.182 -147337.682 M 116534.302 -151581.535 117518.61 -151581.535 118378.639 -150721.506 M 122580.339 -149221.212 123440.368 -148361.183 M 121596.031 -149221.212 122580.339 -149221.212 M 142364 -147955 144399 -147955 M 95090.999 -75786.999 96266 -76962 M 75575.999 -75786.999 95090.999 -75786.999 M 74676 -76686.998 75575.999 -75786.999 M 74676 -76962 74676 -76686.998" fill="none" stroke-width="250"/><path d="M 79756.01 -50291.99 78486 -51562 M 89829.992 -50291.99 79756.01 -50291.99 M 91100.002 -51562 89829.992 -50291.99 M 92456 -51562 91100.002 -51562 M 91925 -112340 98425 -112340 M 91389 -111804 91925 -112340 M 81415 -111804 91389 -111804 M 96266 -94742 92456 -94742 M 78486 -94742 74676 -94742 M 74676 -82042 78486 -82042 M 92456 -82042 96266 -82042 M 74676 -56642 78486 -56642 M 92456 -56642 96266 -56642 M 89676 -56642 87376 -54342 M 92456 -56642 89676 -56642 M 87376 -54342 87376 -54356 85979 -55753 M 100096 -56642 96266 -56642 M 102509 -59055 100096 -56642 M 103759 -59055 102509 -59055 101854 -59055 101219 -59690 M 97946.002 -69342 96266 -69342 M 101219 -66069.002 97946.002 -69342 M 101219 -59690 101219 -66069.002 M 91206 -82042 78486 -82042 M 92456 -82042 91206 -82042 M 91206 -94742 78486 -94742 M 92456 -94742 91206 -94742" fill="none" stroke-width="400"/><path d="M 78486 -59182 92456 -59182 M 78486 -61722 92456 -61722 M 78486 -66802 92456 -66802 M 94195.002 -84582 96266 -84582 M 93020.001 -85757.001 94195.002 -84582 M 75575.999 -85757.001 93020.001 -85757.001 M 74676 -84857.002 75575.999 -85757.001 M 74676 -84582 74676 -84857.002 M 78486 -64262 92456 -64262 M 78486 -69342 92456 -69342 M 78486 -71882 92456 -71882 M 78486 -74422 92456 -74422 M 91925 -116840 98425 -116840 M 78486 -76962 92456 -76962 M 78486 -79502 92456 -79502 M 95090.999 -58006.999 96266 -59182 M 75575.999 -58006.999 95090.999 -58006.999 M 74676 -58906.998 75575.999 -58006.999 M 74676 -59182 74676 -58906.998 M 95090.999 -78326.999 96266 -79502 M 75575.999 -78326.999 95090.999 -78326.999 M 74676 -79226.998 75575.999 -78326.999 M 74676 -79502 74676 -79226.998 M 95090.999 -73246.999 96266 -74422 M 75575.999 -73246.999 95090.999 -73246.999 M 74676 -74146.998 75575.999 -73246.999 M 74676 -74422 74676 -74146.998 M 95090.999 -70706.999 96266 -71882 M 75575.999 -70706.999 95090.999 -70706.999 M 74676 -71606.998 75575.999 -70706.999 M 74676 -71882 74676 -71606.998 M 89209.569 -52384.569 88392 -51567 M 89562.001 -52737.001 89209.569 -52384.569 M 99854.001 -52737.001 89562.001 -52737.001 M 101147.999 -54030.999 99854.001 -52737.001 M 101147.999 -55226.001 101147.999 -54030.999 M 100748 -55626 101147.999 -55226.001 M 88392 -51567 89911 -51567 89916 -51562 M 86360 -51567 80973.303 -51567 80716.704 -51823.599 M 93305.999 -83732.001 92456 -84582 M 93631.001 -83406.999 93305.999 -83732.001 M 99176.001 -83406.999 93631.001 -83406.999 M 99208.002 -83439 99176.001 -83406.999 M 111252 -83439 99208.002 -83439 M 78486 -84582 92456 -84582 M 112387.004 -83376.998 111600.001 -84164.001 M 130302 -83376.998 112387.004 -83376.998 M 111600.001 -84164.001 106208.999 -84164.001 M 93305.999 -86272.001 92456 -87122 M 93820.999 -85757.001 93305.999 -86272.001 M 104615.999 -85757.001 93820.999 -85757.001 M 106208.999 -84164.001 104615.999 -85757.001 M 78486 -87122 92456 -87122 M 146853.316 -84101.999 112298.413 -84101.999 M 149352 -82169 148786.315 -82169 146853.316 -84101.999 M 112298.413 -84101.999 111691.412 -84709 106300.41 -84709 M 93305.999 -88812.001 92456 -89662 M 93631.001 -88486.999 93305.999 -88812.001 M 102522.411 -88486.999 93631.001 -88486.999 M 106300.41 -84709 102522.411 -88486.999 M 78486 -89662 92456 -89662 M 163162.099 -97314.901 148557.099 -97314.901 M 167640 -92837 163162.099 -97314.901 M 146017.099 -99854.901 126524.901 -99854.901 M 148557.099 -97314.901 146017.099 -99854.901 M 126524.901 -99854.901 117729 -91059 M 93305.999 -91352.001 92456 -92202 M 93631.001 -91026.999 93305.999 -91352.001 M 99176.001 -91026.999 93631.001 -91026.999 M 99208.002 -91059 99176.001 -91026.999 M 117729 -91059 99208.002 -91059 M 78486 -92202 92456 -92202 M 93820.999 -95917.001 93305.999 -96432.001 M 106680 -91509.01 102272.009 -95917.001 M 117542.6 -91509.01 106680 -91509.01 M 126338.5 -100304.91 117542.6 -91509.01 M 102272.009 -95917.001 93820.999 -95917.001 M 129514.911 -100304.911 126338.5 -100304.91 M 93305.999 -96432.001 92456 -97282 M 129540 -100330 129514.911 -100304.911 M 186690 -97917 184752.099 -99854.901 M 163042.911 -97764.911 148743.499 -97764.911 M 165132.901 -99854.901 163042.911 -97764.911 M 148743.499 -97764.911 146178.41 -100330 M 184752.099 -99854.901 165132.901 -99854.901 M 146178.41 -100330 129540 -100330 M 78486 -97282 92456 -97282 M 93305.999 -98972.001 92456 -99822 M 100368.419 -98457.001 93820.999 -98457.001 M 126152.099 -100754.919 117356.2 -91959.02 M 128948.92 -100754.92 126152.099 -100754.919 M 117356.2 -91959.02 106866.4 -91959.02 M 146364.81 -100780.01 128974.01 -100780.01 M 201168 -105791 184658 -105791 M 106866.4 -91959.02 100368.419 -98457.001 M 128974.01 -100780.01 128948.92 -100754.92 M 184658 -105791 179171.911 -100304.911 164946.5 -100304.91 M 93820.999 -98457.001 93305.999 -98972.001 M 164946.5 -100304.91 162856.511 -98214.921 148929.899 -98214.921 146364.81 -100780.01 M 91606.001 -100671.999 92456 -99822 M 89710.999 -102567.001 91606.001 -100671.999 M 81231.001 -102567.001 89710.999 -102567.001 M 78486 -99822 81231.001 -102567.001" fill="none" stroke-width="250"/><path d="M 78524.001 -54140.001 78486 -54102 M 81410.001 -54140.001 78524.001 -54140.001 M 82483.012 -53066.99 81410.001 -54140.001 M 88160.41 -53066.99 82483.012 -53066.99 M 89195.42 -54102 88160.41 -53066.99 M 92456 -54102 89195.42 -54102" fill="none" stroke-width="400"/><path d="M 95090.999 -60546.999 96266 -61722 M 75575.999 -60546.999 95090.999 -60546.999 M 74676 -61446.998 75575.999 -60546.999 M 74676 -61722 74676 -61446.998 M 72327.6 -120675.4 72327.6 -120914.598 73493.8 -122080.798 M 74218.8 -120788.6 74332 -120675.4 M 74218.8 -122809 74218.8 -120788.6 M 70840.6 -120638.4 70877.6 -120675.4 M 70840.6 -118872 70840.6 -120638.4 M 94470.98 -49766.98 96266 -51562 M 76196.018 -49766.98 94470.98 -49766.98 M 74676 -51286.998 76196.018 -49766.98 M 74676 -51562 74676 -51286.998 M 75387.2 -120280.6 75782 -120675.4 M 75387.2 -118846.6 75387.2 -120280.6 M 95090.999 -65626.999 96266 -66802 M 75575.999 -65626.999 95090.999 -65626.999 M 74676 -66526.998 75575.999 -65626.999 M 74676 -66802 74676 -66526.998 M 95090.999 -63086.999 96266 -64262 M 75575.999 -63086.999 95090.999 -63086.999 M 74676 -63986.998 75575.999 -63086.999 M 74676 -64262 74676 -63986.998" fill="none" stroke-width="250"/></g></svg>