<svg version="1.1" xmlns="http://www.w3.org/2000/svg" xmlns:xlink="http://www.w3.org/1999/xlink" stroke-linecap="round" stroke-linejoin="round" stroke-width="0" fill-rule="evenodd" width="149.4031375035mm" height="116.43561934239999mm" viewBox="68807.8624965 -165432.6193424 149403.1375035 116435.6193424" id="MiC1RZZcDf2F-Ylaa0x-"><g transform="translate(0,-214429.6193424) scale(1,-1)" fill="currentColor" stroke="currentColor"><path d="M 108919.733 -61199.78 108586.4 -62199.78 108253.066 -61199.78 M 107586.4 -61675.971 107443.542 -61723.59 107395.923 -61771.209 107348.304 -61866.447 107348.304 -62009.304 107395.923 -62104.542 107443.542 -62152.161 107538.78 -62199.78 107919.733 -62199.78 107919.733 -61199.78 107586.4 -61199.78 107491.161 -61247.4 107443.542 -61295.019 107395.923 -61390.257 107395.923 -61485.495 107443.542 -61580.733 107491.161 -61628.352 107586.4 -61675.971 107919.733 -61675.971 M 106919.733 -61199.78 106919.733 -62009.304 106872.114 -62104.542 106824.495 -62152.161 106729.257 -62199.78 106538.78 -62199.78 106443.542 -62152.161 106395.923 -62104.542 106348.304 -62009.304 106348.304 -61199.78 M 105919.733 -62152.161 105776.876 -62199.78 105538.78 -62199.78 105443.542 -62152.161 105395.923 -62104.542 105348.304 -62009.304 105348.304 -61914.066 105395.923 -61818.828 105443.542 -61771.209 105538.78 -61723.59 105729.257 -61675.971 105824.495 -61628.352 105872.114 -61580.733 105919.733 -61485.495 105919.733 -61390.257 105872.114 -61295.019 105824.495 -61247.4 105729.257 -61199.78 105491.161 -61199.78 105348.304 -61247.4 M 107179.952 -67152.78 107179.952 -66152.78 106941.857 -66152.78 106799 -66200.4 106703.761 -66295.638 106656.142 -66390.876 106608.523 -66581.352 106608.523 -66724.209 106656.142 -66914.685 106703.761 -67009.923 106799 -67105.161 106941.857 -67152.78 107179.952 -67152.78 M 106179.952 -66771.828 105418.047 -66771.828 M 105799 -67152.78 105799 -66390.876 M 107103.752 -64688.98 107103.752 -63688.98 106865.657 -63688.98 106722.8 -63736.6 106627.561 -63831.838 106579.942 -63927.076 106532.323 -64117.552 106532.323 -64260.409 106579.942 -64450.885 106627.561 -64546.123 106722.8 -64641.361 106865.657 -64688.98 107103.752 -64688.98 M 106103.752 -64308.028 105341.847 -64308.028 M 107391.104 -58555 107486.342 -58507.38 107629.2 -58507.38 107772.057 -58555 107867.295 -58650.238 107914.914 -58745.476 107962.533 -58935.952 107962.533 -59078.809 107914.914 -59269.285 107867.295 -59364.523 107772.057 -59459.761 107629.2 -59507.38 107533.961 -59507.38 107391.104 -59459.761 107343.485 -59412.142 107343.485 -59078.809 107533.961 -59078.809 M 106914.914 -59507.38 106914.914 -58507.38 106343.485 -59507.38 106343.485 -58507.38 M 105867.295 -59507.38 105867.295 -58507.38 105629.2 -58507.38 105486.342 -58555 105391.104 -58650.238 105343.485 -58745.476 105295.866 -58935.952 105295.866 -59078.809 105343.485 -59269.285 105391.104 -59364.523 105486.342 -59459.761 105629.2 -59507.38 105867.295 -59507.38 M 216372.866 -134405.714 216134.771 -135072.38 215896.676 -134405.714 M 215515.723 -134977.142 215468.104 -135024.761 215515.723 -135072.38 215563.342 -135024.761 215515.723 -134977.142 215515.723 -135072.38 M 214515.723 -135072.38 215087.152 -135072.38 M 214801.438 -135072.38 214801.438 -134072.38 214896.676 -134215.238 214991.914 -134310.476 215087.152 -134358.095 M 214087.152 -134977.142 214039.533 -135024.761 214087.152 -135072.38 214134.771 -135024.761 214087.152 -134977.142 214087.152 -135072.38 M 213420.485 -134072.38 213325.247 -134072.38 213230.009 -134120 213182.39 -134167.619 213134.771 -134262.857 213087.152 -134453.333 213087.152 -134691.428 213134.771 -134881.904 213182.39 -134977.142 213230.009 -135024.761 213325.247 -135072.38 213420.485 -135072.38 213515.723 -135024.761 213563.342 -134977.142 213610.961 -134881.904 213658.58 -134691.428 213658.58 -134453.333 213610.961 -134262.857 213563.342 -134167.619 213515.723 -134120 213420.485 -134072.38" fill="none" stroke-width="150"/><path d="M 69215 -50368.2 A 1346.2 1346.2 0 0 0 70561.2 -49022 M 216662 -49022 A 1524 1524 0 0 0 218186 -50546 M 218185.746 -135102.605 A 1269.9999254 1269.9999254 0 0 0 216916 -136398 M 124826.908 -149436.724 A 1650.9986032 1650.9986032 0 0 0 125349 -149352 M 68995.286 -133967.988 A 1558.6115035 1558.6115035 0 0 0 68834 -133215.703 M 154432 -137414 A 1270 1270 0 0 0 155702 -136144 M 154432 -148590 A 762 762 0 0 0 153670 -149352 M 90302.555 -165239.036 A 1831.6193424 1831.6193424 0 0 0 88011.001 -164591.999 M 68834 -133215.703 69215 -50368.2 M 88011 -164592 68995.287 -133967.987 M 216916 -136398 155702 -136144 M 218186 -50546 218186 -135102.605 M 124826.908 -149436.724 90302.555 -165239.035 M 153670 -149352 125349 -149352 M 154432 -137414 154432 -148590 M 70561.2 -49022 216662 -49022" fill="none" stroke-width="50"/><path d="M 76457 -121675.4 76457 -119675.4 M 73657 -121675.4 76457 -121675.4 M 73657 -119675.4 73657 -121675.4 M 76457 -119675.4 73657 -119675.4 M 73002.6 -121675.4 73002.6 -119675.4 M 70202.6 -121675.4 73002.6 -121675.4 M 70202.6 -119675.4 70202.6 -121675.4 M 73002.6 -119675.4 70202.6 -119675.4" fill="none" stroke-width="120"/><path d="M 108062 -54849 109062 -54849 M 121062 -54849 122062 -54849 122062 -55849 M 122062 -68849 121062 -68849 M 122062 -67849 122062 -68849 M 109062 -68849 108062 -68849 108062 -67849 M 108062 -55849 108062 -54849 M 127112 -52436 128112 -52436 M 140112 -52436 141112 -52436 141112 -53436 M 141112 -66436 140112 -66436 M 141112 -65436 141112 -66436 M 128112 -66436 127112 -66436 127112 -65436 M 127112 -53436 127112 -52436 M 146162 -49896 147162 -49896 M 159162 -49896 160162 -49896 160162 -50896 M 160162 -63896 159162 -63896 M 160162 -62896 160162 -63896 M 147162 -63896 146162 -63896 146162 -62896 M 146162 -50896 146162 -49896 M 165212 -52436 166212 -52436 M 178212 -52436 179212 -52436 179212 -53436 M 179212 -66436 178212 -66436 M 179212 -65436 179212 -66436 M 166212 -66436 165212 -66436 165212 -65436 M 165212 -53436 165212 -52436 M 184262 -57643 185262 -57643 M 197262 -57643 198262 -57643 198262 -58643 M 198262 -71643 197262 -71643 M 198262 -70643 198262 -71643 M 185262 -71643 184262 -71643 184262 -70643 M 184262 -58643 184262 -57643 M 203312 -57643 204312 -57643 M 216312 -57643 217312 -57643 217312 -58643 M 217312 -71643 216312 -71643 M 217312 -70643 217312 -71643 M 204312 -71643 203312 -71643 203312 -70643 M 203312 -58643 203312 -57643 M 108062 -73899 109062 -73899 M 121062 -73899 122062 -73899 122062 -74899 M 122062 -87899 121062 -87899 M 122062 -86899 122062 -87899 M 109062 -87899 108062 -87899 108062 -86899 M 108062 -74899 108062 -73899 M 127112 -71486 128112 -71486 M 140112 -71486 141112 -71486 141112 -72486 M 141112 -85486 140112 -85486 M 141112 -84486 141112 -85486 M 128112 -85486 127112 -85486 127112 -84486 M 127112 -72486 127112 -71486 M 146162 -68946 147162 -68946 M 159162 -68946 160162 -68946 160162 -69946 M 160162 -82946 159162 -82946 M 160162 -81946 160162 -82946 M 147162 -82946 146162 -82946 146162 -81946 M 146162 -69946 146162 -68946 M 165212 -71486 166212 -71486 M 178212 -71486 179212 -71486 179212 -72486 M 179212 -85486 178212 -85486 M 179212 -84486 179212 -85486 M 166212 -85486 165212 -85486 165212 -84486 M 165212 -72486 165212 -71486 M 184262 -76693 185262 -76693 M 197262 -76693 198262 -76693 198262 -77693 M 198262 -90693 197262 -90693 M 198262 -89693 198262 -90693 M 185262 -90693 184262 -90693 184262 -89693 M 184262 -77693 184262 -76693 M 203312 -76693 204312 -76693 M 216312 -76693 217312 -76693 217312 -77693 M 217312 -90693 216312 -90693 M 217312 -89693 217312 -90693 M 204312 -90693 203312 -90693 203312 -89693 M 203312 -77693 203312 -76693 M 108062 -92949 109062 -92949 M 121062 -92949 122062 -92949 122062 -93949 M 122062 -106949 121062 -106949 M 122062 -105949 122062 -106949 M 109062 -106949 108062 -106949 108062 -105949 M 108062 -93949 108062 -92949 M 127112 -90536 128112 -90536 M 140112 -90536 141112 -90536 141112 -91536 M 141112 -104536 140112 -104536 M 141112 -103536 141112 -104536 M 128112 -104536 127112 -104536 127112 -103536 M 127112 -91536 127112 -90536 M 146162 -87996 147162 -87996 M 159162 -87996 160162 -87996 160162 -88996 M 160162 -101996 159162 -101996 M 160162 -100996 160162 -101996 M 147162 -101996 146162 -101996 146162 -100996 M 146162 -88996 146162 -87996 M 165212 -90536 166212 -90536 M 178212 -90536 179212 -90536 179212 -91536 M 179212 -104536 178212 -104536 M 179212 -103536 179212 -104536 M 166212 -104536 165212 -104536 165212 -103536 M 165212 -91536 165212 -90536 M 184262 -95743 185262 -95743 M 197262 -95743 198262 -95743 198262 -96743 M 198262 -109743 197262 -109743 M 198262 -108743 198262 -109743 M 185262 -109743 184262 -109743 184262 -108743 M 184262 -96743 184262 -95743 M 203312 -95743 204312 -95743 M 216312 -95743 217312 -95743 217312 -96743 M 217312 -109743 216312 -109743 M 217312 -108743 217312 -109743 M 204312 -109743 203312 -109743 203312 -108743 M 203312 -96743 203312 -95743 M 108062 -111999 109062 -111999 M 121062 -111999 122062 -111999 122062 -112999 M 122062 -125999 121062 -125999 M 122062 -124999 122062 -125999 M 109062 -125999 108062 -125999 108062 -124999 M 108062 -112999 108062 -111999 M 127112 -109586 128112 -109586 M 140112 -109586 141112 -109586 141112 -110586 M 141112 -123586 140112 -123586 M 141112 -122586 141112 -123586 M 128112 -123586 127112 -123586 127112 -122586 M 127112 -110586 127112 -109586 M 146162 -107046 147162 -107046 M 159162 -107046 160162 -107046 160162 -108046 M 160162 -121046 159162 -121046 M 160162 -120046 160162 -121046 M 147162 -121046 146162 -121046 146162 -120046 M 146162 -108046 146162 -107046 M 165212 -109586 166212 -109586 M 178212 -109586 179212 -109586 179212 -110586 M 179212 -123586 178212 -123586 M 179212 -122586 179212 -123586 M 166212 -123586 165212 -123586 165212 -122586 M 165212 -110586 165212 -109586 M 184262 -114793 185262 -114793 M 197262 -114793 198262 -114793 198262 -115793 M 198262 -128793 197262 -128793 M 198262 -127793 198262 -128793 M 185262 -128793 184262 -128793 184262 -127793 M 184262 -115793 184262 -114793 M 203312 -114793 204312 -114793 M 216312 -114793 217312 -114793 217312 -115793 M 217312 -128793 216312 -128793 M 217312 -127793 217312 -128793 M 204312 -128793 203312 -128793 203312 -127793 M 203312 -115793 203312 -114793 M 97431.178 -143090.85 97931.178 -143956.876 M 103931.178 -154349.18 104431.178 -155215.206 103565.152 -155715.206 M 92306.822 -162215.206 91806.822 -161349.18 M 93172.848 -161715.206 92306.822 -162215.206 M 85806.822 -150956.876 85306.822 -150090.85 86172.848 -149590.85 M 96565.152 -143590.85 97431.178 -143090.85 M 106832.144 -138814.089 107738.451 -138391.471 M 118614.145 -133320.052 119520.453 -132897.434 119943.071 -133803.741 M 125437.108 -145585.743 124530.801 -146008.361 M 125014.49 -144679.435 125437.108 -145585.743 M 113655.107 -151079.78 112748.799 -151502.398 112326.181 -150596.091 M 107254.762 -139720.397 106832.144 -138814.089 M 133589 -132319 134589 -132319 M 146589 -132319 147589 -132319 147589 -133319 M 147589 -146319 146589 -146319 M 147589 -145319 147589 -146319 M 134589 -146319 133589 -146319 133589 -145319 M 133589 -133319 133589 -132319" fill="none" stroke-width="150"/><path d="M 83226 -52682 83526 -52682 M 91226 -49882 91226 -52682 M 83226 -52682 83226 -54232 M 91526 -52682 91526 -54232 M 83526 -49882 83526 -52682 M 91226 -52682 91526 -52682 M 94869 -52859 94869 -50192 M 97876 -98392 97876 -98792 M 76876 -60292 76876 -60692 M 97876 -75492 97876 -75892 M 97876 -85692 97876 -86092 M 97876 -88192 97876 -88592 M 76876 -65292 76876 -65692 M 88876 -101192 88476 -101192 M 97876 -70392 97876 -70792 M 76876 -67892 76876 -68292 M 97876 -67892 97876 -68292 M 97876 -52592 97876 -52992 M 76876 -70392 76876 -70792 M 76876 -77992 76876 -78392 M 97876 -95792 97876 -96192 M 76876 -80592 76876 -80992 M 76876 -101192 83676 -101192 M 76876 -98392 76876 -98792 M 76876 -50192 76876 -50492 M 86276 -101192 85876 -101192 M 76876 -57692 76876 -58092 M 97876 -60292 97876 -60692 M 76876 -55192 76876 -55592 M 76876 -75492 76876 -75892 M 76876 -62792 76876 -63192 M 97876 -55192 97876 -55592 M 91076 -101192 97876 -101192 M 97876 -57692 97876 -58092 M 97876 -65292 97876 -65692 M 76876 -85692 76876 -86092 M 76876 -88192 76876 -88592 M 76876 -90792 76876 -91192 M 76876 -93292 76876 -93692 M 76876 -52592 76876 -52992 M 97876 -83092 97876 -83492 M 97876 -50192 76876 -50192 M 97876 -52859 94869 -52859 M 97876 -62792 97876 -63192 M 97876 -50192 97876 -50492 M 97876 -77992 97876 -78392 M 97876 -80592 97876 -80992 M 97876 -90792 97876 -91192 M 76876 -72992 76876 -73392 M 97876 -72992 97876 -73392 M 76876 -83092 76876 -83492 M 76876 -95792 76876 -96192 M 97876 -93292 97876 -93692" fill="none" stroke-width="120"/><path d="M 143289 -148705 143289 -147205 M 137889 -148705 143289 -148705 M 137889 -147205 137889 -148705 M 143289 -147205 137889 -147205 M 140089 -147455 140089 -148455 M 141089 -148455 140189 -147955 M 141089 -147455 141089 -148455 M 140189 -147955 141089 -147455 M 122751.33 -149510.021 122117.402 -148150.559 M 117857.268 -151792.159 122751.33 -149510.021 M 117223.34 -150432.697 117857.268 -151792.159 M 122117.402 -148150.559 117223.34 -150432.697 M 119322.872 -149729.514 119745.49 -150635.822 M 120651.798 -150213.204 119624.812 -150140.406 M 120229.18 -149306.896 120651.798 -150213.204 M 119624.812 -150140.406 120229.18 -149306.896 M 88070.315 -159800.431 89369.353 -159050.431 M 85370.315 -155123.893 88070.315 -159800.431 M 86669.353 -154373.893 85370.315 -155123.893 M 89369.353 -159050.431 86669.353 -154373.893 M 87552.847 -156404.149 86686.821 -156904.149 M 87186.821 -157770.175 87169.834 -156740.752 M 88052.847 -157270.175 87186.821 -157770.175 M 87169.834 -156740.752 88052.847 -157270.175 M 213012 -131179 213012 -129679 M 207612 -131179 213012 -131179 M 207612 -129679 207612 -131179 M 213012 -129679 207612 -129679 M 209812 -129929 209812 -130929 M 210812 -130929 209912 -130429 M 210812 -129929 210812 -130929 M 209912 -130429 210812 -129929 M 193962 -131179 193962 -129679 M 188562 -131179 193962 -131179 M 188562 -129679 188562 -131179 M 193962 -129679 188562 -129679 M 190762 -129929 190762 -130929 M 191762 -130929 190862 -130429 M 191762 -129929 191762 -130929 M 190862 -130429 191762 -129929 M 175036 -125972 175036 -124472 M 169636 -125972 175036 -125972 M 169636 -124472 169636 -125972 M 175036 -124472 169636 -124472 M 171836 -124722 171836 -125722 M 172836 -125722 171936 -125222 M 172836 -124722 172836 -125722 M 171936 -125222 172836 -124722 M 155862 -123432 155862 -121932 M 150462 -123432 155862 -123432 M 150462 -121932 150462 -123432 M 155862 -121932 150462 -121932 M 152662 -122182 152662 -123182 M 153662 -123182 152762 -122682 M 153662 -122182 153662 -123182 M 152762 -122682 153662 -122182 M 136939 -125972 136939 -124472 M 131539 -125972 136939 -125972 M 131539 -124472 131539 -125972 M 136939 -124472 131539 -124472 M 133739 -124722 133739 -125722 M 134739 -125722 133839 -125222 M 134739 -124722 134739 -125722 M 133839 -125222 134739 -124722 M 117762 -128385 117762 -126885 M 112362 -128385 117762 -128385 M 112362 -126885 112362 -128385 M 117762 -126885 112362 -126885 M 114562 -127135 114562 -128135 M 115562 -128135 114662 -127635 M 115562 -127135 115562 -128135 M 114662 -127635 115562 -127135 M 213012 -112129 213012 -110629 M 207612 -112129 213012 -112129 M 207612 -110629 207612 -112129 M 213012 -110629 207612 -110629 M 209812 -110879 209812 -111879 M 210812 -111879 209912 -111379 M 210812 -110879 210812 -111879 M 209912 -111379 210812 -110879 M 194089 -112129 194089 -110629 M 188689 -112129 194089 -112129 M 188689 -110629 188689 -112129 M 194089 -110629 188689 -110629 M 190889 -110879 190889 -111879 M 191889 -111879 190989 -111379 M 191889 -110879 191889 -111879 M 190989 -111379 191889 -110879 M 175039 -106922 175039 -105422 M 169639 -106922 175039 -106922 M 169639 -105422 169639 -106922 M 175039 -105422 169639 -105422 M 171839 -105672 171839 -106672 M 172839 -106672 171939 -106172 M 172839 -105672 172839 -106672 M 171939 -106172 172839 -105672 M 155862 -104382 155862 -102882 M 150462 -104382 155862 -104382 M 150462 -102882 150462 -104382 M 155862 -102882 150462 -102882 M 152662 -103132 152662 -104132 M 153662 -104132 152762 -103632 M 153662 -103132 153662 -104132 M 152762 -103632 153662 -103132 M 136812 -106922 136812 -105422 M 131412 -106922 136812 -106922 M 131412 -105422 131412 -106922 M 136812 -105422 131412 -105422 M 133612 -105672 133612 -106672 M 134612 -106672 133712 -106172 M 134612 -105672 134612 -106672 M 133712 -106172 134612 -105672 M 117889 -109335 117889 -107835 M 112489 -109335 117889 -109335 M 112489 -107835 112489 -109335 M 117889 -107835 112489 -107835 M 114689 -108085 114689 -109085 M 115689 -109085 114789 -108585 M 115689 -108085 115689 -109085 M 114789 -108585 115689 -108085 M 213012 -93079 213012 -91579 M 207612 -93079 213012 -93079 M 207612 -91579 207612 -93079 M 213012 -91579 207612 -91579 M 209812 -91829 209812 -92829 M 210812 -92829 209912 -92329 M 210812 -91829 210812 -92829 M 209912 -92329 210812 -91829 M 194089 -93079 194089 -91579 M 188689 -93079 194089 -93079 M 188689 -91579 188689 -93079 M 194089 -91579 188689 -91579 M 190889 -91829 190889 -92829 M 191889 -92829 190989 -92329 M 191889 -91829 191889 -92829 M 190989 -92329 191889 -91829 M 175039 -87872 175039 -86372 M 169639 -87872 175039 -87872 M 169639 -86372 169639 -87872 M 175039 -86372 169639 -86372 M 171839 -86622 171839 -87622 M 172839 -87622 171939 -87122 M 172839 -86622 172839 -87622 M 171939 -87122 172839 -86622 M 155989 -85332 155989 -83832 M 150589 -85332 155989 -85332 M 150589 -83832 150589 -85332 M 155989 -83832 150589 -83832 M 152789 -84082 152789 -85082 M 153789 -85082 152889 -84582 M 153789 -84082 153789 -85082 M 152889 -84582 153789 -84082 M 136812 -87872 136812 -86372 M 131412 -87872 136812 -87872 M 131412 -86372 131412 -87872 M 136812 -86372 131412 -86372 M 133612 -86622 133612 -87622 M 134612 -87622 133712 -87122 M 134612 -86622 134612 -87622 M 133712 -87122 134612 -86622 M 117762 -90285 117762 -88785 M 112362 -90285 117762 -90285 M 112362 -88785 112362 -90285 M 117762 -88785 112362 -88785 M 114562 -89035 114562 -90035 M 115562 -90035 114662 -89535 M 115562 -89035 115562 -90035 M 114662 -89535 115562 -89035 M 213012 -74029 213012 -72529 M 207612 -74029 213012 -74029 M 207612 -72529 207612 -74029 M 213012 -72529 207612 -72529 M 209812 -72779 209812 -73779 M 210812 -73779 209912 -73279 M 210812 -72779 210812 -73779 M 209912 -73279 210812 -72779 M 193962 -74029 193962 -72529 M 188562 -74029 193962 -74029 M 188562 -72529 188562 -74029 M 193962 -72529 188562 -72529 M 190762 -72779 190762 -73779 M 191762 -73779 190862 -73279 M 191762 -72779 191762 -73779 M 190862 -73279 191762 -72779 M 175042 -68822 175042 -67322 M 169642 -68822 175042 -68822 M 169642 -67322 169642 -68822 M 175042 -67322 169642 -67322 M 171842 -67572 171842 -68572 M 172842 -68572 171942 -68072 M 172842 -67572 172842 -68572 M 171942 -68072 172842 -67572 M 155862 -66282 155862 -64782 M 150462 -66282 155862 -66282 M 150462 -64782 150462 -66282 M 155862 -64782 150462 -64782 M 152662 -65032 152662 -66032 M 153662 -66032 152762 -65532 M 153662 -65032 153662 -66032 M 152762 -65532 153662 -65032 M 136939 -68822 136939 -67322 M 131539 -68822 136939 -68822 M 131539 -67322 131539 -68822 M 136939 -67322 131539 -67322 M 133739 -67572 133739 -68572 M 134739 -68572 133839 -68072 M 134739 -67572 134739 -68572 M 133839 -68072 134739 -67572 M 117762 -71235 117762 -69735 M 112362 -71235 117762 -71235 M 112362 -69735 112362 -71235 M 117762 -69735 112362 -69735 M 114562 -69985 114562 -70985 M 115562 -70985 114662 -70485 M 115562 -69985 115562 -70985 M 114662 -70485 115562 -69985" fill="none" stroke-width="150"/><path d="M 84021 -51327 84021 -51677 M 85271 -51327 85271 -51677 M 84021 -51677 A 625 625 0 0 1 85271 -51677 M 85271 -51327 A 625 625 0 0 1 84021 -51327 M 89481 -51327 89481 -51677 M 90731 -51327 90731 -51677 M 89481 -51677 A 625 625 0 0 1 90731 -51677 M 90731 -51327 A 625 625 0 0 1 89481 -51327 M 89296 -54302 89296 -54702 M 90296 -54302 90296 -54702 M 89296 -54702 A 500 500 0 0 1 90296 -54702 M 90296 -54302 A 500 500 0 0 1 89296 -54302 M 84456 -54302 84456 -54702 M 85456 -54302 85456 -54702 M 84456 -54702 A 500 500 0 0 1 85456 -54702 M 85456 -54302 A 500 500 0 0 1 84456 -54302 M 90420.104 -57244.228 90463.783 -57250.706 90506.611 -57261.435 90548.185 -57276.309 90588.101 -57295.188 90625.972 -57317.887 90661.44 -57344.192 90694.155 -57373.845 90723.808 -57406.56 90750.113 -57442.028 90772.812 -57479.899 90791.691 -57519.815 90806.565 -57561.389 90817.294 -57604.217 90823.772 -57647.896 90826 -57693.233 90826 -58690.767 90823.772 -58736.104 90817.294 -58779.783 90806.565 -58822.611 90791.691 -58864.185 90772.812 -58904.101 90750.113 -58941.972 90723.808 -58977.44 90694.155 -59010.155 90661.44 -59039.808 90625.972 -59066.113 90588.101 -59088.812 90548.185 -59107.691 90506.611 -59122.565 90463.783 -59133.294 90420.104 -59139.772 90374.767 -59142 89377.233 -59142 89331.896 -59139.772 89288.217 -59133.294 89245.389 -59122.565 89203.815 -59107.691 89163.899 -59088.812 89126.028 -59066.113 89090.56 -59039.808 89057.845 -59010.155 89028.192 -58977.44 89001.887 -58941.972 88979.188 -58904.101 88960.309 -58864.185 88945.435 -58822.611 88934.706 -58779.783 88928.228 -58736.104 88926 -58690.767 88926 -57693.233 88928.228 -57647.896 88934.706 -57604.217 88945.435 -57561.389 88960.309 -57519.815 88979.188 -57479.899 89001.887 -57442.028 89028.192 -57406.56 89057.845 -57373.845 89090.56 -57344.192 89126.028 -57317.887 89163.899 -57295.188 89203.815 -57276.309 89245.389 -57261.435 89288.217 -57250.706 89331.896 -57244.228 89377.233 -57242 90374.767 -57242 90420.104 -57244.228 M 90420.104 -59744.228 90463.783 -59750.706 90506.611 -59761.435 90548.185 -59776.309 90588.101 -59795.188 90625.972 -59817.887 90661.44 -59844.192 90694.155 -59873.845 90723.808 -59906.56 90750.113 -59942.028 90772.812 -59979.899 90791.691 -60019.815 90806.565 -60061.389 90817.294 -60104.217 90823.772 -60147.896 90826 -60193.233 90826 -61190.767 90823.772 -61236.104 90817.294 -61279.783 90806.565 -61322.611 90791.691 -61364.185 90772.812 -61404.101 90750.113 -61441.972 90723.808 -61477.44 90694.155 -61510.155 90661.44 -61539.808 90625.972 -61566.113 90588.101 -61588.812 90548.185 -61607.691 90506.611 -61622.565 90463.783 -61633.294 90420.104 -61639.772 90374.767 -61642 89377.233 -61642 89331.896 -61639.772 89288.217 -61633.294 89245.389 -61622.565 89203.815 -61607.691 89163.899 -61588.812 89126.028 -61566.113 89090.56 -61539.808 89057.845 -61510.155 89028.192 -61477.44 89001.887 -61441.972 88979.188 -61404.101 88960.309 -61364.185 88945.435 -61322.611 88934.706 -61279.783 88928.228 -61236.104 88926 -61190.767 88926 -60193.233 88928.228 -60147.896 88934.706 -60104.217 88945.435 -60061.389 88960.309 -60019.815 88979.188 -59979.899 89001.887 -59942.028 89028.192 -59906.56 89057.845 -59873.845 89090.56 -59844.192 89126.028 -59817.887 89163.899 -59795.188 89203.815 -59776.309 89245.389 -59761.435 89288.217 -59750.706 89331.896 -59744.228 89377.233 -59742 90374.767 -59742 90420.104 -59744.228 M 90420.104 -62244.228 90463.783 -62250.706 90506.611 -62261.435 90548.185 -62276.309 90588.101 -62295.188 90625.972 -62317.887 90661.44 -62344.192 90694.155 -62373.845 90723.808 -62406.56 90750.113 -62442.028 90772.812 -62479.899 90791.691 -62519.815 90806.565 -62561.389 90817.294 -62604.217 90823.772 -62647.896 90826 -62693.233 90826 -63690.767 90823.772 -63736.104 90817.294 -63779.783 90806.565 -63822.611 90791.691 -63864.185 90772.812 -63904.101 90750.113 -63941.972 90723.808 -63977.44 90694.155 -64010.155 90661.44 -64039.808 90625.972 -64066.113 90588.101 -64088.812 90548.185 -64107.691 90506.611 -64122.565 90463.783 -64133.294 90420.104 -64139.772 90374.767 -64142 89377.233 -64142 89331.896 -64139.772 89288.217 -64133.294 89245.389 -64122.565 89203.815 -64107.691 89163.899 -64088.812 89126.028 -64066.113 89090.56 -64039.808 89057.845 -64010.155 89028.192 -63977.44 89001.887 -63941.972 88979.188 -63904.101 88960.309 -63864.185 88945.435 -63822.611 88934.706 -63779.783 88928.228 -63736.104 88926 -63690.767 88926 -62693.233 88928.228 -62647.896 88934.706 -62604.217 88945.435 -62561.389 88960.309 -62519.815 88979.188 -62479.899 89001.887 -62442.028 89028.192 -62406.56 89057.845 -62373.845 89090.56 -62344.192 89126.028 -62317.887 89163.899 -62295.188 89203.815 -62276.309 89245.389 -62261.435 89288.217 -62250.706 89331.896 -62244.228 89377.233 -62242 90374.767 -62242 90420.104 -62244.228" fill="none" stroke-width="100"/><path d="M 81739.841 -95525.155 81820.653 -95552.093 81901.465 -95632.905 81955.34 -95740.654 81955.34 -95848.404 81928.402 -95929.216 81847.59 -96063.903 81766.778 -96144.715 81632.091 -96225.528 81551.279 -96252.465 81443.529 -96252.465 81335.78 -96198.59 81281.905 -96144.715 81228.03 -96036.966 81228.03 -95983.091 81416.592 -95794.529 81524.341 -95902.279 M 80931.719 -95794.529 81497.404 -95228.844 80608.47 -95471.28 81174.155 -94905.595 M 80339.096 -95201.906 80904.781 -94636.221 80770.094 -94501.534 80662.345 -94447.659 80554.595 -94447.659 80473.783 -94474.597 80339.096 -94555.409 80258.284 -94636.221 80177.471 -94770.908 80150.534 -94851.72 80150.534 -94959.47 80204.409 -95067.219 80339.096 -95201.906 M 82209.402 -71067.964 81940.028 -70798.59 M 82101.653 -71283.463 82478.776 -70529.216 81724.529 -70906.34 M 81778.404 -69882.719 81859.216 -69909.656 81940.028 -69990.468 81993.903 -70098.218 81993.903 -70205.967 81966.966 -70286.78 81886.154 -70421.467 81805.341 -70502.279 81670.654 -70583.091 81589.842 -70610.028 81482.093 -70610.028 81374.343 -70556.154 81320.468 -70502.279 81266.593 -70394.529 81266.593 -70340.654 81455.155 -70152.093 81562.905 -70259.842 M 80970.282 -70152.093 81535.967 -69586.407 80647.033 -69828.844 81212.719 -69263.158 M 80377.659 -69559.47 80943.345 -68993.784 80808.658 -68859.097 80700.908 -68805.223 80593.158 -68805.223 80512.346 -68832.16 80377.659 -68912.972 80296.847 -68993.784 80216.035 -69128.471 80189.097 -69209.284 80189.097 -69317.033 80242.972 -69424.783 80377.659 -69559.47 M 93463.904 -60158.38 92892.476 -60158.38 M 93178.19 -61158.38 93178.19 -60158.38 M 92559.142 -61158.38 92559.142 -60158.38 92178.19 -60158.38 92082.952 -60206 92035.333 -60253.619 91987.714 -60348.857 91987.714 -60491.714 92035.333 -60586.952 92082.952 -60634.571 92178.19 -60682.19 92559.142 -60682.19 M 91082.952 -60158.38 91559.142 -60158.38 91606.761 -60634.571 91559.142 -60586.952 91463.904 -60539.333 91225.809 -60539.333 91130.571 -60586.952 91082.952 -60634.571 91035.333 -60729.809 91035.333 -60967.904 91082.952 -61063.142 91130.571 -61110.761 91225.809 -61158.38 91463.904 -61158.38 91559.142 -61110.761 91606.761 -61063.142 M 93463.904 -62698.38 92892.476 -62698.38 M 93178.19 -63698.38 93178.19 -62698.38 M 92559.142 -63698.38 92559.142 -62698.38 92178.19 -62698.38 92082.952 -62746 92035.333 -62793.619 91987.714 -62888.857 91987.714 -63031.714 92035.333 -63126.952 92082.952 -63174.571 92178.19 -63222.19 92559.142 -63222.19 M 91130.571 -62698.38 91321.047 -62698.38 91416.285 -62746 91463.904 -62793.619 91559.142 -62936.476 91606.761 -63126.952 91606.761 -63507.904 91559.142 -63603.142 91511.523 -63650.761 91416.285 -63698.38 91225.809 -63698.38 91130.571 -63650.761 91082.952 -63603.142 91035.333 -63507.904 91035.333 -63269.809 91082.952 -63174.571 91130.571 -63126.952 91225.809 -63079.333 91416.285 -63079.333 91511.523 -63126.952 91559.142 -63174.571 91606.761 -63269.809 M 93463.904 -57618.38 92892.476 -57618.38 M 93178.19 -58618.38 93178.19 -57618.38 M 92559.142 -58618.38 92559.142 -57618.38 92178.19 -57618.38 92082.952 -57666 92035.333 -57713.619 91987.714 -57808.857 91987.714 -57951.714 92035.333 -58046.952 92082.952 -58094.571 92178.19 -58142.19 92559.142 -58142.19 M 91130.571 -57951.714 91130.571 -58618.38 M 91368.666 -57570.761 91606.761 -58285.047 90987.714 -58285.047 M 81739.841 -57425.155 81820.653 -57452.093 81901.465 -57532.905 81955.34 -57640.654 81955.34 -57748.404 81928.402 -57829.216 81847.59 -57963.903 81766.778 -58044.715 81632.091 -58125.528 81551.279 -58152.465 81443.529 -58152.465 81335.78 -58098.59 81281.905 -58044.715 81228.03 -57936.966 81228.03 -57883.091 81416.592 -57694.529 81524.341 -57802.279 M 80931.719 -57694.529 81497.404 -57128.844 80608.47 -57371.28 81174.155 -56805.595 M 80339.096 -57101.906 80904.781 -56536.221 80770.094 -56401.534 80662.345 -56347.659 80554.595 -56347.659 80473.783 -56374.597 80339.096 -56455.409 80258.284 -56536.221 80177.471 -56670.908 80150.534 -56751.72 80150.534 -56859.47 80204.409 -56967.219 80339.096 -57101.906 M 81739.841 -82825.155 81820.653 -82852.093 81901.465 -82932.905 81955.34 -83040.654 81955.34 -83148.404 81928.402 -83229.216 81847.59 -83363.903 81766.778 -83444.715 81632.091 -83525.528 81551.279 -83552.465 81443.529 -83552.465 81335.78 -83498.59 81281.905 -83444.715 81228.03 -83336.966 81228.03 -83283.091 81416.592 -83094.529 81524.341 -83202.279 M 80931.719 -83094.529 81497.404 -82528.844 80608.47 -82771.28 81174.155 -82205.595 M 80339.096 -82501.906 80904.781 -81936.221 80770.094 -81801.534 80662.345 -81747.659 80554.595 -81747.659 80473.783 -81774.597 80339.096 -81855.409 80258.284 -81936.221 80177.471 -82070.908 80150.534 -82151.72 80150.534 -82259.47 80204.409 -82367.219 80339.096 -82501.906 M 100862.903 -77083.218 100943.715 -77110.155 101024.528 -77190.967 101078.402 -77298.717 101078.402 -77406.467 101051.465 -77487.279 100970.653 -77621.966 100889.841 -77702.778 100755.154 -77783.59 100674.341 -77810.528 100566.592 -77810.528 100458.842 -77756.653 100404.967 -77702.778 100351.093 -77595.028 100351.093 -77541.154 100539.654 -77352.592 100647.404 -77460.341 M 100054.781 -77352.592 100620.467 -76786.906 100404.967 -76571.407 100324.155 -76544.47 100270.28 -76544.47 100189.468 -76571.407 100108.656 -76652.219 100081.719 -76733.032 100081.719 -76786.906 100108.656 -76867.719 100324.155 -77083.218 M 99731.532 -76382.845 99812.345 -76409.783 99866.219 -76409.783 99947.032 -76382.845 99973.969 -76355.908 100000.906 -76275.096 100000.906 -76221.221 99973.969 -76140.409 99866.219 -76032.659 99785.407 -76005.722 99731.532 -76005.722 99650.72 -76032.659 99623.783 -76059.597 99596.845 -76140.409 99596.845 -76194.284 99623.783 -76275.096 99731.532 -76382.845 99758.47 -76463.658 99758.47 -76517.532 99731.532 -76598.345 99623.783 -76706.094 99542.971 -76733.032 99489.096 -76733.032 99408.284 -76706.094 99300.534 -76598.345 99273.597 -76517.532 99273.597 -76463.658 99300.534 -76382.845 99408.284 -76275.096 99489.096 -76248.158 99542.971 -76248.158 99623.783 -76275.096 M 100889.841 -56790.155 100970.653 -56817.093 101051.465 -56897.905 101105.34 -57005.654 101105.34 -57113.404 101078.402 -57194.216 100997.59 -57328.903 100916.778 -57409.715 100782.091 -57490.528 100701.279 -57517.465 100593.529 -57517.465 100485.78 -57463.59 100431.905 -57409.715 100378.03 -57301.966 100378.03 -57248.091 100566.592 -57059.529 100674.341 -57167.279 M 100081.719 -57059.529 100647.404 -56493.844 99758.47 -56736.28 100324.155 -56170.595 M 99489.096 -56466.906 100054.781 -55901.221 99920.094 -55766.534 99812.345 -55712.659 99704.595 -55712.659 99623.783 -55739.597 99489.096 -55820.409 99408.284 -55901.221 99327.471 -56035.908 99300.534 -56116.72 99300.534 -56224.47 99354.409 -56332.219 99489.096 -56466.906 M 100862.903 -66923.218 100943.715 -66950.155 101024.528 -67030.967 101078.402 -67138.717 101078.402 -67246.467 101051.465 -67327.279 100970.653 -67461.966 100889.841 -67542.778 100755.154 -67623.59 100674.341 -67650.528 100566.592 -67650.528 100458.842 -67596.653 100404.967 -67542.778 100351.093 -67435.028 100351.093 -67381.154 100539.654 -67192.592 100647.404 -67300.341 M 100054.781 -67192.592 100620.467 -66626.906 100404.967 -66411.407 100324.155 -66384.47 100270.28 -66384.47 100189.468 -66411.407 100108.656 -66492.219 100081.719 -66573.032 100081.719 -66626.906 100108.656 -66707.719 100324.155 -66923.218 M 99785.407 -65791.847 100054.781 -66061.221 99812.345 -66357.532 99812.345 -66303.658 99785.407 -66222.845 99650.72 -66088.158 99569.908 -66061.221 99516.033 -66061.221 99435.221 -66088.158 99300.534 -66222.845 99273.597 -66303.658 99273.597 -66357.532 99300.534 -66438.345 99435.221 -66573.032 99516.033 -66599.969 99569.908 -66599.969 M 100862.903 -51683.218 100943.715 -51710.155 101024.528 -51790.967 101078.402 -51898.717 101078.402 -52006.467 101051.465 -52087.279 100970.653 -52221.966 100889.841 -52302.778 100755.154 -52383.59 100674.341 -52410.528 100566.592 -52410.528 100458.842 -52356.653 100404.967 -52302.778 100351.093 -52195.028 100351.093 -52141.154 100539.654 -51952.592 100647.404 -52060.341 M 100054.781 -51952.592 100620.467 -51386.906 100404.967 -51171.407 100324.155 -51144.47 100270.28 -51144.47 100189.468 -51171.407 100108.656 -51252.219 100081.719 -51333.032 100081.719 -51386.906 100108.656 -51467.719 100324.155 -51683.218 M 99947.032 -50713.471 99893.157 -50659.597 99812.345 -50632.659 99758.47 -50632.659 99677.658 -50659.597 99542.971 -50740.409 99408.284 -50875.096 99327.471 -51009.783 99300.534 -51090.595 99300.534 -51144.47 99327.471 -51225.282 99381.346 -51279.157 99462.158 -51306.094 99516.033 -51306.094 99596.845 -51279.157 99731.532 -51198.345 99866.219 -51063.658 99947.032 -50928.971 99973.969 -50848.158 99973.969 -50794.284 99947.032 -50713.471 M 100962.903 -54213.218 101043.715 -54240.155 101124.528 -54320.967 101178.402 -54428.717 101178.402 -54536.467 101151.465 -54617.279 101070.653 -54751.966 100989.841 -54832.778 100855.154 -54913.59 100774.341 -54940.528 100666.592 -54940.528 100558.842 -54886.653 100504.967 -54832.778 100451.093 -54725.028 100451.093 -54671.154 100639.654 -54482.592 100747.404 -54590.341 M 100154.781 -54482.592 100720.467 -53916.906 100504.967 -53701.407 100424.155 -53674.47 100370.28 -53674.47 100289.468 -53701.407 100208.656 -53782.219 100181.719 -53863.032 100181.719 -53916.906 100208.656 -53997.719 100424.155 -54213.218 M 99292.784 -53620.595 99616.033 -53943.844 M 99454.409 -53782.219 100020.094 -53216.534 99993.157 -53351.221 99993.157 -53458.971 100020.094 -53539.783 M 82263.277 -98307.592 82344.089 -98334.529 82424.902 -98415.341 82478.776 -98523.091 82478.776 -98630.841 82451.839 -98711.653 82371.027 -98846.34 82290.215 -98927.152 82155.528 -99007.964 82074.715 -99034.902 81966.966 -99034.902 81859.216 -98981.027 81805.341 -98927.152 81751.467 -98819.402 81751.467 -98765.528 81940.028 -98576.966 82047.778 -98684.715 M 81455.155 -98576.966 82020.841 -98011.28 81805.341 -97795.781 81724.529 -97768.844 81670.654 -97768.844 81589.842 -97795.781 81509.03 -97876.593 81482.093 -97957.406 81482.093 -98011.28 81509.03 -98092.093 81724.529 -98307.592 M 80593.158 -97714.969 80916.407 -98038.218 M 80754.783 -97876.593 81320.468 -97310.908 81293.531 -97445.595 81293.531 -97553.345 81320.468 -97634.157 M 80970.282 -96960.722 80593.158 -96583.598 80269.91 -97391.72 M 82263.277 -100847.592 82344.089 -100874.529 82424.902 -100955.341 82478.776 -101063.091 82478.776 -101170.841 82451.839 -101251.653 82371.027 -101386.34 82290.215 -101467.152 82155.528 -101547.964 82074.715 -101574.902 81966.966 -101574.902 81859.216 -101521.027 81805.341 -101467.152 81751.467 -101359.402 81751.467 -101305.528 81940.028 -101116.966 82047.778 -101224.715 M 81455.155 -101116.966 82020.841 -100551.28 81805.341 -100335.781 81724.529 -100308.844 81670.654 -100308.844 81589.842 -100335.781 81509.03 -100416.593 81482.093 -100497.406 81482.093 -100551.28 81509.03 -100632.093 81724.529 -100847.592 M 80593.158 -100254.969 80916.407 -100578.218 M 80754.783 -100416.593 81320.468 -99850.908 81293.531 -99985.595 81293.531 -100093.345 81320.468 -100174.157 M 80673.971 -99204.41 80781.72 -99312.16 80808.658 -99392.972 80808.658 -99446.847 80781.72 -99581.534 80700.908 -99716.221 80485.409 -99931.72 80404.597 -99958.658 80350.722 -99958.658 80269.91 -99931.72 80162.16 -99823.971 80135.223 -99743.158 80135.223 -99689.284 80162.16 -99608.471 80296.847 -99473.784 80377.659 -99446.847 80431.534 -99446.847 80512.346 -99473.784 80620.096 -99581.534 80647.033 -99662.346 80647.033 -99716.221 80620.096 -99797.033 M 82263.277 -93227.592 82344.089 -93254.529 82424.902 -93335.341 82478.776 -93443.091 82478.776 -93550.841 82451.839 -93631.653 82371.027 -93766.34 82290.215 -93847.152 82155.528 -93927.964 82074.715 -93954.902 81966.966 -93954.902 81859.216 -93901.027 81805.341 -93847.152 81751.467 -93739.402 81751.467 -93685.528 81940.028 -93496.966 82047.778 -93604.715 M 81455.155 -93496.966 82020.841 -92931.28 81805.341 -92715.781 81724.529 -92688.844 81670.654 -92688.844 81589.842 -92715.781 81509.03 -92796.593 81482.093 -92877.406 81482.093 -92931.28 81509.03 -93012.093 81724.529 -93227.592 M 80593.158 -92634.969 80916.407 -92958.218 M 80754.783 -92796.593 81320.468 -92230.908 81293.531 -92365.595 81293.531 -92473.345 81320.468 -92554.157 M 80593.158 -91988.471 80673.971 -92015.409 80727.845 -92015.409 80808.658 -91988.471 80835.595 -91961.534 80862.532 -91880.722 80862.532 -91826.847 80835.595 -91746.035 80727.845 -91638.285 80647.033 -91611.348 80593.158 -91611.348 80512.346 -91638.285 80485.409 -91665.223 80458.471 -91746.035 80458.471 -91799.91 80485.409 -91880.722 80593.158 -91988.471 80620.096 -92069.284 80620.096 -92123.158 80593.158 -92203.971 80485.409 -92311.72 80404.597 -92338.658 80350.722 -92338.658 80269.91 -92311.72 80162.16 -92203.971 80135.223 -92123.158 80135.223 -92069.284 80162.16 -91988.471 80269.91 -91880.722 80350.722 -91853.784 80404.597 -91853.784 80485.409 -91880.722 M 101386.277 -92592.592 101467.089 -92619.529 101547.902 -92700.341 101601.776 -92808.091 101601.776 -92915.841 101574.839 -92996.653 101494.027 -93131.34 101413.215 -93212.152 101278.528 -93292.964 101197.715 -93319.902 101089.966 -93319.902 100982.216 -93266.027 100928.341 -93212.152 100874.467 -93104.402 100874.467 -93050.528 101063.028 -92861.966 101170.778 -92969.715 M 100578.155 -92861.966 101143.841 -92296.28 100928.341 -92080.781 100847.529 -92053.844 100793.654 -92053.844 100712.842 -92080.781 100632.03 -92161.593 100605.093 -92242.406 100605.093 -92296.28 100632.03 -92377.093 100847.529 -92592.592 M 99716.158 -91999.969 100039.407 -92323.218 M 99877.783 -92161.593 100443.468 -91595.908 100416.531 -91730.595 100416.531 -91838.345 100443.468 -91919.157 M 100093.282 -91245.722 99743.096 -90895.536 99716.158 -91299.597 99635.346 -91218.784 99554.534 -91191.847 99500.659 -91191.847 99419.847 -91218.784 99285.16 -91353.471 99258.223 -91434.284 99258.223 -91488.158 99285.16 -91568.971 99446.784 -91730.595 99527.597 -91757.532 99581.471 -91757.532 M 83438.868 -61610.308 83088.682 -61260.122 83061.744 -61664.183 82980.932 -61583.37 82900.12 -61556.433 82846.245 -61556.433 82765.433 -61583.37 82630.746 -61718.057 82603.809 -61798.87 82603.809 -61852.744 82630.746 -61933.557 82792.37 -62095.181 82873.183 -62122.118 82927.057 -62122.118 M 82927.057 -61098.497 82172.81 -61475.621 82549.934 -60721.374 M 82415.247 -60586.687 82065.061 -60236.5 82038.123 -60640.561 81957.311 -60559.749 81876.499 -60532.812 81822.624 -60532.812 81741.812 -60559.749 81607.125 -60694.436 81580.187 -60775.248 81580.187 -60829.123 81607.125 -60909.935 81768.749 -61071.56 81849.561 -61098.497 81903.436 -61098.497 M 81337.751 -60748.311 80906.752 -60317.312 M 81122.251 -59832.439 80933.69 -59643.877 M 80556.566 -59859.377 80825.94 -60128.751 81391.625 -59563.065 81122.251 -59293.691 M 80314.129 -59616.94 80879.815 -59051.255 79990.881 -59293.691 80556.566 -58728.006 M 100862.903 -79623.218 100943.715 -79650.155 101024.528 -79730.967 101078.402 -79838.717 101078.402 -79946.467 101051.465 -80027.279 100970.653 -80161.966 100889.841 -80242.778 100755.154 -80323.59 100674.341 -80350.528 100566.592 -80350.528 100458.842 -80296.653 100404.967 -80242.778 100351.093 -80135.028 100351.093 -80081.154 100539.654 -79892.592 100647.404 -80000.341 M 100054.781 -79892.592 100620.467 -79326.906 100404.967 -79111.407 100324.155 -79084.47 100270.28 -79084.47 100189.468 -79111.407 100108.656 -79192.219 100081.719 -79273.032 100081.719 -79326.906 100108.656 -79407.719 100324.155 -79623.218 M 99462.158 -79299.969 99354.409 -79192.219 99327.471 -79111.407 99327.471 -79057.532 99354.409 -78922.845 99435.221 -78788.158 99650.72 -78572.659 99731.532 -78545.722 99785.407 -78545.722 99866.219 -78572.659 99973.969 -78680.409 100000.906 -78761.221 100000.906 -78815.096 99973.969 -78895.908 99839.282 -79030.595 99758.47 -79057.532 99704.595 -79057.532 99623.783 -79030.595 99516.033 -78922.845 99489.096 -78842.033 99489.096 -78788.158 99516.033 -78707.346 M 100962.903 -59303.218 101043.715 -59330.155 101124.528 -59410.967 101178.402 -59518.717 101178.402 -59626.467 101151.465 -59707.279 101070.653 -59841.966 100989.841 -59922.778 100855.154 -60003.59 100774.341 -60030.528 100666.592 -60030.528 100558.842 -59976.653 100504.967 -59922.778 100451.093 -59815.028 100451.093 -59761.154 100639.654 -59572.592 100747.404 -59680.341 M 100154.781 -59572.592 100720.467 -59006.906 100504.967 -58791.407 100424.155 -58764.47 100370.28 -58764.47 100289.468 -58791.407 100208.656 -58872.219 100181.719 -58953.032 100181.719 -59006.906 100208.656 -59087.719 100424.155 -59303.218 M 100127.844 -58522.033 100127.844 -58468.158 100100.906 -58387.346 99966.219 -58252.659 99885.407 -58225.722 99831.532 -58225.722 99750.72 -58252.659 99696.845 -58306.534 99642.971 -58414.284 99642.971 -59060.781 99292.784 -58710.595 M 101386.277 -84972.592 101467.089 -84999.529 101547.902 -85080.341 101601.776 -85188.091 101601.776 -85295.841 101574.839 -85376.653 101494.027 -85511.34 101413.215 -85592.152 101278.528 -85672.964 101197.715 -85699.902 101089.966 -85699.902 100982.216 -85646.027 100928.341 -85592.152 100874.467 -85484.402 100874.467 -85430.528 101063.028 -85241.966 101170.778 -85349.715 M 100578.155 -85241.966 101143.841 -84676.28 100928.341 -84460.781 100847.529 -84433.844 100793.654 -84433.844 100712.842 -84460.781 100632.03 -84541.593 100605.093 -84622.406 100605.093 -84676.28 100632.03 -84757.093 100847.529 -84972.592 M 99716.158 -84379.969 100039.407 -84703.218 M 99877.783 -84541.593 100443.468 -83975.908 100416.531 -84110.595 100416.531 -84218.345 100443.468 -84299.157 M 99931.658 -83464.097 99877.783 -83410.223 99796.971 -83383.285 99743.096 -83383.285 99662.284 -83410.223 99527.597 -83491.035 99392.91 -83625.722 99312.097 -83760.409 99285.16 -83841.221 99285.16 -83895.096 99312.097 -83975.908 99365.972 -84029.783 99446.784 -84056.72 99500.659 -84056.72 99581.471 -84029.783 99716.158 -83948.971 99850.845 -83814.284 99931.658 -83679.597 99958.595 -83598.784 99958.595 -83544.91 99931.658 -83464.097 M 100862.903 -64383.218 100943.715 -64410.155 101024.528 -64490.967 101078.402 -64598.717 101078.402 -64706.467 101051.465 -64787.279 100970.653 -64921.966 100889.841 -65002.778 100755.154 -65083.59 100674.341 -65110.528 100566.592 -65110.528 100458.842 -65056.653 100404.967 -65002.778 100351.093 -64895.028 100351.093 -64841.154 100539.654 -64652.592 100647.404 -64760.341 M 100054.781 -64652.592 100620.467 -64086.906 100404.967 -63871.407 100324.155 -63844.47 100270.28 -63844.47 100189.468 -63871.407 100108.656 -63952.219 100081.719 -64033.032 100081.719 -64086.906 100108.656 -64167.719 100324.155 -64383.218 M 99623.783 -63467.346 99246.659 -63844.47 M 99973.969 -63386.534 99704.595 -63925.282 99354.409 -63575.096 M 82305.526 -55396.966 81551.279 -55774.089 81928.402 -55019.842 M 81228.03 -55396.966 81120.28 -55343.091 80985.593 -55208.404 80958.656 -55127.592 80958.656 -55073.717 80985.593 -54992.905 81039.468 -54939.03 81120.28 -54912.093 81174.155 -54912.093 81254.967 -54939.03 81389.654 -55019.842 81470.467 -55046.78 81524.341 -55046.78 81605.154 -55019.842 81659.028 -54965.967 81685.966 -54885.155 81685.966 -54831.28 81659.028 -54750.468 81524.341 -54615.781 81416.592 -54561.906 M 80797.032 -54481.094 80527.658 -54750.468 M 81281.905 -54373.345 80797.032 -54481.094 80904.781 -53996.221 M 80204.409 -54373.345 80096.659 -54319.47 79961.972 -54184.783 79935.035 -54103.971 79935.035 -54050.096 79961.972 -53969.284 80015.847 -53915.409 80096.659 -53888.471 80150.534 -53888.471 80231.346 -53915.409 80366.033 -53996.221 80446.845 -54023.158 80500.72 -54023.158 80581.532 -53996.221 80635.407 -53942.346 80662.345 -53861.534 80662.345 -53807.659 80635.407 -53726.847 80500.72 -53592.16 80392.971 -53538.285 M 81982.277 -88147.592 82063.089 -88174.529 82143.902 -88255.341 82197.776 -88363.091 82197.776 -88470.841 82170.839 -88551.653 82090.027 -88686.34 82009.215 -88767.152 81874.528 -88847.964 81793.715 -88874.902 81685.966 -88874.902 81578.216 -88821.027 81524.341 -88767.152 81470.467 -88659.402 81470.467 -88605.528 81659.028 -88416.966 81766.778 -88524.715 M 81174.155 -88416.966 81739.841 -87851.28 81524.341 -87635.781 81443.529 -87608.844 81389.654 -87608.844 81308.842 -87635.781 81228.03 -87716.593 81201.093 -87797.406 81201.093 -87851.28 81228.03 -87932.093 81443.529 -88147.592 M 81147.218 -87366.407 81147.218 -87312.532 81120.28 -87231.72 80985.593 -87097.033 80904.781 -87070.096 80850.906 -87070.096 80770.094 -87097.033 80716.219 -87150.908 80662.345 -87258.658 80662.345 -87905.155 80312.158 -87554.969 M 80527.658 -86639.097 80473.783 -86585.223 80392.971 -86558.285 80339.096 -86558.285 80258.284 -86585.223 80123.597 -86666.035 79988.91 -86800.722 79908.097 -86935.409 79881.16 -87016.221 79881.16 -87070.096 79908.097 -87150.908 79961.972 -87204.783 80042.784 -87231.72 80096.659 -87231.72 80177.471 -87204.783 80312.158 -87123.971 80446.845 -86989.284 80527.658 -86854.597 80554.595 -86773.784 80554.595 -86719.91 80527.658 -86639.097 M 82263.277 -90687.592 82344.089 -90714.529 82424.902 -90795.341 82478.776 -90903.091 82478.776 -91010.841 82451.839 -91091.653 82371.027 -91226.34 82290.215 -91307.152 82155.528 -91387.964 82074.715 -91414.902 81966.966 -91414.902 81859.216 -91361.027 81805.341 -91307.152 81751.467 -91199.402 81751.467 -91145.528 81940.028 -90956.966 82047.778 -91064.715 M 81455.155 -90956.966 82020.841 -90391.28 81805.341 -90175.781 81724.529 -90148.844 81670.654 -90148.844 81589.842 -90175.781 81509.03 -90256.593 81482.093 -90337.406 81482.093 -90391.28 81509.03 -90472.093 81724.529 -90687.592 M 80593.158 -90094.969 80916.407 -90418.218 M 80754.783 -90256.593 81320.468 -89690.908 81293.531 -89825.595 81293.531 -89933.345 81320.468 -90014.157 M 80323.784 -89825.595 80216.035 -89717.845 80189.097 -89637.033 80189.097 -89583.158 80216.035 -89448.471 80296.847 -89313.784 80512.346 -89098.285 80593.158 -89071.348 80647.033 -89071.348 80727.845 -89098.285 80835.595 -89206.035 80862.532 -89286.847 80862.532 -89340.722 80835.595 -89421.534 80700.908 -89556.221 80620.096 -89583.158 80566.221 -89583.158 80485.409 -89556.221 80377.659 -89448.471 80350.722 -89367.659 80350.722 -89313.784 80377.659 -89232.972 M 100862.903 -72003.218 100943.715 -72030.155 101024.528 -72110.967 101078.402 -72218.717 101078.402 -72326.467 101051.465 -72407.279 100970.653 -72541.966 100889.841 -72622.778 100755.154 -72703.59 100674.341 -72730.528 100566.592 -72730.528 100458.842 -72676.653 100404.967 -72622.778 100351.093 -72515.028 100351.093 -72461.154 100539.654 -72272.592 100647.404 -72380.341 M 100054.781 -72272.592 100620.467 -71706.906 100404.967 -71491.407 100324.155 -71464.47 100270.28 -71464.47 100189.468 -71491.407 100108.656 -71572.219 100081.719 -71653.032 100081.719 -71706.906 100108.656 -71787.719 100324.155 -72003.218 M 99812.345 -70898.784 99920.094 -71006.534 99947.032 -71087.346 99947.032 -71141.221 99920.094 -71275.908 99839.282 -71410.595 99623.783 -71626.094 99542.971 -71653.032 99489.096 -71653.032 99408.284 -71626.094 99300.534 -71518.345 99273.597 -71437.532 99273.597 -71383.658 99300.534 -71302.845 99435.221 -71168.158 99516.033 -71141.221 99569.908 -71141.221 99650.72 -71168.158 99758.47 -71275.908 99785.407 -71356.72 99785.407 -71410.595 99758.47 -71491.407 M 100889.841 -82190.155 100970.653 -82217.093 101051.465 -82297.905 101105.34 -82405.654 101105.34 -82513.404 101078.402 -82594.216 100997.59 -82728.903 100916.778 -82809.715 100782.091 -82890.528 100701.279 -82917.465 100593.529 -82917.465 100485.78 -82863.59 100431.905 -82809.715 100378.03 -82701.966 100378.03 -82648.091 100566.592 -82459.529 100674.341 -82567.279 M 100081.719 -82459.529 100647.404 -81893.844 99758.47 -82136.28 100324.155 -81570.595 M 99489.096 -81866.906 100054.781 -81301.221 99920.094 -81166.534 99812.345 -81112.659 99704.595 -81112.659 99623.783 -81139.597 99489.096 -81220.409 99408.284 -81301.221 99327.471 -81435.908 99300.534 -81516.72 99300.534 -81624.47 99354.409 -81732.219 99489.096 -81866.906 M 84141.211 -68200.773 83871.837 -67931.399 M 84033.462 -68416.272 84410.585 -67662.025 83656.338 -68039.149 M 83467.776 -67850.587 84033.462 -67284.902 83898.775 -67150.215 83791.025 -67096.34 83683.276 -67096.34 83602.463 -67123.277 83467.776 -67204.089 83386.964 -67284.902 83306.152 -67419.589 83279.215 -67500.401 83279.215 -67608.15 83333.089 -67715.9 83467.776 -67850.587 M 82632.717 -66907.778 82632.717 -66961.653 82686.592 -67069.402 82740.467 -67123.277 82848.216 -67177.152 82955.966 -67177.152 83036.778 -67150.215 83171.465 -67069.402 83252.277 -66988.59 83333.089 -66853.903 83360.027 -66773.091 83360.027 -66665.341 83306.152 -66557.592 83252.277 -66503.717 83144.528 -66449.842 83090.653 -66449.842 M 82417.218 -66907.778 81986.219 -66476.78 M 82551.905 -65803.345 81797.658 -66180.468 82174.781 -65426.221 M 81097.285 -65480.096 81555.221 -65399.284 M 81420.534 -65803.345 81986.219 -65237.659 81770.72 -65022.16 81689.908 -64995.223 81636.033 -64995.223 81555.221 -65022.16 81474.409 -65102.972 81447.471 -65183.784 81447.471 -65237.659 81474.409 -65318.471 81689.908 -65533.971 M 81151.16 -64941.348 80962.598 -64752.786 M 80585.475 -64968.285 80854.849 -65237.659 81420.534 -64671.974 81151.16 -64402.6 M 80450.788 -64240.975 80639.349 -64429.537 M 80343.038 -64725.849 80908.723 -64160.163 80639.349 -63890.789 M 82263.277 -85607.592 82344.089 -85634.529 82424.902 -85715.341 82478.776 -85823.091 82478.776 -85930.841 82451.839 -86011.653 82371.027 -86146.34 82290.215 -86227.152 82155.528 -86307.964 82074.715 -86334.902 81966.966 -86334.902 81859.216 -86281.027 81805.341 -86227.152 81751.467 -86119.402 81751.467 -86065.528 81940.028 -85876.966 82047.778 -85984.715 M 81455.155 -85876.966 82020.841 -85311.28 81805.341 -85095.781 81724.529 -85068.844 81670.654 -85068.844 81589.842 -85095.781 81509.03 -85176.593 81482.093 -85257.406 81482.093 -85311.28 81509.03 -85392.093 81724.529 -85607.592 M 81428.218 -84826.407 81428.218 -84772.532 81401.28 -84691.72 81266.593 -84557.033 81185.781 -84530.096 81131.906 -84530.096 81051.094 -84557.033 80997.219 -84610.908 80943.345 -84718.658 80943.345 -85365.155 80593.158 -85014.969 M 80054.41 -84476.221 80377.659 -84799.47 M 80216.035 -84637.845 80781.72 -84072.16 80754.783 -84206.847 80754.783 -84314.597 80781.72 -84395.409 M 81187.624 -78270.435 81645.56 -78189.622 M 81510.873 -78593.683 82076.558 -78027.998 81861.059 -77812.499 81780.247 -77785.561 81726.372 -77785.561 81645.56 -77812.499 81564.748 -77893.311 81537.81 -77974.123 81537.81 -78027.998 81564.748 -78108.81 81780.247 -78324.309 M 81510.873 -77462.312 81052.937 -77920.248 80972.125 -77947.186 80918.25 -77947.186 80837.438 -77920.248 80729.688 -77812.499 80702.751 -77731.687 80702.751 -77677.812 80729.688 -77597 81187.624 -77139.064 M 80352.564 -77435.375 80918.25 -76869.69 80029.316 -77112.126 80595.001 -76546.441 M 101532.277 -87512.592 101613.089 -87539.529 101693.902 -87620.341 101747.776 -87728.091 101747.776 -87835.841 101720.839 -87916.653 101640.027 -88051.34 101559.215 -88132.152 101424.528 -88212.964 101343.715 -88239.902 101235.966 -88239.902 101128.216 -88186.027 101074.341 -88132.152 101020.467 -88024.402 101020.467 -87970.528 101209.028 -87781.966 101316.778 -87889.715 M 100724.155 -87781.966 101289.841 -87216.28 101074.341 -87000.781 100993.529 -86973.844 100939.654 -86973.844 100858.842 -87000.781 100778.03 -87081.593 100751.093 -87162.406 100751.093 -87216.28 100778.03 -87297.093 100993.529 -87512.592 M 99862.158 -86919.969 100185.407 -87243.218 M 100023.783 -87081.593 100589.468 -86515.908 100562.531 -86650.595 100562.531 -86758.345 100589.468 -86839.157 M 99323.41 -86381.221 99646.659 -86704.47 M 99485.035 -86542.845 100050.72 -85977.16 100023.783 -86111.847 100023.783 -86219.597 100050.72 -86300.409 M 100889.841 -94890.155 100970.653 -94917.093 101051.465 -94997.905 101105.34 -95105.654 101105.34 -95213.404 101078.402 -95294.216 100997.59 -95428.903 100916.778 -95509.715 100782.091 -95590.528 100701.279 -95617.465 100593.529 -95617.465 100485.78 -95563.59 100431.905 -95509.715 100378.03 -95401.966 100378.03 -95348.091 100566.592 -95159.529 100674.341 -95267.279 M 100081.719 -95159.529 100647.404 -94593.844 99758.47 -94836.28 100324.155 -94270.595 M 99489.096 -94566.906 100054.781 -94001.221 99920.094 -93866.534 99812.345 -93812.659 99704.595 -93812.659 99623.783 -93839.597 99489.096 -93920.409 99408.284 -94001.221 99327.471 -94135.908 99300.534 -94216.72 99300.534 -94324.47 99354.409 -94432.219 99489.096 -94566.906 M 100762.903 -74513.218 100843.715 -74540.155 100924.528 -74620.967 100978.402 -74728.717 100978.402 -74836.467 100951.465 -74917.279 100870.653 -75051.966 100789.841 -75132.778 100655.154 -75213.59 100574.341 -75240.528 100466.592 -75240.528 100358.842 -75186.653 100304.967 -75132.778 100251.093 -75025.028 100251.093 -74971.154 100439.654 -74782.592 100547.404 -74890.341 M 99954.781 -74782.592 100520.467 -74216.906 100304.967 -74001.407 100224.155 -73974.47 100170.28 -73974.47 100089.468 -74001.407 100008.656 -74082.219 99981.719 -74163.032 99981.719 -74216.906 100008.656 -74297.719 100224.155 -74513.218 M 100008.656 -73705.096 99631.532 -73327.972 99308.284 -74136.094 M 81982.277 -80527.592 82063.089 -80554.529 82143.902 -80635.341 82197.776 -80743.091 82197.776 -80850.841 82170.839 -80931.653 82090.027 -81066.34 82009.215 -81147.152 81874.528 -81227.964 81793.715 -81254.902 81685.966 -81254.902 81578.216 -81201.027 81524.341 -81147.152 81470.467 -81039.402 81470.467 -80985.528 81659.028 -80796.966 81766.778 -80904.715 M 81174.155 -80796.966 81739.841 -80231.28 81524.341 -80015.781 81443.529 -79988.844 81389.654 -79988.844 81308.842 -80015.781 81228.03 -80096.593 81201.093 -80177.406 81201.093 -80231.28 81228.03 -80312.093 81443.529 -80527.592 M 81147.218 -79746.407 81147.218 -79692.532 81120.28 -79611.72 80985.593 -79477.033 80904.781 -79450.096 80850.906 -79450.096 80770.094 -79477.033 80716.219 -79530.908 80662.345 -79638.658 80662.345 -80285.155 80312.158 -79934.969 M 80608.47 -79207.659 80608.47 -79153.784 80581.532 -79072.972 80446.845 -78938.285 80366.033 -78911.348 80312.158 -78911.348 80231.346 -78938.285 80177.471 -78992.16 80123.597 -79099.91 80123.597 -79746.407 79773.41 -79396.221 M 82036.152 -62747.592 81685.966 -62397.406 81659.028 -62801.467 81578.216 -62720.654 81497.404 -62693.717 81443.529 -62693.717 81362.717 -62720.654 81228.03 -62855.341 81201.093 -62936.154 81201.093 -62990.028 81228.03 -63070.841 81389.654 -63232.465 81470.467 -63259.402 81524.341 -63259.402 M 81524.341 -62235.781 80770.094 -62612.905 81147.218 -61858.658 M 81012.531 -61723.971 80662.345 -61373.784 80635.407 -61777.845 80554.595 -61697.033 80473.783 -61670.096 80419.908 -61670.096 80339.096 -61697.033 80204.409 -61831.72 80177.471 -61912.532 80177.471 -61966.407 80204.409 -62047.219 80366.033 -62208.844 80446.845 -62235.781 80500.72 -62235.781 M 82372.87 -52924.309 81618.622 -53301.433 81995.746 -52547.186 M 81349.248 -52439.436 81241.499 -52385.561 81187.624 -52385.561 81106.812 -52412.499 81026 -52493.311 80999.062 -52574.123 80999.062 -52627.998 81026 -52708.81 81241.499 -52924.309 81807.184 -52358.624 81618.622 -52170.062 81537.81 -52143.125 81483.935 -52143.125 81403.123 -52170.062 81349.248 -52223.937 81322.311 -52304.749 81322.311 -52358.624 81349.248 -52439.436 81537.81 -52627.998 M 81241.499 -51792.938 80783.563 -52250.874 80702.751 -52277.812 80648.876 -52277.812 80568.064 -52250.874 80460.314 -52143.125 80433.377 -52062.312 80433.377 -52008.438 80460.314 -51927.625 80918.25 -51469.69 M 80137.065 -51766.001 80029.316 -51712.126 79894.629 -51577.439 79867.691 -51496.627 79867.691 -51442.752 79894.629 -51361.94 79948.503 -51308.065 80029.316 -51281.128 80083.19 -51281.128 80164.003 -51308.065 80298.69 -51388.877 80379.502 -51415.815 80433.377 -51415.815 80514.189 -51388.877 80568.064 -51335.003 80595.001 -51254.19 80595.001 -51200.316 80568.064 -51119.503 80433.377 -50984.816 80325.627 -50930.942 M 82263.277 -72907.592 82344.089 -72934.529 82424.902 -73015.341 82478.776 -73123.091 82478.776 -73230.841 82451.839 -73311.653 82371.027 -73446.34 82290.215 -73527.152 82155.528 -73607.964 82074.715 -73634.902 81966.966 -73634.902 81859.216 -73581.027 81805.341 -73527.152 81751.467 -73419.402 81751.467 -73365.528 81940.028 -73176.966 82047.778 -73284.715 M 81455.155 -73176.966 82020.841 -72611.28 81805.341 -72395.781 81724.529 -72368.844 81670.654 -72368.844 81589.842 -72395.781 81509.03 -72476.593 81482.093 -72557.406 81482.093 -72611.28 81509.03 -72692.093 81724.529 -72907.592 M 81428.218 -72126.407 81428.218 -72072.532 81401.28 -71991.72 81266.593 -71857.033 81185.781 -71830.096 81131.906 -71830.096 81051.094 -71857.033 80997.219 -71910.908 80943.345 -72018.658 80943.345 -72665.155 80593.158 -72314.969 M 80970.282 -71560.722 80593.158 -71183.598 80269.91 -71991.72 M 100889.841 -69490.155 100970.653 -69517.093 101051.465 -69597.905 101105.34 -69705.654 101105.34 -69813.404 101078.402 -69894.216 100997.59 -70028.903 100916.778 -70109.715 100782.091 -70190.528 100701.279 -70217.465 100593.529 -70217.465 100485.78 -70163.59 100431.905 -70109.715 100378.03 -70001.966 100378.03 -69948.091 100566.592 -69759.529 100674.341 -69867.279 M 100081.719 -69759.529 100647.404 -69193.844 99758.47 -69436.28 100324.155 -68870.595 M 99489.096 -69166.906 100054.781 -68601.221 99920.094 -68466.534 99812.345 -68412.659 99704.595 -68412.659 99623.783 -68439.597 99489.096 -68520.409 99408.284 -68601.221 99327.471 -68735.908 99300.534 -68816.72 99300.534 -68924.47 99354.409 -69032.219 99489.096 -69166.906 M 101432.277 -97672.592 101513.089 -97699.529 101593.902 -97780.341 101647.776 -97888.091 101647.776 -97995.841 101620.839 -98076.653 101540.027 -98211.34 101459.215 -98292.152 101324.528 -98372.964 101243.715 -98399.902 101135.966 -98399.902 101028.216 -98346.027 100974.341 -98292.152 100920.467 -98184.402 100920.467 -98130.528 101109.028 -97941.966 101216.778 -98049.715 M 100624.155 -97941.966 101189.841 -97376.28 100974.341 -97160.781 100893.529 -97133.844 100839.654 -97133.844 100758.842 -97160.781 100678.03 -97241.593 100651.093 -97322.406 100651.093 -97376.28 100678.03 -97457.093 100893.529 -97672.592 M 99762.158 -97079.969 100085.407 -97403.218 M 99923.783 -97241.593 100489.468 -96675.908 100462.531 -96810.595 100462.531 -96918.345 100489.468 -96999.157 M 99654.409 -96217.972 99277.285 -96595.096 M 100004.595 -96137.16 99735.221 -96675.908 99385.035 -96325.722 M 101386.277 -100212.592 101467.089 -100239.529 101547.902 -100320.341 101601.776 -100428.091 101601.776 -100535.841 101574.839 -100616.653 101494.027 -100751.34 101413.215 -100832.152 101278.528 -100912.964 101197.715 -100939.902 101089.966 -100939.902 100982.216 -100886.027 100928.341 -100832.152 100874.467 -100724.402 100874.467 -100670.528 101063.028 -100481.966 101170.778 -100589.715 M 100578.155 -100481.966 101143.841 -99916.28 100928.341 -99700.781 100847.529 -99673.844 100793.654 -99673.844 100712.842 -99700.781 100632.03 -99781.593 100605.093 -99862.406 100605.093 -99916.28 100632.03 -99997.093 100847.529 -100212.592 M 99716.158 -99619.969 100039.407 -99943.218 M 99877.783 -99781.593 100443.468 -99215.908 100416.531 -99350.595 100416.531 -99458.345 100443.468 -99539.157 M 99770.033 -98542.473 100039.407 -98811.847 99796.971 -99108.158 99796.971 -99054.284 99770.033 -98973.471 99635.346 -98838.784 99554.534 -98811.847 99500.659 -98811.847 99419.847 -98838.784 99285.16 -98973.471 99258.223 -99054.284 99258.223 -99108.158 99285.16 -99188.971 99419.847 -99323.658 99500.659 -99350.595 99554.534 -99350.595 M 101532.277 -90052.592 101613.089 -90079.529 101693.902 -90160.341 101747.776 -90268.091 101747.776 -90375.841 101720.839 -90456.653 101640.027 -90591.34 101559.215 -90672.152 101424.528 -90752.964 101343.715 -90779.902 101235.966 -90779.902 101128.216 -90726.027 101074.341 -90672.152 101020.467 -90564.402 101020.467 -90510.528 101209.028 -90321.966 101316.778 -90429.715 M 100724.155 -90321.966 101289.841 -89756.28 101074.341 -89540.781 100993.529 -89513.844 100939.654 -89513.844 100858.842 -89540.781 100778.03 -89621.593 100751.093 -89702.406 100751.093 -89756.28 100778.03 -89837.093 100993.529 -90052.592 M 99862.158 -89459.969 100185.407 -89783.218 M 100023.783 -89621.593 100589.468 -89055.908 100562.531 -89190.595 100562.531 -89298.345 100589.468 -89379.157 M 100158.47 -88732.659 100158.47 -88678.784 100131.532 -88597.972 99996.845 -88463.285 99916.033 -88436.348 99862.158 -88436.348 99781.346 -88463.285 99727.471 -88517.16 99673.597 -88624.91 99673.597 -89271.407 99323.41 -88921.221 M 100862.903 -61843.218 100943.715 -61870.155 101024.528 -61950.967 101078.402 -62058.717 101078.402 -62166.467 101051.465 -62247.279 100970.653 -62381.966 100889.841 -62462.778 100755.154 -62543.59 100674.341 -62570.528 100566.592 -62570.528 100458.842 -62516.653 100404.967 -62462.778 100351.093 -62355.028 100351.093 -62301.154 100539.654 -62112.592 100647.404 -62220.341 M 100054.781 -62112.592 100620.467 -61546.906 100404.967 -61331.407 100324.155 -61304.47 100270.28 -61304.47 100189.468 -61331.407 100108.656 -61412.219 100081.719 -61493.032 100081.719 -61546.906 100108.656 -61627.719 100324.155 -61843.218 M 100108.656 -61035.096 99758.47 -60684.91 99731.532 -61088.971 99650.72 -61008.158 99569.908 -60981.221 99516.033 -60981.221 99435.221 -61008.158 99300.534 -61142.845 99273.597 -61223.658 99273.597 -61277.532 99300.534 -61358.345 99462.158 -61519.969 99542.971 -61546.906 99596.845 -61546.906 M 82263.277 -67827.592 82344.089 -67854.529 82424.902 -67935.341 82478.776 -68043.091 82478.776 -68150.841 82451.839 -68231.653 82371.027 -68366.34 82290.215 -68447.152 82155.528 -68527.964 82074.715 -68554.902 81966.966 -68554.902 81859.216 -68501.027 81805.341 -68447.152 81751.467 -68339.402 81751.467 -68285.528 81940.028 -68096.966 82047.778 -68204.715 M 81455.155 -68096.966 82020.841 -67531.28 81805.341 -67315.781 81724.529 -67288.844 81670.654 -67288.844 81589.842 -67315.781 81509.03 -67396.593 81482.093 -67477.406 81482.093 -67531.28 81509.03 -67612.093 81724.529 -67827.592 M 81428.218 -67046.407 81428.218 -66992.532 81401.28 -66911.72 81266.593 -66777.033 81185.781 -66750.096 81131.906 -66750.096 81051.094 -66777.033 80997.219 -66830.908 80943.345 -66938.658 80943.345 -67585.155 80593.158 -67234.969 M 80593.158 -66588.471 80673.971 -66615.409 80727.845 -66615.409 80808.658 -66588.471 80835.595 -66561.534 80862.532 -66480.722 80862.532 -66426.847 80835.595 -66346.035 80727.845 -66238.285 80647.033 -66211.348 80593.158 -66211.348 80512.346 -66238.285 80485.409 -66265.223 80458.471 -66346.035 80458.471 -66399.91 80485.409 -66480.722 80593.158 -66588.471 80620.096 -66669.284 80620.096 -66723.158 80593.158 -66803.971 80485.409 -66911.72 80404.597 -66938.658 80350.722 -66938.658 80269.91 -66911.72 80162.16 -66803.971 80135.223 -66723.158 80135.223 -66669.284 80162.16 -66588.471 80269.91 -66480.722 80350.722 -66453.784 80404.597 -66453.784 80485.409 -66480.722 M 82263.277 -75447.592 82344.089 -75474.529 82424.902 -75555.341 82478.776 -75663.091 82478.776 -75770.841 82451.839 -75851.653 82371.027 -75986.34 82290.215 -76067.152 82155.528 -76147.964 82074.715 -76174.902 81966.966 -76174.902 81859.216 -76121.027 81805.341 -76067.152 81751.467 -75959.402 81751.467 -75905.528 81940.028 -75716.966 82047.778 -75824.715 M 81455.155 -75716.966 82020.841 -75151.28 81805.341 -74935.781 81724.529 -74908.844 81670.654 -74908.844 81589.842 -74935.781 81509.03 -75016.593 81482.093 -75097.406 81482.093 -75151.28 81509.03 -75232.093 81724.529 -75447.592 M 81428.218 -74666.407 81428.218 -74612.532 81401.28 -74531.72 81266.593 -74397.033 81185.781 -74370.096 81131.906 -74370.096 81051.094 -74397.033 80997.219 -74450.908 80943.345 -74558.658 80943.345 -75205.155 80593.158 -74854.969 M 80673.971 -73804.41 80781.72 -73912.16 80808.658 -73992.972 80808.658 -74046.847 80781.72 -74181.534 80700.908 -74316.221 80485.409 -74531.72 80404.597 -74558.658 80350.722 -74558.658 80269.91 -74531.72 80162.16 -74423.971 80135.223 -74343.158 80135.223 -74289.284 80162.16 -74208.471 80296.847 -74073.784 80377.659 -74046.847 80431.534 -74046.847 80512.346 -74073.784 80620.096 -74181.534 80647.033 -74262.346 80647.033 -74316.221 80620.096 -74397.033" fill="none" stroke-width="150"/></g></svg>